<?xml version="1.0" encoding="utf-8"?>
<!-- Generator: Adobe Illustrator 16.0.0, SVG Export Plug-In . SVG Version: 6.00 Build 0)  -->
<!DOCTYPE svg PUBLIC "-//W3C//DTD SVG 1.1//EN" "http://www.w3.org/Graphics/SVG/1.1/DTD/svg11.dtd">
<svg version="1.1" id="Capa_1" xmlns="http://www.w3.org/2000/svg" xmlns:xlink="http://www.w3.org/1999/xlink" x="0px" y="0px"
	 width="206.922px" height="86.523px" viewBox="0 0 206.922 86.523" enable-background="new 0 0 206.922 86.523"
	 xml:space="preserve">
<rect y="0.001" fill="#023881" stroke="#023881" stroke-miterlimit="10" width="206.922" height="86.522"/>
<path fill-rule="evenodd" clip-rule="evenodd" fill="#ECB51E" d="M163.958,43.121l2.691-0.242c0.127,1.089,0.424,1.98,0.892,2.681
	c0.469,0.696,1.195,1.261,2.178,1.693c0.983,0.429,2.091,0.646,3.321,0.646c1.094,0,2.056-0.162,2.893-0.489
	s1.457-0.776,1.864-1.345c0.408-0.57,0.614-1.19,0.614-1.854c0-0.677-0.195-1.266-0.589-1.775c-0.394-0.503-1.043-0.927-1.95-1.274
	c-0.58-0.222-1.865-0.575-3.855-1.054c-1.99-0.479-3.382-0.927-4.179-1.351c-1.032-0.543-1.798-1.219-2.303-2.021
	c-0.508-0.8-0.76-1.703-0.76-2.695c0-1.1,0.312-2.122,0.932-3.07c0.619-0.952,1.522-1.674,2.717-2.167
	c1.189-0.494,2.514-0.742,3.971-0.742c1.603,0,3.019,0.258,4.243,0.777c1.225,0.514,2.167,1.274,2.828,2.283
	c0.659,1.003,1.013,2.142,1.063,3.412l-2.752,0.211c-0.146-1.365-0.645-2.399-1.496-3.094c-0.853-0.701-2.111-1.048-3.774-1.048
	c-1.733,0-2.999,0.318-3.79,0.952c-0.791,0.636-1.189,1.401-1.189,2.298c0,0.777,0.282,1.417,0.843,1.92
	c0.554,0.5,1.99,1.019,4.317,1.542c2.328,0.529,3.926,0.988,4.793,1.382c1.255,0.58,2.188,1.31,2.786,2.202
	c0.601,0.887,0.898,1.911,0.898,3.07c0,1.153-0.328,2.232-0.988,3.25s-1.603,1.81-2.837,2.374s-2.621,0.847-4.169,0.847
	c-1.954,0-3.593-0.288-4.913-0.857c-1.324-0.569-2.358-1.426-3.108-2.574C164.393,45.862,163.999,44.568,163.958,43.121
	L163.958,43.121z M182.69,50.075l8.305-21.649h3.15l8.813,21.649h-3.261l-2.504-6.562h-9.117l-2.349,6.562H182.69L182.69,50.075z
	 M188.919,41.185h7.379l-2.259-6.002c-0.681-1.824-1.194-3.331-1.551-4.521c-0.299,1.412-0.696,2.798-1.195,4.168L188.919,41.185z"
	/>
<path fill-rule="evenodd" clip-rule="evenodd" fill="#0078BE" d="M97.48,49.848V28.198h4.293l5.121,15.327
	c0.474,1.426,0.816,2.493,1.034,3.204c0.246-0.785,0.635-1.945,1.158-3.472l5.211-15.059h3.835v21.651h-2.751V31.736l-6.32,18.112
	h-2.58l-6.249-18.444v18.444H97.48L97.48,49.848z M122.79,49.848V28.198h15.633v2.541h-12.761v6.652h11.943v2.54h-11.943v7.379
	h13.274v2.539H122.79L122.79,49.848z M158.317,42.254l2.873,0.726c-0.6,2.353-1.678,4.143-3.235,5.377s-3.462,1.854-5.714,1.854
	c-2.329,0-4.223-0.475-5.686-1.426c-1.461-0.948-2.57-2.324-3.331-4.124c-0.76-1.803-1.144-3.734-1.144-5.799
	c0-2.252,0.428-4.219,1.289-5.897c0.863-1.677,2.087-2.953,3.675-3.824c1.587-0.873,3.336-1.305,5.241-1.305
	c2.167,0,3.986,0.549,5.458,1.652c1.477,1.104,2.504,2.65,3.084,4.646l-2.812,0.666c-0.499-1.573-1.23-2.722-2.184-3.437
	c-0.951-0.721-2.151-1.08-3.597-1.08c-1.658,0-3.049,0.399-4.163,1.195c-1.113,0.796-1.9,1.871-2.349,3.211
	c-0.454,1.345-0.681,2.731-0.681,4.157c0,1.839,0.268,3.447,0.802,4.817c0.534,1.376,1.366,2.399,2.494,3.079
	c1.129,0.68,2.349,1.019,3.664,1.019c1.602,0,2.953-0.464,4.062-1.386C157.175,45.449,157.925,44.078,158.317,42.254z"/>
<linearGradient id="SVGID_1_" gradientUnits="userSpaceOnUse" x1="53.4863" y1="12.8235" x2="55.5574" y2="72.1304">
	<stop  offset="0" style="stop-color:#AB1D21"/>
	<stop  offset="0.52" style="stop-color:#EC1C24"/>
	<stop  offset="0.86" style="stop-color:#F0583E"/>
	<stop  offset="1" style="stop-color:#F05C40"/>
</linearGradient>
<polygon fill-rule="evenodd" clip-rule="evenodd" fill="url(#SVGID_1_)" points="45.197,12.976 45.197,33.203 25.03,33.203 
	25.03,49.876 45.039,49.876 45.039,71.958 64.252,71.958 64.252,49.876 83.942,49.876 83.942,33.045 63.935,33.045 63.935,12.976 
	"/>
<text transform="matrix(1.0167 0 0 1 97.4375 57.6365)"><tspan x="0" y="0" fill="#FFFFFF" font-family="'ArialMT'" font-size="5.0762">E</tspan><tspan x="3.386" y="0" fill="#FFFFFF" font-family="'ArialMT'" font-size="5.0762">SPECIALISTAS EN SALUD OCUPACIONAL</tspan></text>
<g>
	<path fill-rule="evenodd" clip-rule="evenodd" fill="#FFCA05" d="M103.052,28.665c0,0-0.514,0.169-0.851,0.408
		c-0.336,0.241-2.77,4.544-2.77,4.544s-0.402,0.986-0.66,1.345c-0.596,0.832-2.387,1.667-2.387,1.667l-0.07,0.039
		c-0.343,0.107-1.469,0.431-2.428,0.389c-0.183-0.007-0.522-0.323-0.522-0.555c0-0.234,0.737-1.885,0.737-1.885
		s-1.114-2.492-1.202-3.503c-0.07-0.786-0.234-2.666,1.07-4.352c1.303-1.685,2.817-2.371,4.121-2.521
		c1.304-0.149,2.264,0.321,3.069,0.969s1.635,1.603,1.635,1.603c0.124,0.008,0.223,0.047,0.299,0.115l0.564,0.582
		c0.117-0.061,0.218-0.056,0.3,0.017c0,0,0.218,0.26,0.162,0.61c-0.038,0.235-0.226,0.376-0.409,0.459
		c-0.182,0.083-0.646,0.079-0.646,0.079l0.001,0.001L103.052,28.665z"/>
	<path fill-rule="evenodd" clip-rule="evenodd" fill="#231F20" d="M102.2,29.075c-0.045,0.033-0.13,0.141-0.241,0.301
		c-0.223,0.187-0.415,0.42-0.56,0.661l-2.349,3.893c-0.025,0.069-0.27,0.673-0.92,1.212c-0.681,0.566-2.152,1.301-2.977,1.532
		c-0.713,0.201-1.361,0.211-1.673,0.104c-0.029-0.038-0.054-0.077-0.074-0.115l0.031-0.047c0.188,0.125,0.864,0.163,1.681-0.066
		c0.81-0.228,2.263-0.955,2.93-1.507c0.334-0.278,0.73-0.747,0.885-1.169l2.354-3.903c0.193-0.324,0.549-0.732,0.902-0.913
		L102.2,29.075L102.2,29.075z M94.051,34.728c0.118,0.187,0.343,0.337,0.625,0.243c1.183-0.389,2.463-0.993,3.838-1.811
		c0.199-0.118,0.4-0.241,0.603-0.369c0.27-0.155,0.508-0.48,0.635-0.763c0.069-0.112,1.614-2.605,2.058-2.942
		c0.461-0.349,1.336-0.558,1.896-0.745c0.162-0.054,0.206-0.228,0.217-0.352c0.012-0.132-0.011-0.261-0.011-0.261
		c-0.041-0.095-0.109-0.176-0.184-0.248c-0.023,0.006-0.046,0.016-0.07,0.029l-0.007-0.008l-0.042,0.046
		c0.09,0.082,0.146,0.155,0.177,0.218c0.018,0.123,0.028,0.401-0.121,0.451c-0.583,0.195-1.45,0.399-1.933,0.765
		c-0.245,0.187-0.772,0.94-1.229,1.631c-0.461,0.697-0.868,1.354-0.88,1.385c-0.013-0.07-0.04-0.138-0.081-0.195
		c-0.047-0.063-0.113-0.187-0.188-0.298c-0.108-0.159-0.338-0.392-0.53-0.196l-0.034,0.039l-0.035,0.044
		c-0.227,0.274-0.732,0.474-1.039,0.674c-0.143,0.091-0.108,0.272-0.054,0.399c0.012,0.03,0.025,0.054,0.025,0.054l0.474,0.572
		c0.03,0.029,0.062,0.053,0.097,0.069l0,0c-1.297,0.756-2.505,1.319-3.622,1.688c-0.244,0.08-0.443-0.083-0.516-0.273l-0.031,0.012
		l0.012,0.031L94.051,34.728L94.051,34.728z M97.387,24.372c-1.274,0.587-3.253,2.361-2.801,6.042
		c0.205,1.324,1.073,1.826,1.947,1.783c0.791-0.039,1.657-0.478,2.298-1.352c0.135-0.147,0.265-0.331,0.399-0.529
		c0.346-0.519,0.798-1.38,1.249-1.742c0.589-0.47,1.514-0.92,2.216-1.232c0.277-0.072,0.328-0.288,0.196-0.515
		c-0.03-0.006-0.062-0.011-0.096-0.013l-0.034-0.04l-0.041,0.034c0.12,0.149,0.183,0.308-0.01,0.392
		c-0.029,0.013-0.057,0.02-0.057,0.02c-0.709,0.312-1.657,0.777-2.253,1.252c-0.297,0.236-0.584,0.675-0.861,1.116
		c-0.254,0.404-0.499,0.843-0.827,1.19c-0.282,0.336-1.257,0.972-2.055,1.022c-0.566,0.037-1.72-0.315-1.797-1.442
		c-0.216-3.25,2.003-4.798,2.877-5.312c1.079-0.633,2.634-0.31,3.157,0.001l0.017-0.027c-0.146-0.106-0.296-0.203-0.451-0.293
		c-0.735-0.221-1.907-0.313-2.789,0.207c-0.887,0.521-3.164,2.108-2.942,5.434c0.086,1.236,1.344,1.601,1.936,1.563
		c0.498-0.033,1.054-0.275,1.485-0.542c-0.512,0.432-1.089,0.653-1.623,0.679c-0.809,0.04-1.617-0.413-1.813-1.671
		c-0.511-4.176,2.155-5.828,3.234-6.087l0,0l-0.012-0.046C97.756,24.287,97.572,24.323,97.387,24.372L97.387,24.372z M99.471,32.247
		L99.471,32.247c0-0.001,0.084-0.207-0.034-0.365c-0.07-0.094-0.344-0.662-0.52-0.482l-0.063,0.075
		c-0.251,0.307-0.735,0.485-1.068,0.7c-0.088,0.058-0.012,0.232,0.01,0.272l0.443,0.535c0,0,0.08,0.113,0.215,0.063
		c0.196-0.117,0.396-0.238,0.596-0.364c0.158-0.091,0.311-0.256,0.428-0.43L99.471,32.247z"/>
	<path fill-rule="evenodd" clip-rule="evenodd" fill="#231F20" d="M101.429,27.881c0.068-0.03,0.264,0.127,0.146,0.206
		c-0.117,0.079-0.855,0.543-0.923,0.633c-0.069,0.086-0.162,0.15-0.262,0.15s-0.224-0.023-0.125-0.181
		S101.429,27.881,101.429,27.881z"/>
</g>
<g>
	
		<path fill-rule="evenodd" clip-rule="evenodd" fill="#FFFFFF" stroke="#FFFFFF" stroke-width="0.5669" stroke-miterlimit="22.9256" d="
		M4.44,43.097c2.818,2.664,12.144,12.575,16.724,6.359c1.701-2.914,3.202-3.459,4.296-2.73c1.985,1.63,5.653-8.166,9.529-12.872
		c1.968-3.12,5.674-0.816,8.639,4.193c0.883-1.832,2.493-2.864,4.879-3.616c6.591-11.295,9.147-16.25,13.319-11.234
		c2.773,2.983,5.503,6.84,8.971,11.274c5.036,1.544,5.887,7.633,10.592,8.108c2.571,0.88,3.818,2.423,5.474,3.713L75.07,58.942
		l-11.236,2.444c-6.828-4.575-15.802-2.216-25.001,0.87c-4.727,0.165-18.619-4.321-22.23-6.607
		C12.844,52.12,8.041,48.643,4.44,43.097z"/>
	<path opacity="0.5" fill-rule="evenodd" clip-rule="evenodd" fill="#ACC3DF" d="M17.317,52.764l4.265-2.995l5.448-2.608
		l3.411-5.219l4.297-6.076l1.741-2.802l1.532-0.161l3.974,3.012l1.846,2.615l1.844-1.549l2.784-1.994l0.348,0.678
		c-3.245,2.643-4.321,0.812-3.498,7.801l-0.227,6.776l-1.373-11.045l-3.351-4.21l-2.635-1.468
		c-1.724,8.634-3.042,6.143-3.406,13.643c-1.768-0.533-5.152,0.294-6.211,1.348c-0.538,0.688-0.558,1.891-1.793,1.659
		C24.354,48.862,21.725,53.903,17.317,52.764z"/>
	<path opacity="0.5" fill-rule="evenodd" clip-rule="evenodd" fill="#ACC3DF" d="M56.831,40.901
		c-1.708-2.254-4.23-4.208-8.663-5.458l3.272-5.122l1.479-3.146l4.113-5.055l2.715-0.59C56.982,31.139,55.513,35.148,56.831,40.901z
		"/>
	<polygon opacity="0.5" fill-rule="evenodd" clip-rule="evenodd" fill="#ACC3DF" points="66.893,32.101 67.699,42.855 68.236,31.86 
			"/>
	<path opacity="0.5" fill-rule="evenodd" clip-rule="evenodd" fill="#ACC3DF" d="M70.969,34.904l1.371,0.242
		c0.387,4.834-0.032,6.332-0.474,9.51C71.523,41.037,71.895,39.433,70.969,34.904z"/>
	<path opacity="0.5" fill-rule="evenodd" clip-rule="evenodd" fill="#ACC3DF" d="M75.748,38.373
		c-0.208,2.287-0.448,1.874-0.135,4.651c0.313,2.778,0.726,2.135,0.931,6.392c0.547-4.804-0.458-5.607,0.088-10.168L75.748,38.373z"
		/>
	<path opacity="0.5" fill-rule="evenodd" clip-rule="evenodd" fill="#ACC3DF" d="M80.754,42.478c0.38,3.057,1.219,10.225,1.19,7.152
		c-0.031-3.072-0.485-3.611-0.176-6.461L80.754,42.478z"/>
	<path fill-rule="evenodd" clip-rule="evenodd" fill="#0078BE" d="M4.524,42.859c2.819,2.664,12.024,12.581,16.604,6.365
		c1.701-2.914,3.202-3.459,4.296-2.73c1.985,1.63,5.653-8.166,9.529-12.872c1.968-3.12,5.674-0.816,8.639,4.193
		c0.883-1.832,2.494-2.864,4.878-3.616c6.591-11.295,9.148-16.25,13.319-11.234c2.773,2.983,5.503,6.841,8.971,11.274
		c5.035,1.544,5.887,7.633,10.591,8.108c2.573,0.88,3.819,2.423,5.474,3.713c-0.386,0.725-1.014,1.259-1.559,1.106
		c-0.879-1.42-1.878-2.4-4.249-3.423c-5.242-1.04-5.535-6.275-10.166-7.979c-4.696-3.646-6.484-8.514-9.223-11.497
		c-4.118-5.018-6.314,0.099-12.823,11.396c-2.355,0.751-4.075,2.039-4.947,3.871c-3.689-3.966-6.014-8.066-7.958-4.947
		c-3.663,5.109-5.282,8.468-7.674,12.548c-1.894,3.229-2.428-0.395-5.271,2.989C17.013,57.86,7.959,47.776,4.524,42.859z"/>
	
		<path fill-rule="evenodd" clip-rule="evenodd" fill="#0078BE" stroke="#0078BE" stroke-width="0.5669" stroke-miterlimit="22.9256" d="
		M39.856,61.072c10.473-5.04,18.755-6.824,24.629-1.65l-0.769,1.221C58.382,56.398,49.564,58.062,39.856,61.072z"/>
</g>
<g>
	<path fill-rule="evenodd" clip-rule="evenodd" stroke="#000000" stroke-width="0.2835" stroke-miterlimit="22.9256" d="
		M86.772,53.309c-4.35,2.556-5.945,3.512-10.916,3.952c-6.157,0.808-9.547-0.842-11.77-3.34c-2.681-2.526-3.726-6.84-3.731-9.52
		c1.009-0.207,2.049-1.043,3.056-2.363c0.579-0.652,1.042-1.317,1.417-2.151c0,0-0.152-0.195-0.382-0.284
		c-0.18-0.072-0.45-0.049-0.45-0.049c-0.057,0.229-2.146,4.039-4.169,3.982c-2.092-0.059-4.339-3.442-4.389-3.604
		c0,0-0.2-0.032-0.39,0.143c-0.206,0.143-0.351,0.339-0.351,0.339s0.609,0.873,1.393,1.803c0.95,1.213,2.229,2.015,3.229,2.196
		c0.557,5.098,1.463,7.988,4.426,10.792c2.727,2.154,4.911,3.823,11.88,3.152c5.285-0.744,7.451-1.5,12.237-4.321L86.772,53.309z"/>
	<g>
		
			<path fill-rule="evenodd" clip-rule="evenodd" fill="#000001" stroke="#000001" stroke-width="0.2835" stroke-miterlimit="22.9256" d="
			M87.689,50.049c1.391-0.581,3.05-0.057,3.709,1.172c0.658,1.228,0.064,2.696-1.326,3.276c-1.391,0.582-3.05,0.057-3.708-1.171
			C85.705,52.097,86.298,50.631,87.689,50.049z"/>
		
			<path fill-rule="evenodd" clip-rule="evenodd" fill="none" stroke="#000001" stroke-width="0.2835" stroke-miterlimit="22.9256" d="
			M87.689,50.049c1.391-0.581,3.05-0.057,3.709,1.172c0.658,1.228,0.064,2.696-1.326,3.276c-1.391,0.582-3.05,0.057-3.708-1.171
			C85.705,52.097,86.298,50.631,87.689,50.049z"/>
		
			<path fill-rule="evenodd" clip-rule="evenodd" fill="#FFFFFF" stroke="#000001" stroke-width="0.2835" stroke-miterlimit="22.9256" d="
			M87.876,50.188c1.279-0.535,2.807-0.052,3.413,1.078c0.605,1.129,0.059,2.479-1.221,3.015c-1.279,0.535-2.806,0.052-3.412-1.078
			C86.052,52.073,86.598,50.723,87.876,50.188z"/>
		
			<path fill-rule="evenodd" clip-rule="evenodd" fill="none" stroke="#000001" stroke-width="0.2835" stroke-miterlimit="22.9256" d="
			M87.876,50.188c1.279-0.535,2.807-0.052,3.413,1.078c0.605,1.129,0.059,2.479-1.221,3.015c-1.279,0.535-2.806,0.052-3.412-1.078
			C86.052,52.073,86.598,50.723,87.876,50.188z"/>
		
			<path fill-rule="evenodd" clip-rule="evenodd" fill="none" stroke="#000001" stroke-width="0.2835" stroke-miterlimit="22.9256" d="
			M87.897,50.102c1.223-0.511,2.682-0.051,3.26,1.03c0.579,1.08,0.056,2.37-1.167,2.881c-1.222,0.512-2.682,0.052-3.26-1.03
			C86.153,51.904,86.674,50.614,87.897,50.102z"/>
		
			<path fill-rule="evenodd" clip-rule="evenodd" fill="#FFFFFF" stroke="#000001" stroke-width="0.2835" stroke-miterlimit="22.9256" d="
			M88.43,50.502c0.925-0.387,2.028-0.038,2.467,0.779c0.437,0.816,0.042,1.792-0.882,2.178c-0.925,0.388-2.028,0.039-2.465-0.778
			C87.11,51.864,87.506,50.888,88.43,50.502z"/>
		
			<path fill-rule="evenodd" clip-rule="evenodd" fill="none" stroke="#000001" stroke-width="0.2835" stroke-miterlimit="22.9256" d="
			M88.43,50.502c0.925-0.387,2.028-0.038,2.467,0.779c0.437,0.816,0.042,1.792-0.882,2.178c-0.925,0.388-2.028,0.039-2.465-0.778
			C87.11,51.864,87.506,50.888,88.43,50.502z"/>
		
			<path fill-rule="evenodd" clip-rule="evenodd" fill="none" stroke="#000001" stroke-width="0.2835" stroke-miterlimit="22.9256" d="
			M88.46,50.564c0.854-0.357,1.875-0.035,2.279,0.72c0.404,0.755,0.039,1.656-0.815,2.013c-0.854,0.357-1.875,0.035-2.278-0.719
			C87.242,51.823,87.606,50.922,88.46,50.564z"/>
		<g>
			<g>
				
					<path fill-rule="evenodd" clip-rule="evenodd" fill="none" stroke="#000001" stroke-width="0.2835" stroke-miterlimit="22.9256" d="
					M89.855,53.163c0.741-0.309,1.055-1.089,0.706-1.742s-1.232-0.933-1.972-0.624c-0.739,0.311-1.056,1.091-0.707,1.743
					C88.232,53.193,89.116,53.472,89.855,53.163"/>
			</g>
			<g>
				<path fill-rule="evenodd" clip-rule="evenodd" fill="#E7E6E8" d="M88.535,50.696L88.535,50.696
					c-0.803,0.336-1.146,1.183-0.765,1.892c0.379,0.709,1.338,1.013,2.141,0.677c0.802-0.336,1.145-1.184,0.765-1.893
					C90.296,50.665,89.337,50.362,88.535,50.696L88.535,50.696L88.535,50.696z M88.467,50.557c0.887-0.37,1.946-0.035,2.366,0.748
					c0.419,0.784,0.04,1.721-0.846,2.09c-0.886,0.372-1.946,0.036-2.365-0.746C87.202,51.865,87.581,50.928,88.467,50.557z"/>
				
					<path fill-rule="evenodd" clip-rule="evenodd" fill="none" stroke="#000001" stroke-width="0.2835" stroke-miterlimit="22.9256" d="
					M88.535,50.696L88.535,50.696c-0.803,0.336-1.146,1.183-0.765,1.892c0.379,0.709,1.338,1.013,2.141,0.677
					c0.802-0.336,1.145-1.184,0.765-1.893C90.296,50.665,89.337,50.362,88.535,50.696 M88.467,50.557
					c0.887-0.37,1.946-0.035,2.366,0.748c0.419,0.784,0.04,1.721-0.846,2.09c-0.886,0.372-1.946,0.036-2.365-0.746
					C87.202,51.865,87.581,50.928,88.467,50.557z"/>
			</g>
			<g>
				
					<path fill-rule="evenodd" clip-rule="evenodd" fill="none" stroke="#000001" stroke-width="0.2835" stroke-miterlimit="22.9256" d="
					M89.855,53.163c0.741-0.309,1.055-1.089,0.706-1.742s-1.232-0.933-1.972-0.624c-0.739,0.311-1.056,1.091-0.707,1.743
					C88.232,53.193,89.116,53.472,89.855,53.163"/>
			</g>
			<g>
				<path fill-rule="evenodd" clip-rule="evenodd" fill="#D8DBDB" d="M88.608,50.832L88.608,50.832
					c-0.718,0.3-1.025,1.058-0.685,1.692c0.34,0.634,1.197,0.905,1.915,0.604c0.717-0.3,1.023-1.059,0.685-1.692
					C90.183,50.802,89.324,50.532,88.608,50.832L88.608,50.832L88.608,50.832z M88.54,50.692c0.802-0.335,1.76-0.031,2.141,0.678
					c0.379,0.708,0.037,1.556-0.765,1.891c-0.803,0.335-1.762,0.033-2.141-0.676C87.395,51.876,87.737,51.028,88.54,50.692z"/>
				
					<path fill-rule="evenodd" clip-rule="evenodd" fill="none" stroke="#000001" stroke-width="0.2835" stroke-miterlimit="22.9256" d="
					M88.608,50.832L88.608,50.832c-0.718,0.3-1.025,1.058-0.685,1.692c0.34,0.634,1.197,0.905,1.915,0.604
					c0.717-0.3,1.023-1.059,0.685-1.692C90.183,50.802,89.324,50.532,88.608,50.832 M88.54,50.692
					c0.802-0.335,1.76-0.031,2.141,0.678c0.379,0.708,0.037,1.556-0.765,1.891c-0.803,0.335-1.762,0.033-2.141-0.676
					C87.395,51.876,87.737,51.028,88.54,50.692z"/>
			</g>
			<g>
				
					<path fill-rule="evenodd" clip-rule="evenodd" fill="none" stroke="#000001" stroke-width="0.2835" stroke-miterlimit="22.9256" d="
					M89.855,53.163c0.741-0.309,1.055-1.089,0.706-1.742s-1.232-0.933-1.972-0.624c-0.739,0.311-1.056,1.091-0.707,1.743
					C88.232,53.193,89.116,53.472,89.855,53.163"/>
			</g>
			<g>
				<path fill-rule="evenodd" clip-rule="evenodd" fill="#C9CBCE" d="M88.68,50.968L88.68,50.968
					c-0.633,0.264-0.904,0.933-0.604,1.492c0.3,0.561,1.056,0.8,1.69,0.534c0.634-0.265,0.904-0.934,0.604-1.492
					C90.07,50.941,89.313,50.702,88.68,50.968L88.68,50.968L88.68,50.968z M88.604,50.832c0.718-0.3,1.576-0.029,1.915,0.604
					c0.34,0.634,0.033,1.393-0.685,1.692c-0.717,0.301-1.575,0.029-1.915-0.605C87.58,51.889,87.886,51.132,88.604,50.832z"/>
				
					<path fill-rule="evenodd" clip-rule="evenodd" fill="none" stroke="#000001" stroke-width="0.2835" stroke-miterlimit="22.9256" d="
					M88.68,50.968L88.68,50.968c-0.633,0.264-0.904,0.933-0.604,1.492c0.3,0.561,1.056,0.8,1.69,0.534
					c0.634-0.265,0.904-0.934,0.604-1.492C90.07,50.941,89.313,50.702,88.68,50.968 M88.604,50.832
					c0.718-0.3,1.576-0.029,1.915,0.604c0.34,0.634,0.033,1.393-0.685,1.692c-0.717,0.301-1.575,0.029-1.915-0.605
					C87.58,51.889,87.886,51.132,88.604,50.832z"/>
			</g>
			<g>
				
					<path fill-rule="evenodd" clip-rule="evenodd" fill="none" stroke="#000001" stroke-width="0.2835" stroke-miterlimit="22.9256" d="
					M89.855,53.163c0.741-0.309,1.055-1.089,0.706-1.742s-1.232-0.933-1.972-0.624c-0.739,0.311-1.056,1.091-0.707,1.743
					C88.232,53.193,89.116,53.472,89.855,53.163"/>
			</g>
			<g>
				<path fill-rule="evenodd" clip-rule="evenodd" fill="#BEC0C2" d="M88.751,51.102L88.751,51.102
					c-0.547,0.229-0.782,0.809-0.523,1.293c0.26,0.486,0.917,0.692,1.464,0.464c0.549-0.23,0.784-0.81,0.523-1.295
					C89.958,51.08,89.3,50.872,88.751,51.102L88.751,51.102L88.751,51.102z M88.676,50.968c0.634-0.266,1.39-0.026,1.69,0.534
					c0.299,0.559,0.028,1.228-0.604,1.492s-1.391,0.026-1.689-0.534C87.772,51.9,88.042,51.231,88.676,50.968z"/>
				
					<path fill-rule="evenodd" clip-rule="evenodd" fill="none" stroke="#000001" stroke-width="0.2835" stroke-miterlimit="22.9256" d="
					M88.751,51.102L88.751,51.102c-0.547,0.229-0.782,0.809-0.523,1.293c0.26,0.486,0.917,0.692,1.464,0.464
					c0.549-0.23,0.784-0.81,0.523-1.295C89.958,51.08,89.3,50.872,88.751,51.102 M88.676,50.968c0.634-0.266,1.39-0.026,1.69,0.534
					c0.299,0.559,0.028,1.228-0.604,1.492s-1.391,0.026-1.689-0.534C87.772,51.9,88.042,51.231,88.676,50.968z"/>
			</g>
			<g>
				
					<path fill-rule="evenodd" clip-rule="evenodd" fill="none" stroke="#000001" stroke-width="0.2835" stroke-miterlimit="22.9256" d="
					M89.855,53.163c0.741-0.309,1.055-1.089,0.706-1.742s-1.232-0.933-1.972-0.624c-0.739,0.311-1.056,1.091-0.707,1.743
					C88.232,53.193,89.116,53.472,89.855,53.163"/>
			</g>
			<g>
				<path fill-rule="evenodd" clip-rule="evenodd" fill="#B1B3B4" d="M88.824,51.237L88.824,51.237
					c-0.464,0.193-0.662,0.685-0.443,1.095c0.22,0.411,0.775,0.586,1.24,0.393c0.463-0.195,0.663-0.686,0.442-1.097
					C89.844,51.219,89.289,51.043,88.824,51.237L88.824,51.237L88.824,51.237z M88.749,51.102c0.548-0.23,1.204-0.022,1.464,0.462
					c0.26,0.485,0.025,1.064-0.524,1.295c-0.548,0.229-1.204,0.021-1.463-0.464C87.965,51.911,88.2,51.331,88.749,51.102z"/>
				
					<path fill-rule="evenodd" clip-rule="evenodd" fill="none" stroke="#000001" stroke-width="0.2835" stroke-miterlimit="22.9256" d="
					M88.824,51.237L88.824,51.237c-0.464,0.193-0.662,0.685-0.443,1.095c0.22,0.411,0.775,0.586,1.24,0.393
					c0.463-0.195,0.663-0.686,0.442-1.097C89.844,51.219,89.289,51.043,88.824,51.237 M88.749,51.102
					c0.548-0.23,1.204-0.022,1.464,0.462c0.26,0.485,0.025,1.064-0.524,1.295c-0.548,0.229-1.204,0.021-1.463-0.464
					C87.965,51.911,88.2,51.331,88.749,51.102z"/>
			</g>
			<g>
				
					<path fill-rule="evenodd" clip-rule="evenodd" fill="none" stroke="#000001" stroke-width="0.2835" stroke-miterlimit="22.9256" d="
					M89.855,53.163c0.741-0.309,1.055-1.089,0.706-1.742s-1.232-0.933-1.972-0.624c-0.739,0.311-1.056,1.091-0.707,1.743
					C88.232,53.193,89.116,53.472,89.855,53.163"/>
			</g>
			<g>
				<path fill-rule="evenodd" clip-rule="evenodd" fill="#A2A6A9" d="M88.897,51.372L88.897,51.372
					c-0.38,0.159-0.542,0.561-0.363,0.896s0.635,0.479,1.015,0.319c0.379-0.158,0.541-0.56,0.361-0.896
					C89.73,51.357,89.277,51.214,88.897,51.372L88.897,51.372L88.897,51.372z M88.825,51.244c0.463-0.193,1.02-0.019,1.238,0.393
					c0.221,0.409,0.022,0.899-0.442,1.095c-0.464,0.193-1.02,0.019-1.24-0.392C88.162,51.929,88.36,51.439,88.825,51.244z"/>
				
					<path fill-rule="evenodd" clip-rule="evenodd" fill="none" stroke="#000001" stroke-width="0.2835" stroke-miterlimit="22.9256" d="
					M88.897,51.372L88.897,51.372c-0.38,0.159-0.542,0.561-0.363,0.896s0.635,0.479,1.015,0.319c0.379-0.158,0.541-0.56,0.361-0.896
					C89.73,51.357,89.277,51.214,88.897,51.372 M88.825,51.244c0.463-0.193,1.02-0.019,1.238,0.393
					c0.221,0.409,0.022,0.899-0.442,1.095c-0.464,0.193-1.02,0.019-1.24-0.392C88.162,51.929,88.36,51.439,88.825,51.244z"/>
			</g>
			<g>
				
					<path fill-rule="evenodd" clip-rule="evenodd" fill="none" stroke="#000001" stroke-width="0.2835" stroke-miterlimit="22.9256" d="
					M89.855,53.163c0.741-0.309,1.055-1.089,0.706-1.742s-1.232-0.933-1.972-0.624c-0.739,0.311-1.056,1.091-0.707,1.743
					C88.232,53.193,89.116,53.472,89.855,53.163"/>
			</g>
			<g>
				<path fill-rule="evenodd" clip-rule="evenodd" fill="#989B9E" d="M88.97,51.508L88.97,51.508
					c-0.296,0.123-0.423,0.437-0.282,0.696c0.14,0.261,0.493,0.374,0.789,0.249c0.294-0.123,0.421-0.436,0.282-0.696
					C89.617,51.495,89.265,51.384,88.97,51.508L88.97,51.508L88.97,51.508z M88.893,51.372c0.38-0.158,0.834-0.015,1.014,0.32
					c0.18,0.336,0.018,0.737-0.363,0.896c-0.38,0.16-0.834,0.017-1.014-0.319C88.351,51.932,88.513,51.531,88.893,51.372z"/>
				
					<path fill-rule="evenodd" clip-rule="evenodd" fill="none" stroke="#000001" stroke-width="0.2835" stroke-miterlimit="22.9256" d="
					M88.97,51.508L88.97,51.508c-0.296,0.123-0.423,0.437-0.282,0.696c0.14,0.261,0.493,0.374,0.789,0.249
					c0.294-0.123,0.421-0.436,0.282-0.696C89.617,51.495,89.265,51.384,88.97,51.508 M88.893,51.372
					c0.38-0.158,0.834-0.015,1.014,0.32c0.18,0.336,0.018,0.737-0.363,0.896c-0.38,0.16-0.834,0.017-1.014-0.319
					C88.351,51.932,88.513,51.531,88.893,51.372z"/>
			</g>
			<g>
				
					<path fill-rule="evenodd" clip-rule="evenodd" fill="none" stroke="#000001" stroke-width="0.2835" stroke-miterlimit="22.9256" d="
					M89.855,53.163c0.741-0.309,1.055-1.089,0.706-1.742s-1.232-0.933-1.972-0.624c-0.739,0.311-1.056,1.091-0.707,1.743
					C88.232,53.193,89.116,53.472,89.855,53.163"/>
			</g>
			<g>
				<path fill-rule="evenodd" clip-rule="evenodd" fill="#8C8D91" d="M89.042,51.642L89.042,51.642
					c-0.211,0.089-0.302,0.312-0.202,0.497c0.1,0.187,0.352,0.267,0.563,0.179s0.3-0.312,0.201-0.498S89.253,51.554,89.042,51.642
					L89.042,51.642L89.042,51.642z M88.965,51.508c0.296-0.124,0.65-0.013,0.789,0.249c0.141,0.261,0.014,0.573-0.282,0.696
					c-0.295,0.125-0.647,0.012-0.789-0.249C88.545,51.942,88.67,51.631,88.965,51.508z"/>
				
					<path fill-rule="evenodd" clip-rule="evenodd" fill="none" stroke="#000001" stroke-width="0.2835" stroke-miterlimit="22.9256" d="
					M89.042,51.642L89.042,51.642c-0.211,0.089-0.302,0.312-0.202,0.497c0.1,0.187,0.352,0.267,0.563,0.179s0.3-0.312,0.201-0.498
					S89.253,51.554,89.042,51.642 M88.965,51.508c0.296-0.124,0.65-0.013,0.789,0.249c0.141,0.261,0.014,0.573-0.282,0.696
					c-0.295,0.125-0.647,0.012-0.789-0.249C88.545,51.942,88.67,51.631,88.965,51.508z"/>
			</g>
			<g>
				
					<path fill-rule="evenodd" clip-rule="evenodd" fill="none" stroke="#000001" stroke-width="0.2835" stroke-miterlimit="22.9256" d="
					M89.855,53.163c0.741-0.309,1.055-1.089,0.706-1.742s-1.232-0.933-1.972-0.624c-0.739,0.311-1.056,1.091-0.707,1.743
					C88.232,53.193,89.116,53.472,89.855,53.163"/>
			</g>
			<g>
				<path fill-rule="evenodd" clip-rule="evenodd" fill="#7F8283" d="M89.114,51.778L89.114,51.778
					c-0.125,0.053-0.181,0.187-0.121,0.298c0.061,0.112,0.211,0.16,0.338,0.107s0.181-0.187,0.121-0.3
					C89.392,51.772,89.241,51.725,89.114,51.778L89.114,51.778L89.114,51.778z M89.038,51.642c0.211-0.088,0.463-0.009,0.563,0.178
					c0.101,0.187,0.009,0.41-0.201,0.498c-0.211,0.088-0.464,0.008-0.564-0.179C88.737,51.954,88.826,51.731,89.038,51.642z"/>
				
					<path fill-rule="evenodd" clip-rule="evenodd" fill="none" stroke="#000001" stroke-width="0.2835" stroke-miterlimit="22.9256" d="
					M89.114,51.778L89.114,51.778c-0.125,0.053-0.181,0.187-0.121,0.298c0.061,0.112,0.211,0.16,0.338,0.107s0.181-0.187,0.121-0.3
					C89.392,51.772,89.241,51.725,89.114,51.778 M89.038,51.642c0.211-0.088,0.463-0.009,0.563,0.178
					c0.101,0.187,0.009,0.41-0.201,0.498c-0.211,0.088-0.464,0.008-0.564-0.179C88.737,51.954,88.826,51.731,89.038,51.642z"/>
			</g>
			<g>
				
					<path fill-rule="evenodd" clip-rule="evenodd" fill="none" stroke="#000001" stroke-width="0.2835" stroke-miterlimit="22.9256" d="
					M89.855,53.163c0.741-0.309,1.055-1.089,0.706-1.742s-1.232-0.933-1.972-0.624c-0.739,0.311-1.056,1.091-0.707,1.743
					C88.232,53.193,89.116,53.472,89.855,53.163"/>
			</g>
			<g>
				<path fill-rule="evenodd" clip-rule="evenodd" fill="#757679" d="M89.187,51.913L89.187,51.913
					c-0.042,0.018-0.06,0.063-0.041,0.1c0.021,0.037,0.07,0.054,0.113,0.036c0.042-0.018,0.061-0.063,0.041-0.101
					C89.279,51.911,89.229,51.895,89.187,51.913L89.187,51.913L89.187,51.913z M89.12,51.775c0.125-0.055,0.277-0.006,0.337,0.106
					c0.06,0.111,0.006,0.245-0.121,0.298c-0.127,0.053-0.277,0.005-0.338-0.106C88.938,51.962,88.993,51.828,89.12,51.775z"/>
				
					<path fill-rule="evenodd" clip-rule="evenodd" fill="none" stroke="#000001" stroke-width="0.2835" stroke-miterlimit="22.9256" d="
					M89.187,51.913L89.187,51.913c-0.042,0.018-0.06,0.063-0.041,0.1c0.021,0.037,0.07,0.054,0.113,0.036
					c0.042-0.018,0.061-0.063,0.041-0.101C89.279,51.911,89.229,51.895,89.187,51.913 M89.12,51.775
					c0.125-0.055,0.277-0.006,0.337,0.106c0.06,0.111,0.006,0.245-0.121,0.298c-0.127,0.053-0.277,0.005-0.338-0.106
					C88.938,51.962,88.993,51.828,89.12,51.775z"/>
			</g>
			<g>
				
					<path fill-rule="evenodd" clip-rule="evenodd" fill="none" stroke="#000001" stroke-width="0.2835" stroke-miterlimit="22.9256" d="
					M89.855,53.163c0.741-0.309,1.055-1.089,0.706-1.742s-1.232-0.933-1.972-0.624c-0.739,0.311-1.056,1.091-0.707,1.743
					C88.232,53.193,89.116,53.472,89.855,53.163"/>
			</g>
			
				<path fill-rule="evenodd" clip-rule="evenodd" fill="#68696B" stroke="#000001" stroke-width="0.2835" stroke-miterlimit="22.9256" d="
				M89.191,51.91c0.042-0.018,0.093-0.003,0.113,0.035c0.02,0.037,0.001,0.082-0.042,0.1c-0.042,0.018-0.091,0.001-0.112-0.036
				C89.131,51.971,89.149,51.927,89.191,51.91z"/>
		</g>
		
			<path fill-rule="evenodd" clip-rule="evenodd" fill="none" stroke="#000001" stroke-width="0.2835" stroke-miterlimit="22.9256" d="
			M88.589,50.797c0.739-0.309,1.622-0.029,1.972,0.624s0.035,1.434-0.706,1.742c-0.739,0.31-1.622,0.03-1.972-0.623
			C87.533,51.887,87.85,51.107,88.589,50.797z"/>
		<g>
			<g>
				
					<polyline fill-rule="evenodd" clip-rule="evenodd" fill="none" stroke="#000001" stroke-width="0.2835" stroke-miterlimit="22.9256" points="
					87.618,52.651 86.336,53.776 86.912,54.288 88.192,53.162 87.618,52.651 				"/>
			</g>
			
				<path fill-rule="evenodd" clip-rule="evenodd" fill="#000001" stroke="#000001" stroke-width="0.2835" stroke-miterlimit="22.9256" d="
				M87.744,52.726l-0.1-0.098l-1.36,1.096L87.744,52.726z M87.744,52.726"/>
			<g>
				
					<polyline fill-rule="evenodd" clip-rule="evenodd" fill="none" stroke="#000001" stroke-width="0.2835" stroke-miterlimit="22.9256" points="
					87.618,52.651 86.336,53.776 86.912,54.288 88.192,53.162 87.618,52.651 				"/>
			</g>
			
				<path fill-rule="evenodd" clip-rule="evenodd" fill="#444647" stroke="#000001" stroke-width="0.2835" stroke-miterlimit="22.9256" d="
				M87.845,52.824l-0.101-0.098l-1.36,1.095L87.845,52.824z M87.845,52.824"/>
			<g>
				
					<polyline fill-rule="evenodd" clip-rule="evenodd" fill="none" stroke="#000001" stroke-width="0.2835" stroke-miterlimit="22.9256" points="
					87.618,52.651 86.336,53.776 86.912,54.288 88.192,53.162 87.618,52.651 				"/>
			</g>
			
				<path fill-rule="evenodd" clip-rule="evenodd" fill="#6B6E70" stroke="#000001" stroke-width="0.2835" stroke-miterlimit="22.9256" d="
				M87.946,52.922l-0.101-0.098l-1.361,1.096L87.946,52.922z M87.946,52.922"/>
			<g>
				
					<polyline fill-rule="evenodd" clip-rule="evenodd" fill="none" stroke="#000001" stroke-width="0.2835" stroke-miterlimit="22.9256" points="
					87.618,52.651 86.336,53.776 86.912,54.288 88.192,53.162 87.618,52.651 				"/>
			</g>
			
				<path fill-rule="evenodd" clip-rule="evenodd" fill="#8C8D91" stroke="#000001" stroke-width="0.2835" stroke-miterlimit="22.9256" d="
				M88.047,53.018l-0.101-0.097l-1.361,1.097L88.047,53.018z M88.047,53.018"/>
			<g>
				
					<polyline fill-rule="evenodd" clip-rule="evenodd" fill="none" stroke="#000001" stroke-width="0.2835" stroke-miterlimit="22.9256" points="
					87.618,52.651 86.336,53.776 86.912,54.288 88.192,53.162 87.618,52.651 				"/>
			</g>
			
				<path fill-rule="evenodd" clip-rule="evenodd" fill="#ADB0B3" stroke="#000001" stroke-width="0.2835" stroke-miterlimit="22.9256" d="
				M88.147,53.116l-0.1-0.098l-1.361,1.096L88.147,53.116z M88.147,53.116"/>
			<g>
				
					<polyline fill-rule="evenodd" clip-rule="evenodd" fill="none" stroke="#000001" stroke-width="0.2835" stroke-miterlimit="22.9256" points="
					87.618,52.651 86.336,53.776 86.912,54.288 88.192,53.162 87.618,52.651 				"/>
			</g>
			
				<path fill-rule="evenodd" clip-rule="evenodd" fill="#CED0D1" stroke="#000001" stroke-width="0.2835" stroke-miterlimit="22.9256" d="
				M88.247,53.214l-0.1-0.098l-1.361,1.097L88.247,53.214z M88.247,53.214"/>
		</g>
		
			<polygon fill-rule="evenodd" clip-rule="evenodd" fill="none" stroke="#000001" stroke-width="0.2835" stroke-miterlimit="22.9256" points="
			86.337,53.776 87.618,52.651 88.192,53.163 86.912,54.288 		"/>
	</g>
	
		<path fill-rule="evenodd" clip-rule="evenodd" fill="#CED0D1" stroke="#000001" stroke-width="0.2835" stroke-miterlimit="22.9256" d="
		M66.097,36.326c-1.747,2.478-3.551,3.75-5.759,4.219c-2.208,0.47-3.414,0.096-4.663-0.67c-1.248-0.766-1.641-2.407-1.641-2.407
		l-0.177,0.146c0,0.002,0.161,1.037,0.967,1.999c0.809,0.967,2.738,2.053,5.35,1.755c2.176-0.248,3.725-1.432,4.807-2.476
		c1.084-1.047,1.634-2.032,1.635-2.035L66.097,36.326z"/>
	<g>
		
			<path fill-rule="evenodd" clip-rule="evenodd" fill="none" stroke="#000001" stroke-width="0.2835" stroke-miterlimit="22.9256" d="
			M66.097,36.326c-1.747,2.478-3.551,3.75-5.759,4.219c-2.208,0.47-3.414,0.096-4.663-0.67c-1.248-0.766-1.641-2.407-1.641-2.407
			l-0.177,0.146c0,0.002,0.161,1.037,0.967,1.999c0.809,0.967,2.738,2.053,5.35,1.755c2.176-0.248,3.725-1.432,4.807-2.476
			c1.084-1.047,1.634-2.032,1.635-2.035L66.097,36.326"/>
	</g>
	
		<path fill-rule="evenodd" clip-rule="evenodd" fill="#000001" stroke="#000001" stroke-width="0.2835" stroke-miterlimit="22.9256" d="
		M53.104,37.185c0,0.003,0.169,1.038,1.021,2c0.856,0.967,2.415,1.87,5.178,1.574c2.303-0.248,4.03-1.37,5.174-2.413
		c1.148-1.045,1.729-2.031,1.73-2.034l-0.233-0.052c0,0-0.143,0.242-0.426,0.613c-1.201,1.568-3.339,3.417-6.284,3.733
		c-3.34,0.359-5.057-1.11-5.728-2.819c-0.145-0.369-0.186-0.619-0.186-0.619L53.104,37.185z"/>
	
		<path fill-rule="evenodd" clip-rule="evenodd" fill="none" stroke="#000001" stroke-width="0.2835" stroke-linejoin="round" stroke-miterlimit="22.9256" d="
		M66.011,36.326c-1.747,2.478-3.551,3.75-5.76,4.219c-2.208,0.47-3.414,0.096-4.663-0.67c-1.248-0.766-1.926-2.228-1.926-2.228
		l-0.207,0.131c0.001,0.002,0.477,0.871,1.282,1.833c0.809,0.967,2.739,2.053,5.35,1.755c2.177-0.248,3.725-1.432,4.807-2.476
		c1.084-1.047,1.634-2.032,1.635-2.035L66.011,36.326z"/>
	
		<path fill-rule="evenodd" clip-rule="evenodd" fill="#CED0D1" stroke="#000001" stroke-width="0.2835" stroke-miterlimit="22.9256" d="
		M64.994,39.564l-0.66-0.299c4.231-5.892,3.92-8.455,3.801-8.779c-0.12-0.321-1.405-1.582-1.405-1.582l-0.133-0.634
		c0,0,1.341,1.1,1.623,1.452c0.282,0.351,0.586,0.59,0.507,1.163c-0.079,0.57,0.03,2.699-2.374,6.618
		C65.747,38.493,65.277,39.198,64.994,39.564z"/>
	
		<path fill-rule="evenodd" clip-rule="evenodd" fill="none" stroke="#000001" stroke-width="0.2835" stroke-linejoin="round" stroke-miterlimit="22.9256" d="
		M64.783,39.674L64.241,39.4c4.23-5.893,4.013-8.59,3.895-8.914c-0.186-0.3-0.809-0.976-0.809-0.976l-0.296-0.879
		c0,0,0.908,0.74,1.189,1.092c0.282,0.351,0.586,0.59,0.507,1.163c-0.079,0.57,0.03,2.699-2.374,6.618
		C65.687,38.497,65.067,39.307,64.783,39.674z"/>
	
		<path fill-rule="evenodd" clip-rule="evenodd" fill="#FFFFFF" stroke="#000001" stroke-width="0.2835" stroke-miterlimit="22.9256" d="
		M68.29,30.896c0,0,0.197,0.926-0.169,1.953s-1.015,2.358-1.015,2.358s0.905-2.316,1.063-2.972
		C68.259,31.852,68.29,30.896,68.29,30.896z"/>
	
		<path fill-rule="evenodd" clip-rule="evenodd" fill="none" stroke="#000001" stroke-width="0.2835" stroke-linejoin="round" stroke-miterlimit="22.9256" d="
		M66.19,27.971c-0.146-0.249,0.837,0.274,0.837,0.274s0.059,1.253-0.228,0.762L66.19,27.971z"/>
	
		<path fill-rule="evenodd" clip-rule="evenodd" fill="#BABCBE" stroke="#000001" stroke-width="0.2835" stroke-miterlimit="22.9256" d="
		M66.984,36.254l-0.712,1.345c0,0-0.324-0.454-0.822-0.014l0.754-1.26C66.204,36.324,66.53,35.918,66.984,36.254z"/>
	
		<path fill-rule="evenodd" clip-rule="evenodd" fill="none" stroke="#000001" stroke-width="0.2835" stroke-linejoin="round" stroke-miterlimit="22.9256" d="
		M66.896,36.175l-0.712,1.345c0,0-0.324-0.454-0.822-0.013l0.753-1.262C66.115,36.245,66.442,35.841,66.896,36.175z"/>
	
		<path fill-rule="evenodd" clip-rule="evenodd" fill="#CED0D1" stroke="#000001" stroke-width="0.2835" stroke-miterlimit="22.9256" d="
		M51.215,29.524c0.227-0.411-1.329,0.547-1.767,1.315c-0.542,0.951,0.837,4.444,5.126,9.402l0.484-0.535
		c-4.289-4.958-5.657-7.917-4.999-8.808c0.26-0.352,0.63-0.421,0.782-0.696L51.215,29.524z"/>
	
		<path fill-rule="evenodd" clip-rule="evenodd" fill="none" stroke="#000001" stroke-width="0.2835" stroke-linejoin="round" stroke-miterlimit="22.9256" d="
		M51.251,29.467c0.256-0.36-1.33,0.542-1.803,1.373c-0.542,0.951,1.087,4.473,5.376,9.43l0.39-0.527
		c-4.29-4.957-5.813-7.954-5.155-8.845c0.187-0.252,0.436-0.366,0.581-0.571L51.251,29.467z"/>
	
		<path fill-rule="evenodd" clip-rule="evenodd" fill="#BABCBE" stroke="#000001" stroke-width="0.2835" stroke-miterlimit="22.9256" d="
		M54.281,38.54c-0.914-0.27-1.006,0.012-1.006,0.012l-0.83-0.96c0,0-0.068-0.646,0.904-0.258L54.281,38.54z"/>
	
		<path fill-rule="evenodd" clip-rule="evenodd" fill="none" stroke="#000001" stroke-width="0.2835" stroke-linejoin="round" stroke-miterlimit="22.9256" d="
		M54.284,38.647c-0.901-0.301-1.006-0.092-1.006-0.092L52.584,37.5c0,0-0.215-0.577,0.739-0.157L54.284,38.647z"/>
	
		<path fill-rule="evenodd" clip-rule="evenodd" fill="#FFFFFF" stroke="#000001" stroke-width="0.2835" stroke-miterlimit="22.9256" d="
		M62.072,42.978c0,0-0.59,0.808-1.896,1.102c0,0,0.018-0.15,0.586-0.368c0.568-0.217,0.77-0.454,0.871-0.537
		C61.735,43.092,62.072,42.978,62.072,42.978z"/>
	
		<path fill-rule="evenodd" clip-rule="evenodd" fill="#FFFFFF" stroke="#000001" stroke-width="0.2835" stroke-miterlimit="22.9256" d="
		M69.025,57.734c0,0-0.55,0.307-1.417,0.099c-0.482-0.118-1.009-0.406-1.009-0.406s0.73,0.237,1.217,0.296
		C68.283,57.778,69.025,57.734,69.025,57.734z"/>
</g>
</svg>
