<?xml version="1.0" encoding="utf-8"?>
<!-- Generator: Adobe Illustrator 16.0.0, SVG Export Plug-In . SVG Version: 6.00 Build 0)  -->
<!DOCTYPE svg PUBLIC "-//W3C//DTD SVG 1.1//EN" "http://www.w3.org/Graphics/SVG/1.1/DTD/svg11.dtd">
<svg version="1.1" id="Capa_1" xmlns="http://www.w3.org/2000/svg" xmlns:xlink="http://www.w3.org/1999/xlink" x="0px" y="0px"
	 width="172.029px" height="86.523px" viewBox="0 0 172.029 86.523" enable-background="new 0 0 172.029 86.523"
	 xml:space="preserve">
<rect x="0" y="0.001" fill="none" stroke="#023881" stroke-miterlimit="10" width="172.029" height="86.522"/>
<path fill-rule="evenodd" clip-rule="evenodd" fill="#ECB51E" d="M136.22,44.805l2.239-0.201c0.105,0.906,0.353,1.648,0.742,2.23
	c0.39,0.579,0.994,1.049,1.812,1.409c0.818,0.356,1.74,0.537,2.764,0.537c0.91,0,1.711-0.135,2.407-0.407s1.212-0.646,1.551-1.119
	c0.34-0.474,0.512-0.99,0.512-1.543c0-0.563-0.163-1.053-0.49-1.477c-0.327-0.419-0.868-0.771-1.623-1.061
	c-0.482-0.185-1.552-0.479-3.208-0.877s-2.813-0.771-3.477-1.124c-0.859-0.452-1.496-1.015-1.916-1.681
	c-0.423-0.667-0.633-1.417-0.633-2.243c0-0.915,0.26-1.766,0.775-2.554c0.516-0.792,1.267-1.393,2.261-1.803
	c0.989-0.411,2.092-0.617,3.304-0.617c1.334,0,2.512,0.214,3.531,0.646c1.019,0.428,1.803,1.061,2.353,1.899
	c0.549,0.834,0.843,1.782,0.885,2.839l-2.29,0.176c-0.121-1.136-0.536-1.996-1.245-2.575c-0.709-0.583-1.757-0.872-3.141-0.872
	c-1.442,0-2.495,0.264-3.153,0.792s-0.99,1.166-0.99,1.912c0,0.646,0.235,1.178,0.701,1.598c0.461,0.415,1.656,0.847,3.593,1.283
	c1.938,0.44,3.267,0.822,3.988,1.149c1.044,0.482,1.82,1.09,2.318,1.832c0.5,0.738,0.747,1.59,0.747,2.555
	c0,0.96-0.272,1.857-0.822,2.704c-0.549,0.847-1.333,1.506-2.36,1.976s-2.181,0.704-3.469,0.704c-1.626,0-2.989-0.239-4.088-0.713
	c-1.103-0.474-1.963-1.187-2.587-2.143C136.581,47.087,136.254,46.01,136.22,44.805L136.22,44.805z M151.807,50.593l6.91-18.015
	h2.621l7.334,18.015h-2.713l-2.084-5.46h-7.586l-1.954,5.46H151.807L151.807,50.593z M156.99,43.195h6.14l-1.879-4.994
	c-0.566-1.518-0.994-2.771-1.291-3.762c-0.248,1.175-0.579,2.328-0.994,3.468L156.99,43.195z"/>
<path fill-rule="evenodd" clip-rule="evenodd" fill="#0078BE" d="M80.905,50.404V32.389h3.572l4.26,12.752
	c0.395,1.187,0.68,2.075,0.86,2.666c0.205-0.653,0.528-1.618,0.964-2.889l4.336-12.53h3.191v18.015H95.8V35.333l-5.259,15.071
	h-2.147l-5.199-15.348v15.348H80.905L80.905,50.404z M101.964,50.404V32.389h13.008v2.114h-10.618v5.535h9.938v2.113h-9.938v6.14
	H115.4v2.113H101.964L101.964,50.404z M131.527,44.085l2.391,0.604c-0.499,1.958-1.396,3.447-2.692,4.475s-2.881,1.543-4.755,1.543
	c-1.938,0-3.514-0.395-4.73-1.187c-1.216-0.789-2.139-1.934-2.771-3.431c-0.633-1.501-0.952-3.107-0.952-4.826
	c0-1.875,0.356-3.51,1.073-4.907c0.718-1.396,1.736-2.457,3.058-3.183c1.32-0.726,2.775-1.086,4.361-1.086
	c1.803,0,3.316,0.457,4.541,1.375c1.229,0.918,2.084,2.206,2.566,3.866l-2.34,0.554c-0.415-1.309-1.023-2.265-1.816-2.86
	c-0.792-0.6-1.79-0.897-2.993-0.897c-1.38,0-2.537,0.331-3.464,0.994s-1.581,1.556-1.954,2.671
	c-0.378,1.119-0.566,2.273-0.566,3.459c0,1.53,0.223,2.868,0.667,4.009c0.444,1.145,1.137,1.996,2.075,2.563
	c0.939,0.565,1.954,0.847,3.049,0.847c1.333,0,2.457-0.386,3.38-1.153C130.575,46.743,131.199,45.602,131.527,44.085z"/>
<linearGradient id="SVGID_1_" gradientUnits="userSpaceOnUse" x1="44.2971" y1="19.5969" x2="46.0204" y2="68.9442">
	<stop  offset="0" style="stop-color:#AB1D21"/>
	<stop  offset="0.52" style="stop-color:#EC1C24"/>
	<stop  offset="0.86" style="stop-color:#F0583E"/>
	<stop  offset="1" style="stop-color:#F05C40"/>
</linearGradient>
<polygon fill-rule="evenodd" clip-rule="evenodd" fill="url(#SVGID_1_)" points="37.4,19.723 37.4,36.553 20.619,36.553 
	20.619,50.427 37.268,50.427 37.268,68.801 53.255,68.801 53.255,50.427 69.639,50.427 69.639,36.421 52.991,36.421 52.991,19.723 
	"/>
<text transform="matrix(1.0167 0 0 1 80.8684 56.8845)"><tspan x="0" y="0" fill="#004FFF" font-family="'ArialMT'" font-size="4.2239">E</tspan><tspan x="2.817" y="0" fill="#004FFF" font-family="'ArialMT'" font-size="4.2239">SPECIALISTAS EN SALUD OCUPACIONAL</tspan></text>
<g>
	<path fill-rule="evenodd" clip-rule="evenodd" fill="#FFCA05" d="M85.54,32.777c0,0-0.428,0.14-0.708,0.34
		c-0.28,0.2-2.306,3.781-2.306,3.781s-0.334,0.82-0.548,1.119c-0.496,0.693-1.986,1.387-1.986,1.387l-0.059,0.033
		c-0.286,0.089-1.223,0.359-2.021,0.324c-0.152-0.006-0.435-0.269-0.435-0.462c0-0.194,0.614-1.568,0.614-1.568
		s-0.927-2.073-1.001-2.916c-0.058-0.654-0.194-2.217,0.891-3.62c1.084-1.402,2.345-1.973,3.429-2.098s1.884,0.267,2.553,0.806
		c0.67,0.539,1.361,1.333,1.361,1.333c0.103,0.007,0.186,0.04,0.249,0.097l0.47,0.483c0.098-0.05,0.181-0.046,0.249,0.014
		c0,0,0.182,0.218,0.135,0.508c-0.031,0.196-0.188,0.313-0.34,0.382c-0.151,0.069-0.538,0.065-0.538,0.065l0.001,0.001L85.54,32.777
		z"/>
	<path fill-rule="evenodd" clip-rule="evenodd" fill="#231F20" d="M84.831,33.118c-0.039,0.028-0.108,0.118-0.2,0.25
		c-0.185,0.155-0.345,0.349-0.466,0.55l-1.954,3.24c-0.021,0.057-0.226,0.56-0.766,1.008c-0.567,0.471-1.791,1.082-2.478,1.275
		c-0.594,0.167-1.132,0.175-1.393,0.085c-0.024-0.031-0.045-0.063-0.061-0.096l0.026-0.039c0.157,0.104,0.718,0.136,1.398-0.055
		c0.673-0.189,1.883-0.794,2.438-1.254c0.278-0.231,0.608-0.621,0.736-0.972l1.959-3.249c0.161-0.269,0.457-0.609,0.751-0.76
		L84.831,33.118L84.831,33.118z M78.052,37.822c0.097,0.155,0.285,0.28,0.519,0.202c0.985-0.324,2.05-0.826,3.194-1.506
		c0.166-0.098,0.333-0.201,0.502-0.307c0.224-0.129,0.422-0.4,0.528-0.636c0.057-0.092,1.343-2.167,1.712-2.448
		c0.383-0.291,1.112-0.464,1.578-0.62c0.135-0.045,0.171-0.189,0.18-0.293c0.01-0.109-0.009-0.216-0.009-0.216
		c-0.034-0.08-0.091-0.147-0.152-0.207c-0.02,0.005-0.038,0.014-0.059,0.024l-0.006-0.006l-0.035,0.038
		c0.075,0.068,0.122,0.129,0.147,0.182c0.015,0.102,0.023,0.334-0.101,0.375c-0.485,0.162-1.207,0.332-1.609,0.637
		c-0.204,0.155-0.642,0.782-1.022,1.356c-0.384,0.581-0.721,1.127-0.732,1.153c-0.011-0.059-0.033-0.116-0.068-0.162
		c-0.039-0.053-0.093-0.156-0.156-0.249c-0.089-0.131-0.281-0.326-0.441-0.163l-0.029,0.033l-0.029,0.036
		c-0.189,0.229-0.609,0.396-0.865,0.561c-0.118,0.076-0.09,0.228-0.045,0.333c0.011,0.024,0.022,0.044,0.022,0.044l0.395,0.476
		c0.024,0.024,0.051,0.044,0.081,0.058l0,0c-1.08,0.629-2.084,1.098-3.015,1.404c-0.203,0.067-0.369-0.069-0.429-0.227l-0.026,0.01
		l0.011,0.025L78.052,37.822L78.052,37.822z M80.826,29.205c-1.061,0.488-2.706,1.964-2.331,5.027
		c0.171,1.101,0.893,1.519,1.621,1.483c0.658-0.032,1.378-0.397,1.912-1.125c0.112-0.122,0.221-0.275,0.332-0.441
		c0.289-0.432,0.664-1.148,1.04-1.449c0.49-0.391,1.259-0.765,1.843-1.025c0.23-0.06,0.272-0.24,0.163-0.429
		c-0.025-0.005-0.052-0.009-0.08-0.011l-0.028-0.032l-0.034,0.028c0.1,0.124,0.152,0.256-0.008,0.326
		c-0.024,0.01-0.047,0.016-0.047,0.016c-0.591,0.261-1.379,0.646-1.876,1.042c-0.247,0.197-0.485,0.562-0.716,0.929
		c-0.21,0.335-0.415,0.701-0.688,0.99c-0.234,0.278-1.046,0.808-1.71,0.85c-0.471,0.03-1.431-0.263-1.496-1.2
		c-0.179-2.705,1.667-3.993,2.396-4.421c0.897-0.527,2.191-0.258,2.627,0.001l0.013-0.022c-0.121-0.088-0.246-0.169-0.375-0.244
		c-0.612-0.184-1.587-0.26-2.32,0.171c-0.738,0.434-2.632,1.754-2.448,4.521c0.071,1.028,1.119,1.332,1.61,1.301
		c0.414-0.027,0.876-0.229,1.236-0.451c-0.426,0.359-0.906,0.543-1.35,0.564c-0.673,0.033-1.346-0.344-1.508-1.39
		c-0.425-3.475,1.792-4.85,2.691-5.066l0,0l-0.009-0.039C81.134,29.135,80.981,29.165,80.826,29.205L80.826,29.205z M82.56,35.758
		L82.56,35.758c0-0.001,0.071-0.172-0.028-0.304c-0.059-0.078-0.286-0.551-0.433-0.401l-0.052,0.063
		c-0.209,0.254-0.612,0.403-0.89,0.582c-0.073,0.047-0.009,0.192,0.008,0.226l0.37,0.446c0,0,0.065,0.093,0.178,0.052
		c0.164-0.098,0.329-0.198,0.496-0.303c0.132-0.076,0.258-0.213,0.357-0.357L82.56,35.758z"/>
	<path fill-rule="evenodd" clip-rule="evenodd" fill="#231F20" d="M84.19,32.124c0.057-0.024,0.22,0.106,0.122,0.171
		c-0.098,0.065-0.712,0.452-0.769,0.526c-0.057,0.073-0.134,0.125-0.217,0.125s-0.186-0.02-0.104-0.15
		C83.303,32.666,84.19,32.124,84.19,32.124z"/>
</g>
<g>
	
		<path fill-rule="evenodd" clip-rule="evenodd" fill="#FFFFFF" stroke="#FFFFFF" stroke-width="0.5669" stroke-miterlimit="22.9256" d="
		M3.487,44.787c2.345,2.217,10.104,10.464,13.916,5.291c1.415-2.425,2.665-2.878,3.575-2.271c1.652,1.355,4.704-6.795,7.929-10.711
		c1.638-2.595,4.721-0.679,7.188,3.489c0.735-1.524,2.075-2.383,4.06-3.008c5.484-9.399,7.612-13.522,11.083-9.348
		c2.308,2.482,4.579,5.691,7.464,9.381c4.191,1.285,4.899,6.351,8.814,6.747c2.14,0.732,3.177,2.017,4.555,3.09l-9.813,10.525
		l-9.349,2.032c-5.682-3.807-13.149-1.844-20.804,0.725c-3.933,0.137-15.492-3.596-18.498-5.497
		C10.479,52.294,6.483,49.401,3.487,44.787z"/>
	<path opacity="0.5" fill-rule="evenodd" clip-rule="evenodd" fill="#ACC3DF" d="M14.201,52.83l3.548-2.492l4.534-2.17l2.838-4.343
		l3.576-5.056l1.449-2.332l1.275-0.134l3.307,2.506l1.536,2.176l1.534-1.289l2.317-1.66l0.289,0.564
		c-2.7,2.2-3.595,0.676-2.91,6.492l-0.188,5.639l-1.142-9.19l-2.788-3.503l-2.193-1.222c-1.435,7.185-2.532,5.111-2.834,11.353
		c-1.471-0.444-4.287,0.244-5.168,1.121c-0.447,0.572-0.464,1.573-1.492,1.381C20.056,49.583,17.868,53.777,14.201,52.83z"/>
	<path opacity="0.5" fill-rule="evenodd" clip-rule="evenodd" fill="#ACC3DF" d="M47.08,42.959c-1.421-1.876-3.52-3.501-7.208-4.541
		l2.723-4.262l1.23-2.617l3.422-4.206l2.259-0.492C47.206,34.836,45.983,38.172,47.08,42.959z"/>
	<polygon opacity="0.5" fill-rule="evenodd" clip-rule="evenodd" fill="#ACC3DF" points="55.452,35.637 56.123,44.585 
		56.571,35.436 	"/>
	<path opacity="0.5" fill-rule="evenodd" clip-rule="evenodd" fill="#ACC3DF" d="M58.844,37.969l1.141,0.201
		c0.322,4.022-0.027,5.268-0.395,7.914C59.306,43.072,59.615,41.737,58.844,37.969z"/>
	<path opacity="0.5" fill-rule="evenodd" clip-rule="evenodd" fill="#ACC3DF" d="M62.82,40.855c-0.172,1.902-0.372,1.559-0.112,3.87
		c0.261,2.312,0.604,1.776,0.775,5.318c0.455-3.997-0.382-4.666,0.073-8.461L62.82,40.855z"/>
	<path opacity="0.5" fill-rule="evenodd" clip-rule="evenodd" fill="#ACC3DF" d="M66.987,44.271c0.316,2.543,1.014,8.508,0.99,5.951
		c-0.025-2.557-0.403-3.005-0.146-5.376L66.987,44.271z"/>
	<path fill-rule="evenodd" clip-rule="evenodd" fill="#0078BE" d="M3.556,44.589c2.346,2.216,10.005,10.469,13.816,5.296
		c1.415-2.425,2.665-2.878,3.575-2.271c1.652,1.355,4.704-6.795,7.929-10.711c1.638-2.595,4.721-0.679,7.188,3.489
		c0.735-1.524,2.075-2.383,4.06-3.008c5.484-9.399,7.612-13.522,11.083-9.348c2.308,2.482,4.579,5.692,7.464,9.381
		c4.19,1.285,4.899,6.351,8.813,6.747c2.14,0.732,3.177,2.017,4.555,3.09c-0.322,0.603-0.844,1.047-1.297,0.921
		c-0.731-1.182-1.562-1.998-3.535-2.849c-4.361-0.865-4.606-5.222-8.459-6.64c-3.908-3.032-5.396-7.084-7.675-9.566
		c-3.427-4.175-5.254,0.083-10.67,9.482c-1.959,0.625-3.391,1.697-4.116,3.221c-3.069-3.3-5.004-6.712-6.621-4.116
		c-3.048,4.251-4.395,7.046-6.386,10.441c-1.576,2.688-2.021-0.328-4.386,2.487C13.948,57.071,6.415,48.679,3.556,44.589z"/>
	
		<path fill-rule="evenodd" clip-rule="evenodd" fill="#0078BE" stroke="#0078BE" stroke-width="0.5669" stroke-miterlimit="22.9256" d="
		M32.956,59.743c8.714-4.194,15.606-5.679,20.494-1.374l-0.64,1.017C48.371,55.853,41.034,57.239,32.956,59.743z"/>
</g>
<g>
	<path fill-rule="evenodd" clip-rule="evenodd" stroke="#000000" stroke-width="0.2835" stroke-miterlimit="22.9256" d="
		M71.994,53.284c-3.619,2.126-4.947,2.922-9.083,3.288c-5.123,0.672-7.944-0.701-9.793-2.778c-2.23-2.103-3.101-5.692-3.104-7.922
		c0.839-0.172,1.705-0.867,2.542-1.966c0.482-0.543,0.868-1.096,1.18-1.79c0,0-0.126-0.162-0.318-0.236
		c-0.149-0.06-0.375-0.041-0.375-0.041c-0.047,0.19-1.786,3.36-3.469,3.313c-1.741-0.049-3.611-2.864-3.652-2.999
		c0,0-0.167-0.026-0.324,0.119c-0.171,0.119-0.292,0.282-0.292,0.282s0.506,0.727,1.159,1.5c0.791,1.01,1.854,1.677,2.687,1.827
		c0.464,4.242,1.217,6.647,3.683,8.98c2.269,1.793,4.087,3.182,9.886,2.623c4.397-0.619,6.2-1.248,10.182-3.596L71.994,53.284z"/>
	<g>
		
			<path fill-rule="evenodd" clip-rule="evenodd" fill="#000001" stroke="#000001" stroke-width="0.2835" stroke-miterlimit="22.9256" d="
			M72.757,50.57c1.157-0.483,2.539-0.047,3.086,0.976c0.547,1.021,0.054,2.243-1.104,2.727c-1.157,0.483-2.538,0.047-3.085-0.975
			C71.106,52.275,71.6,51.054,72.757,50.57z"/>
		
			<path fill-rule="evenodd" clip-rule="evenodd" fill="none" stroke="#000001" stroke-width="0.2835" stroke-miterlimit="22.9256" d="
			M72.757,50.57c1.157-0.483,2.539-0.047,3.086,0.976c0.547,1.021,0.054,2.243-1.104,2.727c-1.157,0.483-2.538,0.047-3.085-0.975
			C71.106,52.275,71.6,51.054,72.757,50.57z"/>
		
			<path fill-rule="evenodd" clip-rule="evenodd" fill="#FFFFFF" stroke="#000001" stroke-width="0.2835" stroke-miterlimit="22.9256" d="
			M72.913,50.686c1.064-0.445,2.335-0.043,2.839,0.897c0.504,0.939,0.049,2.063-1.015,2.509c-1.064,0.444-2.335,0.043-2.839-0.897
			C71.395,52.255,71.849,51.132,72.913,50.686z"/>
		
			<path fill-rule="evenodd" clip-rule="evenodd" fill="none" stroke="#000001" stroke-width="0.2835" stroke-miterlimit="22.9256" d="
			M72.913,50.686c1.064-0.445,2.335-0.043,2.839,0.897c0.504,0.939,0.049,2.063-1.015,2.509c-1.064,0.444-2.335,0.043-2.839-0.897
			C71.395,52.255,71.849,51.132,72.913,50.686z"/>
		
			<path fill-rule="evenodd" clip-rule="evenodd" fill="none" stroke="#000001" stroke-width="0.2835" stroke-miterlimit="22.9256" d="
			M72.929,50.615c1.018-0.425,2.232-0.042,2.713,0.857c0.481,0.898,0.047,1.972-0.97,2.397s-2.232,0.042-2.713-0.857
			C71.478,52.114,71.912,51.041,72.929,50.615z"/>
		
			<path fill-rule="evenodd" clip-rule="evenodd" fill="#FFFFFF" stroke="#000001" stroke-width="0.2835" stroke-miterlimit="22.9256" d="
			M73.374,50.947c0.769-0.321,1.688-0.031,2.052,0.648c0.364,0.68,0.035,1.491-0.734,1.813c-0.769,0.322-1.688,0.032-2.051-0.647
			C72.276,52.081,72.605,51.269,73.374,50.947z"/>
		
			<path fill-rule="evenodd" clip-rule="evenodd" fill="none" stroke="#000001" stroke-width="0.2835" stroke-miterlimit="22.9256" d="
			M73.374,50.947c0.769-0.321,1.688-0.031,2.052,0.648c0.364,0.68,0.035,1.491-0.734,1.813c-0.769,0.322-1.688,0.032-2.051-0.647
			C72.276,52.081,72.605,51.269,73.374,50.947z"/>
		
			<path fill-rule="evenodd" clip-rule="evenodd" fill="none" stroke="#000001" stroke-width="0.2835" stroke-miterlimit="22.9256" d="
			M73.399,51c0.711-0.298,1.56-0.029,1.896,0.599s0.033,1.378-0.678,1.675c-0.71,0.298-1.559,0.029-1.896-0.599
			S72.688,51.297,73.399,51z"/>
		<g>
			<g>
				
					<path fill-rule="evenodd" clip-rule="evenodd" fill="none" stroke="#000001" stroke-width="0.2835" stroke-miterlimit="22.9256" d="
					M74.56,53.162c0.616-0.257,0.878-0.906,0.587-1.45c-0.291-0.543-1.026-0.775-1.641-0.519c-0.615,0.258-0.878,0.907-0.587,1.45
					C73.21,53.187,73.945,53.42,74.56,53.162"/>
			</g>
			<g>
				<path fill-rule="evenodd" clip-rule="evenodd" fill="#E7E6E8" d="M73.461,51.109L73.461,51.109
					c-0.667,0.279-0.952,0.984-0.636,1.574c0.315,0.59,1.113,0.842,1.781,0.563s0.953-0.984,0.637-1.574
					C74.926,51.083,74.128,50.831,73.461,51.109L73.461,51.109L73.461,51.109z M73.405,50.994c0.737-0.309,1.619-0.029,1.968,0.622
					c0.349,0.652,0.034,1.432-0.704,1.739c-0.737,0.309-1.619,0.03-1.968-0.621C72.352,52.082,72.667,51.302,73.405,50.994z"/>
				
					<path fill-rule="evenodd" clip-rule="evenodd" fill="none" stroke="#000001" stroke-width="0.2835" stroke-miterlimit="22.9256" d="
					M73.461,51.109L73.461,51.109c-0.667,0.279-0.952,0.984-0.636,1.574c0.315,0.59,1.113,0.842,1.781,0.563
					s0.953-0.984,0.637-1.574C74.926,51.083,74.128,50.831,73.461,51.109 M73.405,50.994c0.737-0.309,1.619-0.029,1.968,0.622
					c0.349,0.652,0.034,1.432-0.704,1.739c-0.737,0.309-1.619,0.03-1.968-0.621C72.352,52.082,72.667,51.302,73.405,50.994z"/>
			</g>
			<g>
				
					<path fill-rule="evenodd" clip-rule="evenodd" fill="none" stroke="#000001" stroke-width="0.2835" stroke-miterlimit="22.9256" d="
					M74.56,53.162c0.616-0.257,0.878-0.906,0.587-1.45c-0.291-0.543-1.026-0.775-1.641-0.519c-0.615,0.258-0.878,0.907-0.587,1.45
					C73.21,53.187,73.945,53.42,74.56,53.162"/>
			</g>
			<g>
				<path fill-rule="evenodd" clip-rule="evenodd" fill="#D8DBDB" d="M73.521,51.222L73.521,51.222
					c-0.597,0.249-0.853,0.88-0.57,1.408c0.283,0.527,0.997,0.753,1.594,0.503c0.597-0.25,0.852-0.881,0.569-1.408
					C74.832,51.198,74.118,50.972,73.521,51.222L73.521,51.222L73.521,51.222z M73.465,51.106c0.667-0.279,1.465-0.026,1.781,0.563
					c0.316,0.589,0.031,1.295-0.637,1.573c-0.667,0.279-1.465,0.027-1.781-0.563C72.512,52.091,72.798,51.385,73.465,51.106z"/>
				
					<path fill-rule="evenodd" clip-rule="evenodd" fill="none" stroke="#000001" stroke-width="0.2835" stroke-miterlimit="22.9256" d="
					M73.521,51.222L73.521,51.222c-0.597,0.249-0.853,0.88-0.57,1.408c0.283,0.527,0.997,0.753,1.594,0.503
					c0.597-0.25,0.852-0.881,0.569-1.408C74.832,51.198,74.118,50.972,73.521,51.222 M73.465,51.106
					c0.667-0.279,1.465-0.026,1.781,0.563c0.316,0.589,0.031,1.295-0.637,1.573c-0.667,0.279-1.465,0.027-1.781-0.563
					C72.512,52.091,72.798,51.385,73.465,51.106z"/>
			</g>
			<g>
				
					<path fill-rule="evenodd" clip-rule="evenodd" fill="none" stroke="#000001" stroke-width="0.2835" stroke-miterlimit="22.9256" d="
					M74.56,53.162c0.616-0.257,0.878-0.906,0.587-1.45c-0.291-0.543-1.026-0.775-1.641-0.519c-0.615,0.258-0.878,0.907-0.587,1.45
					C73.21,53.187,73.945,53.42,74.56,53.162"/>
			</g>
			<g>
				<path fill-rule="evenodd" clip-rule="evenodd" fill="#C9CBCE" d="M73.581,51.335L73.581,51.335
					c-0.527,0.22-0.752,0.776-0.503,1.242c0.25,0.466,0.879,0.665,1.406,0.444c0.527-0.221,0.752-0.777,0.503-1.242
					C74.738,51.313,74.108,51.114,73.581,51.335L73.581,51.335L73.581,51.335z M73.518,51.222c0.597-0.25,1.311-0.024,1.593,0.503
					c0.283,0.527,0.027,1.158-0.57,1.408s-1.311,0.024-1.593-0.504C72.666,52.102,72.921,51.471,73.518,51.222z"/>
				
					<path fill-rule="evenodd" clip-rule="evenodd" fill="none" stroke="#000001" stroke-width="0.2835" stroke-miterlimit="22.9256" d="
					M73.581,51.335L73.581,51.335c-0.527,0.22-0.752,0.776-0.503,1.242c0.25,0.466,0.879,0.665,1.406,0.444
					c0.527-0.221,0.752-0.777,0.503-1.242C74.738,51.313,74.108,51.114,73.581,51.335 M73.518,51.222
					c0.597-0.25,1.311-0.024,1.593,0.503c0.283,0.527,0.027,1.158-0.57,1.408s-1.311,0.024-1.593-0.504
					C72.666,52.102,72.921,51.471,73.518,51.222z"/>
			</g>
			<g>
				
					<path fill-rule="evenodd" clip-rule="evenodd" fill="none" stroke="#000001" stroke-width="0.2835" stroke-miterlimit="22.9256" d="
					M74.56,53.162c0.616-0.257,0.878-0.906,0.587-1.45c-0.291-0.543-1.026-0.775-1.641-0.519c-0.615,0.258-0.878,0.907-0.587,1.45
					C73.21,53.187,73.945,53.42,74.56,53.162"/>
			</g>
			<g>
				<path fill-rule="evenodd" clip-rule="evenodd" fill="#BEC0C2" d="M73.641,51.447L73.641,51.447
					c-0.456,0.19-0.651,0.673-0.436,1.076c0.216,0.404,0.762,0.576,1.219,0.386c0.457-0.191,0.652-0.674,0.436-1.077
					C74.644,51.428,74.098,51.256,73.641,51.447L73.641,51.447L73.641,51.447z M73.578,51.335c0.527-0.221,1.157-0.021,1.406,0.444
					c0.249,0.465,0.024,1.021-0.503,1.242c-0.527,0.22-1.157,0.021-1.406-0.444C72.826,52.111,73.052,51.554,73.578,51.335z"/>
				
					<path fill-rule="evenodd" clip-rule="evenodd" fill="none" stroke="#000001" stroke-width="0.2835" stroke-miterlimit="22.9256" d="
					M73.641,51.447L73.641,51.447c-0.456,0.19-0.651,0.673-0.436,1.076c0.216,0.404,0.762,0.576,1.219,0.386
					c0.457-0.191,0.652-0.674,0.436-1.077C74.644,51.428,74.098,51.256,73.641,51.447 M73.578,51.335
					c0.527-0.221,1.157-0.021,1.406,0.444c0.249,0.465,0.024,1.021-0.503,1.242c-0.527,0.22-1.157,0.021-1.406-0.444
					C72.826,52.111,73.052,51.554,73.578,51.335z"/>
			</g>
			<g>
				
					<path fill-rule="evenodd" clip-rule="evenodd" fill="none" stroke="#000001" stroke-width="0.2835" stroke-miterlimit="22.9256" d="
					M74.56,53.162c0.616-0.257,0.878-0.906,0.587-1.45c-0.291-0.543-1.026-0.775-1.641-0.519c-0.615,0.258-0.878,0.907-0.587,1.45
					C73.21,53.187,73.945,53.42,74.56,53.162"/>
			</g>
			<g>
				<path fill-rule="evenodd" clip-rule="evenodd" fill="#B1B3B4" d="M73.702,51.559L73.702,51.559
					c-0.386,0.161-0.552,0.569-0.369,0.911s0.645,0.487,1.031,0.326c0.386-0.162,0.552-0.57,0.368-0.912
					C74.55,51.544,74.088,51.397,73.702,51.559L73.702,51.559L73.702,51.559z M73.639,51.447c0.456-0.191,1.002-0.019,1.218,0.385
					s0.021,0.886-0.436,1.077c-0.456,0.19-1.002,0.018-1.218-0.386S73.182,51.637,73.639,51.447z"/>
				
					<path fill-rule="evenodd" clip-rule="evenodd" fill="none" stroke="#000001" stroke-width="0.2835" stroke-miterlimit="22.9256" d="
					M73.702,51.559L73.702,51.559c-0.386,0.161-0.552,0.569-0.369,0.911s0.645,0.487,1.031,0.326
					c0.386-0.162,0.552-0.57,0.368-0.912C74.55,51.544,74.088,51.397,73.702,51.559 M73.639,51.447
					c0.456-0.191,1.002-0.019,1.218,0.385s0.021,0.886-0.436,1.077c-0.456,0.19-1.002,0.018-1.218-0.386
					S73.182,51.637,73.639,51.447z"/>
			</g>
			<g>
				
					<path fill-rule="evenodd" clip-rule="evenodd" fill="none" stroke="#000001" stroke-width="0.2835" stroke-miterlimit="22.9256" d="
					M74.56,53.162c0.616-0.257,0.878-0.906,0.587-1.45c-0.291-0.543-1.026-0.775-1.641-0.519c-0.615,0.258-0.878,0.907-0.587,1.45
					C73.21,53.187,73.945,53.42,74.56,53.162"/>
			</g>
			<g>
				<path fill-rule="evenodd" clip-rule="evenodd" fill="#A2A6A9" d="M73.762,51.672L73.762,51.672
					c-0.316,0.132-0.451,0.466-0.302,0.746c0.15,0.279,0.528,0.398,0.844,0.266c0.316-0.132,0.451-0.466,0.301-0.745
					C74.456,51.659,74.078,51.54,73.762,51.672L73.762,51.672L73.762,51.672z M73.702,51.565c0.386-0.161,0.848-0.016,1.031,0.326
					c0.183,0.341,0.018,0.749-0.369,0.911c-0.386,0.161-0.848,0.016-1.031-0.326C73.151,52.135,73.316,51.727,73.702,51.565z"/>
				
					<path fill-rule="evenodd" clip-rule="evenodd" fill="none" stroke="#000001" stroke-width="0.2835" stroke-miterlimit="22.9256" d="
					M73.762,51.672L73.762,51.672c-0.316,0.132-0.451,0.466-0.302,0.746c0.15,0.279,0.528,0.398,0.844,0.266
					c0.316-0.132,0.451-0.466,0.301-0.745C74.456,51.659,74.078,51.54,73.762,51.672 M73.702,51.565
					c0.386-0.161,0.848-0.016,1.031,0.326c0.183,0.341,0.018,0.749-0.369,0.911c-0.386,0.161-0.848,0.016-1.031-0.326
					C73.151,52.135,73.316,51.727,73.702,51.565z"/>
			</g>
			<g>
				
					<path fill-rule="evenodd" clip-rule="evenodd" fill="none" stroke="#000001" stroke-width="0.2835" stroke-miterlimit="22.9256" d="
					M74.56,53.162c0.616-0.257,0.878-0.906,0.587-1.45c-0.291-0.543-1.026-0.775-1.641-0.519c-0.615,0.258-0.878,0.907-0.587,1.45
					C73.21,53.187,73.945,53.42,74.56,53.162"/>
			</g>
			<g>
				<path fill-rule="evenodd" clip-rule="evenodd" fill="#989B9E" d="M73.823,51.784L73.823,51.784
					c-0.246,0.103-0.351,0.363-0.235,0.58c0.117,0.217,0.41,0.311,0.656,0.207c0.246-0.103,0.351-0.362,0.234-0.579
					C74.362,51.774,74.068,51.681,73.823,51.784L73.823,51.784L73.823,51.784z M73.759,51.672c0.316-0.132,0.694-0.013,0.844,0.267
					s0.015,0.613-0.302,0.745c-0.316,0.133-0.694,0.014-0.844-0.266C73.308,52.137,73.443,51.803,73.759,51.672z"/>
				
					<path fill-rule="evenodd" clip-rule="evenodd" fill="none" stroke="#000001" stroke-width="0.2835" stroke-miterlimit="22.9256" d="
					M73.823,51.784L73.823,51.784c-0.246,0.103-0.351,0.363-0.235,0.58c0.117,0.217,0.41,0.311,0.656,0.207
					c0.246-0.103,0.351-0.362,0.234-0.579C74.362,51.774,74.068,51.681,73.823,51.784 M73.759,51.672
					c0.316-0.132,0.694-0.013,0.844,0.267s0.015,0.613-0.302,0.745c-0.316,0.133-0.694,0.014-0.844-0.266
					C73.308,52.137,73.443,51.803,73.759,51.672z"/>
			</g>
			<g>
				
					<path fill-rule="evenodd" clip-rule="evenodd" fill="none" stroke="#000001" stroke-width="0.2835" stroke-miterlimit="22.9256" d="
					M74.56,53.162c0.616-0.257,0.878-0.906,0.587-1.45c-0.291-0.543-1.026-0.775-1.641-0.519c-0.615,0.258-0.878,0.907-0.587,1.45
					C73.21,53.187,73.945,53.42,74.56,53.162"/>
			</g>
			<g>
				<path fill-rule="evenodd" clip-rule="evenodd" fill="#8C8D91" d="M73.883,51.896L73.883,51.896
					c-0.175,0.074-0.25,0.26-0.167,0.414c0.083,0.155,0.293,0.222,0.469,0.148c0.175-0.073,0.25-0.259,0.167-0.414
					C74.268,51.889,74.058,51.823,73.883,51.896L73.883,51.896L73.883,51.896z M73.819,51.784c0.246-0.103,0.54-0.01,0.656,0.208
					c0.116,0.217,0.012,0.477-0.235,0.579c-0.246,0.104-0.54,0.01-0.656-0.207C73.469,52.146,73.573,51.886,73.819,51.784z"/>
				
					<path fill-rule="evenodd" clip-rule="evenodd" fill="none" stroke="#000001" stroke-width="0.2835" stroke-miterlimit="22.9256" d="
					M73.883,51.896L73.883,51.896c-0.175,0.074-0.25,0.26-0.167,0.414c0.083,0.155,0.293,0.222,0.469,0.148
					c0.175-0.073,0.25-0.259,0.167-0.414C74.268,51.889,74.058,51.823,73.883,51.896 M73.819,51.784
					c0.246-0.103,0.54-0.01,0.656,0.208c0.116,0.217,0.012,0.477-0.235,0.579c-0.246,0.104-0.54,0.01-0.656-0.207
					C73.469,52.146,73.573,51.886,73.819,51.784z"/>
			</g>
			<g>
				
					<path fill-rule="evenodd" clip-rule="evenodd" fill="none" stroke="#000001" stroke-width="0.2835" stroke-miterlimit="22.9256" d="
					M74.56,53.162c0.616-0.257,0.878-0.906,0.587-1.45c-0.291-0.543-1.026-0.775-1.641-0.519c-0.615,0.258-0.878,0.907-0.587,1.45
					C73.21,53.187,73.945,53.42,74.56,53.162"/>
			</g>
			<g>
				<path fill-rule="evenodd" clip-rule="evenodd" fill="#7F8283" d="M73.943,52.01L73.943,52.01
					c-0.105,0.044-0.15,0.155-0.101,0.248c0.05,0.093,0.176,0.133,0.281,0.089s0.15-0.155,0.101-0.249
					C74.174,52.005,74.048,51.966,73.943,52.01L73.943,52.01L73.943,52.01z M73.879,51.896c0.176-0.073,0.386-0.007,0.469,0.148
					c0.083,0.155,0.008,0.341-0.167,0.414c-0.176,0.073-0.386,0.007-0.469-0.148C73.629,52.156,73.704,51.97,73.879,51.896z"/>
				
					<path fill-rule="evenodd" clip-rule="evenodd" fill="none" stroke="#000001" stroke-width="0.2835" stroke-miterlimit="22.9256" d="
					M73.943,52.01L73.943,52.01c-0.105,0.044-0.15,0.155-0.101,0.248c0.05,0.093,0.176,0.133,0.281,0.089s0.15-0.155,0.101-0.249
					C74.174,52.005,74.048,51.966,73.943,52.01 M73.879,51.896c0.176-0.073,0.386-0.007,0.469,0.148
					c0.083,0.155,0.008,0.341-0.167,0.414c-0.176,0.073-0.386,0.007-0.469-0.148C73.629,52.156,73.704,51.97,73.879,51.896z"/>
			</g>
			<g>
				
					<path fill-rule="evenodd" clip-rule="evenodd" fill="none" stroke="#000001" stroke-width="0.2835" stroke-miterlimit="22.9256" d="
					M74.56,53.162c0.616-0.257,0.878-0.906,0.587-1.45c-0.291-0.543-1.026-0.775-1.641-0.519c-0.615,0.258-0.878,0.907-0.587,1.45
					C73.21,53.187,73.945,53.42,74.56,53.162"/>
			</g>
			<g>
				<path fill-rule="evenodd" clip-rule="evenodd" fill="#757679" d="M74.003,52.122L74.003,52.122
					c-0.035,0.015-0.05,0.052-0.034,0.083c0.017,0.03,0.059,0.044,0.094,0.029s0.05-0.052,0.034-0.083
					C74.08,52.12,74.038,52.107,74.003,52.122L74.003,52.122L74.003,52.122z M73.947,52.007c0.105-0.045,0.231-0.005,0.281,0.089
					c0.05,0.093,0.005,0.204-0.101,0.248s-0.231,0.004-0.281-0.089C73.796,52.162,73.842,52.051,73.947,52.007z"/>
				
					<path fill-rule="evenodd" clip-rule="evenodd" fill="none" stroke="#000001" stroke-width="0.2835" stroke-miterlimit="22.9256" d="
					M74.003,52.122L74.003,52.122c-0.035,0.015-0.05,0.052-0.034,0.083c0.017,0.03,0.059,0.044,0.094,0.029s0.05-0.052,0.034-0.083
					C74.08,52.12,74.038,52.107,74.003,52.122 M73.947,52.007c0.105-0.045,0.231-0.005,0.281,0.089
					c0.05,0.093,0.005,0.204-0.101,0.248s-0.231,0.004-0.281-0.089C73.796,52.162,73.842,52.051,73.947,52.007z"/>
			</g>
			<g>
				
					<path fill-rule="evenodd" clip-rule="evenodd" fill="none" stroke="#000001" stroke-width="0.2835" stroke-miterlimit="22.9256" d="
					M74.56,53.162c0.616-0.257,0.878-0.906,0.587-1.45c-0.291-0.543-1.026-0.775-1.641-0.519c-0.615,0.258-0.878,0.907-0.587,1.45
					C73.21,53.187,73.945,53.42,74.56,53.162"/>
			</g>
			
				<path fill-rule="evenodd" clip-rule="evenodd" fill="#68696B" stroke="#000001" stroke-width="0.2835" stroke-miterlimit="22.9256" d="
				M74.007,52.119c0.035-0.015,0.077-0.002,0.094,0.029s0.001,0.068-0.034,0.083s-0.077,0.001-0.094-0.03
				C73.957,52.171,73.972,52.134,74.007,52.119z"/>
		</g>
		
			<path fill-rule="evenodd" clip-rule="evenodd" fill="none" stroke="#000001" stroke-width="0.2835" stroke-miterlimit="22.9256" d="
			M73.506,51.193c0.615-0.257,1.35-0.024,1.641,0.519c0.292,0.544,0.029,1.193-0.587,1.45c-0.615,0.258-1.35,0.025-1.641-0.519
			C72.628,52.1,72.89,51.451,73.506,51.193z"/>
		<g>
			<g>
				
					<polyline fill-rule="evenodd" clip-rule="evenodd" fill="none" stroke="#000001" stroke-width="0.2835" stroke-miterlimit="22.9256" points="
					72.698,52.736 71.632,53.673 72.111,54.098 73.176,53.161 72.698,52.736 				"/>
			</g>
			
				<path fill-rule="evenodd" clip-rule="evenodd" fill="#000001" stroke="#000001" stroke-width="0.2835" stroke-miterlimit="22.9256" d="
				M72.803,52.799l-0.083-0.081l-1.132,0.911L72.803,52.799z M72.803,52.799"/>
			<g>
				
					<polyline fill-rule="evenodd" clip-rule="evenodd" fill="none" stroke="#000001" stroke-width="0.2835" stroke-miterlimit="22.9256" points="
					72.698,52.736 71.632,53.673 72.111,54.098 73.176,53.161 72.698,52.736 				"/>
			</g>
			
				<path fill-rule="evenodd" clip-rule="evenodd" fill="#444647" stroke="#000001" stroke-width="0.2835" stroke-miterlimit="22.9256" d="
				M72.887,52.88l-0.084-0.081l-1.132,0.911L72.887,52.88z M72.887,52.88"/>
			<g>
				
					<polyline fill-rule="evenodd" clip-rule="evenodd" fill="none" stroke="#000001" stroke-width="0.2835" stroke-miterlimit="22.9256" points="
					72.698,52.736 71.632,53.673 72.111,54.098 73.176,53.161 72.698,52.736 				"/>
			</g>
			
				<path fill-rule="evenodd" clip-rule="evenodd" fill="#6B6E70" stroke="#000001" stroke-width="0.2835" stroke-miterlimit="22.9256" d="
				M72.97,52.961l-0.083-0.081l-1.133,0.911L72.97,52.961z M72.97,52.961"/>
			<g>
				
					<polyline fill-rule="evenodd" clip-rule="evenodd" fill="none" stroke="#000001" stroke-width="0.2835" stroke-miterlimit="22.9256" points="
					72.698,52.736 71.632,53.673 72.111,54.098 73.176,53.161 72.698,52.736 				"/>
			</g>
			
				<path fill-rule="evenodd" clip-rule="evenodd" fill="#8C8D91" stroke="#000001" stroke-width="0.2835" stroke-miterlimit="22.9256" d="
				M73.054,53.042l-0.084-0.081l-1.132,0.912L73.054,53.042z M73.054,53.042"/>
			<g>
				
					<polyline fill-rule="evenodd" clip-rule="evenodd" fill="none" stroke="#000001" stroke-width="0.2835" stroke-miterlimit="22.9256" points="
					72.698,52.736 71.632,53.673 72.111,54.098 73.176,53.161 72.698,52.736 				"/>
			</g>
			
				<path fill-rule="evenodd" clip-rule="evenodd" fill="#ADB0B3" stroke="#000001" stroke-width="0.2835" stroke-miterlimit="22.9256" d="
				M73.138,53.123l-0.083-0.081l-1.133,0.912L73.138,53.123z M73.138,53.123"/>
			<g>
				
					<polyline fill-rule="evenodd" clip-rule="evenodd" fill="none" stroke="#000001" stroke-width="0.2835" stroke-miterlimit="22.9256" points="
					72.698,52.736 71.632,53.673 72.111,54.098 73.176,53.161 72.698,52.736 				"/>
			</g>
			
				<path fill-rule="evenodd" clip-rule="evenodd" fill="#CED0D1" stroke="#000001" stroke-width="0.2835" stroke-miterlimit="22.9256" d="
				M73.221,53.204l-0.083-0.081l-1.133,0.912L73.221,53.204z M73.221,53.204"/>
		</g>
		
			<polygon fill-rule="evenodd" clip-rule="evenodd" fill="none" stroke="#000001" stroke-width="0.2835" stroke-miterlimit="22.9256" points="
			71.632,53.673 72.698,52.736 73.177,53.162 72.111,54.098 		"/>
	</g>
	
		<path fill-rule="evenodd" clip-rule="evenodd" fill="#CED0D1" stroke="#000001" stroke-width="0.2835" stroke-miterlimit="22.9256" d="
		M54.79,39.152c-1.454,2.062-2.955,3.12-4.792,3.511c-1.837,0.392-2.841,0.08-3.879-0.558s-1.366-2.003-1.366-2.003l-0.147,0.121
		c0,0.002,0.134,0.862,0.804,1.663c0.673,0.805,2.279,1.708,4.452,1.461c1.811-0.206,3.099-1.191,4-2.061
		c0.902-0.871,1.359-1.69,1.36-1.693L54.79,39.152z"/>
	<g>
		
			<path fill-rule="evenodd" clip-rule="evenodd" fill="none" stroke="#000001" stroke-width="0.2835" stroke-miterlimit="22.9256" d="
			M54.79,39.152c-1.454,2.062-2.955,3.12-4.792,3.511c-1.837,0.392-2.841,0.08-3.879-0.558s-1.366-2.003-1.366-2.003l-0.147,0.121
			c0,0.002,0.134,0.862,0.804,1.663c0.673,0.805,2.279,1.708,4.452,1.461c1.811-0.206,3.099-1.191,4-2.061
			c0.902-0.871,1.359-1.69,1.36-1.693L54.79,39.152"/>
	</g>
	
		<path fill-rule="evenodd" clip-rule="evenodd" fill="#000001" stroke="#000001" stroke-width="0.2835" stroke-miterlimit="22.9256" d="
		M43.979,39.867c0,0.002,0.141,0.863,0.85,1.664c0.712,0.805,2.009,1.556,4.308,1.31c1.916-0.206,3.354-1.14,4.306-2.008
		c0.955-0.871,1.438-1.69,1.439-1.692l-0.194-0.043c0,0-0.119,0.201-0.354,0.509c-0.999,1.305-2.778,2.844-5.229,3.107
		c-2.779,0.299-4.208-0.924-4.766-2.346c-0.121-0.307-0.154-0.515-0.154-0.515L43.979,39.867z"/>
	
		<path fill-rule="evenodd" clip-rule="evenodd" fill="none" stroke="#000001" stroke-width="0.2835" stroke-linejoin="round" stroke-miterlimit="22.9256" d="
		M54.719,39.152c-1.454,2.062-2.955,3.12-4.792,3.511c-1.837,0.392-2.84,0.08-3.88-0.558c-1.039-0.638-1.603-1.854-1.603-1.854
		l-0.172,0.109c0,0.002,0.396,0.725,1.066,1.525c0.673,0.805,2.279,1.708,4.452,1.461c1.812-0.206,3.1-1.191,4-2.061
		c0.902-0.871,1.359-1.69,1.36-1.693L54.719,39.152z"/>
	
		<path fill-rule="evenodd" clip-rule="evenodd" fill="#CED0D1" stroke="#000001" stroke-width="0.2835" stroke-miterlimit="22.9256" d="
		M53.872,41.846l-0.549-0.249c3.52-4.903,3.262-7.035,3.163-7.304c-0.099-0.269-1.168-1.316-1.168-1.316l-0.111-0.527
		c0,0,1.116,0.915,1.35,1.208c0.235,0.292,0.487,0.492,0.422,0.967s0.026,2.247-1.975,5.507
		C54.499,40.955,54.109,41.542,53.872,41.846z"/>
	
		<path fill-rule="evenodd" clip-rule="evenodd" fill="none" stroke="#000001" stroke-width="0.2835" stroke-linejoin="round" stroke-miterlimit="22.9256" d="
		M53.697,41.937l-0.451-0.228c3.52-4.903,3.339-7.147,3.24-7.417c-0.154-0.25-0.672-0.813-0.672-0.813l-0.247-0.732
		c0,0,0.755,0.615,0.99,0.908c0.235,0.292,0.487,0.492,0.422,0.967s0.026,2.247-1.975,5.507
		C54.449,40.959,53.933,41.633,53.697,41.937z"/>
	
		<path fill-rule="evenodd" clip-rule="evenodd" fill="#FFFFFF" stroke="#000001" stroke-width="0.2835" stroke-miterlimit="22.9256" d="
		M56.616,34.634c0,0,0.163,0.77-0.141,1.625S55.63,38.22,55.63,38.22s0.752-1.927,0.883-2.473
		C56.589,35.429,56.616,34.634,56.616,34.634z"/>
	
		<path fill-rule="evenodd" clip-rule="evenodd" fill="none" stroke="#000001" stroke-width="0.2835" stroke-linejoin="round" stroke-miterlimit="22.9256" d="
		M54.868,32.2c-0.121-0.207,0.696,0.229,0.696,0.229s0.049,1.043-0.19,0.634L54.868,32.2z"/>
	
		<path fill-rule="evenodd" clip-rule="evenodd" fill="#BABCBE" stroke="#000001" stroke-width="0.2835" stroke-miterlimit="22.9256" d="
		M55.529,39.091l-0.593,1.12c0,0-0.27-0.378-0.684-0.012l0.627-1.049C54.879,39.15,55.151,38.812,55.529,39.091z"/>
	
		<path fill-rule="evenodd" clip-rule="evenodd" fill="none" stroke="#000001" stroke-width="0.2835" stroke-linejoin="round" stroke-miterlimit="22.9256" d="
		M55.455,39.026l-0.593,1.119c0,0-0.27-0.377-0.684-0.011l0.627-1.05C54.805,39.085,55.077,38.748,55.455,39.026z"/>
	
		<path fill-rule="evenodd" clip-rule="evenodd" fill="#CED0D1" stroke="#000001" stroke-width="0.2835" stroke-miterlimit="22.9256" d="
		M42.407,33.492c0.189-0.342-1.106,0.454-1.47,1.094c-0.451,0.791,0.696,3.699,4.265,7.823l0.403-0.445
		c-3.569-4.125-4.708-6.588-4.16-7.329c0.216-0.293,0.524-0.35,0.651-0.58L42.407,33.492z"/>
	
		<path fill-rule="evenodd" clip-rule="evenodd" fill="none" stroke="#000001" stroke-width="0.2835" stroke-linejoin="round" stroke-miterlimit="22.9256" d="
		M42.437,33.444c0.213-0.3-1.107,0.451-1.5,1.143c-0.451,0.791,0.904,3.722,4.473,7.847l0.324-0.438
		c-3.569-4.125-4.837-6.618-4.289-7.359c0.155-0.21,0.362-0.305,0.483-0.475L42.437,33.444z"/>
	
		<path fill-rule="evenodd" clip-rule="evenodd" fill="#BABCBE" stroke="#000001" stroke-width="0.2835" stroke-miterlimit="22.9256" d="
		M44.959,40.994c-0.76-0.225-0.837,0.01-0.837,0.01l-0.69-0.799c0,0-0.057-0.538,0.752-0.215L44.959,40.994z"/>
	
		<path fill-rule="evenodd" clip-rule="evenodd" fill="none" stroke="#000001" stroke-width="0.2835" stroke-linejoin="round" stroke-miterlimit="22.9256" d="
		M44.961,41.083c-0.75-0.25-0.837-0.076-0.837-0.076l-0.577-0.878c0,0-0.179-0.481,0.615-0.131L44.961,41.083z"/>
	
		<path fill-rule="evenodd" clip-rule="evenodd" fill="#FFFFFF" stroke="#000001" stroke-width="0.2835" stroke-miterlimit="22.9256" d="
		M51.442,44.687c0,0-0.491,0.672-1.578,0.916c0,0,0.015-0.125,0.487-0.306c0.473-0.181,0.641-0.378,0.725-0.447
		C51.161,44.782,51.442,44.687,51.442,44.687z"/>
	
		<path fill-rule="evenodd" clip-rule="evenodd" fill="#FFFFFF" stroke="#000001" stroke-width="0.2835" stroke-miterlimit="22.9256" d="
		M57.227,56.965c0,0-0.458,0.257-1.18,0.083c-0.401-0.098-0.84-0.338-0.84-0.338s0.607,0.197,1.013,0.246
		C56.609,57.003,57.227,56.965,57.227,56.965z"/>
</g>
</svg>
