<svg width="519" height="209" viewBox="0 0 519 209" fill="none" xmlns="http://www.w3.org/2000/svg">
<rect width="519" height="209" fill="white"/>
<path d="M214.5 45.5C214.5 51.2657 211.733 56.8902 206.454 62.1479C201.17 67.4113 193.448 72.2202 183.785 76.291C164.466 84.43 137.673 89.5 108 89.5C78.327 89.5 51.5338 84.43 32.2148 76.291C22.5523 72.2202 14.83 67.4113 9.54574 62.1479C4.26726 56.8902 1.5 51.2657 1.5 45.5C1.5 39.7343 4.26726 34.1098 9.54574 28.8521C14.83 23.5887 22.5523 18.7798 32.2148 14.709C51.5338 6.56995 78.327 1.5 108 1.5C137.673 1.5 164.466 6.56995 183.785 14.709C193.448 18.7798 201.17 23.5887 206.454 28.8521C211.733 34.1098 214.5 39.7343 214.5 45.5Z" fill="white" stroke="black" stroke-width="3"/>
<path d="M133.5 45.5C133.5 57.8422 130.528 68.9431 125.802 76.9079C121.056 84.9051 114.714 89.5 108 89.5C101.286 89.5 94.9437 84.9051 90.1981 76.9079C85.4718 68.9431 82.5 57.8422 82.5 45.5C82.5 33.1578 85.4718 22.0569 90.1981 14.0921C94.9437 6.09486 101.286 1.5 108 1.5C114.714 1.5 121.056 6.09486 125.802 14.0921C130.528 22.0569 133.5 33.1578 133.5 45.5Z" fill="white" stroke="black" stroke-width="3"/>
<circle cx="108.5" cy="45.5" r="10.5" fill="black"/>
<path d="M216.5 45L228.191 207H204.809L216.5 45Z" fill="white" stroke="black" stroke-width="3"/>
<path d="M304.5 45.5C304.5 51.2657 307.267 56.8902 312.546 62.1479C317.83 67.4113 325.552 72.2202 335.215 76.291C354.534 84.43 381.327 89.5 411 89.5C440.673 89.5 467.466 84.43 486.785 76.291C496.448 72.2202 504.17 67.4113 509.454 62.1479C514.733 56.8902 517.5 51.2657 517.5 45.5C517.5 39.7343 514.733 34.1098 509.454 28.8521C504.17 23.5887 496.448 18.7798 486.785 14.709C467.466 6.56995 440.673 1.5 411 1.5C381.327 1.5 354.534 6.56995 335.215 14.709C325.552 18.7798 317.83 23.5887 312.546 28.8521C307.267 34.1098 304.5 39.7343 304.5 45.5Z" fill="white" stroke="black" stroke-width="3"/>
<path d="M385.5 45.5C385.5 57.8422 388.472 68.9431 393.198 76.9079C397.944 84.9051 404.286 89.5 411 89.5C417.714 89.5 424.056 84.9051 428.802 76.9079C433.528 68.9431 436.5 57.8422 436.5 45.5C436.5 33.1578 433.528 22.0569 428.802 14.0921C424.056 6.09486 417.714 1.5 411 1.5C404.286 1.5 397.944 6.09486 393.198 14.0921C388.472 22.0569 385.5 33.1578 385.5 45.5Z" fill="white" stroke="black" stroke-width="3"/>
<circle r="10.5" transform="matrix(-1 0 0 1 410.5 45.5)" fill="black"/>
<path d="M302.5 45L290.809 207H314.191L302.5 45Z" fill="white" stroke="black" stroke-width="3"/>
</svg>
