<svg width="587" height="322" viewBox="0 0 587 322" fill="none" xmlns="http://www.w3.org/2000/svg">
<rect width="587" height="322" fill="white"/>
<path d="M46.5 158.5H163M273.5 158.5H163M163 45V158.5M163 272V158.5" stroke="black" stroke-width="3"/>
<path d="M80.2566 240.77L162.635 158.392M240.77 80.2566L162.635 158.392M82.3779 78.1353L162.635 158.392M242.891 238.649L162.635 158.392" stroke="black" stroke-width="3"/>
<path d="M164.939 20.3633C164.939 22.25 164.705 23.9375 164.236 25.4258C163.768 26.9141 163.07 28.1797 162.145 29.2227C161.219 30.2539 160.07 31.0449 158.699 31.5957C157.34 32.1348 155.764 32.4043 153.971 32.4043C152.201 32.4043 150.654 32.1758 149.33 31.7188C148.018 31.25 146.922 30.541 146.043 29.5918C145.164 28.6426 144.502 27.4355 144.057 25.9707C143.623 24.5059 143.406 22.7715 143.406 20.7676C143.406 18.9277 143.641 17.2754 144.109 15.8105C144.578 14.334 145.275 13.0801 146.201 12.0488C147.127 11.0176 148.27 10.2266 149.629 9.67578C151 9.125 152.588 8.84961 154.393 8.84961C156.115 8.84961 157.633 9.07812 158.945 9.53516C160.27 9.99219 161.371 10.6953 162.25 11.6445C163.141 12.5938 163.809 13.7949 164.254 15.248C164.711 16.6895 164.939 18.3945 164.939 20.3633ZM160.088 20.6094C160.088 19.4141 159.994 18.3301 159.807 17.3574C159.619 16.373 159.297 15.5352 158.84 14.8438C158.395 14.1406 157.797 13.6016 157.047 13.2266C156.297 12.8398 155.359 12.6465 154.234 12.6465C153.098 12.6465 152.148 12.8633 151.387 13.2969C150.625 13.7188 150.01 14.2871 149.541 15.002C149.072 15.7168 148.738 16.5547 148.539 17.5156C148.352 18.4648 148.258 19.4727 148.258 20.5391C148.258 21.7812 148.352 22.9004 148.539 23.8965C148.727 24.8809 149.043 25.7246 149.488 26.4277C149.934 27.1309 150.531 27.6699 151.281 28.0449C152.031 28.4082 152.975 28.5898 154.111 28.5898C155.248 28.5898 156.197 28.3789 156.959 27.957C157.721 27.5352 158.336 26.9609 158.805 26.2344C159.273 25.5078 159.602 24.6641 159.789 23.7031C159.988 22.7305 160.088 21.6992 160.088 20.6094ZM187.738 20.293C187.738 22.3789 187.463 24.166 186.912 25.6543C186.373 27.1309 185.594 28.3379 184.574 29.2754C183.555 30.2129 182.312 30.9043 180.848 31.3496C179.395 31.7832 177.66 32 175.645 32H170.213C169.826 32 169.498 31.8887 169.229 31.666C168.971 31.4316 168.842 31.0566 168.842 30.541V10.7129C168.842 10.1973 168.971 9.82813 169.229 9.60547C169.498 9.37109 169.826 9.25391 170.213 9.25391H176.049C178.076 9.25391 179.793 9.49414 181.199 9.97461C182.617 10.4434 183.807 11.1465 184.768 12.084C185.74 13.0098 186.479 14.1582 186.982 15.5293C187.486 16.9004 187.738 18.4883 187.738 20.293ZM182.957 20.4512C182.957 19.373 182.828 18.3711 182.57 17.4453C182.324 16.5195 181.92 15.7168 181.357 15.0371C180.807 14.3574 180.092 13.8301 179.213 13.4551C178.346 13.0684 177.203 12.875 175.785 12.875H173.447V28.3438H175.855C177.121 28.3438 178.188 28.1797 179.055 27.8516C179.922 27.5234 180.643 27.0312 181.217 26.375C181.803 25.707 182.236 24.8809 182.518 23.8965C182.811 22.9121 182.957 21.7637 182.957 20.4512Z" fill="black"/>
<path d="M311.5 158.5H428M538.5 158.5H428M428 45V158.5M428 272V158.5" stroke="black" stroke-width="3"/>
<path d="M345.257 240.77L427.635 158.392M505.77 80.2566L427.635 158.392M347.378 78.1353L427.635 158.392M507.891 238.649L427.635 158.392" stroke="black" stroke-width="3"/>
<path d="M431.939 20.3633C431.939 22.25 431.705 23.9375 431.236 25.4258C430.768 26.9141 430.07 28.1797 429.145 29.2227C428.219 30.2539 427.07 31.0449 425.699 31.5957C424.34 32.1348 422.764 32.4043 420.971 32.4043C419.201 32.4043 417.654 32.1758 416.33 31.7188C415.018 31.25 413.922 30.541 413.043 29.5918C412.164 28.6426 411.502 27.4355 411.057 25.9707C410.623 24.5059 410.406 22.7715 410.406 20.7676C410.406 18.9277 410.641 17.2754 411.109 15.8105C411.578 14.334 412.275 13.0801 413.201 12.0488C414.127 11.0176 415.27 10.2266 416.629 9.67578C418 9.125 419.588 8.84961 421.393 8.84961C423.115 8.84961 424.633 9.07812 425.945 9.53516C427.27 9.99219 428.371 10.6953 429.25 11.6445C430.141 12.5938 430.809 13.7949 431.254 15.248C431.711 16.6895 431.939 18.3945 431.939 20.3633ZM427.088 20.6094C427.088 19.4141 426.994 18.3301 426.807 17.3574C426.619 16.373 426.297 15.5352 425.84 14.8438C425.395 14.1406 424.797 13.6016 424.047 13.2266C423.297 12.8398 422.359 12.6465 421.234 12.6465C420.098 12.6465 419.148 12.8633 418.387 13.2969C417.625 13.7188 417.01 14.2871 416.541 15.002C416.072 15.7168 415.738 16.5547 415.539 17.5156C415.352 18.4648 415.258 19.4727 415.258 20.5391C415.258 21.7812 415.352 22.9004 415.539 23.8965C415.727 24.8809 416.043 25.7246 416.488 26.4277C416.934 27.1309 417.531 27.6699 418.281 28.0449C419.031 28.4082 419.975 28.5898 421.111 28.5898C422.248 28.5898 423.197 28.3789 423.959 27.957C424.721 27.5352 425.336 26.9609 425.805 26.2344C426.273 25.5078 426.602 24.6641 426.789 23.7031C426.988 22.7305 427.088 21.6992 427.088 20.6094ZM440.482 31.3672C440.482 31.4844 440.441 31.5898 440.359 31.6836C440.289 31.7773 440.166 31.8535 439.99 31.9121C439.814 31.9707 439.58 32.0176 439.287 32.0527C438.994 32.0879 438.619 32.1055 438.162 32.1055C437.717 32.1055 437.342 32.0879 437.037 32.0527C436.744 32.0176 436.51 31.9707 436.334 31.9121C436.158 31.8535 436.029 31.7773 435.947 31.6836C435.877 31.5898 435.842 31.4844 435.842 31.3672V9.88672C435.842 9.76953 435.877 9.66406 435.947 9.57031C436.029 9.47656 436.158 9.40039 436.334 9.3418C436.521 9.2832 436.762 9.23633 437.055 9.20117C437.348 9.16602 437.717 9.14844 438.162 9.14844C438.619 9.14844 438.994 9.16602 439.287 9.20117C439.58 9.23633 439.814 9.2832 439.99 9.3418C440.166 9.40039 440.289 9.47656 440.359 9.57031C440.441 9.66406 440.482 9.76953 440.482 9.88672V31.3672Z" fill="black"/>
</svg>
