<?xml version="1.0" encoding="utf-8"?>
<!-- Generator: Adobe Illustrator 16.0.0, SVG Export Plug-In . SVG Version: 6.00 Build 0)  -->
<!DOCTYPE svg PUBLIC "-//W3C//DTD SVG 1.1//EN" "http://www.w3.org/Graphics/SVG/1.1/DTD/svg11.dtd">
<svg version="1.1" id="Capa_1" xmlns="http://www.w3.org/2000/svg" xmlns:xlink="http://www.w3.org/1999/xlink" x="0px" y="0px"
	 width="172.03px" height="86.523px" viewBox="0 3.977 172.03 86.523" enable-background="new 0 3.977 172.03 86.523"
	 xml:space="preserve">
<rect x="0" y="3.977" fill="none" stroke="#023881" stroke-miterlimit="10" width="172.03" height="86.523"/>
<g>
	<g>
		<path fill="#FFFFFF" d="M88.724,30.95h1.752v12.104h5.8v1.47h-7.552V30.95z"/>
		<path fill="#FFFFFF" d="M99.983,30.95v13.574H98.23V30.95H99.983z"/>
		<path fill="#FFFFFF" d="M106.026,44.524l-4.432-13.574h1.894l2.115,6.688c0.585,1.833,1.088,3.482,1.45,5.074h0.04
			c0.384-1.57,0.948-3.283,1.552-5.056l2.295-6.706h1.873l-4.853,13.574H106.026L106.026,44.524z"/>
		<path fill="#FFFFFF" d="M121.311,38.161h-5.275v4.893h5.882v1.469h-7.634V30.95h7.331v1.472h-5.578v4.288h5.275L121.311,38.161
			L121.311,38.161z"/>
		<path fill="#FFFFFF" d="M98.211,62.451c-0.645,0.323-1.935,0.645-3.586,0.645c-3.826,0-6.705-2.418-6.705-6.868
			c0-4.25,2.881-7.128,7.089-7.128c1.692,0,2.758,0.362,3.222,0.605l-0.424,1.429c-0.664-0.323-1.61-0.563-2.739-0.563
			c-3.181,0-5.296,2.034-5.296,5.598c0,3.324,1.912,5.458,5.216,5.458c1.069,0,2.156-0.221,2.86-0.563L98.211,62.451z"/>
		<path fill="#FFFFFF" d="M111.582,55.966c0,4.673-2.839,7.149-6.303,7.149c-3.585,0-6.103-2.777-6.103-6.888
			c0-4.311,2.679-7.129,6.303-7.129C109.186,49.098,111.582,51.938,111.582,55.966z M101.05,56.188c0,2.9,1.57,5.498,4.331,5.498
			c2.778,0,4.35-2.558,4.35-5.639c0-2.7-1.409-5.52-4.33-5.52C102.5,50.528,101.05,53.207,101.05,56.188z"/>
		<path fill="#FFFFFF" d="M113.86,49.501c1.067-0.161,2.336-0.282,3.726-0.282c2.518,0,4.311,0.584,5.498,1.692
			c1.208,1.108,1.914,2.679,1.914,4.872c0,2.216-0.686,4.028-1.954,5.277c-1.269,1.269-3.363,1.953-6.001,1.953
			c-1.249,0-2.297-0.061-3.183-0.161V49.501z M115.611,61.506c0.444,0.079,1.089,0.1,1.773,0.1c3.746,0,5.779-2.095,5.779-5.761
			c0.021-3.201-1.792-5.235-5.498-5.235c-0.907,0-1.591,0.08-2.056,0.182L115.611,61.506L115.611,61.506z"/>
		<path fill="#FFFFFF" d="M134.301,56.529h-5.276v4.895h5.881v1.471h-7.633V49.319h7.331v1.471h-5.579v4.289h5.276V56.529
			L134.301,56.529z"/>
	</g>
</g>
<path opacity="0.6" fill="#EC008C" enable-background="new    " d="M74.797,62.921h-7.582L52.311,31.469h6.976L74.797,62.921z"/>
<path fill="#F9ED32" d="M87.156,62.921h-7.582L64.673,31.469h6.976L87.156,62.921z"/>
<path fill="#EC008C" d="M52.223,31.469h6.976L44.294,62.921h-7.58L52.223,31.469z"/>
<polygon fill="#27AAE1" points="35.452,31.486 4,44.28 4,44.354 4,50.035 4,50.108 35.452,62.905 35.452,56.649 11.267,47.194 
	35.452,37.74 "/>
<polygon fill="#27AAE1" points="138.063,37.74 162.246,47.194 138.063,56.649 138.063,62.905 169.514,50.108 169.514,50.035 
	169.514,44.354 169.514,44.28 138.063,31.486 "/>
</svg>
