<?xml version="1.0" encoding="UTF-8"?>
<!DOCTYPE svg PUBLIC "-//W3C//DTD SVG 1.1//EN" "http://www.w3.org/Graphics/SVG/1.1/DTD/svg11.dtd">
<!-- Creator: CorelDRAW X7 -->
<svg xmlns="http://www.w3.org/2000/svg" xml:space="preserve" width="21.7592mm" height="7.5352mm" version="1.1" style="shape-rendering:geometricPrecision; text-rendering:geometricPrecision; image-rendering:optimizeQuality; fill-rule:evenodd; clip-rule:evenodd"
viewBox="0 0 2176 754"
 xmlns:xlink="http://www.w3.org/1999/xlink">
 <defs>
  <style type="text/css">
   <![CDATA[
    .str5 {stroke:#013BA9;stroke-width:7.62}
    .str2 {stroke:#FD8C00;stroke-width:7.62}
    .str4 {stroke:#FF5C01;stroke-width:7.62}
    .str3 {stroke:#FF7A01;stroke-width:7.62}
    .str1 {stroke:#FF9F00;stroke-width:7.62}
    .str0 {stroke:#FFAF00;stroke-width:7.62}
    .fil5 {fill:#013BA9}
    .fil2 {fill:#FD8C00}
    .fil4 {fill:#FF5C01}
    .fil3 {fill:#FF7A01}
    .fil1 {fill:#FF9F00}
    .fil0 {fill:#FFAF00}
    .fil6 {fill:#FEFEFE;fill-rule:nonzero}
   ]]>
  </style>
 </defs>
 <g id="Capa_x0020_1">
  <metadata id="CorelCorpID_0Corel-Layer"/>
  <g id="_1005611456">
   <polygon fill="#FFAF00" stroke="#FFAF00" stroke-width="7.62" points="-1,0 249,0 249,250 -1,250 "/>
   <polygon fill="#FF9F00" stroke="#FF9F00" stroke-width="7.62" points="-1,500 249,500 249,250 -1,250 "/>
   <polygon fill="#FD8C00" stroke="#FD8C00" stroke-width="7.62" points="-1,500 249,500 249,750 -1,750 "/>
   <polygon fill="#FF7A01" stroke="#FF7A01" stroke-width="7.62" points="499,500 249,500 249,750 499,750 "/>
   <polygon fill="#FF5C01" stroke="#FF5C01" stroke-width="7.62" points="499,500 749,500 749,750 499,750 "/>
   <polygon fill="#FF7A01" stroke="#FF7A01" stroke-width="7.62" points="499,500 749,500 749,250 499,250 "/>
   <polygon fill="#FD8C00" stroke="#FD8C00" stroke-width="7.62" points="499,0 749,0 749,250 499,250 "/>
   <polygon fill="#FF9F00" stroke="#FF9F00" stroke-width="7.62" points="499,0 249,0 249,250 499,250 "/>
  </g>
  <rect fill="#013BA9" stroke="#013BA9" stroke-width="7.62" x="783" y="3" width="1394" height="750"/>
  <path fill="#FEFEFE" fill-rule="nonzero" d="M1066 450c0,3 0,5 0,7 -1,2 -1,3 -1,5 0,1 -1,2 -1,3 -1,1 -2,2 -3,3 -1,1 -3,3 -7,5 -3,2 -7,3 -12,5 -5,2 -10,3 -16,4 -6,2 -13,2 -20,2 -14,0 -27,-2 -38,-6 -12,-5 -21,-11 -29,-20 -8,-8 -14,-19 -18,-32 -5,-13 -7,-28 -7,-45 0,-17 3,-33 7,-46 5,-14 11,-25 20,-34 8,-10 18,-17 30,-21 11,-5 24,-7 38,-7 6,0 11,0 17,1 5,1 10,2 14,4 5,1 9,3 13,5 3,2 6,4 7,5 1,2 2,3 3,4 1,1 1,2 1,3 1,2 1,4 1,6 0,2 0,4 0,7 0,3 0,6 0,8 0,2 -1,4 -1,6 -1,1 -1,2 -2,3 -1,0 -2,0 -3,0 -1,0 -3,0 -6,-2 -2,-2 -5,-4 -9,-6 -4,-3 -8,-5 -14,-7 -5,-1 -11,-2 -19,-2 -8,0 -15,1 -22,5 -6,3 -11,8 -16,14 -4,6 -8,14 -10,22 -2,9 -4,19 -4,30 0,12 2,22 4,31 3,9 6,16 11,22 4,6 10,10 16,13 7,2 14,4 22,4 8,0 14,-1 19,-3 6,-1 10,-3 14,-5 4,-3 7,-4 10,-6 2,-2 4,-3 5,-3 2,0 2,1 3,1 1,0 1,1 2,2 0,2 0,4 1,6 0,2 0,5 0,9zm212 -74c0,17 -2,32 -7,46 -4,13 -10,24 -19,34 -8,9 -18,16 -30,21 -13,5 -27,8 -43,8 -16,0 -30,-3 -42,-7 -12,-4 -22,-10 -30,-19 -7,-8 -13,-19 -17,-32 -4,-14 -6,-29 -6,-47 0,-17 2,-32 6,-45 4,-13 10,-25 19,-34 8,-9 19,-16 31,-21 12,-5 26,-8 43,-8 15,0 29,2 41,6 12,5 22,11 29,19 8,9 14,20 19,33 4,13 6,28 6,46zm-44 2c0,-11 -1,-20 -3,-29 -1,-9 -4,-17 -8,-23 -4,-6 -10,-11 -17,-15 -6,-3 -15,-5 -25,-5 -10,0 -19,2 -25,6 -7,4 -13,9 -17,16 -4,6 -7,14 -9,22 -2,9 -3,18 -3,28 0,11 1,21 3,30 2,9 5,16 9,23 4,6 9,11 16,14 6,3 15,5 25,5 10,0 19,-2 26,-6 7,-3 12,-9 16,-15 5,-7 8,-14 9,-23 2,-9 3,-18 3,-28zm248 88c0,3 -1,5 -1,7 -1,2 -2,3 -4,5 -1,1 -3,2 -5,2 -2,1 -4,1 -6,1l-18 0c-3,0 -7,0 -9,-1 -3,-1 -5,-2 -8,-4 -2,-2 -4,-4 -6,-8 -2,-3 -5,-7 -7,-13l-51 -96c-3,-5 -6,-12 -9,-18 -3,-7 -6,-13 -9,-19l0 0c1,7 1,15 1,22 0,8 0,16 0,24l0 107c0,1 0,2 0,3 -1,1 -2,2 -3,2 -2,1 -4,1 -6,1 -3,1 -6,1 -10,1 -3,0 -6,0 -9,-1 -2,0 -4,0 -6,-1 -1,0 -2,-1 -2,-2 -1,-1 -1,-2 -1,-3l0 -184c0,-5 1,-9 4,-11 3,-3 7,-4 11,-4l22 0c4,0 8,0 10,1 3,1 6,2 8,3 2,2 4,4 6,7 2,3 4,6 6,10l39 75c3,5 5,9 7,14 3,4 5,8 7,13 2,4 4,9 6,13 2,4 4,8 6,12l0 0c0,-7 0,-15 -1,-23 0,-8 0,-15 0,-23l0 -96c0,-1 0,-2 1,-3 1,-1 2,-1 3,-2 2,-1 4,-1 6,-1 3,-1 6,-1 9,-1 4,0 7,0 10,1 2,0 4,0 5,1 1,1 2,1 3,2 0,1 1,2 1,3l0 184zm186 -16c0,3 0,5 0,7 0,2 0,3 -1,5 0,1 -1,2 -1,3 -1,1 -1,2 -3,3 -1,1 -3,3 -6,5 -4,2 -8,3 -13,5 -4,2 -10,3 -16,4 -6,2 -13,2 -20,2 -14,0 -27,-2 -38,-6 -11,-5 -21,-11 -29,-20 -8,-8 -14,-19 -18,-32 -4,-13 -6,-28 -6,-45 0,-17 2,-33 7,-46 4,-14 11,-25 19,-34 8,-10 18,-17 30,-21 12,-5 25,-7 39,-7 5,0 11,0 16,1 5,1 10,2 15,4 4,1 8,3 12,5 3,2 6,4 7,5 2,2 3,3 3,4 1,1 1,2 2,3 0,2 0,4 0,6 0,2 1,4 1,7 0,3 -1,6 -1,8 0,2 0,4 -1,6 0,1 -1,2 -2,3 -1,0 -1,0 -2,0 -2,0 -4,0 -6,-2 -3,-2 -6,-4 -10,-6 -4,-3 -8,-5 -14,-7 -5,-1 -11,-2 -19,-2 -8,0 -15,1 -21,5 -7,3 -12,8 -17,14 -4,6 -7,14 -10,22 -2,9 -3,19 -3,30 0,12 1,22 3,31 3,9 6,16 11,22 5,6 10,10 17,13 6,2 13,4 22,4 7,0 13,-1 19,-3 5,-1 10,-3 14,-5 3,-3 7,-4 9,-6 3,-2 4,-3 6,-3 1,0 2,1 2,1 1,0 1,1 2,2 0,2 1,4 1,6 0,2 0,5 0,9zm198 15c1,4 2,7 2,9 1,3 0,4 -1,6 -1,1 -3,1 -6,2 -3,0 -7,0 -12,0 -6,0 -10,0 -13,0 -3,0 -5,-1 -7,-1 -1,-1 -2,-1 -3,-2 -1,-1 -1,-2 -2,-4l-13 -41 -77 0 -13 40c-1,2 -1,3 -2,4 -1,1 -2,2 -3,2 -2,1 -4,1 -7,2 -3,0 -6,0 -11,0 -5,0 -8,0 -11,-1 -3,0 -5,-1 -6,-2 -1,-1 -1,-3 -1,-5 0,-2 1,-5 2,-9l63 -182c1,-2 2,-3 3,-4 0,-1 2,-2 4,-3 2,0 4,-1 7,-1 4,0 8,0 13,0 7,0 12,0 15,0 4,0 7,1 9,1 2,1 3,2 4,3 1,1 2,3 3,5l63 181zm-94 -150l0 0 -29 87 58 0 -29 -87zm275 161c0,1 0,2 -1,3 0,0 -1,1 -3,2 -1,0 -4,0 -7,1 -3,0 -7,0 -12,0 -5,0 -8,0 -11,0 -3,-1 -5,-1 -6,-2 -2,0 -3,-1 -3,-2 -1,-1 -2,-2 -2,-3l-18 -46c-3,-5 -5,-10 -7,-14 -2,-4 -4,-7 -7,-10 -3,-3 -6,-5 -9,-6 -3,-1 -7,-2 -12,-2l-13 0 0 78c0,1 0,2 -1,3 -1,1 -2,2 -3,2 -2,1 -4,1 -7,1 -2,1 -6,1 -10,1 -4,0 -7,0 -10,-1 -2,0 -4,0 -6,-1 -2,0 -3,-1 -3,-2 -1,-1 -1,-2 -1,-3l0 -186c0,-5 1,-8 3,-10 3,-2 6,-3 9,-3l53 0c5,0 10,0 13,0 4,0 7,1 10,1 8,1 16,3 22,6 7,3 12,7 17,11 5,5 8,10 10,16 3,7 4,14 4,22 0,7 -1,13 -3,19 -1,5 -4,10 -7,15 -4,4 -8,8 -13,11 -5,4 -10,6 -17,8 3,2 6,4 9,6 3,2 5,4 8,7 2,4 4,7 6,11 2,4 4,8 6,13l18 40c1,4 2,7 3,9 1,2 1,4 1,5zm-54 -140c0,-6 -2,-12 -5,-17 -3,-4 -8,-8 -15,-10 -2,0 -4,-1 -7,-1 -3,0 -6,0 -11,0l-19 0 0 58 21 0c6,0 12,-1 16,-2 4,-2 8,-4 11,-6 3,-3 5,-6 7,-10 1,-3 2,-7 2,-12z"/>
 </g>
</svg>
