<?xml version="1.0" encoding="iso-8859-1"?>
<!-- Generator: Adobe Illustrator 16.0.0, SVG Export Plug-In . SVG Version: 6.00 Build 0)  -->
<!DOCTYPE svg PUBLIC "-//W3C//DTD SVG 1.1//EN" "http://www.w3.org/Graphics/SVG/1.1/DTD/svg11.dtd">
<svg version="1.1" id="Capa_1" xmlns="http://www.w3.org/2000/svg" xmlns:xlink="http://www.w3.org/1999/xlink" x="0px" y="0px" width="348.333px" height="348.334px" viewBox="0 0 348.3 348.3" style="enable-background:new 0 0 348.3 348.3;" xml:space="preserve">
	<style type="text/css">
	.st0{fill:#1B3DFF;stroke:#0058FF;stroke-width:8;stroke-miterlimit:10;}
</style>
	<path class="st0" d="M322.7,297.5L199.4,174.2L322.7,50.9c5.9-5.9,5.9-15.4,0-21.2l-4-4c-5.9-5.9-15.4-5.9-21.2,0L174.2,148.9
	L50.9,25.6c-5.9-5.9-15.4-5.9-21.2,0l-4,4c-5.9,5.9-5.9,15.4,0,21.2l123.3,123.3L25.6,297.5c-5.9,5.9-5.9,15.4,0,21.2l4,4
	c5.9,5.9,15.4,5.9,21.2,0l123.3-123.3l123.3,123.3c5.9,5.9,15.4,5.9,21.2,0l4-4C328.6,312.8,328.6,303.3,322.7,297.5z" />
</svg>