<?xml version="1.0" encoding="utf-8"?>
<!-- Generator: Adobe Illustrator 16.0.0, SVG Export Plug-In . SVG Version: 6.00 Build 0)  -->
<!DOCTYPE svg PUBLIC "-//W3C//DTD SVG 1.1//EN" "http://www.w3.org/Graphics/SVG/1.1/DTD/svg11.dtd">
<svg version="1.1" id="Layer_1" xmlns="http://www.w3.org/2000/svg" xmlns:xlink="http://www.w3.org/1999/xlink" x="0px" y="0px"
	 width="298px" height="365.75px" viewBox="0 0 298 365.75" enable-background="new 0 0 298 365.75" xml:space="preserve">
<radialGradient id="SVGID_1_" cx="146.0488" cy="297.8887" r="164.1761" gradientTransform="matrix(1 0 0 -1 0 445.5)" gradientUnits="userSpaceOnUse">
	<stop  offset="0.5393" style="stop-color:#FFFFFF"/>
	<stop  offset="0.657" style="stop-color:#FDFFFF"/>
	<stop  offset="0.6994" style="stop-color:#F6FDFD"/>
	<stop  offset="0.7296" style="stop-color:#EBFAFB"/>
	<stop  offset="0.754" style="stop-color:#DAF6F7"/>
	<stop  offset="0.775" style="stop-color:#C4F1F3"/>
	<stop  offset="0.7935" style="stop-color:#A8EBED"/>
	<stop  offset="0.8103" style="stop-color:#88E3E7"/>
	<stop  offset="0.8252" style="stop-color:#64DBDF"/>
	<stop  offset="0.8325" style="stop-color:#4FD6DB"/>
</radialGradient>
<path opacity="0.3" fill="url(#SVGID_1_)" enable-background="new    " d="M146.051,16.465
	c-72.439,0-131.148,58.689-131.148,131.146c0,72.445,58.709,131.146,131.148,131.146c72.45,0,131.144-58.701,131.144-131.146
	C277.194,75.154,218.502,16.465,146.051,16.465z"/>
<radialGradient id="SVGID_2_" cx="146.0488" cy="297.8887" r="85.839" gradientTransform="matrix(1 0 0 -1 0 445.5)" gradientUnits="userSpaceOnUse">
	<stop  offset="0.1571" style="stop-color:#1C8BBB"/>
	<stop  offset="0.3409" style="stop-color:#1C88B8"/>
	<stop  offset="0.468" style="stop-color:#1C7FB0"/>
	<stop  offset="0.5779" style="stop-color:#1D70A2"/>
	<stop  offset="0.678" style="stop-color:#1D5A8E"/>
	<stop  offset="0.7706" style="stop-color:#1E3E75"/>
	<stop  offset="0.8325" style="stop-color:#1F2760"/>
</radialGradient>
<path fill="url(#SVGID_2_)" d="M146.048,80.297c-37.18,0-67.313,30.13-67.313,67.314c0,37.178,30.134,67.315,67.313,67.315
	c37.181,0,67.315-30.138,67.315-67.315C213.363,110.427,183.229,80.297,146.048,80.297z"/>
<radialGradient id="SVGID_3_" cx="135.4443" cy="361.3594" r="69.3106" gradientTransform="matrix(0.9463 0 0 -0.9463 17.8783 489.5676)" gradientUnits="userSpaceOnUse">
	<stop  offset="0.2289" style="stop-color:#FFFFFF;stop-opacity:0"/>
	<stop  offset="0.7535" style="stop-color:#FFFFFF;stop-opacity:0.8116"/>
	<stop  offset="0.8429" style="stop-color:#FFFFFF;stop-opacity:0.95"/>
</radialGradient>
<path fill="url(#SVGID_3_)" d="M146.051,103.509c-24.361,0-44.104,19.744-44.104,44.102c0,24.356,19.744,44.103,44.104,44.103
	c24.355,0,44.1-19.746,44.1-44.103C190.15,123.253,170.406,103.509,146.051,103.509z"/>
<g>
	<path fill="#4FD6EF" d="M146.048,13.135c-29.129,0-52.744,60.207-52.744,134.477s23.614,134.477,52.744,134.477
		s52.744-60.207,52.744-134.477S175.179,13.135,146.048,13.135z M146.048,275.572c-27.528,0-49.838-57.29-49.838-127.961
		c0-70.673,22.31-127.963,49.838-127.963c27.527,0,49.838,57.29,49.838,127.963C195.887,218.283,173.575,275.572,146.048,275.572z"
		/>
	<g>
		<circle fill="#2090D3" cx="146.048" cy="16.823" r="12.512"/>
		<circle fill="#2090D3" cx="146.048" cy="278.398" r="12.513"/>
	</g>
	<path fill="#4FD6EF" d="M280.524,147.611c0-29.129-60.206-52.745-134.475-52.745c-74.269,0-134.476,23.616-134.476,52.745
		c0,29.129,60.207,52.744,134.476,52.744C220.318,200.355,280.524,176.741,280.524,147.611z M18.087,147.611
		c0-27.527,57.292-49.837,127.961-49.837c70.672,0,127.961,22.311,127.961,49.837c0,27.527-57.289,49.839-127.961,49.839
		C75.379,197.45,18.087,175.139,18.087,147.611z"/>
	<g>
		<circle fill="#2090D3" cx="276.835" cy="147.612" r="12.513"/>
		<path fill="#2090D3" d="M15.262,160.125c-6.909,0-12.512-5.602-12.512-12.514c0-6.911,5.603-12.513,12.512-12.513
			c6.913,0,12.514,5.602,12.514,12.513C27.776,154.523,22.174,160.125,15.262,160.125z"/>
	</g>
	<path fill="#4FD6EF" d="M50.959,52.523c-20.599,20.598,5.277,79.869,57.793,132.385c52.514,52.518,111.788,78.39,132.384,57.793
		c20.598-20.599-5.275-79.869-57.791-132.385C130.828,57.8,71.558,31.925,50.959,52.523z M236.529,238.095
		c-19.463,19.466-75.75-5.272-125.721-55.243C60.836,132.88,36.101,76.595,55.566,57.129c19.464-19.465,75.751,5.269,125.723,55.24
		C231.261,162.344,255.995,218.629,236.529,238.095z"/>
	<g>
		<circle fill="#2090D3" cx="53.569" cy="55.131" r="12.512"/>
		<circle fill="#2090D3" cx="238.528" cy="240.093" r="12.513"/>
	</g>
	<path fill="#4FD6EF" d="M241.137,52.523c-20.597-20.598-79.869,5.277-132.383,57.792C56.237,162.831,30.363,222.101,50.959,242.7
		c20.598,20.598,79.87-5.277,132.384-57.792C235.862,132.392,261.735,73.121,241.137,52.523z M55.568,238.092
		c-19.466-19.463,5.269-75.749,55.24-125.723c49.972-49.971,106.258-74.706,125.725-55.241
		c19.463,19.464-5.27,75.751-55.242,125.722C131.319,232.824,75.032,257.558,55.568,238.092z"/>
	<g>
		<circle fill="#2090D3" cx="238.528" cy="55.131" r="12.512"/>
		<path fill="#2090D3" d="M62.417,248.941c-4.886,4.884-12.81,4.884-17.695,0c-4.888-4.887-4.887-12.812,0-17.698
			c4.886-4.887,12.808-4.887,17.695,0C67.303,236.13,67.303,244.055,62.417,248.941z"/>
	</g>
</g>
<polygon fill="#FFFFFF" points="179.702,136.928 156.734,136.928 156.734,113.955 135.362,113.955 135.362,136.928 112.395,136.928 
	112.395,158.293 135.362,158.293 135.362,181.268 156.734,181.268 156.734,158.293 179.702,158.293 "/>
<rect x="18.308" y="331.866" fill="#4FD6EF" width="255.483" height="1.995"/>
<path fill="#4FD6EF" d="M229.254,146.505c-0.595-45.379-37.688-82.113-83.206-82.113c-45.518,0-82.61,36.734-83.206,82.113
	l-0.008,1.638c0.288,45.643,37.504,82.688,83.214,82.688s82.925-37.044,83.214-82.688L229.254,146.505z M146.048,229.193
	c-44.983,0-81.582-36.596-81.582-81.582c0-44.984,36.599-81.582,81.582-81.582c44.985,0,81.582,36.598,81.582,81.582
	C227.63,192.598,191.033,229.193,146.048,229.193z"/>
<g opacity="0.8">
	<path fill="#FFFFFF" d="M41.633,319.674l4.697-0.333c0.102,0.861,0.308,1.519,0.621,1.97c0.508,0.73,1.235,1.095,2.179,1.095
		c0.706,0,1.248-0.187,1.629-0.56s0.572-0.807,0.572-1.299c0-0.468-0.182-0.886-0.545-1.256c-0.364-0.369-1.206-0.719-2.528-1.046
		c-2.165-0.55-3.709-1.28-4.631-2.191c-0.929-0.911-1.395-2.072-1.395-3.483c0-0.928,0.238-1.805,0.714-2.629
		c0.476-0.824,1.191-1.473,2.146-1.946c0.956-0.472,2.265-0.707,3.929-0.707c2.041,0,3.598,0.429,4.669,1.286
		c1.072,0.858,1.709,2.223,1.913,4.094l-4.653,0.308c-0.123-0.813-0.383-1.404-0.779-1.773c-0.396-0.369-0.942-0.554-1.639-0.554
		c-0.574,0-1.006,0.138-1.297,0.412c-0.29,0.275-0.436,0.61-0.436,1.005c0,0.286,0.12,0.546,0.359,0.774
		c0.232,0.238,0.785,0.46,1.656,0.665c2.158,0.524,3.704,1.058,4.637,1.594c0.934,0.538,1.613,1.205,2.038,2.001
		s0.638,1.687,0.638,2.672c0,1.157-0.284,2.224-0.85,3.2c-0.567,0.977-1.358,1.718-2.375,2.223
		c-1.017,0.504-2.299,0.758-3.847,0.758c-2.717,0-4.599-0.591-5.645-1.773C42.363,322.997,41.771,321.495,41.633,319.674z"/>
	<path fill="#FFFFFF" d="M58.807,307.595h4.947v18.05h-4.947V307.595z"/>
	<path fill="#FFFFFF" d="M66.436,319.674l4.697-0.333c0.102,0.861,0.308,1.519,0.621,1.97c0.508,0.73,1.235,1.095,2.179,1.095
		c0.706,0,1.248-0.187,1.629-0.56s0.572-0.807,0.572-1.299c0-0.468-0.182-0.886-0.545-1.256c-0.364-0.369-1.206-0.719-2.528-1.046
		c-2.165-0.55-3.709-1.28-4.631-2.191c-0.929-0.911-1.395-2.072-1.395-3.483c0-0.928,0.238-1.805,0.714-2.629
		c0.476-0.824,1.191-1.473,2.146-1.946c0.956-0.472,2.265-0.707,3.929-0.707c2.041,0,3.598,0.429,4.669,1.286
		c1.072,0.858,1.709,2.223,1.913,4.094l-4.653,0.308c-0.123-0.813-0.383-1.404-0.779-1.773c-0.396-0.369-0.942-0.554-1.639-0.554
		c-0.574,0-1.006,0.138-1.297,0.412c-0.29,0.275-0.436,0.61-0.436,1.005c0,0.286,0.12,0.546,0.359,0.774
		c0.233,0.238,0.785,0.46,1.656,0.665c2.158,0.524,3.704,1.058,4.637,1.594c0.934,0.538,1.613,1.205,2.038,2.001
		s0.638,1.687,0.638,2.672c0,1.157-0.284,2.224-0.85,3.2c-0.567,0.977-1.358,1.718-2.375,2.223
		c-1.017,0.504-2.299,0.758-3.847,0.758c-2.717,0-4.599-0.591-5.645-1.773C67.165,322.997,66.574,321.495,66.436,319.674z"/>
	<path fill="#FFFFFF" d="M82.291,307.595h15.005v4.458h-5.034v13.592h-4.937v-13.592h-5.034V307.595z"/>
	<path fill="#FFFFFF" d="M99.519,307.595h13.229v3.854h-8.282v2.869h7.683v3.681h-7.683v3.559h8.522v4.088H99.519V307.595z"/>
	<path fill="#FFFFFF" d="M115.592,307.595h6.493l2.503,10.982l2.486-10.982h6.488v18.05h-4.042V311.88l-3.115,13.765h-3.66
		l-3.109-13.765v13.765h-4.042L115.592,307.595L115.592,307.595z"/>
	<path fill="#FFFFFF" d="M146.533,322.664h-5.604l-0.778,2.98h-5.04l6.004-18.05h5.385l6.003,18.05h-5.169L146.533,322.664z
		 M145.508,318.762l-1.763-6.488L142,318.762H145.508z"/>
	<path fill="#FFFFFF" d="M161.459,307.595h6.492l2.504,10.982l2.485-10.982h6.488v18.05h-4.042V311.88l-3.115,13.765h-3.66
		l-3.109-13.765v13.765h-4.042L161.459,307.595L161.459,307.595z"/>
	<path fill="#FFFFFF" d="M182.566,307.595h13.229v3.854h-8.282v2.869h7.683v3.681h-7.683v3.559h8.522v4.088h-13.469V307.595z"/>
	<path fill="#FFFFFF" d="M198.761,307.595h7.334c1.444,0,2.612,0.222,3.502,0.665c0.891,0.443,1.626,1.079,2.207,1.908
		c0.58,0.829,1.002,1.794,1.264,2.894c0.262,1.101,0.393,2.265,0.393,3.497c0,1.929-0.194,3.424-0.583,4.487
		s-0.929,1.953-1.618,2.672c-0.688,0.719-1.431,1.196-2.223,1.435c-1.082,0.328-2.063,0.492-2.941,0.492h-7.334V307.595z
		 M203.696,311.683v9.861h1.21c1.03,0,1.766-0.129,2.201-0.388c0.436-0.258,0.776-0.71,1.024-1.354
		c0.247-0.645,0.37-1.688,0.37-3.133c0-1.913-0.276-3.222-0.828-3.927c-0.552-0.707-1.468-1.06-2.747-1.06H203.696L203.696,311.683z
		"/>
	<path fill="#FFFFFF" d="M216.25,307.595h4.946v18.05h-4.946V307.595z"/>
	<path fill="#FFFFFF" d="M235.374,318.257l4.327,1.478c-0.291,1.371-0.749,2.516-1.374,3.435c-0.624,0.92-1.398,1.614-2.325,2.082
		s-2.105,0.701-3.536,0.701c-1.737,0-3.155-0.286-4.257-0.855c-1.099-0.57-2.05-1.572-2.849-3.008
		c-0.8-1.436-1.199-3.272-1.199-5.512c0-2.986,0.704-5.282,2.109-6.885c1.405-1.604,3.395-2.405,5.966-2.405
		c2.014,0,3.595,0.46,4.746,1.379s2.006,2.331,2.566,4.235l-4.359,1.095c-0.151-0.549-0.312-0.951-0.479-1.206
		c-0.275-0.427-0.613-0.755-1.013-0.985c-0.4-0.23-0.847-0.346-1.341-0.346c-1.118,0-1.977,0.509-2.572,1.525
		c-0.45,0.755-0.675,1.938-0.675,3.554c0,2.001,0.269,3.372,0.807,4.113c0.538,0.742,1.294,1.113,2.268,1.113
		c0.943,0,1.657-0.299,2.141-0.898C234.807,320.269,235.157,319.398,235.374,318.257z"/>
	<path fill="#FFFFFF" d="M241.477,316.632c0-2.946,0.727-5.241,2.18-6.883s3.477-2.462,6.069-2.462c2.659,0,4.708,0.808,6.146,2.419
		c1.438,1.613,2.158,3.872,2.158,6.777c0,2.111-0.315,3.84-0.943,5.19s-1.536,2.4-2.724,3.151c-1.188,0.75-2.669,1.127-4.44,1.127
		c-1.802,0-3.294-0.324-4.475-0.973s-2.137-1.675-2.871-3.078C241.844,320.498,241.477,318.741,241.477,316.632z M246.414,316.655
		c0,1.823,0.3,3.133,0.898,3.929c0.6,0.796,1.415,1.194,2.446,1.194c1.061,0,1.882-0.39,2.463-1.169s0.872-2.179,0.872-4.198
		c0-1.7-0.303-2.941-0.909-3.725c-0.606-0.784-1.431-1.176-2.468-1.176c-0.996,0-1.796,0.398-2.397,1.195
		C246.715,313.501,246.414,314.818,246.414,316.655z"/>
	<path fill="#FFFFFF" d="M14.657,349.931l4.697-0.331c0.102,0.861,0.309,1.519,0.621,1.97c0.508,0.729,1.235,1.095,2.179,1.095
		c0.705,0,1.248-0.187,1.629-0.56c0.381-0.374,0.572-0.807,0.572-1.299c0-0.467-0.182-0.887-0.545-1.256
		c-0.364-0.37-1.206-0.719-2.528-1.047c-2.165-0.55-3.708-1.281-4.631-2.191c-0.93-0.911-1.395-2.072-1.395-3.484
		c0-0.927,0.237-1.803,0.713-2.629c0.476-0.824,1.191-1.474,2.146-1.945s2.265-0.708,3.929-0.708c2.041,0,3.598,0.429,4.669,1.288
		c1.072,0.857,1.709,2.222,1.913,4.093l-4.653,0.308c-0.124-0.813-0.384-1.403-0.779-1.772c-0.396-0.369-0.943-0.555-1.64-0.555
		c-0.574,0-1.006,0.138-1.297,0.414c-0.29,0.274-0.436,0.608-0.436,1.002c0,0.287,0.12,0.547,0.359,0.775
		c0.233,0.238,0.785,0.46,1.656,0.665c2.157,0.525,3.704,1.058,4.637,1.596c0.934,0.537,1.613,1.203,2.038,2
		c0.425,0.797,0.638,1.688,0.638,2.672c0,1.158-0.283,2.226-0.85,3.202c-0.567,0.977-1.358,1.717-2.375,2.222
		c-1.017,0.505-2.299,0.758-3.847,0.758c-2.717,0-4.599-0.591-5.645-1.773C15.387,353.255,14.795,351.754,14.657,349.931z"/>
	<path fill="#FFFFFF" d="M41.457,352.923h-5.604l-0.779,2.979h-5.04l6.004-18.049h5.385l6.003,18.049h-5.169L41.457,352.923z
		 M40.432,349.02l-1.763-6.487l-1.746,6.487H40.432z"/>
	<path fill="#FFFFFF" d="M48.994,337.854h4.937v13.604h7.705v4.444h-12.64L48.994,337.854L48.994,337.854z"/>
	<path fill="#FFFFFF" d="M73.698,337.854h4.926v10.752c0,1.066-0.147,2.073-0.441,3.021c-0.293,0.947-0.756,1.775-1.384,2.484
		c-0.628,0.71-1.288,1.208-1.978,1.495c-0.958,0.401-2.11,0.603-3.454,0.603c-0.777,0-1.626-0.062-2.544-0.186
		c-0.918-0.123-1.688-0.365-2.305-0.73s-1.183-0.885-1.694-1.557c-0.512-0.674-0.863-1.365-1.052-2.079
		c-0.305-1.148-0.458-2.167-0.458-3.052v-10.752h4.926v11.009c0,0.984,0.241,1.753,0.724,2.306c0.483,0.554,1.154,0.831,2.011,0.831
		c0.85,0,1.516-0.273,2-0.818c0.483-0.547,0.725-1.319,0.725-2.318V337.854z"/>
	<path fill="#FFFFFF" d="M81.958,337.854h7.334c1.446,0,2.613,0.221,3.503,0.664c0.89,0.444,1.626,1.079,2.207,1.908
		c0.581,0.828,1.002,1.793,1.264,2.893c0.262,1.101,0.393,2.266,0.393,3.497c0,1.929-0.195,3.425-0.583,4.487
		c-0.388,1.063-0.928,1.954-1.618,2.673c-0.689,0.719-1.431,1.195-2.223,1.434c-1.082,0.328-2.063,0.492-2.942,0.492h-7.334V337.854
		z M86.895,341.94v9.862h1.21c1.031,0,1.766-0.13,2.201-0.388c0.436-0.258,0.777-0.711,1.025-1.355
		c0.247-0.644,0.37-1.688,0.37-3.133c0-1.912-0.276-3.222-0.828-3.928c-0.552-0.704-1.467-1.059-2.746-1.059H86.895L86.895,341.94z"
		/>
	<path fill="#FFFFFF" d="M106.074,346.89c0-2.945,0.727-5.24,2.18-6.882c1.453-1.641,3.476-2.463,6.07-2.463
		c2.659,0,4.708,0.807,6.146,2.42c1.438,1.613,2.157,3.872,2.157,6.778c0,2.108-0.314,3.839-0.943,5.189
		c-0.628,1.351-1.536,2.4-2.724,3.151c-1.188,0.75-2.667,1.127-4.441,1.127c-1.801,0-3.292-0.324-4.474-0.973
		c-1.18-0.648-2.137-1.675-2.871-3.078C106.44,350.756,106.074,349,106.074,346.89z M111.011,346.914c0,1.822,0.3,3.132,0.899,3.929
		c0.599,0.795,1.415,1.194,2.446,1.194c1.061,0,1.882-0.39,2.463-1.17c0.582-0.78,0.872-2.179,0.872-4.198
		c0-1.699-0.303-2.941-0.909-3.725c-0.607-0.783-1.43-1.176-2.469-1.176c-0.995,0-1.794,0.398-2.397,1.194
		C111.312,343.759,111.011,345.076,111.011,346.914z"/>
	<path fill="#FFFFFF" d="M135.921,348.515l4.326,1.479c-0.291,1.371-0.749,2.515-1.373,3.435c-0.624,0.92-1.399,1.612-2.326,2.081
		c-0.927,0.468-2.105,0.701-3.536,0.701c-1.736,0-3.155-0.285-4.256-0.855c-1.1-0.57-2.05-1.572-2.849-3.009
		c-0.799-1.435-1.199-3.272-1.199-5.512c0-2.985,0.704-5.28,2.109-6.884s3.395-2.406,5.966-2.406c2.013,0,3.594,0.46,4.746,1.38
		c1.151,0.92,2.006,2.331,2.566,4.234l-4.359,1.097c-0.152-0.552-0.312-0.954-0.479-1.207c-0.276-0.427-0.614-0.755-1.014-0.985
		c-0.4-0.229-0.847-0.345-1.341-0.345c-1.119,0-1.977,0.509-2.572,1.525c-0.451,0.755-0.675,1.938-0.675,3.553
		c0,2.001,0.269,3.372,0.807,4.114s1.293,1.113,2.267,1.113c0.944,0,1.658-0.3,2.141-0.898
		C135.353,350.526,135.703,349.656,135.921,348.515z"/>
	<path fill="#FFFFFF" d="M153.041,337.854h4.925v10.752c0,1.066-0.146,2.073-0.441,3.021c-0.294,0.947-0.756,1.775-1.384,2.484
		c-0.628,0.71-1.288,1.208-1.979,1.495c-0.959,0.401-2.11,0.603-3.455,0.603c-0.776,0-1.625-0.062-2.544-0.186
		c-0.918-0.123-1.687-0.365-2.305-0.73c-0.618-0.365-1.182-0.885-1.694-1.557c-0.512-0.674-0.862-1.365-1.051-2.079
		c-0.305-1.148-0.458-2.167-0.458-3.052v-10.752h4.927v11.009c0,0.984,0.241,1.753,0.724,2.306c0.483,0.554,1.153,0.831,2.011,0.831
		c0.85,0,1.516-0.273,2-0.818c0.483-0.547,0.725-1.319,0.725-2.318V337.854L153.041,337.854z"/>
	<path fill="#FFFFFF" d="M161.213,337.854h8.206c1.788,0,3.127,0.479,4.017,1.439s1.334,2.326,1.334,4.1
		c0,1.822-0.484,3.247-1.455,4.272c-0.97,1.026-2.45,1.539-4.44,1.539h-2.702v6.697h-4.958v-18.048H161.213z M166.172,345.549h1.21
		c0.952,0,1.62-0.187,2.004-0.561c0.386-0.373,0.577-0.852,0.577-1.434c0-0.566-0.167-1.047-0.501-1.44s-0.963-0.591-1.885-0.591
		h-1.406V345.549L166.172,345.549z"/>
	<path fill="#FFFFFF" d="M185.277,352.923h-5.604l-0.778,2.979h-5.04l6.004-18.049h5.385l6.003,18.049h-5.17L185.277,352.923z
		 M184.254,349.02l-1.764-6.487l-1.746,6.487H184.254z"/>
	<path fill="#FFFFFF" d="M203.049,348.515l4.325,1.479c-0.29,1.371-0.749,2.515-1.373,3.435s-1.399,1.612-2.326,2.081
		c-0.926,0.468-2.104,0.701-3.535,0.701c-1.737,0-3.155-0.285-4.256-0.855s-2.051-1.572-2.851-3.009
		c-0.799-1.435-1.197-3.272-1.197-5.512c0-2.985,0.703-5.28,2.108-6.884s3.395-2.406,5.967-2.406c2.013,0,3.593,0.46,4.745,1.38
		c1.151,0.92,2.006,2.331,2.566,4.234l-4.359,1.097c-0.151-0.552-0.313-0.954-0.479-1.207c-0.275-0.427-0.613-0.755-1.013-0.985
		c-0.4-0.229-0.847-0.345-1.342-0.345c-1.118,0-1.976,0.509-2.571,1.525c-0.45,0.755-0.676,1.938-0.676,3.553
		c0,2.001,0.271,3.372,0.808,4.114c0.538,0.742,1.293,1.113,2.267,1.113c0.944,0,1.658-0.3,2.142-0.898
		C202.479,350.526,202.831,349.656,203.049,348.515z"/>
	<path fill="#FFFFFF" d="M209.967,337.854h4.947v18.049h-4.947V337.854z"/>
	<path fill="#FFFFFF" d="M217.835,346.89c0-2.945,0.727-5.24,2.18-6.882c1.452-1.641,3.476-2.463,6.07-2.463
		c2.657,0,4.707,0.807,6.145,2.42c1.438,1.613,2.157,3.872,2.157,6.778c0,2.108-0.313,3.839-0.942,5.189s-1.536,2.4-2.725,3.151
		c-1.188,0.75-2.667,1.127-4.44,1.127c-1.801,0-3.293-0.324-4.474-0.973c-1.18-0.648-2.137-1.675-2.871-3.078
		C218.202,350.756,217.835,349,217.835,346.89z M222.771,346.914c0,1.822,0.3,3.132,0.899,3.929c0.6,0.795,1.415,1.194,2.447,1.194
		c1.06,0,1.881-0.39,2.462-1.17s0.872-2.179,0.872-4.198c0-1.699-0.303-2.941-0.91-3.725c-0.605-0.783-1.429-1.176-2.468-1.176
		c-0.994,0-1.794,0.398-2.396,1.194C223.073,343.759,222.771,345.076,222.771,346.914z"/>
	<path fill="#FFFFFF" d="M237.08,337.854h4.609l6.015,9.984v-9.984h4.653v18.049h-4.653l-5.982-9.911v9.911h-4.643L237.08,337.854
		L237.08,337.854z"/>
	<path fill="#FFFFFF" d="M265.242,352.923h-5.605l-0.778,2.979h-5.04l6.005-18.049h5.385l6.003,18.049h-5.168L265.242,352.923z
		 M264.218,349.02l-1.763-6.487l-1.746,6.487H264.218z"/>
	<path fill="#FFFFFF" d="M272.779,337.854h4.937v13.604h7.704v4.444h-12.64L272.779,337.854L272.779,337.854z"/>
</g>
</svg>
