<?xml version="1.0" encoding="utf-8"?>
<!-- Generator: Adobe Illustrator 16.0.0, SVG Export Plug-In . SVG Version: 6.00 Build 0)  -->
<!DOCTYPE svg PUBLIC "-//W3C//DTD SVG 1.1//EN" "http://www.w3.org/Graphics/SVG/1.1/DTD/svg11.dtd">
<svg version="1.1" id="Layer_1" xmlns="http://www.w3.org/2000/svg" xmlns:xlink="http://www.w3.org/1999/xlink" x="0px" y="0px"
	 width="142.875px" height="175.375px" viewBox="0 0 142.875 175.375" enable-background="new 0 0 142.875 175.375"
	 xml:space="preserve">
<g opacity="0.1">
	<path fill="#4FD6EF" d="M72.904,8.569c-14.058,0-25.454,29.055-25.454,64.896c0,35.842,11.396,64.896,25.454,64.896
		c14.058,0,25.453-29.055,25.453-64.896C98.357,37.624,86.961,8.569,72.904,8.569z M72.904,135.217
		c-13.285,0-24.051-27.646-24.051-61.752c0-34.105,10.767-61.752,24.051-61.752c13.283,0,24.051,27.647,24.051,61.752
		C96.955,107.57,86.188,135.217,72.904,135.217z"/>
	<g>
		<circle fill="#2090D3" cx="72.904" cy="10.349" r="6.038"/>
		<circle fill="#2090D3" cx="72.904" cy="136.581" r="6.038"/>
	</g>
	<path fill="#4FD6EF" d="M137.8,73.465c0-14.057-29.055-25.454-64.896-25.454c-35.841,0-64.896,11.396-64.896,25.454
		c0,14.058,29.055,25.454,64.896,25.454C108.745,98.919,137.8,87.523,137.8,73.465z M11.151,73.465
		c0-13.284,27.648-24.05,61.751-24.05c34.105,0,61.752,10.767,61.752,24.05c0,13.285-27.646,24.053-61.752,24.053
		C38.8,97.518,11.151,86.75,11.151,73.465z"/>
	<g>
		<circle fill="#2090D3" cx="136.02" cy="73.466" r="6.039"/>
		<path fill="#2090D3" d="M9.788,79.505c-3.334,0-6.038-2.704-6.038-6.04c0-3.335,2.704-6.038,6.038-6.038
			c3.336,0,6.039,2.703,6.039,6.038C15.827,76.801,13.124,79.505,9.788,79.505z"/>
	</g>
	<path fill="#4FD6EF" d="M27.015,27.577c-9.94,9.94,2.547,38.544,27.891,63.887c25.342,25.345,53.948,37.83,63.887,27.89
		s-2.546-38.542-27.891-63.887C65.559,30.124,36.956,17.637,27.015,27.577z M116.568,117.131
		c-9.394,9.395-36.557-2.544-60.671-26.66C31.781,66.356,19.845,39.194,29.238,29.8c9.393-9.394,36.557,2.543,60.672,26.658
		C114.025,80.575,125.962,107.738,116.568,117.131z"/>
	<g>
		<circle fill="#2090D3" cx="28.274" cy="28.836" r="6.038"/>
		<circle fill="#2090D3" cx="117.533" cy="118.096" r="6.039"/>
	</g>
	<path fill="#4FD6EF" d="M118.792,27.577c-9.94-9.94-38.543,2.547-63.886,27.89c-25.344,25.344-37.83,53.946-27.891,63.887
		c9.94,9.94,38.544-2.547,63.887-27.89C116.247,66.121,128.732,37.518,118.792,27.577z M29.239,117.13
		c-9.394-9.394,2.543-36.555,26.658-60.672C80.014,32.343,107.176,20.406,116.57,29.8c9.393,9.394-2.543,36.556-26.659,60.673
		C65.795,114.588,38.632,126.523,29.239,117.13z"/>
	<g>
		<circle fill="#2090D3" cx="117.533" cy="28.836" r="6.038"/>
		<path fill="#2090D3" d="M32.544,122.366c-2.358,2.356-6.182,2.356-8.54,0c-2.359-2.359-2.358-6.183,0-8.541s6.181-2.358,8.54,0
			C34.902,116.184,34.902,120.007,32.544,122.366z"/>
	</g>
</g>
<polygon opacity="0.1" fill="#0071C6" points="89.145,68.31 78.061,68.31 78.061,57.224 67.747,57.224 67.747,68.31 56.663,68.31 
	56.663,78.62 67.747,78.62 67.747,89.708 78.061,89.708 78.061,78.62 89.145,78.62 "/>
<rect x="11.258" y="162.384" opacity="0.1" fill="#4FD6EF" width="123.292" height="0.964"/>
<path opacity="0.1" fill="#4FD6EF" d="M113.057,72.932C112.77,51.033,94.87,33.305,72.904,33.305
	c-21.966,0-39.867,17.728-40.154,39.627l-0.004,0.791c0.139,22.026,18.099,39.904,40.158,39.904
	c22.059,0,40.018-17.877,40.158-39.904L113.057,72.932z M72.904,112.836c-21.708,0-39.371-17.661-39.371-39.371
	c0-21.708,17.662-39.37,39.371-39.37c21.709,0,39.369,17.662,39.369,39.37C112.273,95.175,94.613,112.836,72.904,112.836z"/>
<g opacity="0.1">
	<path fill="#0089C6" d="M22.515,156.5l2.267-0.161c0.049,0.416,0.148,0.733,0.3,0.951c0.245,0.353,0.596,0.528,1.051,0.528
		c0.34,0,0.602-0.09,0.786-0.271s0.276-0.389,0.276-0.626c0-0.226-0.087-0.428-0.263-0.605c-0.176-0.178-0.582-0.348-1.22-0.506
		c-1.045-0.265-1.79-0.617-2.235-1.057c-0.449-0.439-0.673-1-0.673-1.681c0-0.448,0.115-0.871,0.344-1.269s0.575-0.711,1.036-0.939
		s1.093-0.342,1.896-0.342c0.985,0,1.736,0.207,2.253,0.621c0.518,0.414,0.825,1.072,0.923,1.976l-2.246,0.147
		c-0.06-0.392-0.185-0.677-0.376-0.854c-0.19-0.179-0.455-0.267-0.791-0.267c-0.277,0-0.486,0.065-0.626,0.198
		c-0.14,0.134-0.21,0.294-0.21,0.485c0,0.138,0.058,0.263,0.173,0.374c0.112,0.114,0.379,0.222,0.799,0.321
		c1.042,0.252,1.788,0.511,2.238,0.77c0.451,0.26,0.778,0.582,0.983,0.966c0.205,0.384,0.308,0.813,0.308,1.289
		c0,0.56-0.137,1.073-0.41,1.544s-0.656,0.829-1.146,1.072c-0.49,0.243-1.109,0.366-1.856,0.366c-1.311,0-2.219-0.285-2.724-0.855
		C22.866,158.104,22.581,157.379,22.515,156.5z"/>
	<path fill="#0089C6" d="M30.802,150.671h2.387v8.71h-2.387V150.671z"/>
	<path fill="#0089C6" d="M34.484,156.5l2.266-0.161c0.049,0.416,0.149,0.733,0.3,0.951c0.245,0.353,0.596,0.528,1.052,0.528
		c0.34,0,0.602-0.09,0.786-0.271c0.184-0.181,0.276-0.389,0.276-0.626c0-0.226-0.087-0.428-0.263-0.605
		c-0.176-0.178-0.582-0.348-1.22-0.506c-1.045-0.265-1.79-0.617-2.235-1.057c-0.449-0.439-0.673-1-0.673-1.681
		c0-0.448,0.115-0.871,0.344-1.269s0.575-0.711,1.036-0.939s1.093-0.342,1.896-0.342c0.985,0,1.736,0.207,2.253,0.621
		c0.517,0.414,0.825,1.072,0.923,1.976l-2.245,0.147c-0.06-0.392-0.185-0.677-0.376-0.854c-0.191-0.179-0.455-0.267-0.791-0.267
		c-0.277,0-0.486,0.065-0.626,0.198c-0.14,0.134-0.21,0.294-0.21,0.485c0,0.138,0.058,0.263,0.173,0.374
		c0.112,0.114,0.379,0.222,0.799,0.321c1.042,0.252,1.787,0.511,2.238,0.77c0.451,0.26,0.778,0.582,0.983,0.966
		s0.308,0.813,0.308,1.289c0,0.56-0.137,1.073-0.41,1.544s-0.656,0.829-1.146,1.072c-0.49,0.243-1.109,0.366-1.856,0.366
		c-1.311,0-2.219-0.285-2.724-0.855C34.835,158.104,34.55,157.379,34.484,156.5z"/>
	<path fill="#0089C6" d="M42.135,150.671h7.241v2.151h-2.429v6.56h-2.382v-6.56h-2.43V150.671z"/>
	<path fill="#0089C6" d="M50.449,150.671h6.384v1.86h-3.997v1.384h3.708v1.776h-3.708v1.717h4.113v1.973h-6.5V150.671z"/>
	<path fill="#0089C6" d="M58.206,150.671h3.133l1.208,5.3l1.2-5.3h3.131v8.71h-1.951v-6.642l-1.503,6.642h-1.766l-1.5-6.642v6.642
		h-1.951L58.206,150.671L58.206,150.671z"/>
	<path fill="#0089C6" d="M73.139,157.943h-2.706l-0.376,1.438h-2.432l2.897-8.71h2.599l2.896,8.71h-2.494L73.139,157.943z
		 M72.643,156.061l-0.851-3.131l-0.842,3.131H72.643z"/>
	<path fill="#0089C6" d="M80.341,150.671h3.134l1.207,5.3l1.199-5.3h3.131v8.71h-1.951v-6.642l-1.502,6.642h-1.768l-1.5-6.642v6.642
		H80.34L80.341,150.671L80.341,150.671z"/>
	<path fill="#0089C6" d="M90.525,150.671h6.385v1.86h-3.997v1.384h3.707v1.776h-3.707v1.717h4.112v1.973h-6.5V150.671
		L90.525,150.671z"/>
	<path fill="#0089C6" d="M98.342,150.671h3.539c0.697,0,1.262,0.106,1.689,0.321c0.431,0.214,0.785,0.521,1.066,0.921
		c0.279,0.399,0.482,0.866,0.608,1.396c0.126,0.531,0.19,1.094,0.19,1.688c0,0.931-0.095,1.651-0.281,2.166
		c-0.188,0.513-0.448,0.942-0.781,1.29c-0.333,0.347-0.689,0.577-1.073,0.691c-0.522,0.158-0.995,0.237-1.42,0.237h-3.539
		L98.342,150.671L98.342,150.671z M100.725,152.645v4.758h0.582c0.498,0,0.854-0.062,1.063-0.187s0.375-0.343,0.495-0.653
		c0.119-0.312,0.178-0.815,0.178-1.513c0-0.923-0.133-1.555-0.398-1.895c-0.267-0.341-0.709-0.511-1.326-0.511H100.725
		L100.725,152.645z"/>
	<path fill="#0089C6" d="M106.782,150.671h2.387v8.71h-2.387V150.671z"/>
	<path fill="#0089C6" d="M116.012,155.816l2.086,0.713c-0.14,0.662-0.361,1.214-0.662,1.658c-0.302,0.443-0.676,0.778-1.123,1.004
		s-1.017,0.338-1.707,0.338c-0.838,0-1.522-0.139-2.054-0.413c-0.53-0.275-0.989-0.759-1.375-1.452s-0.579-1.579-0.579-2.66
		c0-1.441,0.34-2.549,1.019-3.322c0.678-0.773,1.638-1.16,2.879-1.16c0.971,0,1.733,0.222,2.29,0.666
		c0.555,0.443,0.968,1.125,1.238,2.043l-2.104,0.528c-0.073-0.265-0.151-0.459-0.231-0.582c-0.133-0.206-0.295-0.364-0.488-0.476
		s-0.409-0.167-0.647-0.167c-0.54,0-0.954,0.245-1.241,0.735c-0.217,0.364-0.326,0.936-0.326,1.715c0,0.966,0.129,1.627,0.39,1.985
		c0.26,0.358,0.625,0.537,1.094,0.537c0.456,0,0.8-0.146,1.033-0.434C115.736,156.787,115.906,156.367,116.012,155.816z"/>
	<path fill="#0089C6" d="M118.956,155.032c0-1.423,0.351-2.529,1.052-3.321s1.678-1.188,2.93-1.188c1.283,0,2.271,0.39,2.965,1.166
		c0.695,0.778,1.043,1.869,1.043,3.271c0,1.02-0.152,1.854-0.455,2.504c-0.303,0.652-0.741,1.159-1.314,1.521
		c-0.574,0.363-1.287,0.544-2.143,0.544c-0.87,0-1.59-0.156-2.159-0.47c-0.569-0.313-1.031-0.808-1.386-1.484
		C119.133,156.898,118.956,156.05,118.956,155.032z M121.338,155.044c0,0.879,0.145,1.511,0.434,1.896
		c0.289,0.386,0.684,0.578,1.182,0.578c0.512,0,0.908-0.188,1.188-0.564c0.28-0.376,0.422-1.051,0.422-2.026
		c0-0.819-0.146-1.419-0.439-1.797c-0.292-0.378-0.689-0.567-1.191-0.567c-0.479,0-0.865,0.192-1.156,0.578
		C121.484,153.521,121.338,154.157,121.338,155.044z"/>
	<path fill="#0089C6" d="M9.496,171.102l2.267-0.16c0.049,0.416,0.149,0.733,0.3,0.951c0.245,0.353,0.596,0.528,1.051,0.528
		c0.34,0,0.602-0.09,0.786-0.271s0.276-0.39,0.276-0.627c0-0.225-0.088-0.428-0.263-0.605c-0.175-0.179-0.582-0.348-1.22-0.505
		c-1.045-0.267-1.79-0.618-2.235-1.058c-0.449-0.439-0.673-1-0.673-1.682c0-0.447,0.115-0.869,0.344-1.269
		c0.229-0.398,0.575-0.712,1.036-0.939s1.093-0.342,1.896-0.342c0.985,0,1.736,0.207,2.253,0.622
		c0.518,0.414,0.825,1.072,0.923,1.975l-2.246,0.148c-0.06-0.393-0.185-0.678-0.376-0.855c-0.191-0.178-0.455-0.268-0.792-0.268
		c-0.277,0-0.485,0.066-0.626,0.199c-0.14,0.132-0.21,0.294-0.21,0.484c0,0.139,0.058,0.264,0.173,0.373
		c0.112,0.115,0.379,0.223,0.8,0.321c1.041,0.254,1.787,0.511,2.237,0.771c0.45,0.258,0.779,0.58,0.983,0.965
		c0.205,0.385,0.308,0.813,0.308,1.289c0,0.56-0.137,1.074-0.41,1.545c-0.273,0.472-0.655,0.83-1.146,1.072
		c-0.491,0.243-1.11,0.365-1.856,0.365c-1.312,0-2.22-0.285-2.725-0.855C9.849,172.706,9.563,171.98,9.496,171.102z"/>
	<path fill="#0089C6" d="M22.429,172.546h-2.705l-0.376,1.438h-2.432l2.897-8.711h2.599l2.897,8.711h-2.495L22.429,172.546z
		 M21.935,170.662l-0.851-3.131l-0.842,3.131H21.935z"/>
	<path fill="#0089C6" d="M26.066,165.273h2.382v6.564h3.718v2.145h-6.1V165.273L26.066,165.273z"/>
	<path fill="#0089C6" d="M37.988,165.273h2.377v5.188c0,0.515-0.071,1-0.213,1.458s-0.365,0.857-0.668,1.2
		c-0.303,0.342-0.621,0.583-0.955,0.721c-0.463,0.194-1.019,0.291-1.667,0.291c-0.375,0-0.785-0.03-1.228-0.09
		c-0.443-0.06-0.814-0.176-1.113-0.353c-0.298-0.176-0.571-0.428-0.818-0.752s-0.416-0.658-0.507-1.002
		c-0.147-0.555-0.221-1.045-0.221-1.474v-5.188h2.377v5.313c0,0.475,0.117,0.846,0.35,1.113c0.233,0.267,0.557,0.4,0.97,0.4
		c0.411,0,0.731-0.132,0.965-0.396c0.233-0.265,0.35-0.638,0.35-1.119L37.988,165.273L37.988,165.273z"/>
	<path fill="#0089C6" d="M41.975,165.273h3.539c0.698,0,1.261,0.105,1.69,0.319c0.43,0.214,0.785,0.521,1.065,0.921
		c0.28,0.4,0.484,0.866,0.61,1.396c0.126,0.531,0.189,1.093,0.189,1.688c0,0.93-0.094,1.652-0.282,2.166
		c-0.188,0.512-0.448,0.942-0.781,1.289c-0.333,0.348-0.69,0.577-1.073,0.692c-0.522,0.159-0.996,0.237-1.42,0.237h-3.539v-8.709
		H41.975z M44.357,167.246v4.759h0.584c0.498,0,0.852-0.063,1.062-0.187c0.21-0.125,0.375-0.344,0.495-0.654
		s0.179-0.814,0.179-1.512c0-0.924-0.133-1.555-0.399-1.896c-0.267-0.34-0.708-0.511-1.325-0.511L44.357,167.246L44.357,167.246z"/>
	<path fill="#0089C6" d="M53.612,169.634c0-1.421,0.351-2.528,1.052-3.321c0.701-0.791,1.678-1.188,2.929-1.188
		c1.283,0,2.272,0.39,2.966,1.168s1.041,1.869,1.041,3.271c0,1.019-0.151,1.854-0.455,2.504c-0.304,0.651-0.741,1.16-1.315,1.521
		c-0.573,0.362-1.287,0.543-2.143,0.543c-0.869,0-1.589-0.156-2.159-0.469c-0.57-0.313-1.032-0.809-1.386-1.485
		C53.79,171.5,53.612,170.652,53.612,169.634z M55.995,169.646c0,0.879,0.145,1.511,0.434,1.896
		c0.289,0.383,0.683,0.576,1.181,0.576c0.512,0,0.908-0.188,1.188-0.563c0.281-0.377,0.421-1.052,0.421-2.027
		c0-0.819-0.146-1.418-0.439-1.797c-0.292-0.377-0.69-0.566-1.191-0.566c-0.48,0-0.866,0.191-1.157,0.576
		C56.14,168.123,55.995,168.759,55.995,169.646z"/>
	<path fill="#0089C6" d="M68.016,170.418l2.088,0.713c-0.14,0.662-0.361,1.214-0.663,1.658c-0.302,0.443-0.675,0.777-1.123,1.004
		c-0.448,0.227-1.016,0.338-1.707,0.338c-0.838,0-1.522-0.137-2.054-0.413c-0.531-0.274-0.989-0.759-1.375-1.452
		c-0.386-0.691-0.579-1.578-0.579-2.66c0-1.44,0.34-2.547,1.018-3.321c0.679-0.774,1.639-1.162,2.879-1.162
		c0.971,0,1.734,0.222,2.291,0.666c0.555,0.444,0.968,1.125,1.238,2.043l-2.104,0.528c-0.074-0.266-0.151-0.459-0.231-0.582
		c-0.133-0.206-0.296-0.364-0.489-0.477c-0.193-0.109-0.409-0.167-0.647-0.167c-0.54,0-0.954,0.246-1.241,0.736
		c-0.218,0.364-0.326,0.937-0.326,1.715c0,0.965,0.13,1.627,0.39,1.985c0.259,0.357,0.624,0.537,1.094,0.537
		c0.456,0,0.8-0.146,1.033-0.435C67.742,171.389,67.911,170.969,68.016,170.418z"/>
	<path fill="#0089C6" d="M76.277,165.273h2.377v5.188c0,0.515-0.07,1-0.213,1.458c-0.142,0.458-0.364,0.857-0.668,1.2
		c-0.303,0.342-0.621,0.583-0.955,0.721c-0.463,0.194-1.019,0.291-1.666,0.291c-0.375,0-0.784-0.03-1.229-0.09
		c-0.443-0.06-0.814-0.176-1.111-0.353c-0.299-0.178-0.57-0.428-0.818-0.752c-0.247-0.324-0.416-0.658-0.507-1.002
		c-0.147-0.555-0.221-1.045-0.221-1.474v-5.188h2.376v5.313c0,0.475,0.117,0.846,0.351,1.113c0.233,0.267,0.557,0.4,0.97,0.4
		c0.41,0,0.73-0.132,0.965-0.396c0.233-0.265,0.35-0.638,0.35-1.119V165.273L76.277,165.273z"/>
	<path fill="#0089C6" d="M80.223,165.273h3.959c0.862,0,1.51,0.23,1.938,0.694c0.43,0.464,0.644,1.123,0.644,1.979
		c0,0.879-0.232,1.566-0.701,2.062c-0.469,0.496-1.184,0.743-2.144,0.743h-1.304v3.232h-2.393V165.273L80.223,165.273z
		 M82.615,168.986h0.584c0.459,0,0.781-0.09,0.967-0.27s0.279-0.41,0.279-0.691c0-0.273-0.082-0.506-0.242-0.695
		c-0.162-0.189-0.465-0.285-0.91-0.285h-0.678V168.986L82.615,168.986z"/>
	<path fill="#0089C6" d="M91.835,172.546H89.13l-0.376,1.438h-2.432l2.896-8.711h2.6l2.896,8.711h-2.494L91.835,172.546z
		 M91.341,170.662l-0.851-3.131l-0.842,3.131H91.341z"/>
	<path fill="#0089C6" d="M100.411,170.418l2.087,0.713c-0.141,0.662-0.361,1.214-0.663,1.658c-0.302,0.443-0.676,0.777-1.123,1.004
		c-0.446,0.227-1.017,0.338-1.706,0.338c-0.838,0-1.523-0.137-2.054-0.413c-0.531-0.274-0.99-0.759-1.375-1.452
		c-0.386-0.691-0.578-1.578-0.578-2.66c0-1.44,0.339-2.547,1.019-3.321c0.678-0.774,1.637-1.162,2.879-1.162
		c0.972,0,1.733,0.222,2.289,0.666c0.557,0.444,0.969,1.125,1.239,2.043l-2.104,0.528c-0.072-0.266-0.15-0.459-0.23-0.582
		c-0.133-0.206-0.296-0.364-0.488-0.477c-0.193-0.109-0.408-0.167-0.647-0.167c-0.54,0-0.954,0.246-1.241,0.736
		c-0.217,0.364-0.326,0.937-0.326,1.715c0,0.965,0.131,1.627,0.391,1.985c0.26,0.357,0.623,0.537,1.094,0.537
		c0.456,0,0.8-0.146,1.033-0.435C100.137,171.389,100.307,170.969,100.411,170.418z"/>
	<path fill="#0089C6" d="M103.75,165.273h2.387v8.709h-2.387V165.273z"/>
	<path fill="#0089C6" d="M107.547,169.634c0-1.421,0.352-2.528,1.053-3.321c0.7-0.791,1.676-1.188,2.928-1.188
		c1.283,0,2.271,0.39,2.966,1.168s1.042,1.869,1.042,3.271c0,1.019-0.152,1.854-0.455,2.504c-0.303,0.651-0.741,1.16-1.314,1.521
		c-0.574,0.362-1.287,0.543-2.144,0.543c-0.869,0-1.589-0.156-2.159-0.469c-0.568-0.313-1.031-0.809-1.386-1.485
		C107.725,171.5,107.547,170.652,107.547,169.634z M109.93,169.646c0,0.879,0.145,1.511,0.434,1.896
		c0.289,0.383,0.683,0.576,1.181,0.576c0.513,0,0.908-0.188,1.188-0.563c0.279-0.377,0.42-1.052,0.42-2.027
		c0-0.819-0.146-1.418-0.438-1.797c-0.292-0.377-0.688-0.566-1.19-0.566c-0.48,0-0.866,0.191-1.157,0.576
		C110.075,168.123,109.93,168.759,109.93,169.646z"/>
	<path fill="#0089C6" d="M116.834,165.273h2.225l2.902,4.817v-4.817h2.246v8.709h-2.246l-2.887-4.782v4.782h-2.241L116.834,165.273
		L116.834,165.273z"/>
	<path fill="#0089C6" d="M130.425,172.546h-2.704l-0.375,1.438h-2.433l2.897-8.711h2.599l2.897,8.711h-2.494L130.425,172.546z
		 M129.93,170.662l-0.851-3.131l-0.843,3.131H129.93z"/>
	<path fill="#0089C6" d="M134.063,165.273h2.381v6.564h3.719v2.145h-6.1V165.273L134.063,165.273z"/>
</g>
</svg>
