<?xml version="1.0" encoding="utf-8"?>
<!-- Generator: Adobe Illustrator 16.0.0, SVG Export Plug-In . SVG Version: 6.00 Build 0)  -->
<!DOCTYPE svg PUBLIC "-//W3C//DTD SVG 1.1//EN" "http://www.w3.org/Graphics/SVG/1.1/DTD/svg11.dtd">
<svg version="1.1" id="Layer_1" xmlns="http://www.w3.org/2000/svg" xmlns:xlink="http://www.w3.org/1999/xlink" x="0px" y="0px"
	 width="361px" height="444.5px" viewBox="0 0 361 444.5" enable-background="new 0 0 361 444.5" xml:space="preserve">
<radialGradient id="SVGID_1_" cx="180.1699" cy="528.2334" r="203.2686" gradientTransform="matrix(1 0 0 1 0 -346.5)" gradientUnits="userSpaceOnUse">
	<stop  offset="0.5393" style="stop-color:#FFFFFF"/>
	<stop  offset="0.657" style="stop-color:#FDFFFF"/>
	<stop  offset="0.6994" style="stop-color:#F6FDFD"/>
	<stop  offset="0.7296" style="stop-color:#EBFAFB"/>
	<stop  offset="0.754" style="stop-color:#DAF6F7"/>
	<stop  offset="0.775" style="stop-color:#C4F1F3"/>
	<stop  offset="0.7935" style="stop-color:#A8EBED"/>
	<stop  offset="0.8103" style="stop-color:#88E3E7"/>
	<stop  offset="0.8252" style="stop-color:#64DBDF"/>
	<stop  offset="0.8325" style="stop-color:#4FD6DB"/>
</radialGradient>
<path opacity="0.3" fill="url(#SVGID_1_)" enable-background="new    " d="M180.173,19.359
	c-89.688,0-162.376,72.664-162.376,162.374c0,89.696,72.688,162.375,162.376,162.375c89.701,0,162.37-72.679,162.37-162.375
	C342.543,92.023,269.875,19.359,180.173,19.359z"/>
<radialGradient id="SVGID_2_" cx="180.1709" cy="528.2344" r="106.2785" gradientTransform="matrix(1 0 0 1 0 -346.5)" gradientUnits="userSpaceOnUse">
	<stop  offset="0.1571" style="stop-color:#1C8BBB"/>
	<stop  offset="0.3409" style="stop-color:#1C88B8"/>
	<stop  offset="0.468" style="stop-color:#1C7FB0"/>
	<stop  offset="0.5779" style="stop-color:#1D70A2"/>
	<stop  offset="0.678" style="stop-color:#1D5A8E"/>
	<stop  offset="0.7706" style="stop-color:#1E3E75"/>
	<stop  offset="0.8325" style="stop-color:#1F2760"/>
</radialGradient>
<path fill="url(#SVGID_2_)" d="M180.17,98.39c-46.033,0-83.342,37.305-83.342,83.343c0,46.031,37.309,83.344,83.342,83.344
	c46.034,0,83.344-37.313,83.344-83.344C263.514,135.695,226.204,98.39,180.17,98.39z"/>
<radialGradient id="SVGID_3_" cx="178.5947" cy="476.5293" r="85.8149" gradientTransform="matrix(0.9463 0 0 0.9463 11.1659 -269.2062)" gradientUnits="userSpaceOnUse">
	<stop  offset="0.2289" style="stop-color:#FFFFFF;stop-opacity:0"/>
	<stop  offset="0.7535" style="stop-color:#FFFFFF;stop-opacity:0.8116"/>
	<stop  offset="0.8429" style="stop-color:#FFFFFF;stop-opacity:0.95"/>
</radialGradient>
<path fill="url(#SVGID_3_)" d="M180.173,127.13c-30.162,0-54.606,24.445-54.606,54.603c0,30.156,24.445,54.604,54.606,54.604
	c30.154,0,54.601-24.448,54.601-54.604C234.773,151.575,210.327,127.13,180.173,127.13z"/>
<g>
	<path fill="#4FD6EF" d="M180.17,15.236c-36.066,0-65.304,74.543-65.304,166.497c0,91.955,29.237,166.498,65.304,166.498
		c36.066,0,65.303-74.543,65.303-166.498C245.473,89.779,216.236,15.236,180.17,15.236z M180.17,340.163
		c-34.083,0-61.705-70.931-61.705-158.43c0-87.501,27.622-158.432,61.705-158.432c34.081,0,61.705,70.931,61.705,158.432
		C241.875,269.232,214.251,340.163,180.17,340.163z"/>
	<g>
		<circle fill="#2090D3" cx="180.17" cy="19.803" r="15.492"/>
		<circle fill="#2090D3" cx="180.17" cy="343.663" r="15.492"/>
	</g>
	<path fill="#4FD6EF" d="M346.667,181.733c0-36.065-74.543-65.304-166.496-65.304S13.675,145.668,13.675,181.733
		c0,36.066,74.543,65.303,166.496,65.303S346.667,217.799,346.667,181.733z M21.739,181.733c0-34.082,70.934-61.704,158.431-61.704
		c87.5,0,158.431,27.623,158.431,61.704c0,34.082-70.931,61.707-158.431,61.707C92.673,243.439,21.739,215.815,21.739,181.733z"/>
	<g>
		<circle fill="#2090D3" cx="342.099" cy="181.734" r="15.493"/>
		<path fill="#2090D3" d="M18.241,197.227c-8.554,0-15.491-6.936-15.491-15.494c0-8.556,6.937-15.492,15.491-15.492
			c8.559,0,15.494,6.936,15.494,15.492C33.735,190.291,26.8,197.227,18.241,197.227z"/>
	</g>
	<path fill="#4FD6EF" d="M62.438,64.003c-25.503,25.503,6.534,98.887,71.555,163.908c65.019,65.022,138.405,97.056,163.907,71.554
		c25.502-25.504-6.532-98.887-71.553-163.908C161.325,70.536,87.942,38.5,62.438,64.003z M292.195,293.762
		c-24.098,24.102-93.786-6.527-155.657-68.396C74.667,163.495,44.042,93.806,68.142,69.706c24.099-24.1,93.789,6.524,155.66,68.394
		C285.672,199.974,316.296,269.661,292.195,293.762z"/>
	<g>
		<circle fill="#2090D3" cx="65.67" cy="67.232" r="15.492"/>
		<circle fill="#2090D3" cx="294.67" cy="296.236" r="15.493"/>
	</g>
	<path fill="#4FD6EF" d="M297.9,64.003c-25.502-25.503-98.887,6.533-163.906,71.553C68.973,200.577,36.938,273.96,62.439,299.464
		c25.503,25.502,98.888-6.534,163.907-71.554C291.37,162.889,323.403,89.506,297.9,64.003z M68.145,293.759
		c-24.101-24.099,6.524-93.786,68.394-155.66C198.41,76.23,268.098,45.605,292.2,69.705c24.098,24.099-6.524,93.788-68.396,155.658
		C161.933,287.236,92.243,317.859,68.145,293.759z"/>
	<g>
		<circle fill="#2090D3" cx="294.67" cy="67.232" r="15.492"/>
		<path fill="#2090D3" d="M76.624,307.191c-6.05,6.047-15.86,6.047-21.909,0c-6.052-6.051-6.051-15.862,0-21.912
			c6.049-6.051,15.858-6.051,21.909,0C82.674,291.329,82.674,301.141,76.624,307.191z"/>
	</g>
	<animateTransform attributeType="xml"
                    attributeName="transform"
                    type="rotate"
                    from="0 180 180"
                    to="360 180 180"
                    dur="30s"
                    repeatCount="indefinite"/>
</g>
<rect x="22.012" y="409.861" fill="#4FD6EF" width="316.317" height="2.471"/>
<path fill="#4FD6EF" d="M283.188,180.363c-0.735-56.184-46.662-101.666-103.018-101.666c-56.356,0-102.281,45.482-103.019,101.666
	l-0.01,2.028c0.356,56.511,46.434,102.376,103.028,102.376c56.595,0,102.67-45.865,103.028-102.376L283.188,180.363z
	 M180.17,282.741c-55.695,0-101.008-45.31-101.008-101.008c0-55.696,45.313-101.008,101.008-101.008
	c55.696,0,101.007,45.312,101.007,101.008C281.177,237.432,235.866,282.741,180.17,282.741z"/>
<g opacity="0.8">
	<path fill="#FFFFFF" d="M50.892,394.766l5.815-0.412c0.126,1.066,0.382,1.881,0.769,2.438c0.629,0.905,1.529,1.356,2.698,1.356
		c0.873,0,1.545-0.231,2.017-0.693s0.708-0.999,0.708-1.607c0-0.58-0.225-1.098-0.675-1.556c-0.45-0.457-1.493-0.89-3.13-1.295
		c-2.681-0.681-4.592-1.585-5.734-2.713c-1.151-1.128-1.727-2.566-1.727-4.313c0-1.148,0.294-2.234,0.883-3.255
		c0.589-1.021,1.475-1.823,2.658-2.409c1.183-0.584,2.804-0.875,4.864-0.875c2.527,0,4.455,0.53,5.781,1.592
		c1.327,1.063,2.116,2.752,2.368,5.068l-5.761,0.381c-0.153-1.006-0.475-1.738-0.965-2.195c-0.49-0.457-1.167-0.686-2.03-0.686
		c-0.711,0-1.246,0.17-1.606,0.51c-0.359,0.342-0.54,0.756-0.54,1.244c0,0.354,0.148,0.676,0.445,0.959
		c0.288,0.295,0.972,0.569,2.051,0.823c2.671,0.649,4.585,1.31,5.741,1.974c1.156,0.666,1.997,1.492,2.523,2.479
		s0.79,2.088,0.79,3.309c0,1.434-0.351,2.753-1.052,3.962c-0.702,1.209-1.682,2.126-2.941,2.751
		c-1.259,0.625-2.847,0.938-4.763,0.938c-3.364,0-5.694-0.731-6.989-2.195S51.063,397.021,50.892,394.766z"/>
	<path fill="#FFFFFF" d="M72.155,379.811h6.125v22.349h-6.125V379.811z"/>
	<path fill="#FFFFFF" d="M81.6,394.766l5.815-0.412c0.126,1.066,0.382,1.881,0.769,2.438c0.629,0.905,1.529,1.356,2.698,1.356
		c0.873,0,1.545-0.231,2.017-0.693s0.708-0.999,0.708-1.607c0-0.58-0.225-1.098-0.675-1.556c-0.45-0.457-1.493-0.89-3.13-1.295
		c-2.681-0.681-4.592-1.585-5.734-2.713c-1.151-1.128-1.727-2.566-1.727-4.313c0-1.148,0.294-2.234,0.883-3.255
		c0.589-1.021,1.475-1.823,2.658-2.409c1.183-0.584,2.804-0.875,4.864-0.875c2.527,0,4.455,0.53,5.781,1.592
		c1.327,1.063,2.116,2.752,2.368,5.068l-5.761,0.381c-0.153-1.006-0.475-1.738-0.965-2.195c-0.49-0.457-1.167-0.686-2.03-0.686
		c-0.711,0-1.246,0.17-1.606,0.51c-0.359,0.342-0.54,0.756-0.54,1.244c0,0.354,0.148,0.676,0.445,0.959
		c0.288,0.295,0.972,0.569,2.051,0.823c2.671,0.649,4.585,1.31,5.741,1.974c1.156,0.666,1.997,1.492,2.523,2.479
		s0.79,2.088,0.79,3.309c0,1.434-0.351,2.753-1.052,3.962c-0.702,1.209-1.682,2.126-2.941,2.751
		c-1.259,0.625-2.847,0.938-4.763,0.938c-3.364,0-5.694-0.731-6.989-2.195S81.771,397.021,81.6,394.766z"/>
	<path fill="#FFFFFF" d="M101.23,379.811h18.578v5.521h-6.233v16.829h-6.112v-16.83h-6.233V379.811z"/>
	<path fill="#FFFFFF" d="M122.561,379.811h16.379v4.771h-10.254v3.552h9.512v4.558h-9.512v4.405h10.551v5.063h-16.676V379.811z"/>
	<path fill="#FFFFFF" d="M142.462,379.811h8.038l3.1,13.599l3.078-13.599h8.033v22.349h-5.005v-17.042l-3.857,17.042h-4.531
		l-3.85-17.042v17.042h-5.005L142.462,379.811L142.462,379.811z"/>
	<path fill="#FFFFFF" d="M180.77,398.469h-6.939l-0.964,3.689h-6.24l7.434-22.348h6.667l7.433,22.348h-6.399L180.77,398.469z
		 M179.501,393.637l-2.183-8.033l-2.161,8.033H179.501z"/>
	<path fill="#FFFFFF" d="M199.25,379.811h8.038l3.101,13.599l3.077-13.599h8.033v22.349h-5.005v-17.042l-3.857,17.042h-4.531
		l-3.85-17.042v17.042h-5.005L199.25,379.811L199.25,379.811z"/>
	<path fill="#FFFFFF" d="M225.383,379.811h16.379v4.771h-10.254v3.552h9.512v4.558h-9.512v4.405h10.551v5.063h-16.676V379.811z"/>
	<path fill="#FFFFFF" d="M245.434,379.811h9.08c1.789,0,3.234,0.274,4.336,0.823c1.104,0.55,2.015,1.337,2.732,2.363
		s1.241,2.221,1.564,3.582c0.324,1.362,0.485,2.805,0.485,4.33c0,2.388-0.239,4.239-0.722,5.556
		c-0.482,1.317-1.148,2.418-2.003,3.31c-0.854,0.89-1.771,1.479-2.753,1.774c-1.34,0.406-2.555,0.609-3.643,0.609h-9.08v-22.348
		H245.434z M251.544,384.872v12.21h1.498c1.276,0,2.187-0.16,2.726-0.48c0.539-0.318,0.961-0.879,1.27-1.677
		c0.306-0.798,0.458-2.091,0.458-3.879c0-2.368-0.343-3.989-1.024-4.862c-0.684-0.875-1.816-1.312-3.4-1.312H251.544
		L251.544,384.872z"/>
	<path fill="#FFFFFF" d="M267.087,379.811h6.125v22.349h-6.125V379.811z"/>
	<path fill="#FFFFFF" d="M290.766,393.012l5.356,1.829c-0.36,1.697-0.927,3.115-1.7,4.253c-0.773,1.14-1.732,1.998-2.88,2.577
		s-2.606,0.868-4.378,0.868c-2.15,0-3.906-0.354-5.27-1.059c-1.361-0.706-2.539-1.947-3.527-3.726
		c-0.99-1.776-1.484-4.052-1.484-6.823c0-3.697,0.871-6.539,2.611-8.523c1.74-1.985,4.203-2.979,7.387-2.979
		c2.492,0,4.45,0.568,5.876,1.706c1.425,1.14,2.483,2.888,3.177,5.244l-5.396,1.354c-0.188-0.68-0.388-1.178-0.595-1.492
		c-0.342-0.528-0.76-0.936-1.254-1.221c-0.496-0.285-1.049-0.428-1.66-0.428c-1.385,0-2.446,0.629-3.185,1.889
		c-0.558,0.935-0.836,2.399-0.836,4.399c0,2.478,0.333,4.175,0.999,5.093c0.666,0.919,1.602,1.378,2.807,1.378
		c1.168,0,2.054-0.369,2.65-1.111C290.063,395.502,290.496,394.425,290.766,393.012z"/>
	<path fill="#FFFFFF" d="M298.32,391c0-3.648,0.9-6.489,2.699-8.521c1.799-2.033,4.304-3.049,7.515-3.049
		c3.292,0,5.829,1,7.607,2.995c1.781,1.997,2.673,4.794,2.673,8.392c0,2.613-0.391,4.754-1.167,6.427
		c-0.778,1.672-1.902,2.973-3.373,3.9c-1.473,0.931-3.305,1.396-5.498,1.396c-2.23,0-4.077-0.401-5.539-1.204
		s-2.646-2.073-3.556-3.811C298.775,395.787,298.32,393.611,298.32,391z M304.434,391.029c0,2.257,0.371,3.878,1.112,4.863
		c0.742,0.985,1.752,1.479,3.029,1.479c1.313,0,2.33-0.482,3.049-1.448c0.72-0.965,1.08-2.696,1.08-5.196
		c0-2.104-0.375-3.643-1.126-4.611c-0.751-0.971-1.771-1.456-3.057-1.456c-1.231,0-2.223,0.493-2.967,1.479
		C304.807,387.123,304.434,388.754,304.434,391.029z"/>
	<path fill="#FFFFFF" d="M17.492,432.228l5.815-0.409c0.126,1.065,0.382,1.88,0.769,2.438c0.629,0.904,1.529,1.356,2.698,1.356
		c0.873,0,1.545-0.231,2.017-0.693c0.472-0.463,0.708-0.999,0.708-1.608c0-0.577-0.225-1.098-0.675-1.555
		c-0.45-0.458-1.493-0.89-3.13-1.296c-2.681-0.681-4.592-1.586-5.734-2.714c-1.151-1.128-1.727-2.565-1.727-4.313
		c0-1.146,0.294-2.231,0.883-3.255c0.589-1.021,1.475-1.824,2.658-2.408s2.804-0.877,4.864-0.877c2.527,0,4.455,0.531,5.781,1.596
		c1.327,1.062,2.116,2.751,2.368,5.066l-5.761,0.381c-0.153-1.006-0.475-1.736-0.965-2.193c-0.49-0.457-1.167-0.688-2.03-0.688
		c-0.711,0-1.246,0.17-1.606,0.513c-0.359,0.34-0.54,0.754-0.54,1.24c0,0.355,0.148,0.678,0.445,0.96
		c0.288,0.295,0.972,0.569,2.051,0.823c2.671,0.65,4.585,1.311,5.741,1.977c1.156,0.665,1.997,1.489,2.523,2.477
		s0.79,2.089,0.79,3.308c0,1.436-0.351,2.757-1.052,3.966c-0.702,1.209-1.682,2.126-2.941,2.751
		c-1.259,0.625-2.847,0.938-4.763,0.938c-3.364,0-5.694-0.729-6.989-2.195C18.396,436.344,17.663,434.484,17.492,432.228z"/>
	<path fill="#FFFFFF" d="M50.673,435.933h-6.939l-0.964,3.688h-6.24l7.434-22.347h6.667l7.433,22.347h-6.4L50.673,435.933z
		 M49.405,431.1l-2.183-8.031l-2.161,8.031H49.405z"/>
	<path fill="#FFFFFF" d="M60.005,417.274h6.112v16.844h9.539v5.503h-15.65L60.005,417.274L60.005,417.274z"/>
	<path fill="#FFFFFF" d="M90.592,417.274h6.099v13.313c0,1.32-0.182,2.567-0.546,3.74s-0.936,2.198-1.714,3.077
		c-0.778,0.878-1.594,1.495-2.449,1.851c-1.187,0.497-2.613,0.746-4.277,0.746c-0.962,0-2.013-0.076-3.15-0.229
		c-1.137-0.151-2.089-0.452-2.854-0.904c-0.765-0.452-1.464-1.096-2.098-1.927c-0.634-0.835-1.068-1.69-1.302-2.574
		c-0.378-1.422-0.567-2.684-0.567-3.778v-13.313h6.099v13.631c0,1.219,0.299,2.17,0.897,2.854c0.598,0.687,1.428,1.028,2.489,1.028
		c1.053,0,1.877-0.338,2.476-1.013c0.598-0.678,0.897-1.635,0.897-2.871V417.274z"/>
	<path fill="#FFFFFF" d="M100.819,417.274h9.08c1.79,0,3.235,0.272,4.337,0.821c1.102,0.55,2.013,1.336,2.732,2.362
		c0.719,1.026,1.241,2.221,1.565,3.582c0.324,1.362,0.486,2.805,0.486,4.329c0,2.389-0.241,4.24-0.722,5.557
		c-0.481,1.317-1.149,2.419-2.003,3.31c-0.854,0.89-1.772,1.479-2.752,1.774c-1.34,0.406-2.555,0.609-3.643,0.609h-9.08V417.274z
		 M106.931,422.335v12.21h1.498c1.277,0,2.186-0.16,2.725-0.479c0.54-0.319,0.962-0.881,1.269-1.679
		c0.306-0.797,0.458-2.091,0.458-3.879c0-2.368-0.342-3.989-1.025-4.863c-0.684-0.871-1.817-1.311-3.4-1.311H106.931
		L106.931,422.335z"/>
	<path fill="#FFFFFF" d="M130.677,428.463c0-3.646,0.899-6.488,2.698-8.521c1.799-2.033,4.304-3.051,7.515-3.051
		c3.292,0,5.829,0.999,7.609,2.996c1.78,1.997,2.671,4.794,2.671,8.394c0,2.609-0.389,4.753-1.167,6.425s-1.902,2.973-3.373,3.902
		c-1.471,0.929-3.303,1.395-5.498,1.395c-2.23,0-4.077-0.401-5.539-1.204c-1.461-0.803-2.646-2.073-3.555-3.811
		C131.131,433.249,130.677,431.075,130.677,428.463z M136.789,428.493c0,2.256,0.371,3.877,1.113,4.863
		c0.742,0.983,1.752,1.479,3.029,1.479c1.313,0,2.33-0.48,3.049-1.448c0.72-0.966,1.08-2.696,1.08-5.196
		c0-2.104-0.375-3.643-1.126-4.611s-1.77-1.456-3.056-1.456c-1.232,0-2.222,0.493-2.968,1.479
		C137.162,424.586,136.789,426.217,136.789,428.493z"/>
	<path fill="#FFFFFF" d="M167.631,430.475l5.356,1.83c-0.36,1.697-0.927,3.114-1.7,4.253c-0.773,1.14-1.733,1.996-2.88,2.576
		c-1.147,0.579-2.606,0.868-4.378,0.868c-2.15,0-3.906-0.353-5.269-1.059c-1.362-0.706-2.539-1.947-3.528-3.727
		c-0.99-1.775-1.484-4.052-1.484-6.824c0-3.695,0.871-6.536,2.611-8.521c1.74-1.985,4.203-2.979,7.387-2.979
		c2.492,0,4.45,0.569,5.876,1.708c1.425,1.14,2.484,2.888,3.177,5.243l-5.397,1.357c-0.188-0.684-0.387-1.182-0.593-1.494
		c-0.342-0.528-0.76-0.935-1.255-1.22c-0.495-0.284-1.048-0.429-1.66-0.429c-1.385,0-2.447,0.632-3.184,1.89
		c-0.558,0.935-0.836,2.399-0.836,4.398c0,2.479,0.333,4.175,0.999,5.095c0.666,0.919,1.601,1.378,2.806,1.378
		c1.169,0,2.053-0.371,2.651-1.112C166.927,432.965,167.361,431.888,167.631,430.475z"/>
	<path fill="#FFFFFF" d="M188.827,417.274h6.099v13.313c0,1.32-0.182,2.567-0.546,3.74s-0.937,2.198-1.714,3.077
		c-0.777,0.878-1.594,1.495-2.449,1.851c-1.188,0.497-2.613,0.746-4.277,0.746c-0.961,0-2.013-0.076-3.148-0.229
		c-1.139-0.151-2.089-0.452-2.854-0.904s-1.464-1.096-2.098-1.927c-0.634-0.835-1.068-1.69-1.302-2.574
		c-0.378-1.422-0.567-2.684-0.567-3.778v-13.313h6.101v13.631c0,1.219,0.299,2.17,0.896,2.854c0.599,0.687,1.429,1.028,2.489,1.028
		c1.053,0,1.877-0.338,2.477-1.013c0.598-0.678,0.896-1.635,0.896-2.871L188.827,417.274L188.827,417.274z"/>
	<path fill="#FFFFFF" d="M198.945,417.274h10.16c2.213,0,3.871,0.594,4.973,1.781c1.102,1.188,1.652,2.882,1.652,5.076
		c0,2.256-0.601,4.021-1.801,5.289c-1.201,1.271-3.033,1.906-5.498,1.906h-3.347v8.292h-6.14V417.274L198.945,417.274
		L198.945,417.274z M205.085,426.802h1.498c1.179,0,2.006-0.229,2.481-0.692c0.478-0.462,0.715-1.056,0.715-1.775
		c0-0.701-0.206-1.296-0.62-1.783c-0.414-0.486-1.192-0.73-2.334-0.73h-1.74V426.802L205.085,426.802z"/>
	<path fill="#FFFFFF" d="M228.74,435.933h-6.939l-0.964,3.688h-6.239l7.435-22.347h6.667l7.433,22.347h-6.399L228.74,435.933z
		 M227.473,431.1l-2.184-8.031l-2.161,8.031H227.473z"/>
	<path fill="#FFFFFF" d="M250.742,430.475l5.355,1.83c-0.359,1.697-0.928,3.114-1.699,4.253c-0.773,1.14-1.733,1.996-2.881,2.576
		c-1.146,0.579-2.605,0.868-4.377,0.868c-2.15,0-3.906-0.353-5.271-1.059c-1.362-0.706-2.539-1.947-3.528-3.727
		c-0.988-1.775-1.482-4.052-1.482-6.824c0-3.695,0.871-6.536,2.611-8.521c1.738-1.985,4.201-2.979,7.387-2.979
		c2.492,0,4.449,0.569,5.875,1.708c1.426,1.14,2.483,2.888,3.178,5.243l-5.396,1.357c-0.188-0.684-0.388-1.182-0.594-1.494
		c-0.342-0.528-0.76-0.935-1.255-1.22c-0.495-0.284-1.048-0.429-1.66-0.429c-1.385,0-2.446,0.632-3.185,1.89
		c-0.557,0.935-0.836,2.399-0.836,4.398c0,2.479,0.334,4.175,1,5.095c0.666,0.919,1.601,1.378,2.806,1.378
		c1.169,0,2.053-0.371,2.651-1.112C250.038,432.965,250.473,431.888,250.742,430.475z"/>
	<path fill="#FFFFFF" d="M259.309,417.274h6.125v22.347h-6.125V417.274z"/>
	<path fill="#FFFFFF" d="M269.05,428.463c0-3.646,0.899-6.488,2.698-8.521c1.799-2.033,4.304-3.051,7.516-3.051
		c3.291,0,5.828,0.999,7.608,2.996s2.671,4.794,2.671,8.394c0,2.609-0.389,4.753-1.167,6.425s-1.901,2.973-3.373,3.902
		c-1.471,0.929-3.303,1.395-5.498,1.395c-2.229,0-4.077-0.401-5.539-1.204c-1.461-0.803-2.646-2.073-3.555-3.811
		C269.504,433.249,269.05,431.075,269.05,428.463z M275.162,428.493c0,2.256,0.371,3.877,1.113,4.863
		c0.742,0.983,1.752,1.479,3.029,1.479c1.313,0,2.328-0.48,3.049-1.448c0.72-0.966,1.08-2.696,1.08-5.196
		c0-2.104-0.375-3.643-1.127-4.611c-0.75-0.97-1.771-1.456-3.057-1.456c-1.23,0-2.223,0.493-2.968,1.479
		C275.535,424.586,275.162,426.217,275.162,428.493z"/>
	<path fill="#FFFFFF" d="M292.877,417.274h5.707l7.447,12.361v-12.361h5.761v22.347h-5.761l-7.407-12.271v12.271h-5.748
		L292.877,417.274L292.877,417.274z"/>
	<path fill="#FFFFFF" d="M327.745,435.933h-6.939l-0.964,3.688h-6.24l7.436-22.347h6.667l7.433,22.347h-6.398L327.745,435.933z
		 M326.477,431.1l-2.183-8.031l-2.161,8.031H326.477z"/>
	<path fill="#FFFFFF" d="M337.077,417.274h6.112v16.844h9.537v5.503h-15.648L337.077,417.274L337.077,417.274z"/>
</g>
<polygon x="150" y="20" fill="#FFFFFF" points="221.837,168.506 193.4,168.506 193.4,140.063 166.939,140.063 166.939,168.506 138.503,168.506 
	138.503,194.958 166.939,194.958 166.939,223.404 193.4,223.404 193.4,194.958 221.837,194.958 ">
</polygon>
</svg>
