<?xml version="1.0" encoding="utf-8"?>
<!-- Generator: Adobe Illustrator 16.0.0, SVG Export Plug-In . SVG Version: 6.00 Build 0)  -->
<!DOCTYPE svg PUBLIC "-//W3C//DTD SVG 1.1//EN" "http://www.w3.org/Graphics/SVG/1.1/DTD/svg11.dtd">
<svg version="1.1" id="Capa_1" xmlns="http://www.w3.org/2000/svg" xmlns:xlink="http://www.w3.org/1999/xlink" x="0px" y="0px"
	 width="338px" height="76px" viewBox="0 0 338 76" enable-background="new 0 0 338 76" xml:space="preserve">
<g>
	<g>
		<path fill="#88898B" d="M174.345,5.977h3.457v23.88h11.443v2.9h-14.9V5.977z"/>
		<path fill="#88898B" d="M196.557,5.977v26.781H193.1V5.977H196.557z"/>
		<path fill="#88898B" d="M208.478,32.758l-8.741-26.781h3.734l4.173,13.192c1.151,3.616,2.146,6.874,2.86,10.013h0.079
			c0.755-3.099,1.868-6.477,3.06-9.973l4.53-13.231h3.695l-9.576,26.781L208.478,32.758L208.478,32.758z"/>
		<path fill="#88898B" d="M238.637,20.202h-10.41v9.655h11.604v2.9H224.77V5.977h14.463v2.901h-11.006v8.463h10.41V20.202z"/>
		<path fill="#88898B" d="M193.06,68.126c-1.271,0.636-3.813,1.271-7.072,1.271c-7.55,0-13.23-4.769-13.23-13.549
			c0-8.385,5.682-14.065,13.986-14.065c3.338,0,5.442,0.715,6.356,1.192l-0.835,2.82c-1.311-0.637-3.179-1.113-5.403-1.113
			c-6.277,0-10.449,4.014-10.449,11.047c0,6.557,3.773,10.769,10.291,10.769c2.105,0,4.252-0.438,5.643-1.113L193.06,68.126z"/>
		<path fill="#88898B" d="M219.443,55.331c0,9.219-5.603,14.106-12.437,14.106c-7.072,0-12.039-5.483-12.039-13.59
			c0-8.504,5.284-14.065,12.437-14.065C214.715,41.782,219.443,47.385,219.443,55.331z M198.663,55.77
			c0,5.722,3.099,10.848,8.542,10.848c5.482,0,8.583-5.047,8.583-11.126c0-5.324-2.781-10.888-8.543-10.888
			C201.523,44.604,198.663,49.889,198.663,55.77z"/>
		<path fill="#88898B" d="M223.935,42.577c2.106-0.318,4.609-0.558,7.352-0.558c4.967,0,8.504,1.152,10.848,3.338
			c2.384,2.187,3.774,5.285,3.774,9.615c0,4.371-1.352,7.947-3.854,10.41c-2.504,2.504-6.636,3.854-11.841,3.854
			c-2.464,0-4.529-0.118-6.278-0.316V42.577z M227.392,66.259c0.874,0.158,2.146,0.198,3.497,0.198
			c7.39,0,11.403-4.132,11.403-11.364c0.04-6.317-3.536-10.329-10.849-10.329c-1.788,0-3.139,0.157-4.053,0.356L227.392,66.259
			L227.392,66.259z"/>
		<path fill="#88898B" d="M264.266,56.443h-10.41V66.1h11.604V69h-15.061V42.22h14.463v2.9h-11.006v8.463h10.41V56.443z"/>
	</g>
</g>
<path opacity="0.6" fill="#EC008C" d="M146.865,69.053h-14.957L102.502,7h13.763L146.865,69.053z"/>
<path fill="#F9ED32" d="M171.252,69.053h-14.957L126.89,7h13.763L171.252,69.053z"/>
<path fill="#EC008C" d="M102.328,7h13.763L86.686,69.053H71.729L102.328,7z"/>
<polygon fill="#27AAE1" points="69.24,7.032 7.187,32.277 7.187,32.421 7.187,43.632 7.187,43.775 69.24,69.021 69.24,56.682 
	21.526,38.026 69.24,19.372 "/>
<polygon fill="#27AAE1" points="271.688,19.372 319.402,38.026 271.688,56.682 271.688,69.021 333.74,43.775 333.74,43.632 
	333.74,32.421 333.74,32.277 271.688,7.032 "/>
</svg>
