<?xml version="1.0" encoding="utf-8"?>
<!-- Generator: Adobe Illustrator 16.0.0, SVG Export Plug-In . SVG Version: 6.00 Build 0)  -->
<!DOCTYPE svg PUBLIC "-//W3C//DTD SVG 1.1//EN" "http://www.w3.org/Graphics/SVG/1.1/DTD/svg11.dtd">
<svg version="1.1" id="Capa_1" xmlns="http://www.w3.org/2000/svg" xmlns:xlink="http://www.w3.org/1999/xlink" x="0px" y="0px"
	 width="186.172px" height="58.5px" viewBox="0 0 186.172 58.5" enable-background="new 0 0 186.172 58.5" xml:space="preserve">
<path fill-rule="evenodd" clip-rule="evenodd" fill="#ECB51E" d="M121.947,24.765l2.033-0.184c0.096,0.822,0.319,1.496,0.673,2.024
	c0.354,0.524,0.902,0.952,1.644,1.279c0.743,0.323,1.58,0.488,2.509,0.488c0.826,0,1.553-0.123,2.185-0.371
	c0.632-0.247,1.1-0.585,1.408-1.016c0.309-0.43,0.463-0.899,0.463-1.398c0-0.512-0.146-0.957-0.443-1.342
	c-0.298-0.381-0.788-0.7-1.474-0.962c-0.438-0.167-1.408-0.435-2.911-0.796c-1.504-0.361-2.554-0.7-3.156-1.02
	c-0.778-0.411-1.356-0.922-1.738-1.527c-0.383-0.604-0.574-1.285-0.574-2.035c0-0.83,0.235-1.602,0.703-2.318
	c0.468-0.719,1.15-1.264,2.053-1.636c0.897-0.374,1.897-0.561,2.998-0.561c1.21,0,2.28,0.195,3.205,0.587
	c0.925,0.388,1.636,0.963,2.135,1.724c0.498,0.758,0.766,1.618,0.803,2.577l-2.078,0.16c-0.11-1.032-0.486-1.813-1.13-2.337
	c-0.645-0.529-1.595-0.792-2.851-0.792c-1.31,0-2.265,0.24-2.861,0.719c-0.598,0.48-0.899,1.059-0.899,1.735
	c0,0.587,0.214,1.069,0.637,1.45c0.418,0.377,1.503,0.769,3.261,1.164c1.758,0.4,2.964,0.746,3.619,1.043
	c0.947,0.438,1.652,0.99,2.104,1.663c0.455,0.671,0.68,1.443,0.68,2.318c0,0.872-0.248,1.687-0.747,2.454
	c-0.498,0.77-1.211,1.367-2.143,1.793c-0.932,0.427-1.979,0.639-3.147,0.639c-1.476,0-2.713-0.217-3.709-0.646
	c-1.003-0.43-1.783-1.078-2.349-1.944C122.276,26.835,121.979,25.856,121.947,24.765L121.947,24.765z M136.094,30.017l6.271-16.35
	h2.378l6.656,16.35h-2.462l-1.892-4.955h-6.884l-1.774,4.955H136.094L136.094,30.017z M140.798,23.302h5.571l-1.705-4.531
	c-0.515-1.378-0.902-2.516-1.171-3.414c-0.226,1.066-0.526,2.113-0.903,3.147L140.798,23.302z"/>
<path fill-rule="evenodd" clip-rule="evenodd" fill="#0078BE" d="M71.747,29.845v-16.35h3.241l3.867,11.573
	c0.358,1.077,0.617,1.885,0.781,2.42c0.186-0.594,0.479-1.469,0.875-2.621l3.936-11.372h2.896v16.35h-2.077V16.167l-4.774,13.678
	h-1.948l-4.719-13.928v13.928H71.747L71.747,29.845z M90.859,29.845v-16.35h11.806v1.918h-9.638v5.024h9.02v1.917h-9.02v5.572
	h10.025v1.918H90.859L90.859,29.845z M117.688,24.11l2.169,0.548c-0.452,1.776-1.267,3.129-2.443,4.061
	c-1.176,0.932-2.614,1.399-4.315,1.399c-1.758,0-3.188-0.356-4.292-1.076c-1.104-0.717-1.941-1.755-2.516-3.113
	c-0.574-1.362-0.863-2.819-0.863-4.38c0-1.7,0.322-3.187,0.973-4.454c0.652-1.266,1.576-2.229,2.775-2.887
	c1.197-0.659,2.518-0.987,3.958-0.987c1.636,0,3.01,0.415,4.122,1.249c1.114,0.833,1.891,2,2.328,3.509l-2.123,0.503
	c-0.377-1.188-0.929-2.056-1.649-2.595c-0.719-0.544-1.624-0.815-2.716-0.815c-1.253,0-2.302,0.302-3.144,0.902
	c-0.841,0.601-1.436,1.413-1.773,2.425c-0.343,1.015-0.515,2.062-0.515,3.138c0,1.389,0.203,2.604,0.605,3.64
	c0.404,1.038,1.032,1.811,1.884,2.325c0.853,0.514,1.772,0.769,2.768,0.769c1.209,0,2.229-0.351,3.065-1.047
	C116.825,26.522,117.391,25.486,117.688,24.11z"/>
<linearGradient id="SVGID_1_" gradientUnits="userSpaceOnUse" x1="38.5239" y1="1.8848" x2="40.0879" y2="46.6715">
	<stop  offset="0" style="stop-color:#AB1D21"/>
	<stop  offset="0.52" style="stop-color:#EC1C24"/>
	<stop  offset="0.86" style="stop-color:#F0583E"/>
	<stop  offset="1" style="stop-color:#F05C40"/>
</linearGradient>
<polygon fill-rule="evenodd" clip-rule="evenodd" fill="url(#SVGID_1_)" points="32.264,2 32.264,17.275 17.035,17.275 
	17.035,29.865 32.145,29.865 32.145,46.541 46.654,46.541 46.654,29.865 61.522,29.865 61.522,17.155 46.414,17.155 46.414,2 "/>
<text transform="matrix(1.0167 0 0 1 71.7134 34.9092)"><tspan x="0" y="0" fill="#A3A2A2" font-family="'ArialMT'" font-size="3.8334">E</tspan><tspan x="2.557" y="0" fill="#A3A2A2" font-family="'ArialMT'" font-size="3.8334">SPECIALISTAS EN SALUD OCUPACIONAL</tspan></text>
<g>
	<path fill-rule="evenodd" clip-rule="evenodd" fill="#FFCA05" d="M75.954,13.848c0,0-0.388,0.127-0.643,0.308
		c-0.253,0.182-2.091,3.431-2.091,3.431s-0.305,0.746-0.499,1.016c-0.45,0.63-1.803,1.259-1.803,1.259l-0.053,0.029
		c-0.259,0.082-1.11,0.325-1.834,0.294c-0.138-0.006-0.394-0.243-0.394-0.42c0-0.176,0.557-1.423,0.557-1.423
		s-0.841-1.881-0.908-2.646c-0.054-0.593-0.177-2.013,0.808-3.285c0.984-1.273,2.128-1.791,3.112-1.905
		c0.985-0.111,1.709,0.244,2.317,0.733c0.608,0.488,1.235,1.21,1.235,1.21c0.093,0.006,0.168,0.036,0.226,0.087l0.426,0.439
		c0.089-0.046,0.165-0.043,0.226,0.013c0,0,0.165,0.197,0.122,0.46c-0.028,0.177-0.17,0.283-0.308,0.347
		c-0.138,0.063-0.489,0.059-0.489,0.059l0,0L75.954,13.848z"/>
	<path fill-rule="evenodd" clip-rule="evenodd" fill="#231F20" d="M75.31,14.158c-0.034,0.024-0.098,0.106-0.182,0.227
		c-0.168,0.14-0.314,0.317-0.422,0.499l-1.774,2.939c-0.019,0.053-0.203,0.51-0.694,0.916c-0.515,0.427-1.625,0.981-2.248,1.156
		c-0.539,0.152-1.028,0.159-1.264,0.078c-0.022-0.028-0.041-0.058-0.056-0.088l0.024-0.034c0.142,0.094,0.652,0.123,1.269-0.05
		c0.611-0.172,1.709-0.722,2.212-1.138c0.252-0.209,0.551-0.563,0.668-0.883l1.777-2.949c0.146-0.243,0.415-0.553,0.682-0.689
		L75.31,14.158L75.31,14.158z M69.157,18.427c0.089,0.142,0.259,0.255,0.472,0.183c0.895-0.294,1.86-0.75,2.897-1.367
		c0.151-0.089,0.304-0.182,0.457-0.278c0.204-0.117,0.383-0.363,0.479-0.576c0.052-0.084,1.219-1.968,1.554-2.221
		c0.348-0.264,1.01-0.421,1.433-0.563c0.122-0.04,0.155-0.171,0.163-0.266c0.008-0.099-0.008-0.196-0.008-0.196
		c-0.031-0.073-0.083-0.134-0.138-0.188c-0.018,0.004-0.035,0.013-0.054,0.022l-0.005-0.007l-0.031,0.036
		c0.067,0.062,0.11,0.116,0.133,0.165c0.013,0.093,0.021,0.303-0.092,0.34c-0.44,0.147-1.094,0.301-1.458,0.578
		c-0.186,0.141-0.583,0.709-0.928,1.231c-0.348,0.527-0.655,1.023-0.665,1.046c-0.01-0.053-0.03-0.104-0.061-0.146
		c-0.036-0.048-0.085-0.141-0.142-0.225c-0.082-0.12-0.255-0.297-0.401-0.148l-0.025,0.029l-0.026,0.033
		c-0.171,0.208-0.553,0.358-0.784,0.509c-0.109,0.069-0.082,0.206-0.041,0.301c0.009,0.022,0.019,0.042,0.019,0.042l0.359,0.431
		c0.022,0.021,0.045,0.04,0.072,0.053l0,0c-0.98,0.571-1.893,0.996-2.735,1.274c-0.184,0.06-0.335-0.062-0.39-0.206l-0.023,0.009
		l0.009,0.022L69.157,18.427L69.157,18.427z M71.676,10.605c-0.962,0.443-2.457,1.783-2.116,4.563
		c0.155,0.999,0.81,1.379,1.47,1.345c0.598-0.029,1.252-0.36,1.735-1.021c0.103-0.111,0.201-0.25,0.302-0.399
		c0.262-0.391,0.603-1.042,0.943-1.315c0.444-0.354,1.143-0.694,1.674-0.931c0.209-0.054,0.247-0.217,0.147-0.389
		c-0.024-0.004-0.047-0.007-0.073-0.009l-0.026-0.031l-0.031,0.026c0.091,0.113,0.139,0.232-0.007,0.296
		c-0.022,0.01-0.042,0.014-0.042,0.014c-0.536,0.237-1.252,0.588-1.702,0.947c-0.224,0.178-0.441,0.509-0.65,0.843
		c-0.192,0.304-0.377,0.636-0.625,0.898c-0.212,0.253-0.948,0.734-1.551,0.773c-0.427,0.027-1.298-0.238-1.357-1.09
		c-0.163-2.453,1.512-3.623,2.173-4.011c0.815-0.479,1.989-0.233,2.384,0l0.012-0.02c-0.109-0.08-0.223-0.153-0.34-0.222
		c-0.555-0.167-1.441-0.236-2.105,0.156c-0.67,0.393-2.39,1.591-2.223,4.103c0.065,0.933,1.015,1.209,1.462,1.18
		c0.375-0.024,0.795-0.207,1.122-0.409c-0.387,0.327-0.823,0.493-1.226,0.512c-0.611,0.031-1.222-0.311-1.37-1.262
		c-0.385-3.154,1.627-4.401,2.442-4.597l0,0l-0.009-0.036C71.955,10.542,71.815,10.57,71.676,10.605L71.676,10.605z M73.25,16.553
		L73.25,16.553c0-0.001,0.064-0.156-0.025-0.276c-0.053-0.071-0.259-0.5-0.393-0.365l-0.048,0.058
		c-0.19,0.231-0.555,0.366-0.807,0.528c-0.066,0.044-0.008,0.175,0.007,0.205l0.335,0.405c0,0,0.061,0.085,0.162,0.048
		c0.148-0.089,0.299-0.18,0.45-0.274c0.12-0.069,0.235-0.194,0.323-0.324L73.25,16.553z"/>
	<path fill-rule="evenodd" clip-rule="evenodd" fill="#231F20" d="M74.729,13.256c0.05-0.023,0.199,0.096,0.11,0.155
		c-0.089,0.059-0.647,0.411-0.698,0.478c-0.052,0.065-0.122,0.113-0.198,0.113c-0.075,0-0.168-0.018-0.095-0.136
		C73.923,13.747,74.729,13.256,74.729,13.256z"/>
</g>
<g>
	
		<path fill-rule="evenodd" clip-rule="evenodd" fill="#FFFFFF" stroke="#FFFFFF" stroke-width="0.5669" stroke-miterlimit="22.9256" d="
		M1.486,24.748c2.128,2.012,9.17,9.496,12.629,4.801c1.284-2.2,2.419-2.612,3.245-2.062c1.499,1.231,4.269-6.167,7.196-9.721
		c1.486-2.355,4.284-0.615,6.523,3.167c0.667-1.383,1.883-2.162,3.684-2.73c4.978-8.53,6.908-12.271,10.058-8.484
		c2.095,2.253,4.156,5.165,6.774,8.513c3.804,1.167,4.446,5.765,7.999,6.124c1.942,0.664,2.883,1.831,4.134,2.804l-8.905,9.554
		l-8.485,1.843c-5.156-3.455-11.933-1.673-18.88,0.658c-3.569,0.123-14.06-3.264-16.787-4.989
		C7.832,31.561,4.205,28.935,1.486,24.748z"/>
	<path opacity="0.5" fill-rule="evenodd" clip-rule="evenodd" fill="#ACC3DF" d="M11.21,32.046l3.221-2.261l4.114-1.97l2.577-3.94
		l3.245-4.59l1.315-2.116l1.157-0.121l3.001,2.274l1.394,1.975l1.392-1.17l2.103-1.506l0.263,0.513
		c-2.45,1.995-3.263,0.612-2.641,5.891l-0.171,5.118l-1.036-8.342l-2.53-3.179l-1.99-1.108c-1.302,6.521-2.298,4.639-2.572,10.304
		c-1.335-0.404-3.891,0.221-4.691,1.017c-0.406,0.519-0.421,1.427-1.354,1.252C16.524,29.1,14.539,32.906,11.21,32.046z"/>
	<path opacity="0.5" fill-rule="evenodd" clip-rule="evenodd" fill="#ACC3DF" d="M41.049,23.089
		c-1.29-1.703-3.194-3.179-6.542-4.122l2.471-3.867l1.117-2.375l3.106-3.817l2.05-0.446C41.164,15.716,40.054,18.744,41.049,23.089z
		"/>
	<polygon opacity="0.5" fill-rule="evenodd" clip-rule="evenodd" fill="#ACC3DF" points="48.648,16.443 49.256,24.563 49.662,16.26 
			"/>
	<path opacity="0.5" fill-rule="evenodd" clip-rule="evenodd" fill="#ACC3DF" d="M51.726,18.56l1.035,0.183
		c0.292,3.65-0.024,4.781-0.358,7.183C52.145,23.19,52.425,21.979,51.726,18.56z"/>
	<path opacity="0.5" fill-rule="evenodd" clip-rule="evenodd" fill="#ACC3DF" d="M55.334,21.18
		c-0.156,1.726-0.338,1.414-0.102,3.512c0.237,2.098,0.548,1.612,0.703,4.826c0.413-3.627-0.347-4.234,0.066-7.679L55.334,21.18z"/>
	<path opacity="0.5" fill-rule="evenodd" clip-rule="evenodd" fill="#ACC3DF" d="M59.115,24.279c0.287,2.308,0.921,7.721,0.898,5.4
		c-0.023-2.32-0.365-2.727-0.133-4.879L59.115,24.279z"/>
	<path fill-rule="evenodd" clip-rule="evenodd" fill="#0078BE" d="M1.55,24.567c2.129,2.011,9.08,9.5,12.539,4.806
		c1.284-2.2,2.418-2.611,3.244-2.062c1.5,1.23,4.269-6.166,7.197-9.72c1.486-2.356,4.284-0.617,6.523,3.166
		c0.667-1.383,1.884-2.163,3.685-2.73c4.977-8.53,6.908-12.271,10.058-8.483c2.095,2.253,4.155,5.167,6.774,8.514
		c3.803,1.166,4.446,5.765,7.998,6.123c1.943,0.665,2.884,1.83,4.134,2.805c-0.292,0.547-0.766,0.95-1.177,0.836
		c-0.664-1.072-1.418-1.813-3.208-2.585c-3.958-0.786-4.18-4.739-7.676-6.026c-3.546-2.752-4.896-6.429-6.965-8.682
		c-3.109-3.791-4.769,0.074-9.684,8.606c-1.778,0.567-3.077,1.539-3.735,2.922c-2.786-2.993-4.542-6.09-6.009-3.734
		c-2.765,3.857-3.989,6.395-5.795,9.476c-1.43,2.438-1.834-0.298-3.98,2.258C10.98,35.896,4.144,28.28,1.55,24.567z"/>
	
		<path fill-rule="evenodd" clip-rule="evenodd" fill="#0078BE" stroke="#0078BE" stroke-width="0.5669" stroke-miterlimit="22.9256" d="
		M28.231,38.32c7.908-3.807,14.164-5.154,18.6-1.246l-0.581,0.923C42.221,34.79,35.563,36.048,28.231,38.32z"/>
</g>
<g>
	<path fill-rule="evenodd" clip-rule="evenodd" stroke="#000000" stroke-width="0.2835" stroke-miterlimit="22.9256" d="
		M63.66,32.459c-3.285,1.929-4.489,2.65-8.243,2.983c-4.65,0.61-7.209-0.636-8.888-2.521c-2.024-1.909-2.814-5.167-2.817-7.19
		c0.761-0.155,1.547-0.787,2.307-1.784c0.437-0.492,0.787-0.994,1.07-1.625c0,0-0.114-0.146-0.289-0.214
		c-0.135-0.054-0.339-0.037-0.339-0.037c-0.043,0.173-1.621,3.051-3.149,3.007c-1.58-0.044-3.277-2.599-3.314-2.722
		c0,0-0.151-0.023-0.294,0.108c-0.155,0.108-0.265,0.256-0.265,0.256s0.46,0.66,1.053,1.361c0.717,0.917,1.682,1.521,2.438,1.658
		c0.421,3.851,1.104,6.033,3.342,8.15c2.06,1.627,3.709,2.888,8.972,2.381c3.991-0.562,5.627-1.133,9.241-3.264L63.66,32.459z"/>
	<g>
		
			<path fill-rule="evenodd" clip-rule="evenodd" fill="#000001" stroke="#000001" stroke-width="0.2835" stroke-miterlimit="22.9256" d="
			M64.353,29.996c1.05-0.439,2.303-0.044,2.8,0.885c0.498,0.927,0.049,2.036-1.001,2.475c-1.05,0.439-2.303,0.042-2.799-0.884
			C62.854,31.543,63.302,30.435,64.353,29.996z"/>
		
			<path fill-rule="evenodd" clip-rule="evenodd" fill="none" stroke="#000001" stroke-width="0.2835" stroke-miterlimit="22.9256" d="
			M64.353,29.996c1.05-0.439,2.303-0.044,2.8,0.885c0.498,0.927,0.049,2.036-1.001,2.475c-1.05,0.439-2.303,0.042-2.799-0.884
			C62.854,31.543,63.302,30.435,64.353,29.996z"/>
		
			<path fill-rule="evenodd" clip-rule="evenodd" fill="#FFFFFF" stroke="#000001" stroke-width="0.2835" stroke-miterlimit="22.9256" d="
			M64.493,30.102c0.966-0.404,2.12-0.04,2.578,0.813c0.457,0.853,0.044,1.873-0.922,2.277c-0.966,0.402-2.12,0.039-2.577-0.814
			C63.116,31.525,63.528,30.506,64.493,30.102z"/>
		
			<path fill-rule="evenodd" clip-rule="evenodd" fill="none" stroke="#000001" stroke-width="0.2835" stroke-miterlimit="22.9256" d="
			M64.493,30.102c0.966-0.404,2.12-0.04,2.578,0.813c0.457,0.853,0.044,1.873-0.922,2.277c-0.966,0.402-2.12,0.039-2.577-0.814
			C63.116,31.525,63.528,30.506,64.493,30.102z"/>
		
			<path fill-rule="evenodd" clip-rule="evenodd" fill="none" stroke="#000001" stroke-width="0.2835" stroke-miterlimit="22.9256" d="
			M64.509,30.036c0.924-0.386,2.025-0.038,2.462,0.778c0.436,0.815,0.042,1.79-0.881,2.176c-0.922,0.387-2.025,0.038-2.462-0.778
			C63.192,31.396,63.586,30.423,64.509,30.036z"/>
		
			<path fill-rule="evenodd" clip-rule="evenodd" fill="#FFFFFF" stroke="#000001" stroke-width="0.2835" stroke-miterlimit="22.9256" d="
			M64.912,30.338c0.698-0.291,1.532-0.028,1.863,0.588c0.33,0.617,0.032,1.354-0.666,1.646c-0.699,0.293-1.531,0.029-1.862-0.588
			C63.916,31.366,64.214,30.631,64.912,30.338z"/>
		
			<path fill-rule="evenodd" clip-rule="evenodd" fill="none" stroke="#000001" stroke-width="0.2835" stroke-miterlimit="22.9256" d="
			M64.912,30.338c0.698-0.291,1.532-0.028,1.863,0.588c0.33,0.617,0.032,1.354-0.666,1.646c-0.699,0.293-1.531,0.029-1.862-0.588
			C63.916,31.366,64.214,30.631,64.912,30.338z"/>
		
			<path fill-rule="evenodd" clip-rule="evenodd" fill="none" stroke="#000001" stroke-width="0.2835" stroke-miterlimit="22.9256" d="
			M64.935,30.386c0.645-0.271,1.415-0.027,1.721,0.543c0.305,0.57,0.029,1.25-0.616,1.521c-0.645,0.271-1.416,0.026-1.721-0.543
			C64.014,31.335,64.289,30.655,64.935,30.386z"/>
		<g>
			<g>
				
					<path fill-rule="evenodd" clip-rule="evenodd" fill="none" stroke="#000001" stroke-width="0.2835" stroke-miterlimit="22.9256" d="
					M65.988,32.348c0.56-0.232,0.797-0.821,0.533-1.315c-0.264-0.493-0.931-0.705-1.489-0.472c-0.558,0.234-0.797,0.824-0.533,1.316
					C64.763,32.371,65.43,32.581,65.988,32.348"/>
			</g>
			<g>
				<path fill-rule="evenodd" clip-rule="evenodd" fill="#E7E6E8" d="M64.991,30.485L64.991,30.485
					c-0.606,0.254-0.865,0.893-0.578,1.428c0.287,0.536,1.011,0.765,1.617,0.511c0.605-0.253,0.864-0.893,0.578-1.429
					C66.321,30.462,65.597,30.231,64.991,30.485L64.991,30.485L64.991,30.485z M64.94,30.38c0.67-0.279,1.469-0.026,1.787,0.565
					c0.316,0.591,0.03,1.299-0.639,1.577c-0.669,0.281-1.469,0.027-1.785-0.563C63.984,31.367,64.271,30.66,64.94,30.38z"/>
				
					<path fill-rule="evenodd" clip-rule="evenodd" fill="none" stroke="#000001" stroke-width="0.2835" stroke-miterlimit="22.9256" d="
					M64.991,30.485L64.991,30.485c-0.606,0.254-0.865,0.893-0.578,1.428c0.287,0.536,1.011,0.765,1.617,0.511
					c0.605-0.253,0.864-0.893,0.578-1.429C66.321,30.462,65.597,30.231,64.991,30.485 M64.94,30.38
					c0.67-0.279,1.469-0.026,1.787,0.565c0.316,0.591,0.03,1.299-0.639,1.577c-0.669,0.281-1.469,0.027-1.785-0.563
					C63.984,31.367,64.271,30.66,64.94,30.38z"/>
			</g>
			<g>
				
					<path fill-rule="evenodd" clip-rule="evenodd" fill="none" stroke="#000001" stroke-width="0.2835" stroke-miterlimit="22.9256" d="
					M65.988,32.348c0.56-0.232,0.797-0.821,0.533-1.315c-0.264-0.493-0.931-0.705-1.489-0.472c-0.558,0.234-0.797,0.824-0.533,1.316
					C64.763,32.371,65.43,32.581,65.988,32.348"/>
			</g>
			<g>
				<path fill-rule="evenodd" clip-rule="evenodd" fill="#D8DBDB" d="M65.046,30.588L65.046,30.588
					c-0.542,0.226-0.774,0.799-0.518,1.277c0.257,0.479,0.905,0.685,1.447,0.457c0.542-0.227,0.773-0.8,0.517-1.278
					C66.235,30.565,65.587,30.361,65.046,30.588L65.046,30.588L65.046,30.588z M64.995,30.482c0.605-0.253,1.329-0.024,1.616,0.511
					c0.287,0.535,0.027,1.176-0.578,1.428c-0.606,0.254-1.33,0.025-1.617-0.509C64.13,31.376,64.389,30.735,64.995,30.482z"/>
				
					<path fill-rule="evenodd" clip-rule="evenodd" fill="none" stroke="#000001" stroke-width="0.2835" stroke-miterlimit="22.9256" d="
					M65.046,30.588L65.046,30.588c-0.542,0.226-0.774,0.799-0.518,1.277c0.257,0.479,0.905,0.685,1.447,0.457
					c0.542-0.227,0.773-0.8,0.517-1.278C66.235,30.565,65.587,30.361,65.046,30.588 M64.995,30.482
					c0.605-0.253,1.329-0.024,1.616,0.511c0.287,0.535,0.027,1.176-0.578,1.428c-0.606,0.254-1.33,0.025-1.617-0.509
					C64.13,31.376,64.389,30.735,64.995,30.482z"/>
			</g>
			<g>
				
					<path fill-rule="evenodd" clip-rule="evenodd" fill="none" stroke="#000001" stroke-width="0.2835" stroke-miterlimit="22.9256" d="
					M65.988,32.348c0.56-0.232,0.797-0.821,0.533-1.315c-0.264-0.493-0.931-0.705-1.489-0.472c-0.558,0.234-0.797,0.824-0.533,1.316
					C64.763,32.371,65.43,32.581,65.988,32.348"/>
			</g>
			<g>
				<path fill-rule="evenodd" clip-rule="evenodd" fill="#C9CBCE" d="M65.101,30.689L65.101,30.689
					c-0.478,0.199-0.683,0.704-0.457,1.127c0.227,0.424,0.798,0.604,1.277,0.403c0.479-0.2,0.683-0.705,0.457-1.126
					C66.15,30.67,65.579,30.49,65.101,30.689L65.101,30.689L65.101,30.689z M65.043,30.588c0.542-0.227,1.189-0.022,1.446,0.456
					c0.257,0.479,0.025,1.052-0.518,1.278c-0.541,0.228-1.189,0.022-1.446-0.457C64.27,31.387,64.501,30.813,65.043,30.588z"/>
				
					<path fill-rule="evenodd" clip-rule="evenodd" fill="none" stroke="#000001" stroke-width="0.2835" stroke-miterlimit="22.9256" d="
					M65.101,30.689L65.101,30.689c-0.478,0.199-0.683,0.704-0.457,1.127c0.227,0.424,0.798,0.604,1.277,0.403
					c0.479-0.2,0.683-0.705,0.457-1.126C66.15,30.67,65.579,30.49,65.101,30.689 M65.043,30.588
					c0.542-0.227,1.189-0.022,1.446,0.456c0.257,0.479,0.025,1.052-0.518,1.278c-0.541,0.228-1.189,0.022-1.446-0.457
					C64.27,31.387,64.501,30.813,65.043,30.588z"/>
			</g>
			<g>
				
					<path fill-rule="evenodd" clip-rule="evenodd" fill="none" stroke="#000001" stroke-width="0.2835" stroke-miterlimit="22.9256" d="
					M65.988,32.348c0.56-0.232,0.797-0.821,0.533-1.315c-0.264-0.493-0.931-0.705-1.489-0.472c-0.558,0.234-0.797,0.824-0.533,1.316
					C64.763,32.371,65.43,32.581,65.988,32.348"/>
			</g>
			<g>
				<path fill-rule="evenodd" clip-rule="evenodd" fill="#BEC0C2" d="M65.155,30.791L65.155,30.791
					c-0.413,0.174-0.59,0.611-0.395,0.977c0.196,0.368,0.691,0.523,1.105,0.351c0.415-0.175,0.592-0.612,0.396-0.979
					C66.065,30.775,65.569,30.618,65.155,30.791L65.155,30.791L65.155,30.791z M65.098,30.689c0.479-0.199,1.049-0.02,1.276,0.404
					c0.226,0.421,0.021,0.926-0.457,1.126s-1.05,0.021-1.275-0.403C64.415,31.394,64.619,30.889,65.098,30.689z"/>
				
					<path fill-rule="evenodd" clip-rule="evenodd" fill="none" stroke="#000001" stroke-width="0.2835" stroke-miterlimit="22.9256" d="
					M65.155,30.791L65.155,30.791c-0.413,0.174-0.59,0.611-0.395,0.977c0.196,0.368,0.691,0.523,1.105,0.351
					c0.415-0.175,0.592-0.612,0.396-0.979C66.065,30.775,65.569,30.618,65.155,30.791 M65.098,30.689
					c0.479-0.199,1.049-0.02,1.276,0.404c0.226,0.421,0.021,0.926-0.457,1.126s-1.05,0.021-1.275-0.403
					C64.415,31.394,64.619,30.889,65.098,30.689z"/>
			</g>
			<g>
				
					<path fill-rule="evenodd" clip-rule="evenodd" fill="none" stroke="#000001" stroke-width="0.2835" stroke-miterlimit="22.9256" d="
					M65.988,32.348c0.56-0.232,0.797-0.821,0.533-1.315c-0.264-0.493-0.931-0.705-1.489-0.472c-0.558,0.234-0.797,0.824-0.533,1.316
					C64.763,32.371,65.43,32.581,65.988,32.348"/>
			</g>
			<g>
				<path fill-rule="evenodd" clip-rule="evenodd" fill="#B1B3B4" d="M65.209,30.894L65.209,30.894
					c-0.35,0.146-0.5,0.517-0.334,0.827c0.167,0.31,0.585,0.441,0.937,0.296c0.35-0.147,0.5-0.518,0.333-0.828
					C65.98,30.879,65.561,30.747,65.209,30.894L65.209,30.894L65.209,30.894z M65.153,30.791c0.414-0.173,0.909-0.016,1.106,0.349
					c0.196,0.366,0.019,0.804-0.396,0.979c-0.414,0.173-0.909,0.017-1.105-0.351C64.561,31.402,64.738,30.965,65.153,30.791z"/>
				
					<path fill-rule="evenodd" clip-rule="evenodd" fill="none" stroke="#000001" stroke-width="0.2835" stroke-miterlimit="22.9256" d="
					M65.209,30.894L65.209,30.894c-0.35,0.146-0.5,0.517-0.334,0.827c0.167,0.31,0.585,0.441,0.937,0.296
					c0.35-0.147,0.5-0.518,0.333-0.828C65.98,30.879,65.561,30.747,65.209,30.894 M65.153,30.791
					c0.414-0.173,0.909-0.016,1.106,0.349c0.196,0.366,0.019,0.804-0.396,0.979c-0.414,0.173-0.909,0.017-1.105-0.351
					C64.561,31.402,64.738,30.965,65.153,30.791z"/>
			</g>
			<g>
				
					<path fill-rule="evenodd" clip-rule="evenodd" fill="none" stroke="#000001" stroke-width="0.2835" stroke-miterlimit="22.9256" d="
					M65.988,32.348c0.56-0.232,0.797-0.821,0.533-1.315c-0.264-0.493-0.931-0.705-1.489-0.472c-0.558,0.234-0.797,0.824-0.533,1.316
					C64.763,32.371,65.43,32.581,65.988,32.348"/>
			</g>
			<g>
				<path fill-rule="evenodd" clip-rule="evenodd" fill="#A2A6A9" d="M65.264,30.995L65.264,30.995
					c-0.287,0.119-0.41,0.423-0.273,0.678c0.135,0.253,0.479,0.361,0.766,0.24c0.287-0.119,0.409-0.423,0.273-0.676
					C65.894,30.984,65.551,30.875,65.264,30.995L65.264,30.995L65.264,30.995z M65.21,30.898c0.35-0.146,0.77-0.015,0.935,0.297
					c0.167,0.31,0.017,0.68-0.333,0.827c-0.35,0.146-0.77,0.014-0.937-0.297C64.709,31.417,64.859,31.046,65.21,30.898z"/>
				
					<path fill-rule="evenodd" clip-rule="evenodd" fill="none" stroke="#000001" stroke-width="0.2835" stroke-miterlimit="22.9256" d="
					M65.264,30.995L65.264,30.995c-0.287,0.119-0.41,0.423-0.273,0.678c0.135,0.253,0.479,0.361,0.766,0.24
					c0.287-0.119,0.409-0.423,0.273-0.676C65.894,30.984,65.551,30.875,65.264,30.995 M65.21,30.898
					c0.35-0.146,0.77-0.015,0.935,0.297c0.167,0.31,0.017,0.68-0.333,0.827c-0.35,0.146-0.77,0.014-0.937-0.297
					C64.709,31.417,64.859,31.046,65.21,30.898z"/>
			</g>
			<g>
				
					<path fill-rule="evenodd" clip-rule="evenodd" fill="none" stroke="#000001" stroke-width="0.2835" stroke-miterlimit="22.9256" d="
					M65.988,32.348c0.56-0.232,0.797-0.821,0.533-1.315c-0.264-0.493-0.931-0.705-1.489-0.472c-0.558,0.234-0.797,0.824-0.533,1.316
					C64.763,32.371,65.43,32.581,65.988,32.348"/>
			</g>
			<g>
				<path fill-rule="evenodd" clip-rule="evenodd" fill="#989B9E" d="M65.319,31.099L65.319,31.099
					c-0.223,0.092-0.319,0.329-0.213,0.524c0.106,0.197,0.372,0.283,0.596,0.188c0.223-0.094,0.318-0.329,0.212-0.525
					C65.809,31.089,65.542,31.004,65.319,31.099L65.319,31.099L65.319,31.099z M65.261,30.995c0.288-0.12,0.63-0.011,0.766,0.242
					s0.014,0.557-0.274,0.676c-0.287,0.121-0.63,0.013-0.766-0.24C64.853,31.418,64.975,31.114,65.261,30.995z"/>
				
					<path fill-rule="evenodd" clip-rule="evenodd" fill="none" stroke="#000001" stroke-width="0.2835" stroke-miterlimit="22.9256" d="
					M65.319,31.099L65.319,31.099c-0.223,0.092-0.319,0.329-0.213,0.524c0.106,0.197,0.372,0.283,0.596,0.188
					c0.223-0.094,0.318-0.329,0.212-0.525C65.809,31.089,65.542,31.004,65.319,31.099 M65.261,30.995
					c0.288-0.12,0.63-0.011,0.766,0.242s0.014,0.557-0.274,0.676c-0.287,0.121-0.63,0.013-0.766-0.24
					C64.853,31.418,64.975,31.114,65.261,30.995z"/>
			</g>
			<g>
				
					<path fill-rule="evenodd" clip-rule="evenodd" fill="none" stroke="#000001" stroke-width="0.2835" stroke-miterlimit="22.9256" d="
					M65.988,32.348c0.56-0.232,0.797-0.821,0.533-1.315c-0.264-0.493-0.931-0.705-1.489-0.472c-0.558,0.234-0.797,0.824-0.533,1.316
					C64.763,32.371,65.43,32.581,65.988,32.348"/>
			</g>
			<g>
				<path fill-rule="evenodd" clip-rule="evenodd" fill="#8C8D91" d="M65.374,31.199L65.374,31.199
					c-0.159,0.067-0.228,0.236-0.152,0.375c0.075,0.142,0.266,0.202,0.425,0.135c0.16-0.065,0.227-0.234,0.151-0.375
					C65.724,31.192,65.534,31.132,65.374,31.199L65.374,31.199L65.374,31.199z M65.316,31.099c0.223-0.095,0.491-0.01,0.596,0.188
					c0.106,0.196,0.01,0.432-0.213,0.525c-0.224,0.095-0.489,0.009-0.596-0.188C64.999,31.426,65.093,31.19,65.316,31.099z"/>
				
					<path fill-rule="evenodd" clip-rule="evenodd" fill="none" stroke="#000001" stroke-width="0.2835" stroke-miterlimit="22.9256" d="
					M65.374,31.199L65.374,31.199c-0.159,0.067-0.228,0.236-0.152,0.375c0.075,0.142,0.266,0.202,0.425,0.135
					c0.16-0.065,0.227-0.234,0.151-0.375C65.724,31.192,65.534,31.132,65.374,31.199 M65.316,31.099
					c0.223-0.095,0.491-0.01,0.596,0.188c0.106,0.196,0.01,0.432-0.213,0.525c-0.224,0.095-0.489,0.009-0.596-0.188
					C64.999,31.426,65.093,31.19,65.316,31.099z"/>
			</g>
			<g>
				
					<path fill-rule="evenodd" clip-rule="evenodd" fill="none" stroke="#000001" stroke-width="0.2835" stroke-miterlimit="22.9256" d="
					M65.988,32.348c0.56-0.232,0.797-0.821,0.533-1.315c-0.264-0.493-0.931-0.705-1.489-0.472c-0.558,0.234-0.797,0.824-0.533,1.316
					C64.763,32.371,65.43,32.581,65.988,32.348"/>
			</g>
			<g>
				<path fill-rule="evenodd" clip-rule="evenodd" fill="#7F8283" d="M65.428,31.303L65.428,31.303
					c-0.095,0.038-0.137,0.142-0.091,0.225c0.046,0.084,0.16,0.121,0.255,0.081c0.096-0.041,0.137-0.142,0.091-0.227
					C65.638,31.298,65.524,31.263,65.428,31.303L65.428,31.303L65.428,31.303z M65.371,31.199c0.16-0.067,0.351-0.007,0.426,0.135
					c0.076,0.141,0.007,0.31-0.152,0.375c-0.159,0.067-0.35,0.007-0.426-0.135C65.144,31.436,65.211,31.267,65.371,31.199z"/>
				
					<path fill-rule="evenodd" clip-rule="evenodd" fill="none" stroke="#000001" stroke-width="0.2835" stroke-miterlimit="22.9256" d="
					M65.428,31.303L65.428,31.303c-0.095,0.038-0.137,0.142-0.091,0.225c0.046,0.084,0.16,0.121,0.255,0.081
					c0.096-0.041,0.137-0.142,0.091-0.227C65.638,31.298,65.524,31.263,65.428,31.303 M65.371,31.199
					c0.16-0.067,0.351-0.007,0.426,0.135c0.076,0.141,0.007,0.31-0.152,0.375c-0.159,0.067-0.35,0.007-0.426-0.135
					C65.144,31.436,65.211,31.267,65.371,31.199z"/>
			</g>
			<g>
				
					<path fill-rule="evenodd" clip-rule="evenodd" fill="none" stroke="#000001" stroke-width="0.2835" stroke-miterlimit="22.9256" d="
					M65.988,32.348c0.56-0.232,0.797-0.821,0.533-1.315c-0.264-0.493-0.931-0.705-1.489-0.472c-0.558,0.234-0.797,0.824-0.533,1.316
					C64.763,32.371,65.43,32.581,65.988,32.348"/>
			</g>
			<g>
				<path fill-rule="evenodd" clip-rule="evenodd" fill="#757679" d="M65.483,31.403L65.483,31.403
					c-0.032,0.015-0.045,0.048-0.031,0.075c0.016,0.027,0.053,0.041,0.085,0.027c0.032-0.014,0.046-0.047,0.031-0.075
					C65.553,31.402,65.516,31.391,65.483,31.403L65.483,31.403L65.483,31.403z M65.433,31.3c0.094-0.041,0.208-0.005,0.254,0.08
					c0.045,0.084,0.004,0.186-0.092,0.225c-0.095,0.041-0.208,0.004-0.254-0.079C65.295,31.44,65.337,31.34,65.433,31.3z"/>
				
					<path fill-rule="evenodd" clip-rule="evenodd" fill="none" stroke="#000001" stroke-width="0.2835" stroke-miterlimit="22.9256" d="
					M65.483,31.403L65.483,31.403c-0.032,0.015-0.045,0.048-0.031,0.075c0.016,0.027,0.053,0.041,0.085,0.027
					c0.032-0.014,0.046-0.047,0.031-0.075C65.553,31.402,65.516,31.391,65.483,31.403 M65.433,31.3
					c0.094-0.041,0.208-0.005,0.254,0.08c0.045,0.084,0.004,0.186-0.092,0.225c-0.095,0.041-0.208,0.004-0.254-0.079
					C65.295,31.44,65.337,31.34,65.433,31.3z"/>
			</g>
			<g>
				
					<path fill-rule="evenodd" clip-rule="evenodd" fill="none" stroke="#000001" stroke-width="0.2835" stroke-miterlimit="22.9256" d="
					M65.988,32.348c0.56-0.232,0.797-0.821,0.533-1.315c-0.264-0.493-0.931-0.705-1.489-0.472c-0.558,0.234-0.797,0.824-0.533,1.316
					C64.763,32.371,65.43,32.581,65.988,32.348"/>
			</g>
			
				<path fill-rule="evenodd" clip-rule="evenodd" fill="#68696B" stroke="#000001" stroke-width="0.2835" stroke-miterlimit="22.9256" d="
				M65.487,31.401c0.032-0.014,0.07-0.002,0.085,0.026c0.015,0.028,0,0.062-0.031,0.076c-0.032,0.012-0.069,0.001-0.085-0.028
				C65.441,31.448,65.455,31.415,65.487,31.401z"/>
		</g>
		
			<path fill-rule="evenodd" clip-rule="evenodd" fill="none" stroke="#000001" stroke-width="0.2835" stroke-miterlimit="22.9256" d="
			M65.032,30.561c0.559-0.233,1.225-0.021,1.489,0.472c0.264,0.494,0.027,1.083-0.533,1.315c-0.558,0.233-1.225,0.023-1.489-0.471
			C64.234,31.385,64.474,30.795,65.032,30.561z"/>
		<g>
			<g>
				
					<polyline fill-rule="evenodd" clip-rule="evenodd" fill="none" stroke="#000001" stroke-width="0.2835" stroke-miterlimit="22.9256" points="
					64.298,31.962 63.331,32.811 63.766,33.197 64.732,32.348 64.298,31.962 				"/>
			</g>
			
				<path fill-rule="evenodd" clip-rule="evenodd" fill="#000001" stroke="#000001" stroke-width="0.2835" stroke-miterlimit="22.9256" d="
				M64.394,32.019l-0.076-0.075l-1.027,0.828L64.394,32.019z M64.394,32.019"/>
			<g>
				
					<polyline fill-rule="evenodd" clip-rule="evenodd" fill="none" stroke="#000001" stroke-width="0.2835" stroke-miterlimit="22.9256" points="
					64.298,31.962 63.331,32.811 63.766,33.197 64.732,32.348 64.298,31.962 				"/>
			</g>
			
				<path fill-rule="evenodd" clip-rule="evenodd" fill="#444647" stroke="#000001" stroke-width="0.2835" stroke-miterlimit="22.9256" d="
				M64.47,32.091l-0.076-0.072l-1.027,0.826L64.47,32.091z M64.47,32.091"/>
			<g>
				
					<polyline fill-rule="evenodd" clip-rule="evenodd" fill="none" stroke="#000001" stroke-width="0.2835" stroke-miterlimit="22.9256" points="
					64.298,31.962 63.331,32.811 63.766,33.197 64.732,32.348 64.298,31.962 				"/>
			</g>
			
				<path fill-rule="evenodd" clip-rule="evenodd" fill="#6B6E70" stroke="#000001" stroke-width="0.2835" stroke-miterlimit="22.9256" d="
				M64.546,32.165l-0.076-0.074l-1.028,0.828L64.546,32.165z M64.546,32.165"/>
			<g>
				
					<polyline fill-rule="evenodd" clip-rule="evenodd" fill="none" stroke="#000001" stroke-width="0.2835" stroke-miterlimit="22.9256" points="
					64.298,31.962 63.331,32.811 63.766,33.197 64.732,32.348 64.298,31.962 				"/>
			</g>
			
				<path fill-rule="evenodd" clip-rule="evenodd" fill="#8C8D91" stroke="#000001" stroke-width="0.2835" stroke-miterlimit="22.9256" d="
				M64.623,32.239l-0.076-0.074l-1.028,0.827L64.623,32.239z M64.623,32.239"/>
			<g>
				
					<polyline fill-rule="evenodd" clip-rule="evenodd" fill="none" stroke="#000001" stroke-width="0.2835" stroke-miterlimit="22.9256" points="
					64.298,31.962 63.331,32.811 63.766,33.197 64.732,32.348 64.298,31.962 				"/>
			</g>
			
				<path fill-rule="evenodd" clip-rule="evenodd" fill="#ADB0B3" stroke="#000001" stroke-width="0.2835" stroke-miterlimit="22.9256" d="
				M64.698,32.313l-0.075-0.073l-1.028,0.828L64.698,32.313z M64.698,32.313"/>
			<g>
				
					<polyline fill-rule="evenodd" clip-rule="evenodd" fill="none" stroke="#000001" stroke-width="0.2835" stroke-miterlimit="22.9256" points="
					64.298,31.962 63.331,32.811 63.766,33.197 64.732,32.348 64.298,31.962 				"/>
			</g>
			
				<path fill-rule="evenodd" clip-rule="evenodd" fill="#CED0D1" stroke="#000001" stroke-width="0.2835" stroke-miterlimit="22.9256" d="
				M64.773,32.386l-0.075-0.073l-1.028,0.828L64.773,32.386z M64.773,32.386"/>
		</g>
		
			<polygon fill-rule="evenodd" clip-rule="evenodd" fill="none" stroke="#000001" stroke-width="0.2835" stroke-miterlimit="22.9256" points="
			63.332,32.811 64.298,31.962 64.732,32.348 63.766,33.197 		"/>
	</g>
	
		<path fill-rule="evenodd" clip-rule="evenodd" fill="#CED0D1" stroke="#000001" stroke-width="0.2835" stroke-miterlimit="22.9256" d="
		M48.047,19.634c-1.319,1.87-2.682,2.831-4.35,3.186c-1.667,0.355-2.578,0.073-3.521-0.505c-0.942-0.579-1.24-1.819-1.24-1.819
		l-0.133,0.109c0,0.002,0.122,0.782,0.73,1.51c0.611,0.73,2.068,1.551,4.04,1.327c1.644-0.188,2.813-1.082,3.63-1.87
		c0.819-0.792,1.234-1.535,1.235-1.537L48.047,19.634z"/>
	<g>
		
			<path fill-rule="evenodd" clip-rule="evenodd" fill="none" stroke="#000001" stroke-width="0.2835" stroke-miterlimit="22.9256" d="
			M48.047,19.634c-1.319,1.87-2.682,2.831-4.35,3.186c-1.667,0.355-2.578,0.073-3.521-0.505c-0.942-0.579-1.24-1.819-1.24-1.819
			l-0.133,0.109c0,0.002,0.122,0.782,0.73,1.51c0.611,0.73,2.068,1.551,4.04,1.327c1.644-0.188,2.813-1.082,3.63-1.87
			c0.819-0.792,1.234-1.535,1.235-1.537L48.047,19.634"/>
	</g>
	
		<path fill-rule="evenodd" clip-rule="evenodd" fill="#000001" stroke="#000001" stroke-width="0.2835" stroke-miterlimit="22.9256" d="
		M38.234,20.282c0,0.002,0.128,0.783,0.771,1.51c0.647,0.73,1.823,1.412,3.911,1.188c1.739-0.187,3.043-1.033,3.907-1.822
		c0.866-0.789,1.305-1.534,1.307-1.535l-0.176-0.039c0,0-0.107,0.182-0.322,0.463c-0.907,1.184-2.521,2.58-4.745,2.818
		c-2.522,0.271-3.819-0.839-4.325-2.128c-0.109-0.279-0.14-0.468-0.14-0.468L38.234,20.282z"/>
	
		<path fill-rule="evenodd" clip-rule="evenodd" fill="none" stroke="#000001" stroke-width="0.2835" stroke-linejoin="round" stroke-miterlimit="22.9256" d="
		M47.982,19.634c-1.319,1.87-2.681,2.831-4.35,3.186c-1.667,0.355-2.578,0.073-3.521-0.505c-0.942-0.579-1.454-1.684-1.454-1.684
		l-0.155,0.1c0,0.002,0.359,0.656,0.967,1.384c0.612,0.73,2.069,1.551,4.041,1.327c1.644-0.188,2.813-1.082,3.63-1.87
		c0.819-0.792,1.233-1.535,1.234-1.537L47.982,19.634z"/>
	
		<path fill-rule="evenodd" clip-rule="evenodd" fill="#CED0D1" stroke="#000001" stroke-width="0.2835" stroke-miterlimit="22.9256" d="
		M47.214,22.079l-0.498-0.228c3.194-4.448,2.959-6.384,2.87-6.628c-0.089-0.243-1.061-1.194-1.061-1.194l-0.101-0.479
		c0,0,1.013,0.83,1.225,1.096c0.213,0.266,0.442,0.446,0.383,0.878c-0.059,0.432,0.024,2.038-1.792,4.998
		C47.782,21.27,47.428,21.803,47.214,22.079z"/>
	
		<path fill-rule="evenodd" clip-rule="evenodd" fill="none" stroke="#000001" stroke-width="0.2835" stroke-linejoin="round" stroke-miterlimit="22.9256" d="
		M47.055,22.161l-0.41-0.206c3.194-4.45,3.03-6.487,2.941-6.732c-0.14-0.227-0.61-0.738-0.61-0.738l-0.224-0.664
		c0,0,0.686,0.558,0.898,0.824c0.213,0.266,0.442,0.446,0.383,0.878c-0.059,0.432,0.024,2.038-1.792,4.998
		C47.737,21.272,47.269,21.884,47.055,22.161z"/>
	
		<path fill-rule="evenodd" clip-rule="evenodd" fill="#FFFFFF" stroke="#000001" stroke-width="0.2835" stroke-miterlimit="22.9256" d="
		M49.704,15.532c0,0,0.148,0.7-0.128,1.476c-0.276,0.775-0.767,1.78-0.767,1.78s0.683-1.749,0.802-2.245
		C49.679,16.255,49.704,15.532,49.704,15.532z"/>
	
		<path fill-rule="evenodd" clip-rule="evenodd" fill="none" stroke="#000001" stroke-width="0.2835" stroke-linejoin="round" stroke-miterlimit="22.9256" d="
		M48.117,13.324c-0.11-0.188,0.632,0.208,0.632,0.208s0.044,0.946-0.172,0.575L48.117,13.324z"/>
	
		<path fill-rule="evenodd" clip-rule="evenodd" fill="#BABCBE" stroke="#000001" stroke-width="0.2835" stroke-miterlimit="22.9256" d="
		M48.717,19.578l-0.538,1.017c0,0-0.246-0.344-0.622-0.012l0.57-0.952C48.127,19.631,48.374,19.325,48.717,19.578z"/>
	
		<path fill-rule="evenodd" clip-rule="evenodd" fill="none" stroke="#000001" stroke-width="0.2835" stroke-linejoin="round" stroke-miterlimit="22.9256" d="
		M48.65,19.519l-0.538,1.017c0,0-0.245-0.343-0.621-0.011l0.569-0.952C48.061,19.572,48.308,19.268,48.65,19.519z"/>
	
		<path fill-rule="evenodd" clip-rule="evenodd" fill="#CED0D1" stroke="#000001" stroke-width="0.2835" stroke-miterlimit="22.9256" d="
		M36.809,14.496c0.171-0.309-1.004,0.414-1.334,0.995c-0.409,0.717,0.632,3.356,3.871,7.099l0.366-0.403
		c-3.239-3.744-4.272-5.979-3.775-6.652c0.196-0.266,0.476-0.319,0.591-0.525L36.809,14.496z"/>
	
		<path fill-rule="evenodd" clip-rule="evenodd" fill="none" stroke="#000001" stroke-width="0.2835" stroke-linejoin="round" stroke-miterlimit="22.9256" d="
		M36.836,14.454c0.193-0.273-1.005,0.409-1.361,1.037c-0.409,0.717,0.821,3.376,4.06,7.12l0.294-0.397
		c-3.239-3.742-4.39-6.006-3.892-6.678c0.141-0.191,0.329-0.276,0.438-0.432L36.836,14.454z"/>
	
		<path fill-rule="evenodd" clip-rule="evenodd" fill="#BABCBE" stroke="#000001" stroke-width="0.2835" stroke-miterlimit="22.9256" d="
		M39.124,21.305c-0.689-0.204-0.76,0.009-0.76,0.009l-0.626-0.725c0,0-0.052-0.487,0.683-0.194L39.124,21.305z"/>
	
		<path fill-rule="evenodd" clip-rule="evenodd" fill="none" stroke="#000001" stroke-width="0.2835" stroke-linejoin="round" stroke-miterlimit="22.9256" d="
		M39.126,21.386c-0.68-0.228-0.76-0.069-0.76-0.069l-0.523-0.797c0,0-0.163-0.436,0.558-0.119L39.126,21.386z"/>
	
		<path fill-rule="evenodd" clip-rule="evenodd" fill="#FFFFFF" stroke="#000001" stroke-width="0.2835" stroke-miterlimit="22.9256" d="
		M45.008,24.657c0,0-0.446,0.609-1.433,0.83c0,0,0.014-0.113,0.443-0.275c0.428-0.165,0.582-0.345,0.657-0.407
		C44.753,24.743,45.008,24.657,45.008,24.657z"/>
	
		<path fill-rule="evenodd" clip-rule="evenodd" fill="#FFFFFF" stroke="#000001" stroke-width="0.2835" stroke-miterlimit="22.9256" d="
		M50.258,35.798c0,0-0.416,0.233-1.071,0.077c-0.364-0.089-0.762-0.309-0.762-0.309s0.551,0.181,0.919,0.226
		C49.698,35.833,50.258,35.798,50.258,35.798z"/>
</g>
</svg>
