<?xml version="1.0" encoding="utf-8"?>
<!-- Generator: Adobe Illustrator 16.0.0, SVG Export Plug-In . SVG Version: 6.00 Build 0)  -->
<!DOCTYPE svg PUBLIC "-//W3C//DTD SVG 1.1//EN" "http://www.w3.org/Graphics/SVG/1.1/DTD/svg11.dtd">
<svg version="1.1" id="Capa_1" xmlns="http://www.w3.org/2000/svg" xmlns:xlink="http://www.w3.org/1999/xlink" x="0px" y="0px"
	 width="186.172px" height="58.5px" viewBox="0 0 186.172 58.5" enable-background="new 0 0 186.172 58.5" xml:space="preserve">
<g>
	<path fill="#0000CC" stroke="#0000CC" stroke-width="0.25" stroke-miterlimit="10" d="M89.273,38.354h0.07
		c4.05,7.096,17.982,3.972,17.797-7.137c-0.539-9.962-13.071-14.201-18.093-6.528h-0.078l-0.147-3.434h-2.986
		c0.113,1.883,0.148,3.92,0.148,6.45V49.06h3.291L89.273,38.354L89.273,38.354z M89.422,34.436
		c-0.189-0.422-0.148-0.942-0.148-1.466v-3.39c0-0.495,0.01-1.051,0.218-1.464c4.263-8.47,14.446-4.162,15.196,3.244
		C104.757,38.992,93.352,43.274,89.422,34.436z M111.946,39.961c0.768,0.979,2.048,1.497,3.576,1.505l2.84,0.014l0.002-2.204
		l-1.968-0.042c-2.492-0.054-2.473-1.458-2.473-4.57V23.997h4.7v-2.741h-4.7v-5.664l-3.239,0.932v4.732h-2.797v2.741h2.797v10.791
		C110.68,37.104,111.052,38.832,111.946,39.961L111.946,39.961z M120.863,41.009h3.237V21.257h-3.237V41.009z M122.427,17.944
		c1.308,0,2.109-0.98,2.093-2.208c-0.021-1.266-0.786-2.244-2.021-2.244c-1.193,0-2.055,1.028-2.055,2.244
		C120.443,16.965,121.227,17.944,122.427,17.944z M128.15,41.009h3.184V29.114c0-0.571,0.06-1.223,0.222-1.752
		c0.55-1.792,2.051-3.538,4.106-3.538c2.471,0,3.779,2.237,3.779,5.377v11.807h3.169V28.828c0-0.645,0.118-1.271,0.295-1.835
		c0.537-1.711,2.021-3.167,3.892-3.167c2.647,0,3.92,2.237,3.92,6.063v11.121h3.186V29.4c0-6.842-3.52-8.546-5.912-8.546
		c-1.716,0-2.879,0.49-3.996,1.38c-0.756,0.601-1.452,1.464-2.02,2.562h-0.07c-0.782-2.277-2.656-3.942-5.117-3.942
		c-3.023,0-4.71,1.752-5.712,3.618h-0.08l-0.149-3.218H128c0.076,1.672,0.149,3.311,0.149,5.349L128.15,41.009L128.15,41.009z
		 M157.005,34.459c0.045,3.841,3.341,6.938,6.951,6.938c2.578,0,4.784-0.77,5.147-2.843h0.069l0.304,2.453h2.945
		c-0.185-1.341-0.263-3.017-0.263-4.719v-7.327c0-4.014-1.343-8.107-6.858-8.107c-2.241,0-4.433,0.687-5.963,1.732l0.78,2.36
		c1.272-0.894,3.023-1.466,4.702-1.466c3.647,0,4.093,2.94,4.093,4.577v0.446C162.971,24.846,156.938,29.019,157.005,34.459
		L157.005,34.459z M159.338,34.251c-0.017-5.19,5.731-6.448,9.653-3.289v3.474c0,0.321-0.121,0.728-0.15,1.104
		c-0.243,2.979-2.229,4.117-4.638,4.117C161.623,39.657,159.349,37.768,159.338,34.251L159.338,34.251z"/>
	<g>
		<path fill="#0000CC" stroke="#0000CC" stroke-width="0.25" stroke-miterlimit="10" d="M94.692,2.079v1.485
			c-0.955-0.504-1.837-0.838-2.631-0.757c-0.497,0.052-1.277,0.359-1.979,1.081s-1.055,1.606-1.055,2.658
			c0,1.07,0.362,1.963,1.082,2.678c0.717,0.714,1.367,1.058,2.083,1.072c0.787,0.02,1.622-0.267,2.5-0.805v1.501
			c-0.799,0.463-1.643,0.679-2.604,0.697c-0.637,0.01-1.923-0.505-2.896-1.512c-0.97-1.008-1.458-2.227-1.458-3.652
			c0-1.396,0.48-2.594,1.434-3.589c0.956-0.995,1.916-1.45,2.837-1.494C92.869,1.405,93.766,1.656,94.692,2.079z M102.896,11.176
			v-6.24h1.207V5.97c0.343-0.417,0.657-0.727,0.937-0.922c0.277-0.197,0.591-0.298,0.937-0.298c0.512,0,0.955,0.186,1.317,0.56
			c0.365,0.375,0.546,0.825,0.546,1.35v4.516h-1.207V7.041c0-0.339-0.099-0.62-0.303-0.842c-0.194-0.22-0.449-0.333-0.758-0.333
			c-0.401,0-0.746,0.187-1.035,0.557c-0.29,0.37-0.435,0.823-0.435,1.346v3.407L102.896,11.176L102.896,11.176z M109.526,3.141
			h1.207v1.796h1.196v1.224h-1.195v5.016h-1.208V6.161h-0.953V4.937h0.953V3.141z M113.919,4.936v1.287l0,0
			c0.268-0.519,0.53-0.896,0.786-1.125c0.257-0.231,0.592-0.347,1-0.347c0.12,0,0.286,0.03,0.504,0.09l-0.354,1.315
			c-0.233-0.048-0.387-0.074-0.461-0.074c-0.41,0-0.753,0.156-1.03,0.468c-0.277,0.308-0.413,0.695-0.413,1.161v3.465h-1.208v-6.24
			L113.919,4.936L113.919,4.936z M116.704,8.029c0-0.858,0.308-1.614,0.925-2.282c0.621-0.665,1.329-0.998,2.132-0.998
			c0.821,0,1.544,0.328,2.159,0.983c0.618,0.654,0.924,1.419,0.924,2.294c0,0.88-0.304,1.653-0.907,2.325
			c-0.603,0.67-1.302,1.007-2.097,1.007c-0.844,0-1.581-0.332-2.206-0.994C117.012,9.702,116.704,8.924,116.704,8.029L116.704,8.029
			z M121.682,8.032c0-0.535-0.189-0.997-0.556-1.39c-0.372-0.396-0.812-0.592-1.321-0.592c-0.524,0-0.975,0.198-1.352,0.598
			s-0.568,0.875-0.568,1.43c0,0.529,0.192,0.992,0.575,1.389c0.377,0.395,0.831,0.592,1.346,0.592c0.496,0,0.938-0.203,1.313-0.608
			C121.493,9.044,121.682,8.571,121.682,8.032z M135.048,1.351l2.422,10.029h-1.17l-1.485-6.149l-2.511,6.521l-2.521-6.538
			l-1.484,6.167h-1.176l2.408-10.029l2.772,7.178L135.048,1.351z M140.279,3.852l0.978-2.334l1.352-0.104l-1.306,1.986
			L140.279,3.852z M149.71,1.567h1.182v9.812h-1.182V10.08c-0.57,0.979-1.317,1.47-2.242,1.47c-0.745,0-1.384-0.326-1.916-0.976
			c-0.532-0.649-0.802-1.432-0.802-2.342c0-0.896,0.275-1.665,0.817-2.307c0.541-0.642,1.191-0.966,1.945-0.966
			c0.452,0,0.876,0.137,1.263,0.409c0.395,0.271,0.704,0.626,0.937,1.065L149.71,1.567L149.71,1.567z M149.852,8.24
			c0-0.558-0.192-1.047-0.564-1.457c-0.377-0.41-0.828-0.619-1.351-0.619c-0.54,0-0.998,0.203-1.373,0.604s-0.566,0.893-0.566,1.47
			c0,0.558,0.195,1.047,0.577,1.461c0.38,0.416,0.827,0.627,1.335,0.627c0.544,0,1.002-0.202,1.379-0.607
			C149.661,9.316,149.852,8.824,149.852,8.24L149.852,8.24z M152.507,3.1c0-0.272,0.096-0.509,0.277-0.707
			c0.187-0.2,0.407-0.3,0.661-0.3c0.255,0,0.469,0.101,0.65,0.3c0.184,0.198,0.278,0.433,0.278,0.707
			c0,0.275-0.095,0.515-0.278,0.712c-0.182,0.198-0.397,0.294-0.65,0.294c-0.254,0-0.475-0.097-0.661-0.294
			C152.602,3.616,152.507,3.375,152.507,3.1z M152.849,5.142h1.209v6.238h-1.209V5.142z M159.936,9.269v1.502
			c-0.614,0.382-1.214,0.573-1.789,0.573c-0.792,0-1.485-0.326-2.08-0.972c-0.592-0.65-0.891-1.4-0.891-2.253
			c0-0.97,0.297-1.774,0.886-2.412c0.592-0.638,1.338-0.958,2.229-0.958c0.533,0,1.082,0.15,1.645,0.448v1.471
			c-0.605-0.412-1.177-0.62-1.721-0.62c-0.499,0-0.936,0.193-1.312,0.576c-0.374,0.381-0.562,0.831-0.562,1.347
			c0,0.579,0.175,1.065,0.527,1.463c0.35,0.393,0.783,0.592,1.292,0.592C158.679,10.028,159.272,9.775,159.936,9.269L159.936,9.269z
			 M161.819,8.029c0-0.858,0.312-1.614,0.928-2.282c0.618-0.664,1.331-0.998,2.13-0.998c0.824,0,1.545,0.328,2.158,0.983
			c0.619,0.654,0.927,1.419,0.927,2.294c0,0.88-0.303,1.653-0.909,2.325c-0.604,0.67-1.302,1.007-2.095,1.007
			c-0.846,0-1.582-0.332-2.202-0.994C162.132,9.702,161.819,8.924,161.819,8.029L161.819,8.029z M166.793,8.032
			c0-0.535-0.186-0.997-0.556-1.39c-0.369-0.396-0.81-0.592-1.317-0.592c-0.525,0-0.976,0.198-1.354,0.598
			C163.19,7.048,163,7.524,163,8.079c0,0.529,0.193,0.992,0.574,1.389c0.379,0.395,0.83,0.592,1.347,0.592
			c0.498,0,0.939-0.203,1.311-0.608C166.606,9.044,166.793,8.571,166.793,8.032z"/>
		<path fill="#0000CC" stroke="#0000CC" stroke-width="0.25" stroke-miterlimit="10" d="M101.693,6.775l-4.657,2.192
			c0.15,0.395,0.356,0.648,0.734,0.944c0.376,0.294,0.79,0.447,1.233,0.447c0.684,0,1.259-0.307,1.722-0.928l0.88,0.518
			c-0.661,0.931-1.546,1.396-2.659,1.396c-0.853,0-1.566-0.319-2.139-0.955c-0.575-0.633-0.86-1.425-0.86-2.369
			c0-0.882,0.292-1.649,0.873-2.296c0.579-0.646,1.291-0.926,2.127-0.973C100.497,4.666,101.698,6.169,101.693,6.775z M96.836,8.129
			l3.617-1.699C99.113,4.906,96.711,6.188,96.836,8.129z"/>
		<path fill="#0000CC" stroke="#0000CC" stroke-width="0.25" stroke-miterlimit="10" d="M143.491,6.775l-4.653,2.192
			c0.15,0.395,0.359,0.648,0.733,0.944c0.378,0.294,0.788,0.447,1.235,0.447c0.683,0,1.262-0.307,1.722-0.928l0.88,0.518
			c-0.662,0.931-1.549,1.396-2.662,1.396c-0.853,0-1.563-0.319-2.137-0.955c-0.573-0.633-0.86-1.425-0.86-2.369
			c0-0.882,0.292-1.649,0.876-2.296c0.575-0.646,1.288-0.926,2.122-0.973C142.301,4.666,143.499,6.169,143.491,6.775z
			 M138.636,8.129l3.62-1.699C140.917,4.906,138.514,6.188,138.636,8.129z"/>
	</g>
	<path fill="#0000CC" stroke="#0000CC" stroke-width="0.25" stroke-miterlimit="10" d="M50.404,16.425h1.884
		c14.214-16.863,29.621-7.934,19.55,14.663c-7.196,15.764-22.767,22.096-27.013,11.491h-3.793
		c2.193,26.119,28.741,16.099,39.54-6.856C96.98-5.587,64.197-5.314,50.404,16.425z"/>
</g>
<polygon fill="#BFDA59" points="16.105,18.706 16.105,22.478 69.627,22.478 69.627,18.706 "/>
<polygon fill="#BFDA59" points="11.45,27.562 11.45,31.336 66.417,31.336 67.932,27.562 "/>
<polygon fill="#BFDA59" points="6.006,36.294 6.006,40.066 60.006,40.066 62.87,36.294 "/>
</svg>
