<?xml version="1.0" encoding="utf-8"?>
<!-- Generator: Adobe Illustrator 16.0.0, SVG Export Plug-In . SVG Version: 6.00 Build 0)  -->
<!DOCTYPE svg PUBLIC "-//W3C//DTD SVG 1.1//EN" "http://www.w3.org/Graphics/SVG/1.1/DTD/svg11.dtd">
<svg version="1.1" id="Capa_1" xmlns="http://www.w3.org/2000/svg" xmlns:xlink="http://www.w3.org/1999/xlink" x="0px" y="0px"
	 width="706px" height="221.03px" viewBox="-33 -25.97 706 221.03" enable-background="new -33 -25.97 706 221.03"
	 xml:space="preserve">
<path fill="#DEB435" d="M534.518,99.69l8.9-0.8c0.416,3.6,1.398,6.55,2.948,8.865c1.552,2.301,3.95,4.167,7.2,5.602
	c3.25,1.416,6.917,2.133,10.983,2.133c3.616,0,6.8-0.533,9.565-1.616c2.768-1.084,4.816-2.565,6.167-4.45
	c1.351-1.883,2.033-3.934,2.033-6.133c0-2.233-0.649-4.184-1.95-5.867c-1.3-1.667-3.449-3.065-6.449-4.217
	c-1.916-0.732-6.166-1.898-12.75-3.482c-6.584-1.583-11.184-3.067-13.815-4.468c-3.417-1.8-5.95-4.032-7.617-6.683
	c-1.684-2.65-2.517-5.633-2.517-8.917c0-3.633,1.033-7.017,3.083-10.15c2.051-3.149,5.032-5.533,8.982-7.167
	c3.935-1.633,8.317-2.449,13.134-2.449c5.301,0,9.982,0.85,14.033,2.565c4.05,1.7,7.166,4.217,9.351,7.55
	c2.184,3.316,3.35,7.083,3.517,11.283l-9.1,0.7c-0.483-4.517-2.135-7.934-4.95-10.233c-2.816-2.316-6.983-3.467-12.483-3.467
	c-5.732,0-9.916,1.05-12.533,3.15c-2.615,2.1-3.934,4.633-3.934,7.6c0,2.566,0.934,4.684,2.784,6.351
	c1.833,1.649,6.583,3.366,14.283,5.1c7.698,1.75,12.981,3.267,15.85,4.566c4.149,1.917,7.233,4.333,9.216,7.283
	c1.983,2.934,2.967,6.316,2.967,10.15c0,3.817-1.083,7.383-3.267,10.75c-2.183,3.367-5.3,5.983-9.383,7.851
	c-4.084,1.866-8.667,2.801-13.783,2.801c-6.467,0-11.883-0.95-16.25-2.834c-4.383-1.884-7.8-4.717-10.283-8.518
	C535.95,108.756,534.651,104.473,534.518,99.69z"/>
<path fill="#DEB435" d="M596.467,122.69l27.467-71.6h10.416l29.15,71.6h-10.783l-8.283-21.7h-30.15l-7.766,21.7H596.467
	L596.467,122.69z M617.066,93.29h24.4L634,73.44c-2.25-6.033-3.95-11.018-5.134-14.95c-0.982,4.667-2.301,9.25-3.95,13.783
	L617.066,93.29z"/>
<path fill="#3D77BB" d="M314.666,121.94v-71.6h14.2l16.934,50.684c1.565,4.717,2.7,8.25,3.417,10.6
	c0.815-2.6,2.1-6.433,3.833-11.482l17.232-49.8h12.685v71.6h-9.101v-59.9l-20.899,59.899h-8.533l-20.667-60.999v60.999H314.666z"/>
<polygon fill="#3D77BB" points="398.365,121.94 398.365,50.341 450.065,50.341 450.065,58.741 407.865,58.741 407.865,80.741 
	447.365,80.741 447.365,89.141 407.865,89.141 407.865,113.541 451.766,113.541 451.766,121.94 "/>
<path fill="#3D77BB" d="M515.865,96.824l9.5,2.4c-1.982,7.782-5.55,13.699-10.7,17.782c-5.149,4.083-11.449,6.134-18.898,6.134
	c-7.7,0-13.967-1.566-18.8-4.718c-4.834-3.133-8.5-7.683-11.018-13.633c-2.517-5.967-3.782-12.35-3.782-19.183
	c0-7.45,1.415-13.95,4.266-19.5s6.899-9.768,12.149-12.65c5.25-2.884,11.033-4.316,17.333-4.316c7.167,0,13.185,1.815,18.051,5.467
	c4.884,3.649,8.283,8.767,10.199,15.366l-9.3,2.199c-1.649-5.199-4.066-9-7.217-11.366c-3.148-2.384-7.116-3.567-11.898-3.567
	c-5.483,0-10.085,1.317-13.768,3.95c-3.684,2.633-6.283,6.183-7.767,10.617c-1.5,4.449-2.25,9.032-2.25,13.75
	c0,6.083,0.883,11.398,2.648,15.933c1.768,4.55,4.518,7.933,8.25,10.183c3.733,2.25,7.768,3.367,12.116,3.367
	c5.301,0,9.769-1.533,13.434-4.583C512.081,107.39,514.565,102.857,515.865,96.824z"/>
<linearGradient id="SVGID_1_" gradientUnits="userSpaceOnUse" x1="177.5295" y1="219.6179" x2="184.3781" y2="23.5037" gradientTransform="matrix(1 0 0 -1 -8.3599 219.1147)">
	<stop  offset="0" style="stop-color:#922125"/>
	<stop  offset="0.52" style="stop-color:#CC2128"/>
	<stop  offset="0.86" style="stop-color:#D25841"/>
	<stop  offset="1" style="stop-color:#D35D43"/>
</linearGradient>
<polygon fill="url(#SVGID_1_)" points="141.756,0 141.756,66.892 75.063,66.892 75.063,122.032 141.23,122.032 141.23,195.06 
	204.772,195.06 204.772,122.032 269.89,122.032 269.89,66.367 203.722,66.367 203.722,0 "/>
<polygon fill="#BABABD" points="315.87,143.723 315.87,131.702 324.696,131.702 324.696,133.112 317.492,133.112 317.492,136.806 
	324.235,136.806 324.235,138.216 317.492,138.216 317.492,142.313 324.986,142.313 324.986,143.723 "/>
<path fill="#BABABD" d="M326.693,139.862l1.521-0.135c0.07,0.604,0.238,1.1,0.503,1.487s0.674,0.7,1.229,0.94
	c0.555,0.238,1.181,0.358,1.875,0.358c0.618,0,1.161-0.091,1.633-0.271c0.473-0.181,0.822-0.431,1.054-0.747
	c0.229-0.315,0.347-0.66,0.347-1.029c0-0.375-0.111-0.702-0.333-0.984c-0.222-0.28-0.589-0.516-1.102-0.708
	c-0.326-0.123-1.053-0.319-2.176-0.585c-1.123-0.267-1.909-0.516-2.358-0.75c-0.583-0.303-1.016-0.678-1.301-1.122
	c-0.287-0.444-0.429-0.945-0.429-1.497c0-0.61,0.176-1.178,0.526-1.704c0.35-0.528,0.858-0.929,1.533-1.203
	c0.671-0.273,1.42-0.411,2.241-0.411c0.905,0,1.704,0.144,2.396,0.432c0.691,0.285,1.223,0.708,1.596,1.268
	c0.372,0.557,0.572,1.189,0.601,1.896l-1.554,0.116c-0.083-0.758-0.363-1.331-0.845-1.718c-0.479-0.389-1.192-0.582-2.131-0.582
	c-0.979,0-1.693,0.177-2.139,0.529c-0.447,0.353-0.673,0.776-0.673,1.274c0,0.432,0.16,0.786,0.477,1.066
	c0.313,0.277,1.124,0.565,2.438,0.856c1.314,0.293,2.217,0.549,2.706,0.767c0.708,0.321,1.234,0.728,1.573,1.223
	c0.338,0.492,0.506,1.062,0.506,1.704c0,0.642-0.185,1.239-0.558,1.806c-0.373,0.564-0.905,1.005-1.602,1.317
	c-0.696,0.313-1.479,0.47-2.353,0.47c-1.104,0-2.028-0.158-2.773-0.476c-0.749-0.316-1.332-0.792-1.756-1.43
	C326.938,141.383,326.716,140.665,326.693,139.862z"/>
<path fill="#BABABD" d="M338.608,143.723v-12.021h4.614c0.811,0,1.431,0.039,1.859,0.115c0.602,0.098,1.104,0.285,1.511,0.56
	c0.406,0.277,0.733,0.663,0.981,1.158s0.37,1.041,0.37,1.637c0,1.02-0.33,1.885-0.993,2.589c-0.66,0.708-1.857,1.062-3.588,1.062
	h-3.135v4.902L338.608,143.723L338.608,143.723z M340.229,137.41h3.158c1.046,0,1.787-0.188,2.228-0.573
	c0.438-0.384,0.657-0.92,0.657-1.617c0-0.501-0.128-0.932-0.387-1.289c-0.259-0.358-0.601-0.597-1.021-0.712
	c-0.272-0.068-0.775-0.105-1.507-0.105h-3.127L340.229,137.41L340.229,137.41z"/>
<polygon fill="#BABABD" points="350.027,143.723 350.027,131.702 358.852,131.702 358.852,133.112 351.648,133.112 351.648,136.806 
	358.391,136.806 358.391,138.216 351.648,138.216 351.648,142.313 359.142,142.313 359.142,143.723 "/>
<path fill="#BABABD" d="M370.082,139.506l1.621,0.402c-0.338,1.307-0.946,2.301-1.825,2.986c-0.88,0.685-1.955,1.028-3.227,1.028
	c-1.313,0-2.384-0.263-3.209-0.792c-0.825-0.525-1.451-1.29-1.88-2.289c-0.43-1.002-0.646-2.072-0.646-3.221
	c0-1.25,0.242-2.342,0.729-3.272c0.487-0.933,1.178-1.641,2.075-2.124c0.896-0.484,1.883-0.726,2.958-0.726
	c1.223,0,2.25,0.305,3.081,0.918c0.833,0.612,1.414,1.473,1.741,2.58l-1.588,0.369c-0.281-0.873-0.693-1.511-1.231-1.908
	c-0.538-0.399-1.214-0.6-2.031-0.6c-0.936,0-1.721,0.222-2.35,0.664c-0.629,0.44-1.073,1.038-1.326,1.781
	c-0.255,0.747-0.384,1.518-0.384,2.31c0,1.021,0.15,1.914,0.451,2.675c0.303,0.764,0.771,1.332,1.409,1.71s1.326,0.564,2.068,0.564
	c0.905,0,1.667-0.257,2.293-0.77S369.861,140.519,370.082,139.506z"/>
<rect x="373.978" y="131.702" fill="#BABABD" width="1.622" height="12.021"/>
<path fill="#BABABD" d="M377.107,143.723l4.688-12.021h1.777l4.977,12.021h-1.842l-1.413-3.645h-5.146l-1.325,3.645H377.107
	L377.107,143.723z M380.623,138.787h4.165l-1.274-3.332c-0.384-1.013-0.674-1.85-0.876-2.51c-0.168,0.783-0.394,1.553-0.674,2.313
	L380.623,138.787z"/>
<polygon fill="#BABABD" points="389.765,143.723 389.765,131.702 391.386,131.702 391.386,142.313 397.395,142.313 397.395,143.723 
	"/>
<rect x="399.599" y="131.702" fill="#BABABD" width="1.622" height="12.021"/>
<path fill="#BABABD" d="M403.539,139.862l1.52-0.135c0.071,0.604,0.239,1.1,0.504,1.487s0.674,0.7,1.229,0.94
	c0.555,0.238,1.181,0.358,1.875,0.358c0.616,0,1.16-0.091,1.633-0.271c0.473-0.182,0.821-0.431,1.053-0.747
	c0.231-0.315,0.347-0.66,0.347-1.029c0-0.375-0.109-0.702-0.332-0.984c-0.222-0.28-0.589-0.516-1.102-0.708
	c-0.327-0.123-1.053-0.319-2.176-0.585c-1.124-0.267-1.909-0.516-2.359-0.75c-0.582-0.303-1.015-0.678-1.3-1.122
	c-0.287-0.444-0.43-0.945-0.43-1.497c0-0.61,0.177-1.178,0.526-1.704c0.351-0.528,0.858-0.929,1.533-1.203
	c0.671-0.273,1.419-0.411,2.241-0.411c0.905,0,1.704,0.144,2.396,0.432c0.691,0.285,1.225,0.708,1.598,1.268
	c0.372,0.557,0.57,1.189,0.6,1.896l-1.553,0.116c-0.083-0.758-0.365-1.331-0.847-1.718c-0.479-0.389-1.19-0.582-2.131-0.582
	c-0.979,0-1.691,0.177-2.14,0.529c-0.446,0.353-0.671,0.776-0.671,1.274c0,0.432,0.159,0.786,0.476,1.066
	c0.313,0.277,1.123,0.565,2.438,0.856c1.313,0.293,2.216,0.549,2.706,0.767c0.708,0.321,1.233,0.728,1.571,1.223
	c0.339,0.492,0.508,1.062,0.508,1.704c0,0.642-0.186,1.239-0.559,1.806c-0.373,0.565-0.904,1.005-1.602,1.317
	c-0.698,0.313-1.479,0.47-2.354,0.47c-1.104,0-2.027-0.158-2.773-0.476c-0.748-0.316-1.331-0.792-1.755-1.43
	C403.783,141.383,403.563,140.665,403.539,139.862z"/>
<polygon fill="#BABABD" points="418.561,143.723 418.561,133.112 414.531,133.112 414.531,131.702 424.211,131.702 424.211,133.112 
	420.183,133.112 420.183,143.723 "/>
<path fill="#BABABD" d="M423.274,143.723l4.688-12.021h1.777l4.977,12.021h-1.841l-1.414-3.645h-5.146l-1.325,3.645H423.274
	L423.274,143.723z M426.79,138.787h4.165l-1.274-3.332c-0.384-1.013-0.674-1.85-0.876-2.51c-0.168,0.783-0.394,1.553-0.674,2.313
	L426.79,138.787z"/>
<path fill="#BABABD" d="M435.471,139.862l1.52-0.135c0.07,0.604,0.238,1.1,0.503,1.487c0.266,0.388,0.676,0.7,1.229,0.94
	c0.555,0.238,1.181,0.358,1.876,0.358c0.616,0,1.16-0.091,1.632-0.271c0.473-0.182,0.823-0.431,1.053-0.747
	c0.23-0.315,0.348-0.66,0.348-1.029c0-0.375-0.11-0.702-0.332-0.984c-0.223-0.28-0.589-0.516-1.103-0.708
	c-0.327-0.123-1.052-0.319-2.176-0.585c-1.124-0.267-1.909-0.516-2.358-0.75c-0.583-0.303-1.016-0.678-1.301-1.122
	c-0.287-0.444-0.429-0.945-0.429-1.497c0-0.61,0.176-1.178,0.526-1.704c0.35-0.528,0.857-0.929,1.532-1.203
	c0.671-0.273,1.419-0.411,2.241-0.411c0.905,0,1.704,0.144,2.396,0.432c0.69,0.285,1.224,0.708,1.597,1.268
	c0.372,0.557,0.571,1.189,0.6,1.896l-1.553,0.116c-0.083-0.758-0.364-1.331-0.845-1.718c-0.481-0.389-1.192-0.582-2.132-0.582
	c-0.979,0-1.692,0.177-2.14,0.529c-0.446,0.353-0.672,0.776-0.672,1.274c0,0.432,0.159,0.786,0.477,1.066
	c0.313,0.277,1.124,0.565,2.438,0.856c1.314,0.293,2.216,0.549,2.706,0.767c0.708,0.321,1.234,0.728,1.573,1.223
	c0.339,0.492,0.506,1.062,0.506,1.704c0,0.642-0.186,1.239-0.559,1.806c-0.372,0.565-0.903,1.005-1.602,1.317
	c-0.698,0.313-1.479,0.47-2.353,0.47c-1.104,0-2.028-0.158-2.773-0.476c-0.748-0.316-1.332-0.792-1.756-1.43
	C435.715,141.383,435.492,140.665,435.471,139.862z"/>
<polygon fill="#BABABD" points="452.161,143.723 452.161,131.702 460.986,131.702 460.986,133.112 453.782,133.112 453.782,136.806 
	460.525,136.806 460.525,138.216 453.782,138.216 453.782,142.313 461.276,142.313 461.276,143.723 "/>
<polygon fill="#BABABD" points="463.494,143.723 463.494,131.702 465.156,131.702 471.569,141.136 471.569,131.702 473.122,131.702 
	473.122,143.723 471.461,143.723 465.049,134.288 465.049,143.723 "/>
<path fill="#BABABD" d="M480.053,139.862l1.52-0.135c0.071,0.604,0.238,1.1,0.504,1.487c0.265,0.388,0.675,0.7,1.229,0.94
	c0.555,0.238,1.181,0.358,1.875,0.358c0.617,0,1.16-0.091,1.633-0.271c0.472-0.182,0.822-0.431,1.053-0.747
	c0.231-0.315,0.348-0.66,0.348-1.029c0-0.375-0.111-0.702-0.333-0.984c-0.223-0.28-0.59-0.516-1.102-0.708
	c-0.327-0.123-1.053-0.319-2.177-0.585c-1.123-0.267-1.909-0.516-2.358-0.75c-0.583-0.303-1.016-0.678-1.3-1.122
	c-0.287-0.444-0.43-0.945-0.43-1.497c0-0.61,0.177-1.178,0.525-1.704c0.351-0.528,0.859-0.929,1.533-1.203
	c0.672-0.273,1.42-0.411,2.242-0.411c0.904,0,1.704,0.144,2.396,0.432c0.689,0.285,1.223,0.708,1.596,1.268
	c0.373,0.557,0.572,1.189,0.6,1.896l-1.553,0.116c-0.082-0.758-0.364-1.331-0.845-1.718c-0.48-0.389-1.192-0.582-2.131-0.582
	c-0.979,0-1.692,0.177-2.141,0.529c-0.446,0.353-0.672,0.776-0.672,1.274c0,0.432,0.16,0.786,0.477,1.066
	c0.313,0.277,1.123,0.565,2.438,0.856c1.314,0.293,2.216,0.549,2.705,0.767c0.709,0.321,1.234,0.728,1.573,1.223
	c0.339,0.492,0.507,1.062,0.507,1.704c0,0.642-0.187,1.239-0.559,1.806c-0.373,0.564-0.904,1.005-1.602,1.317
	c-0.697,0.313-1.479,0.47-2.354,0.47c-1.104,0-2.027-0.158-2.772-0.476c-0.748-0.316-1.331-0.792-1.756-1.43
	C480.298,141.383,480.074,140.665,480.053,139.862z"/>
<path fill="#BABABD" d="M490.627,143.723l4.688-12.021h1.778l4.976,12.021h-1.841l-1.414-3.645h-5.146l-1.325,3.645H490.627
	L490.627,143.723z M494.144,138.787h4.165l-1.274-3.332c-0.384-1.013-0.675-1.85-0.877-2.51c-0.167,0.783-0.392,1.553-0.674,2.313
	L494.144,138.787z"/>
<polygon fill="#BABABD" points="503.283,143.723 503.283,131.702 504.905,131.702 504.905,142.313 510.913,142.313 510.913,143.723 
	"/>
<path fill="#BABABD" d="M520.852,131.702h1.621v6.942c0,1.209-0.139,2.169-0.415,2.88c-0.278,0.708-0.779,1.287-1.502,1.73
	c-0.727,0.445-1.673,0.669-2.852,0.669c-1.141,0-2.075-0.191-2.802-0.582c-0.729-0.389-1.246-0.947-1.557-1.685
	c-0.312-0.735-0.467-1.74-0.467-3.014v-6.942h1.621v6.939c0,1.044,0.101,1.815,0.296,2.309c0.196,0.495,0.531,0.879,1.014,1.145
	c0.478,0.27,1.063,0.403,1.755,0.403c1.184,0,2.028-0.266,2.532-0.795c0.504-0.532,0.754-1.551,0.754-3.062L520.852,131.702
	L520.852,131.702z"/>
<path fill="#BABABD" d="M525.173,143.723v-12.021h4.21c0.949,0,1.676,0.057,2.177,0.171c0.7,0.16,1.297,0.447,1.792,0.862
	c0.646,0.537,1.127,1.22,1.445,2.054c0.321,0.833,0.48,1.788,0.48,2.859c0,0.912-0.107,1.721-0.325,2.426
	c-0.216,0.705-0.493,1.29-0.833,1.752c-0.342,0.462-0.711,0.825-1.114,1.089c-0.401,0.267-0.889,0.467-1.457,0.604
	c-0.571,0.138-1.227,0.205-1.966,0.205L525.173,143.723L525.173,143.723z M526.794,142.313h2.605c0.805,0,1.438-0.073,1.896-0.223
	c0.458-0.148,0.821-0.354,1.096-0.624c0.381-0.378,0.68-0.887,0.893-1.523c0.215-0.639,0.322-1.41,0.322-2.32
	c0-1.259-0.211-2.227-0.629-2.904c-0.418-0.677-0.928-1.13-1.528-1.358c-0.433-0.166-1.129-0.247-2.091-0.247h-2.563
	L526.794,142.313L526.794,142.313z"/>
<path fill="#BABABD" d="M541.746,137.872c0-1.992,0.547-3.554,1.637-4.681c1.09-1.128,2.495-1.69,4.219-1.69
	c1.13,0,2.146,0.267,3.053,0.795c0.904,0.528,1.596,1.269,2.071,2.216c0.475,0.945,0.714,2.021,0.714,3.222
	c0,1.218-0.25,2.309-0.751,3.269c-0.5,0.962-1.209,1.689-2.125,2.184c-0.919,0.495-1.909,0.74-2.97,0.74
	c-1.152,0-2.181-0.273-3.087-0.819c-0.905-0.545-1.595-1.289-2.061-2.235C541.98,139.926,541.746,138.927,541.746,137.872
	L541.746,137.872z M543.42,137.9c0,1.446,0.396,2.586,1.187,3.417c0.791,0.83,1.783,1.247,2.979,1.247
	c1.218,0,2.216-0.419,3.004-1.259c0.786-0.84,1.178-2.031,1.178-3.576c0-0.978-0.168-1.83-0.503-2.559
	c-0.336-0.728-0.828-1.292-1.474-1.691c-0.649-0.4-1.375-0.603-2.181-0.603c-1.144,0-2.128,0.387-2.953,1.158
	C543.832,134.808,543.42,136.094,543.42,137.9z"/>
<path fill="#BABABD" d="M564.225,139.506l1.622,0.402c-0.339,1.307-0.948,2.301-1.827,2.986c-0.879,0.685-1.954,1.028-3.227,1.028
	c-1.313,0-2.384-0.263-3.209-0.792c-0.824-0.525-1.45-1.29-1.881-2.289c-0.43-1.002-0.646-2.072-0.646-3.221
	c0-1.25,0.242-2.342,0.729-3.272c0.487-0.932,1.179-1.641,2.073-2.124c0.896-0.484,1.884-0.726,2.959-0.726
	c1.225,0,2.25,0.305,3.081,0.918c0.834,0.612,1.414,1.473,1.741,2.58l-1.587,0.369c-0.282-0.873-0.694-1.511-1.232-1.908
	c-0.537-0.399-1.215-0.6-2.03-0.6c-0.937,0-1.723,0.222-2.351,0.664c-0.629,0.44-1.072,1.038-1.326,1.781
	c-0.256,0.747-0.384,1.518-0.384,2.31c0,1.021,0.15,1.914,0.452,2.675c0.302,0.764,0.771,1.332,1.408,1.71s1.326,0.564,2.067,0.564
	c0.904,0,1.667-0.257,2.293-0.77C563.578,141.28,564.003,140.519,564.225,139.506z"/>
<path fill="#BABABD" d="M575.852,131.702h1.622v6.942c0,1.209-0.14,2.169-0.415,2.88c-0.279,0.708-0.78,1.287-1.503,1.73
	c-0.727,0.445-1.673,0.669-2.852,0.669c-1.141,0-2.075-0.191-2.802-0.582c-0.729-0.389-1.246-0.947-1.557-1.685
	c-0.311-0.735-0.466-1.74-0.466-3.014v-6.942h1.62v6.939c0,1.044,0.101,1.815,0.297,2.309c0.195,0.495,0.531,0.879,1.013,1.145
	c0.478,0.27,1.063,0.403,1.755,0.403c1.186,0,2.029-0.266,2.532-0.795c0.504-0.532,0.754-1.551,0.754-3.062L575.852,131.702
	L575.852,131.702z"/>
<path fill="#BABABD" d="M580.173,143.723v-12.021h4.613c0.812,0,1.433,0.039,1.861,0.115c0.6,0.098,1.104,0.285,1.51,0.56
	c0.407,0.277,0.734,0.663,0.981,1.158c0.248,0.495,0.37,1.041,0.37,1.637c0,1.02-0.33,1.885-0.993,2.589
	c-0.659,0.708-1.857,1.062-3.587,1.062h-3.135v4.902L580.173,143.723L580.173,143.723z M581.795,137.41h3.156
	c1.048,0,1.787-0.188,2.229-0.573c0.438-0.384,0.657-0.92,0.657-1.617c0-0.501-0.128-0.932-0.388-1.289
	c-0.259-0.358-0.601-0.597-1.021-0.712c-0.272-0.068-0.776-0.105-1.508-0.105h-3.126V137.41z"/>
<path fill="#BABABD" d="M588.951,143.723l4.688-12.021h1.778l4.976,12.021h-1.841l-1.414-3.645h-5.146l-1.324,3.645H588.951
	L588.951,143.723z M592.469,138.787h4.165l-1.274-3.332c-0.385-1.013-0.675-1.85-0.877-2.51c-0.168,0.783-0.393,1.553-0.674,2.313
	L592.469,138.787z"/>
<path fill="#BABABD" d="M610.383,139.506l1.621,0.402c-0.339,1.307-0.947,2.301-1.826,2.986c-0.879,0.685-1.954,1.028-3.228,1.028
	c-1.313,0-2.384-0.263-3.208-0.792c-0.824-0.525-1.451-1.29-1.881-2.289c-0.43-1.002-0.646-2.072-0.646-3.221
	c0-1.25,0.241-2.342,0.728-3.272c0.487-0.933,1.18-1.641,2.074-2.124c0.896-0.484,1.884-0.726,2.959-0.726
	c1.224,0,2.25,0.305,3.081,0.918c0.834,0.612,1.414,1.473,1.741,2.58l-1.588,0.369c-0.281-0.873-0.694-1.511-1.231-1.908
	c-0.538-0.399-1.215-0.6-2.031-0.6c-0.937,0-1.722,0.222-2.351,0.664c-0.628,0.44-1.072,1.038-1.325,1.781
	c-0.256,0.747-0.384,1.518-0.384,2.31c0,1.021,0.149,1.914,0.452,2.675c0.302,0.764,0.771,1.332,1.407,1.71
	c0.638,0.378,1.326,0.564,2.068,0.564c0.904,0,1.667-0.257,2.293-0.77C609.737,141.28,610.16,140.519,610.383,139.506z"/>
<rect x="614.277" y="131.702" fill="#BABABD" width="1.622" height="12.021"/>
<path fill="#BABABD" d="M618.252,137.872c0-1.992,0.546-3.554,1.636-4.681c1.09-1.128,2.495-1.69,4.219-1.69
	c1.13,0,2.146,0.267,3.053,0.795c0.904,0.528,1.597,1.269,2.071,2.216c0.475,0.945,0.714,2.021,0.714,3.222
	c0,1.218-0.251,2.309-0.751,3.269c-0.501,0.962-1.209,1.689-2.125,2.184c-0.919,0.495-1.909,0.74-2.97,0.74
	c-1.152,0-2.18-0.273-3.087-0.819c-0.905-0.545-1.594-1.289-2.062-2.235C618.485,139.926,618.252,138.927,618.252,137.872
	L618.252,137.872z M619.925,137.9c0,1.446,0.396,2.586,1.187,3.417c0.791,0.83,1.783,1.247,2.979,1.247
	c1.218,0,2.216-0.419,3.004-1.259c0.785-0.84,1.178-2.031,1.178-3.576c0-0.978-0.168-1.83-0.504-2.559
	c-0.335-0.728-0.827-1.292-1.474-1.691c-0.648-0.4-1.374-0.603-2.18-0.603c-1.144,0-2.128,0.387-2.953,1.158
	C620.338,134.807,619.925,136.094,619.925,137.9z"/>
<polygon fill="#BABABD" points="632.007,143.723 632.007,131.702 633.668,131.702 640.08,141.136 640.08,131.702 641.634,131.702 
	641.634,143.723 639.973,143.723 633.561,134.288 633.561,143.723 "/>
<path fill="#BABABD" d="M643.011,143.723l4.688-12.021h1.778l4.976,12.021h-1.841l-1.414-3.645h-5.146l-1.326,3.645H643.011
	L643.011,143.723z M646.527,138.787h4.165l-1.273-3.332c-0.386-1.013-0.676-1.85-0.878-2.51c-0.167,0.783-0.393,1.553-0.674,2.313
	L646.527,138.787z"/>
<polygon fill="#BABABD" points="655.668,143.723 655.668,131.702 657.288,131.702 657.288,142.313 663.298,142.313 663.298,143.723 
	"/>
<g>
	<g>
		<g>
			<defs>
				<path id="SVGID_2_" d="M315.87,143.723v-12.021h8.825v1.41h-7.204v3.694h6.743v1.409h-6.743v4.098h7.494v1.41H315.87
					L315.87,143.723z M326.693,139.862l1.521-0.135c0.07,0.604,0.238,1.1,0.503,1.487s0.674,0.7,1.229,0.94
					c0.555,0.238,1.181,0.358,1.875,0.358c0.618,0,1.161-0.091,1.633-0.271c0.473-0.181,0.822-0.431,1.054-0.747
					c0.229-0.315,0.347-0.66,0.347-1.029c0-0.375-0.111-0.702-0.333-0.984c-0.222-0.28-0.589-0.516-1.102-0.708
					c-0.326-0.123-1.053-0.319-2.176-0.585c-1.123-0.267-1.909-0.516-2.358-0.75c-0.583-0.303-1.016-0.678-1.301-1.122
					c-0.287-0.444-0.429-0.945-0.429-1.497c0-0.61,0.176-1.178,0.526-1.704c0.35-0.528,0.858-0.929,1.533-1.203
					c0.671-0.273,1.42-0.411,2.241-0.411c0.905,0,1.704,0.144,2.396,0.432c0.691,0.285,1.223,0.708,1.596,1.268
					c0.372,0.557,0.572,1.189,0.601,1.896l-1.554,0.116c-0.083-0.758-0.363-1.331-0.845-1.718c-0.479-0.389-1.192-0.582-2.131-0.582
					c-0.979,0-1.693,0.177-2.139,0.529c-0.447,0.353-0.673,0.776-0.673,1.274c0,0.432,0.16,0.786,0.477,1.066
					c0.313,0.277,1.124,0.565,2.438,0.856c1.314,0.293,2.217,0.549,2.706,0.767c0.708,0.321,1.234,0.728,1.573,1.223
					c0.338,0.492,0.506,1.062,0.506,1.704c0,0.642-0.185,1.239-0.558,1.806c-0.373,0.564-0.905,1.005-1.602,1.317
					c-0.696,0.313-1.479,0.47-2.353,0.47c-1.104,0-2.028-0.158-2.773-0.476c-0.749-0.316-1.332-0.792-1.756-1.43
					C326.938,141.383,326.716,140.665,326.693,139.862L326.693,139.862z M338.608,143.723v-12.021h4.614
					c0.811,0,1.431,0.039,1.859,0.115c0.602,0.098,1.104,0.285,1.511,0.56c0.406,0.277,0.733,0.663,0.981,1.158
					s0.37,1.041,0.37,1.637c0,1.02-0.33,1.885-0.993,2.589c-0.66,0.708-1.857,1.062-3.588,1.062h-3.135v4.902L338.608,143.723
					L338.608,143.723z M340.229,137.41h3.158c1.046,0,1.787-0.188,2.228-0.573c0.438-0.384,0.657-0.92,0.657-1.617
					c0-0.501-0.128-0.932-0.387-1.289c-0.259-0.358-0.601-0.597-1.021-0.712c-0.272-0.068-0.775-0.105-1.507-0.105h-3.127
					L340.229,137.41L340.229,137.41z M350.027,143.723v-12.021h8.825v1.41h-7.204v3.694h6.743v1.409h-6.743v4.098h7.494v1.41
					H350.027L350.027,143.723z M370.082,139.506l1.621,0.402c-0.338,1.307-0.946,2.301-1.825,2.986
					c-0.88,0.685-1.955,1.028-3.227,1.028c-1.313,0-2.384-0.263-3.209-0.792c-0.825-0.525-1.451-1.29-1.88-2.289
					c-0.43-1.002-0.646-2.072-0.646-3.221c0-1.25,0.242-2.342,0.729-3.272c0.487-0.933,1.178-1.641,2.075-2.124
					c0.896-0.484,1.883-0.726,2.958-0.726c1.223,0,2.25,0.305,3.081,0.918c0.833,0.612,1.414,1.473,1.741,2.58l-1.588,0.369
					c-0.281-0.873-0.693-1.511-1.231-1.908c-0.538-0.399-1.214-0.6-2.031-0.6c-0.936,0-1.721,0.222-2.35,0.664
					c-0.629,0.44-1.073,1.038-1.326,1.781c-0.255,0.747-0.384,1.518-0.384,2.31c0,1.021,0.15,1.914,0.451,2.675
					c0.303,0.764,0.771,1.332,1.409,1.71s1.326,0.564,2.068,0.564c0.905,0,1.667-0.257,2.293-0.77S369.861,140.519,370.082,139.506
					L370.082,139.506z M373.978,143.723v-12.021h1.622v12.021H373.978L373.978,143.723z M377.107,143.723l4.688-12.021h1.777
					l4.977,12.021h-1.842l-1.413-3.645h-5.146l-1.325,3.645H377.107L377.107,143.723z M380.623,138.787h4.165l-1.274-3.332
					c-0.384-1.013-0.674-1.85-0.876-2.51c-0.168,0.783-0.394,1.553-0.674,2.313L380.623,138.787L380.623,138.787z M389.765,143.723
					v-12.021h1.621v10.611h6.009v1.41H389.765L389.765,143.723z M399.599,143.723v-12.021h1.622v12.021H399.599L399.599,143.723z
					 M403.539,139.862l1.52-0.135c0.071,0.604,0.239,1.1,0.504,1.487s0.674,0.7,1.229,0.94c0.555,0.238,1.181,0.358,1.875,0.358
					c0.616,0,1.16-0.091,1.633-0.271c0.473-0.182,0.821-0.431,1.053-0.747c0.231-0.315,0.347-0.66,0.347-1.029
					c0-0.375-0.109-0.702-0.332-0.984c-0.222-0.28-0.589-0.516-1.102-0.708c-0.327-0.123-1.053-0.319-2.176-0.585
					c-1.124-0.267-1.909-0.516-2.359-0.75c-0.582-0.303-1.015-0.678-1.3-1.122c-0.287-0.444-0.43-0.945-0.43-1.497
					c0-0.61,0.177-1.178,0.526-1.704c0.351-0.528,0.858-0.929,1.533-1.203c0.671-0.273,1.419-0.411,2.241-0.411
					c0.905,0,1.704,0.144,2.396,0.432c0.691,0.285,1.225,0.708,1.598,1.268c0.372,0.557,0.57,1.189,0.6,1.896l-1.553,0.116
					c-0.083-0.758-0.365-1.331-0.847-1.718c-0.479-0.389-1.19-0.582-2.131-0.582c-0.979,0-1.691,0.177-2.14,0.529
					c-0.446,0.353-0.671,0.776-0.671,1.274c0,0.432,0.159,0.786,0.476,1.066c0.313,0.277,1.123,0.565,2.438,0.856
					c1.313,0.293,2.216,0.549,2.706,0.767c0.708,0.321,1.233,0.728,1.571,1.223c0.339,0.492,0.508,1.062,0.508,1.704
					c0,0.642-0.186,1.239-0.559,1.806c-0.373,0.565-0.904,1.005-1.602,1.317c-0.698,0.313-1.479,0.47-2.354,0.47
					c-1.104,0-2.027-0.158-2.773-0.476c-0.748-0.316-1.331-0.792-1.755-1.43C403.783,141.383,403.563,140.665,403.539,139.862
					L403.539,139.862z M418.561,143.723v-10.611h-4.028v-1.41h9.68v1.41h-4.028v10.611H418.561L418.561,143.723z M423.274,143.723
					h1.716l1.325-3.645h5.146l1.414,3.645h1.841l-4.977-12.021h-1.777L423.274,143.723L423.274,143.723z M426.79,138.787
					l1.341-3.528c0.28-0.761,0.506-1.529,0.674-2.313c0.202,0.66,0.492,1.497,0.876,2.51l1.274,3.332L426.79,138.787L426.79,138.787
					z M435.471,139.862l1.52-0.135c0.07,0.604,0.238,1.1,0.503,1.487c0.266,0.388,0.676,0.7,1.229,0.94
					c0.555,0.238,1.181,0.358,1.876,0.358c0.616,0,1.16-0.091,1.632-0.271c0.473-0.182,0.823-0.431,1.053-0.747
					c0.23-0.315,0.348-0.66,0.348-1.029c0-0.375-0.11-0.702-0.332-0.984c-0.223-0.28-0.589-0.516-1.103-0.708
					c-0.327-0.123-1.052-0.319-2.176-0.585c-1.124-0.267-1.909-0.516-2.358-0.75c-0.583-0.303-1.016-0.678-1.301-1.122
					c-0.287-0.444-0.429-0.945-0.429-1.497c0-0.61,0.176-1.178,0.526-1.704c0.35-0.528,0.857-0.929,1.532-1.203
					c0.671-0.273,1.419-0.411,2.241-0.411c0.905,0,1.704,0.144,2.396,0.432c0.69,0.285,1.224,0.708,1.597,1.268
					c0.372,0.557,0.571,1.189,0.6,1.896l-1.553,0.116c-0.083-0.758-0.364-1.331-0.845-1.718c-0.481-0.389-1.192-0.582-2.132-0.582
					c-0.979,0-1.692,0.177-2.14,0.529c-0.446,0.353-0.672,0.776-0.672,1.274c0,0.432,0.159,0.786,0.477,1.066
					c0.313,0.277,1.124,0.565,2.438,0.856c1.314,0.293,2.216,0.549,2.706,0.767c0.708,0.321,1.234,0.728,1.573,1.223
					c0.339,0.492,0.506,1.062,0.506,1.704c0,0.642-0.186,1.239-0.559,1.806c-0.372,0.565-0.903,1.005-1.602,1.317
					c-0.698,0.313-1.479,0.47-2.353,0.47c-1.104,0-2.028-0.158-2.773-0.476c-0.748-0.316-1.332-0.792-1.756-1.43
					C435.715,141.383,435.492,140.665,435.471,139.862L435.471,139.862z M452.161,143.723v-12.021h8.824v1.41h-7.203v3.694h6.742
					v1.409h-6.742v4.098h7.493v1.41H452.161L452.161,143.723z M463.494,143.723v-12.021h1.662l6.412,9.437v-9.437h1.554v12.021
					h-1.661l-6.412-9.437v9.437H463.494L463.494,143.723z M480.053,139.862l1.52-0.135c0.071,0.604,0.238,1.1,0.504,1.487
					c0.265,0.388,0.675,0.7,1.229,0.94c0.555,0.238,1.181,0.358,1.875,0.358c0.617,0,1.16-0.091,1.633-0.271
					c0.472-0.182,0.822-0.431,1.053-0.747c0.231-0.315,0.348-0.66,0.348-1.029c0-0.375-0.111-0.702-0.333-0.984
					c-0.223-0.28-0.59-0.516-1.102-0.708c-0.327-0.123-1.053-0.319-2.177-0.585c-1.123-0.267-1.909-0.516-2.358-0.75
					c-0.583-0.303-1.016-0.678-1.3-1.122c-0.287-0.444-0.43-0.945-0.43-1.497c0-0.61,0.177-1.178,0.525-1.704
					c0.351-0.528,0.859-0.929,1.533-1.203c0.672-0.273,1.42-0.411,2.242-0.411c0.904,0,1.704,0.144,2.396,0.432
					c0.689,0.285,1.223,0.708,1.596,1.268c0.373,0.557,0.572,1.189,0.6,1.896l-1.553,0.116c-0.082-0.758-0.364-1.331-0.845-1.718
					c-0.48-0.389-1.192-0.582-2.131-0.582c-0.979,0-1.692,0.177-2.141,0.529c-0.446,0.353-0.672,0.776-0.672,1.274
					c0,0.432,0.16,0.786,0.477,1.066c0.313,0.277,1.123,0.565,2.438,0.856c1.314,0.293,2.216,0.549,2.705,0.767
					c0.709,0.321,1.234,0.728,1.573,1.223c0.339,0.492,0.507,1.062,0.507,1.704c0,0.642-0.187,1.239-0.559,1.806
					c-0.373,0.564-0.904,1.005-1.602,1.317c-0.697,0.313-1.479,0.47-2.354,0.47c-1.104,0-2.027-0.158-2.772-0.476
					c-0.748-0.316-1.331-0.792-1.756-1.43C480.298,141.383,480.074,140.665,480.053,139.862L480.053,139.862z M490.627,143.723
					l4.688-12.021h1.778l4.976,12.021h-1.841l-1.414-3.645h-5.146l-1.325,3.645H490.627L490.627,143.723z M494.144,138.787h4.165
					l-1.274-3.332c-0.384-1.013-0.675-1.85-0.877-2.51c-0.167,0.783-0.392,1.553-0.674,2.313L494.144,138.787L494.144,138.787z
					 M503.283,143.723v-12.021h1.621v10.611h6.009v1.41H503.283L503.283,143.723z M520.852,131.702h1.621v6.942
					c0,1.209-0.139,2.169-0.415,2.88c-0.278,0.708-0.779,1.287-1.502,1.73c-0.727,0.445-1.673,0.669-2.852,0.669
					c-1.141,0-2.075-0.191-2.802-0.582c-0.729-0.389-1.246-0.947-1.557-1.685c-0.312-0.735-0.467-1.74-0.467-3.014v-6.942h1.621
					v6.939c0,1.044,0.101,1.815,0.296,2.309c0.196,0.495,0.531,0.879,1.014,1.145c0.478,0.27,1.063,0.403,1.755,0.403
					c1.184,0,2.028-0.266,2.532-0.795c0.504-0.532,0.754-1.551,0.754-3.062L520.852,131.702L520.852,131.702z M525.173,143.723
					v-12.021h4.21c0.949,0,1.676,0.057,2.177,0.171c0.7,0.16,1.297,0.447,1.792,0.862c0.646,0.537,1.127,1.22,1.445,2.054
					c0.321,0.833,0.48,1.788,0.48,2.859c0,0.912-0.107,1.721-0.325,2.426c-0.216,0.705-0.493,1.29-0.833,1.752
					c-0.342,0.462-0.711,0.825-1.114,1.089c-0.401,0.267-0.889,0.467-1.457,0.604c-0.571,0.138-1.227,0.205-1.966,0.205
					L525.173,143.723L525.173,143.723z M526.794,142.313h2.605c0.805,0,1.438-0.073,1.896-0.223
					c0.458-0.148,0.821-0.354,1.096-0.624c0.381-0.378,0.68-0.887,0.893-1.523c0.215-0.639,0.322-1.41,0.322-2.32
					c0-1.259-0.211-2.227-0.629-2.904c-0.418-0.677-0.928-1.13-1.528-1.358c-0.433-0.166-1.129-0.247-2.091-0.247h-2.563
					L526.794,142.313L526.794,142.313z M541.746,137.872c0-1.992,0.547-3.554,1.637-4.681c1.09-1.128,2.495-1.69,4.219-1.69
					c1.13,0,2.146,0.267,3.053,0.795c0.904,0.528,1.596,1.269,2.071,2.216c0.475,0.945,0.714,2.021,0.714,3.222
					c0,1.218-0.25,2.309-0.751,3.269c-0.5,0.962-1.209,1.689-2.125,2.184c-0.919,0.495-1.909,0.74-2.97,0.74
					c-1.152,0-2.181-0.273-3.087-0.819c-0.905-0.545-1.595-1.289-2.061-2.235C541.98,139.926,541.746,138.927,541.746,137.872
					L541.746,137.872z M543.42,137.9c0,1.446,0.396,2.586,1.187,3.417c0.791,0.83,1.783,1.247,2.979,1.247
					c1.218,0,2.216-0.419,3.004-1.259c0.786-0.84,1.178-2.031,1.178-3.576c0-0.978-0.168-1.83-0.503-2.559
					c-0.336-0.728-0.828-1.292-1.474-1.691c-0.649-0.4-1.375-0.603-2.181-0.603c-1.144,0-2.128,0.387-2.953,1.158
					C543.832,134.808,543.42,136.094,543.42,137.9L543.42,137.9z M564.225,139.506l1.622,0.402
					c-0.339,1.307-0.948,2.301-1.827,2.986c-0.879,0.685-1.954,1.028-3.227,1.028c-1.313,0-2.384-0.263-3.209-0.792
					c-0.824-0.525-1.45-1.29-1.881-2.289c-0.43-1.002-0.646-2.072-0.646-3.221c0-1.25,0.242-2.342,0.729-3.272
					c0.487-0.932,1.179-1.641,2.073-2.124c0.896-0.484,1.884-0.726,2.959-0.726c1.225,0,2.25,0.305,3.081,0.918
					c0.834,0.612,1.414,1.473,1.741,2.58l-1.587,0.369c-0.282-0.873-0.694-1.511-1.232-1.908c-0.537-0.399-1.215-0.6-2.03-0.6
					c-0.937,0-1.723,0.222-2.351,0.664c-0.629,0.44-1.072,1.038-1.326,1.781c-0.256,0.747-0.384,1.518-0.384,2.31
					c0,1.021,0.15,1.914,0.452,2.675c0.302,0.764,0.771,1.332,1.408,1.71s1.326,0.564,2.067,0.564c0.904,0,1.667-0.257,2.293-0.77
					C563.578,141.28,564.003,140.519,564.225,139.506L564.225,139.506z M575.852,131.702h1.622v6.942c0,1.209-0.14,2.169-0.415,2.88
					c-0.279,0.708-0.78,1.287-1.503,1.73c-0.727,0.445-1.673,0.669-2.852,0.669c-1.141,0-2.075-0.191-2.802-0.582
					c-0.729-0.389-1.246-0.947-1.557-1.685c-0.311-0.735-0.466-1.74-0.466-3.014v-6.942h1.62v6.939c0,1.044,0.101,1.815,0.297,2.309
					c0.195,0.495,0.531,0.879,1.013,1.145c0.478,0.27,1.063,0.403,1.755,0.403c1.186,0,2.029-0.266,2.532-0.795
					c0.504-0.532,0.754-1.551,0.754-3.062L575.852,131.702L575.852,131.702z M580.173,143.723v-12.021h4.613
					c0.812,0,1.433,0.039,1.861,0.115c0.6,0.098,1.104,0.285,1.51,0.56c0.407,0.277,0.734,0.663,0.981,1.158
					c0.248,0.495,0.37,1.041,0.37,1.637c0,1.02-0.33,1.885-0.993,2.589c-0.659,0.708-1.857,1.062-3.587,1.062h-3.135v4.902
					L580.173,143.723L580.173,143.723z M581.795,137.41h3.156c1.048,0,1.787-0.188,2.229-0.573c0.438-0.384,0.657-0.92,0.657-1.617
					c0-0.501-0.128-0.932-0.388-1.289c-0.259-0.358-0.601-0.597-1.021-0.712c-0.272-0.068-0.776-0.105-1.508-0.105h-3.126V137.41
					L581.795,137.41z M588.951,143.723h1.717l1.324-3.645h5.146l1.414,3.645h1.841l-4.976-12.021h-1.778L588.951,143.723
					L588.951,143.723z M592.469,138.787l1.34-3.528c0.281-0.761,0.506-1.529,0.674-2.313c0.202,0.66,0.492,1.497,0.877,2.51
					l1.274,3.332L592.469,138.787L592.469,138.787z M610.383,139.506l1.621,0.402c-0.339,1.307-0.947,2.301-1.826,2.986
					c-0.879,0.685-1.954,1.028-3.228,1.028c-1.313,0-2.384-0.263-3.208-0.792c-0.824-0.525-1.451-1.29-1.881-2.289
					c-0.43-1.002-0.646-2.072-0.646-3.221c0-1.25,0.241-2.342,0.728-3.272c0.487-0.933,1.18-1.641,2.074-2.124
					c0.896-0.484,1.884-0.726,2.959-0.726c1.224,0,2.25,0.305,3.081,0.918c0.834,0.612,1.414,1.473,1.741,2.58l-1.588,0.369
					c-0.281-0.873-0.694-1.511-1.231-1.908c-0.538-0.399-1.215-0.6-2.031-0.6c-0.937,0-1.722,0.222-2.351,0.664
					c-0.628,0.44-1.072,1.038-1.325,1.781c-0.256,0.747-0.384,1.518-0.384,2.31c0,1.021,0.149,1.914,0.452,2.675
					c0.302,0.764,0.771,1.332,1.407,1.71c0.638,0.378,1.326,0.564,2.068,0.564c0.904,0,1.667-0.257,2.293-0.77
					C609.737,141.28,610.16,140.519,610.383,139.506L610.383,139.506z M614.277,143.723v-12.021h1.622v12.021H614.277
					L614.277,143.723z M618.252,137.872c0-1.992,0.546-3.554,1.636-4.681c1.09-1.128,2.495-1.69,4.219-1.69
					c1.13,0,2.146,0.267,3.053,0.795c0.904,0.528,1.597,1.269,2.071,2.216c0.475,0.945,0.714,2.021,0.714,3.222
					c0,1.218-0.251,2.309-0.751,3.269c-0.501,0.962-1.209,1.689-2.125,2.184c-0.919,0.495-1.909,0.74-2.97,0.74
					c-1.152,0-2.18-0.273-3.087-0.819c-0.905-0.545-1.594-1.289-2.062-2.235C618.485,139.926,618.252,138.927,618.252,137.872
					L618.252,137.872z M619.925,137.9c0,1.446,0.396,2.586,1.187,3.417c0.791,0.83,1.783,1.247,2.979,1.247
					c1.218,0,2.216-0.419,3.004-1.259c0.785-0.84,1.178-2.031,1.178-3.576c0-0.978-0.168-1.83-0.504-2.559
					c-0.335-0.728-0.827-1.292-1.474-1.691c-0.648-0.4-1.374-0.603-2.18-0.603c-1.144,0-2.128,0.387-2.953,1.158
					C620.338,134.807,619.925,136.094,619.925,137.9L619.925,137.9z M632.007,143.723v-12.021h1.661l6.412,9.437v-9.437h1.554
					v12.021h-1.661l-6.412-9.437v9.437H632.007L632.007,143.723z M643.011,143.723l4.688-12.021h1.778l4.976,12.021h-1.841
					l-1.414-3.645h-5.146l-1.326,3.645H643.011L643.011,143.723z M646.527,138.787h4.165l-1.273-3.332
					c-0.386-1.013-0.676-1.85-0.878-2.51c-0.167,0.783-0.393,1.553-0.674,2.313L646.527,138.787L646.527,138.787z M655.668,143.723
					v-12.021h1.62v10.611h6.01v1.41H655.668z"/>
			</defs>
			<clipPath id="SVGID_3_">
				<use xlink:href="#SVGID_2_"  overflow="visible"/>
			</clipPath>
			<g transform="matrix(1 0 0 1 0 0)" clip-path="url(#SVGID_3_)">
				
					<image overflow="visible" enable-background="new    " width="1450" height="54" xlink:href="7E78FC62.jpeg"  transform="matrix(0.2396 0 0 0.2301 315.8713 131.4998)">
				</image>
			</g>
		</g>
	</g>
</g>
<g>
	<path fill="#F2CA30" d="M333.091,51.884c0,0-1.701,0.557-2.813,1.351c-1.11,0.794-9.165,15.026-9.165,15.026
		s-1.327,3.262-2.177,4.447c-1.972,2.753-7.895,5.512-7.895,5.512l-0.235,0.129c-1.134,0.354-4.86,1.426-8.03,1.287
		c-0.604-0.025-1.729-1.069-1.729-1.838c0-0.77,2.442-6.232,2.442-6.232s-3.688-8.24-3.98-11.587
		c-0.229-2.601-0.77-8.814,3.542-14.389c4.311-5.573,9.317-7.843,13.629-8.338c4.31-0.495,7.485,1.063,10.147,3.204
		c2.663,2.143,5.409,5.299,5.409,5.299c0.406,0.03,0.735,0.159,0.989,0.385l1.867,1.923c0.387-0.201,0.717-0.184,0.989,0.055
		c0,0,0.721,0.865,0.536,2.021c-0.124,0.776-0.746,1.241-1.35,1.516c-0.604,0.275-2.14,0.259-2.14,0.259l0.003,0.005L333.091,51.884
		z"/>
	<path d="M330.272,53.239c-0.152,0.113-0.43,0.468-0.795,0.997c-0.734,0.616-1.372,1.386-1.85,2.184l-7.766,12.878
		c-0.086,0.226-0.896,2.225-3.043,4.007c-2.253,1.87-7.117,4.301-9.846,5.066c-2.361,0.663-4.501,0.698-5.536,0.339
		c-0.095-0.124-0.178-0.251-0.243-0.38l0.104-0.157c0.623,0.415,2.854,0.541,5.559-0.218c2.676-0.752,7.483-3.156,9.687-4.982
		c1.107-0.92,2.419-2.47,2.929-3.863l7.785-12.912c0.642-1.069,1.813-2.42,2.983-3.021L330.272,53.239L330.272,53.239z
		 M303.327,71.936c0.386,0.614,1.133,1.11,2.063,0.802c3.914-1.289,8.145-3.283,12.694-5.986c0.657-0.391,1.32-0.798,1.992-1.219
		c0.891-0.515,1.682-1.591,2.1-2.528c0.226-0.365,5.336-8.612,6.805-9.727c1.523-1.156,4.418-1.847,6.271-2.466
		c0.535-0.179,0.68-0.753,0.714-1.164c0.038-0.436-0.035-0.86-0.035-0.86c-0.138-0.316-0.36-0.584-0.607-0.821
		c-0.074,0.022-0.15,0.056-0.229,0.097l-0.025-0.026l-0.138,0.152c0.298,0.271,0.487,0.512,0.584,0.724
		c0.061,0.405,0.093,1.328-0.399,1.492c-1.929,0.644-4.797,1.318-6.395,2.531c-0.809,0.612-2.549,3.104-4.062,5.39
		c-1.524,2.307-2.865,4.479-2.912,4.582c-0.042-0.235-0.13-0.458-0.269-0.643c-0.156-0.208-0.369-0.618-0.62-0.989
		c-0.353-0.522-1.117-1.297-1.751-0.647l-0.116,0.132l-0.115,0.145c-0.75,0.912-2.423,1.571-3.438,2.228
		c-0.469,0.304-0.355,0.904-0.177,1.323c0.042,0.1,0.086,0.178,0.086,0.178l1.567,1.89c0.097,0.098,0.205,0.175,0.321,0.229l0,0
		c-4.291,2.502-8.286,4.362-11.981,5.58c-0.809,0.27-1.464-0.273-1.706-0.901l-0.104,0.039l0.044,0.101L303.327,71.936
		L303.327,71.936z M314.354,37.685c-4.216,1.941-10.755,7.808-9.264,19.98c0.68,4.376,3.548,6.036,6.44,5.896
		c2.614-0.126,5.479-1.58,7.6-4.472c0.446-0.485,0.878-1.095,1.316-1.752c1.147-1.715,2.641-4.564,4.135-5.759
		c1.947-1.554,5.006-3.041,7.325-4.072c0.917-0.238,1.083-0.952,0.648-1.706c-0.101-0.022-0.205-0.038-0.316-0.047l-0.112-0.128
		l-0.139,0.111c0.399,0.493,0.606,1.016-0.03,1.296c-0.095,0.042-0.188,0.064-0.188,0.064c-2.348,1.035-5.483,2.569-7.456,4.145
		c-0.979,0.782-1.929,2.232-2.847,3.693c-0.836,1.332-1.648,2.785-2.733,3.936c-0.93,1.107-4.157,3.21-6.795,3.379
		c-1.871,0.12-5.687-1.047-5.943-4.769c-0.713-10.748,6.627-15.868,9.52-17.569c3.564-2.097,8.708-1.025,10.441,0.004l0.053-0.088
		c-0.479-0.347-0.977-0.672-1.493-0.968c-2.431-0.731-6.305-1.034-9.22,0.681c-2.935,1.726-10.461,6.971-9.731,17.971
		c0.284,4.086,4.446,5.294,6.401,5.169c1.646-0.105,3.482-0.909,4.913-1.791c-1.694,1.429-3.603,2.157-5.367,2.241
		c-2.675,0.131-5.349-1.367-5.994-5.523c-1.691-13.813,7.124-19.275,10.695-20.134l0,0l-0.037-0.155
		C315.577,37.405,314.97,37.526,314.354,37.685L314.354,37.685z M321.245,63.731L321.245,63.731
		c0.002-0.005,0.283-0.687-0.109-1.209c-0.232-0.311-1.138-2.19-1.719-1.595l-0.208,0.248c-0.834,1.014-2.436,1.604-3.536,2.315
		c-0.29,0.188-0.035,0.764,0.032,0.897l1.468,1.771c0,0,0.262,0.37,0.708,0.208c0.65-0.387,1.309-0.788,1.973-1.204
		c0.524-0.304,1.028-0.846,1.418-1.422L321.245,63.731z"/>
	<path d="M327.722,49.289c0.227-0.097,0.875,0.421,0.485,0.68c-0.389,0.26-2.83,1.8-3.057,2.092s-0.532,0.498-0.862,0.498
		c-0.332,0-0.738-0.079-0.415-0.598C324.198,51.442,327.722,49.289,327.722,49.289z"/>
</g>
<g>
	<path fill="#FFFFFF" stroke="#FFFFFF" stroke-width="0.5669" stroke-miterlimit="22.9256" d="M6.967,99.618
		c9.321,8.808,40.161,41.588,55.309,21.029c5.625-9.64,10.591-11.439,14.209-9.028C83.05,117.002,95.178,84.612,108,69.047
		c6.51-10.314,18.764-2.697,28.567,13.867c2.92-6.057,8.247-9.47,16.135-11.956c21.798-37.356,30.254-53.746,44.048-37.151
		c9.173,9.864,18.199,22.62,29.667,37.281c16.655,5.11,19.472,25.243,35.029,26.815c8.506,2.912,12.625,8.016,18.104,12.282
		l-39,41.832l-37.159,8.077c-22.581-15.129-52.26-7.326-82.684,2.88c-15.634,0.545-61.576-14.289-73.52-21.851
		C34.757,129.451,18.875,117.954,6.967,99.618z"/>
	<path opacity="0.5" fill="#B2C3DD" enable-background="new    " d="M49.553,131.583l14.104-9.903l18.018-8.625l11.281-17.262
		L107.169,75.7l5.757-9.269l5.068-0.534l13.142,9.961l6.107,8.646l6.097-5.122l9.208-6.596l1.148,2.242
		c-10.729,8.745-14.291,2.686-11.566,25.803l-0.748,22.411l-4.54-36.527l-11.081-13.925l-8.717-4.855
		c-5.7,28.556-10.063,20.316-11.264,45.122c-5.847-1.766-17.037,0.972-20.542,4.457c-1.778,2.272-1.843,6.253-5.929,5.487
		C72.825,118.675,64.128,135.347,49.553,131.583z"/>
	<path opacity="0.5" fill="#B2C3DD" enable-background="new    " d="M180.229,92.348c-5.648-7.452-13.986-13.914-28.648-18.047
		l10.821-16.938l4.891-10.402l13.603-16.715l8.98-1.956C180.732,60.066,175.871,73.325,180.229,92.348z"/>
	<polygon opacity="0.5" fill="#B2C3DD" enable-background="new    " points="213.506,63.25 216.173,98.814 217.951,62.45 	"/>
	<path opacity="0.5" fill="#B2C3DD" enable-background="new    " d="M226.988,72.519l4.534,0.8
		c1.28,15.983-0.107,20.937-1.567,31.452C228.823,92.801,230.048,87.495,226.988,72.519z"/>
	<path opacity="0.5" fill="#B2C3DD" enable-background="new    " d="M242.79,83.99c-0.686,7.562-1.479,6.194-0.444,15.381
		c1.035,9.188,2.397,7.061,3.079,21.137c1.808-15.885-1.52-18.543,0.289-33.628L242.79,83.99z"/>
	<path opacity="0.5" fill="#B2C3DD" enable-background="new    " d="M259.35,97.566c1.257,10.107,4.033,33.813,3.935,23.652
		c-0.1-10.16-1.603-11.942-0.582-21.365L259.35,97.566z"/>
	<path fill="#3D77BB" d="M7.247,98.827c9.32,8.809,39.764,41.611,54.911,21.05c5.625-9.638,10.59-11.438,14.209-9.027
		c6.563,5.385,18.692-27.007,31.514-42.571c6.51-10.315,18.764-2.698,28.568,13.868c2.92-6.058,8.246-9.471,16.134-11.956
		c21.798-37.357,30.254-53.746,44.048-37.152c9.173,9.865,18.199,22.621,29.667,37.283c16.656,5.109,19.472,25.243,35.03,26.814
		c8.504,2.912,12.625,8.016,18.104,12.281c-1.281,2.396-3.355,4.16-5.159,3.661c-2.906-4.699-6.207-7.942-14.048-11.321
		c-17.334-3.439-18.309-20.757-33.62-26.393c-15.531-12.052-21.444-28.155-30.503-38.021c-13.621-16.594-20.883,0.328-42.407,37.687
		c-7.789,2.485-13.476,6.746-16.358,12.803c-12.199-13.115-19.89-26.674-26.317-16.358c-12.112,16.896-17.467,28.005-25.379,41.5
		c-6.263,10.682-8.031-1.305-17.431,9.886C48.547,148.439,18.606,115.086,7.247,98.827z"/>
	<path fill="#3D77BB" stroke="#3D77BB" stroke-width="0.5669" stroke-miterlimit="22.9256" d="M124.094,159.059
		c34.635-16.672,62.026-22.57,81.453-5.46l-2.542,4.039C185.36,143.601,156.201,149.107,124.094,159.059z"/>
</g>
<g>
	<path stroke="#000000" stroke-width="1.4173" stroke-miterlimit="22.9256" d="M279.253,133.385
		c-14.383,8.451-19.664,11.613-36.103,13.071c-20.359,2.669-31.571-2.789-38.924-11.042c-8.865-8.354-12.323-22.627-12.338-31.485
		c3.336-0.687,6.776-3.449,10.104-7.813c1.916-2.159,3.448-4.354,4.69-7.118c0,0-0.504-0.642-1.266-0.937
		c-0.596-0.238-1.489-0.166-1.489-0.166c-0.188,0.758-7.097,13.357-13.788,13.172c-6.919-0.193-14.353-11.386-14.518-11.92
		c0,0-0.661-0.104-1.288,0.472c-0.682,0.474-1.159,1.125-1.159,1.125s2.012,2.885,4.607,5.96c3.142,4.016,7.368,6.667,10.677,7.264
		c1.845,16.859,4.838,26.42,14.638,35.69c9.019,7.128,16.243,12.646,39.29,10.428c17.476-2.461,24.641-4.962,40.47-14.292
		L279.253,133.385z"/>
	<g>
		<path fill="#000202" stroke="#000202" stroke-width="1.4173" stroke-miterlimit="22.9256" d="M282.284,122.603
			c4.598-1.923,10.089-0.188,12.265,3.874s0.212,8.915-4.385,10.838c-4.598,1.923-10.089,0.188-12.266-3.875
			C275.723,129.377,277.686,124.525,282.284,122.603z"/>
		<path fill="none" stroke="#000202" stroke-width="1.4173" stroke-miterlimit="22.9256" d="M282.284,122.603
			c4.598-1.923,10.089-0.188,12.265,3.874s0.212,8.915-4.385,10.838c-4.598,1.923-10.089,0.188-12.266-3.875
			C275.723,129.377,277.686,124.525,282.284,122.603z"/>
		<path fill="#FFFFFF" stroke="#000202" stroke-width="1.4173" stroke-miterlimit="22.9256" d="M282.904,123.063
			c4.229-1.77,9.282-0.173,11.283,3.564s0.196,8.201-4.035,9.972c-4.229,1.769-9.28,0.173-11.282-3.565
			C276.868,129.296,278.674,124.833,282.904,123.063z"/>
		<path fill="none" stroke="#000202" stroke-width="1.4173" stroke-miterlimit="22.9256" d="M282.904,123.063
			c4.229-1.77,9.282-0.173,11.283,3.564s0.196,8.201-4.035,9.972c-4.229,1.769-9.28,0.173-11.282-3.565
			C276.868,129.296,278.674,124.833,282.904,123.063z"/>
		<path fill="none" stroke="#000202" stroke-width="1.4173" stroke-miterlimit="22.9256" d="M282.969,122.78
			c4.042-1.69,8.871-0.165,10.784,3.407c1.913,3.571,0.187,7.839-3.856,9.528c-4.043,1.69-8.871,0.165-10.784-3.406
			C277.2,128.737,278.927,124.471,282.969,122.78z"/>
		<path fill="#FFFFFF" stroke="#000202" stroke-width="1.4173" stroke-miterlimit="22.9256" d="M284.735,124.101
			c3.058-1.278,6.707-0.125,8.153,2.574c1.447,2.702,0.142,5.928-2.915,7.206c-3.056,1.277-6.707,0.124-8.153-2.575
			C280.374,128.605,281.678,125.379,284.735,124.101z"/>
		<path fill="none" stroke="#000202" stroke-width="1.4173" stroke-miterlimit="22.9256" d="M284.735,124.101
			c3.058-1.278,6.707-0.125,8.153,2.574c1.447,2.702,0.142,5.928-2.915,7.206c-3.056,1.277-6.707,0.124-8.153-2.575
			C280.374,128.605,281.678,125.379,284.735,124.101z"/>
		<path fill="none" stroke="#000202" stroke-width="1.4173" stroke-miterlimit="22.9256" d="M284.834,124.308
			c2.825-1.182,6.198-0.115,7.535,2.381c1.336,2.496,0.13,5.477-2.694,6.658c-2.824,1.181-6.198,0.114-7.534-2.382
			C280.804,128.469,282.01,125.49,284.834,124.308z"/>
		<g>
			<g>
				<path fill="none" stroke="#000202" stroke-width="1.4173" stroke-miterlimit="22.9256" d="M289.45,132.904
					c2.444-1.022,3.488-3.604,2.332-5.764c-1.157-2.161-4.078-3.084-6.523-2.062s-3.49,3.604-2.333,5.764
					S287.004,133.926,289.45,132.904"/>
			</g>
			<g>
				<path fill="#E6E6E8" d="M285.081,124.745L285.081,124.745c-2.652,1.109-3.786,3.912-2.531,6.256
					c1.255,2.345,4.426,3.347,7.079,2.236s3.786-3.912,2.531-6.255C290.904,124.638,287.733,123.635,285.081,124.745
					L285.081,124.745L285.081,124.745z M284.858,124.287c2.932-1.226,6.437-0.118,7.823,2.472c1.387,2.592,0.134,5.688-2.797,6.914
					c-2.932,1.227-6.438,0.118-7.824-2.473C280.673,128.61,281.926,125.512,284.858,124.287z"/>
				<path fill="none" stroke="#000202" stroke-width="1.4173" stroke-miterlimit="22.9256" d="M285.081,124.745L285.081,124.745
					c-2.652,1.109-3.786,3.912-2.531,6.256c1.255,2.345,4.426,3.347,7.079,2.236s3.786-3.912,2.531-6.255
					C290.904,124.638,287.733,123.635,285.081,124.745 M284.858,124.287c2.932-1.226,6.437-0.118,7.823,2.472
					c1.387,2.592,0.134,5.688-2.797,6.914c-2.932,1.227-6.438,0.118-7.824-2.473C280.673,128.61,281.926,125.512,284.858,124.287z"
					/>
			</g>
			<g>
				<path fill="none" stroke="#000202" stroke-width="1.4173" stroke-miterlimit="22.9256" d="M289.45,132.904
					c2.444-1.022,3.488-3.604,2.332-5.764c-1.157-2.161-4.078-3.084-6.523-2.062s-3.49,3.604-2.333,5.764
					S287.004,133.926,289.45,132.904"/>
			</g>
			<g>
				<path fill="#D8DBDB" d="M285.321,125.192L285.321,125.192c-2.374,0.993-3.388,3.5-2.265,5.597
					c1.124,2.099,3.96,2.994,6.334,2.001c2.373-0.992,3.388-3.499,2.265-5.597C290.531,125.096,287.693,124.2,285.321,125.192
					L285.321,125.192L285.321,125.192z M285.097,124.734c2.652-1.109,5.823-0.107,7.078,2.235c1.255,2.345,0.122,5.146-2.53,6.256
					c-2.652,1.108-5.824,0.106-7.079-2.236S282.444,125.843,285.097,124.734z"/>
				<path fill="none" stroke="#000202" stroke-width="1.4173" stroke-miterlimit="22.9256" d="M285.321,125.192L285.321,125.192
					c-2.374,0.993-3.388,3.5-2.265,5.597c1.124,2.099,3.96,2.994,6.334,2.001c2.373-0.992,3.388-3.499,2.265-5.597
					C290.531,125.096,287.693,124.2,285.321,125.192 M285.097,124.734c2.652-1.109,5.823-0.107,7.078,2.235
					c1.255,2.345,0.122,5.146-2.53,6.256c-2.652,1.108-5.824,0.106-7.079-2.236S282.444,125.843,285.097,124.734z"/>
			</g>
			<g>
				<path fill="none" stroke="#000202" stroke-width="1.4173" stroke-miterlimit="22.9256" d="M289.45,132.904
					c2.444-1.022,3.488-3.604,2.332-5.764c-1.157-2.161-4.078-3.084-6.523-2.062s-3.49,3.604-2.333,5.764
					S287.004,133.926,289.45,132.904"/>
			</g>
			<g>
				<path fill="#CACACD" d="M285.56,125.639L285.56,125.639c-2.094,0.876-2.989,3.088-1.999,4.938
					c0.991,1.851,3.495,2.642,5.589,1.766c2.095-0.875,2.989-3.088,1.998-4.938C290.157,125.555,287.654,124.763,285.56,125.639
					L285.56,125.639L285.56,125.639z M285.308,125.192c2.374-0.992,5.211-0.096,6.334,2.001c1.123,2.098,0.109,4.604-2.265,5.598
					c-2.373,0.992-5.21,0.096-6.333-2.002C281.921,128.692,282.935,126.185,285.308,125.192z"/>
				<path fill="none" stroke="#000202" stroke-width="1.4173" stroke-miterlimit="22.9256" d="M285.56,125.639L285.56,125.639
					c-2.094,0.876-2.989,3.088-1.999,4.938c0.991,1.851,3.495,2.642,5.589,1.766c2.095-0.875,2.989-3.088,1.998-4.938
					C290.157,125.555,287.654,124.763,285.56,125.639 M285.308,125.192c2.374-0.992,5.211-0.096,6.334,2.001
					c1.123,2.098,0.109,4.604-2.265,5.598c-2.373,0.992-5.21,0.096-6.333-2.002C281.921,128.692,282.935,126.185,285.308,125.192z"
					/>
			</g>
			<g>
				<path fill="none" stroke="#000202" stroke-width="1.4173" stroke-miterlimit="22.9256" d="M289.45,132.904
					c2.444-1.022,3.488-3.604,2.332-5.764c-1.157-2.161-4.078-3.084-6.523-2.062s-3.49,3.604-2.333,5.764
					S287.004,133.926,289.45,132.904"/>
			</g>
			<g>
				<path fill="#BEBFC2" d="M285.799,126.086L285.799,126.086c-1.814,0.759-2.591,2.676-1.732,4.279
					c0.859,1.604,3.029,2.29,4.845,1.53c1.813-0.76,2.59-2.677,1.73-4.279C289.783,126.013,287.614,125.328,285.799,126.086
					L285.799,126.086L285.799,126.086z M285.548,125.639c2.094-0.876,4.598-0.084,5.589,1.766c0.991,1.851,0.096,4.063-1.999,4.938
					c-2.093,0.875-4.597,0.085-5.588-1.766C282.559,128.727,283.454,126.515,285.548,125.639z"/>
				<path fill="none" stroke="#000202" stroke-width="1.4173" stroke-miterlimit="22.9256" d="M285.799,126.086L285.799,126.086
					c-1.814,0.759-2.591,2.676-1.732,4.279c0.859,1.604,3.029,2.29,4.845,1.53c1.813-0.76,2.59-2.677,1.73-4.279
					C289.783,126.013,287.614,125.328,285.799,126.086 M285.548,125.639c2.094-0.876,4.598-0.084,5.589,1.766
					c0.991,1.851,0.096,4.063-1.999,4.938c-2.093,0.875-4.597,0.085-5.588-1.766C282.559,128.727,283.454,126.515,285.548,125.639z"
					/>
			</g>
			<g>
				<path fill="none" stroke="#000202" stroke-width="1.4173" stroke-miterlimit="22.9256" d="M289.45,132.904
					c2.444-1.022,3.488-3.604,2.332-5.764c-1.157-2.161-4.078-3.084-6.523-2.062s-3.49,3.604-2.333,5.764
					S287.004,133.926,289.45,132.904"/>
			</g>
			<g>
				<path fill="#B1B2B3" d="M286.039,126.533L286.039,126.533c-1.536,0.643-2.192,2.265-1.465,3.622
					c0.727,1.355,2.563,1.937,4.099,1.295c1.535-0.643,2.191-2.265,1.465-3.622C289.41,126.471,287.574,125.891,286.039,126.533
					L286.039,126.533L286.039,126.533z M285.787,126.086c1.813-0.759,3.983-0.072,4.843,1.529c0.858,1.604,0.083,3.521-1.732,4.28
					c-1.813,0.759-3.983,0.072-4.843-1.53C283.197,128.761,283.973,126.844,285.787,126.086z"/>
				<path fill="none" stroke="#000202" stroke-width="1.4173" stroke-miterlimit="22.9256" d="M286.039,126.533L286.039,126.533
					c-1.536,0.643-2.192,2.265-1.465,3.622c0.727,1.355,2.563,1.937,4.099,1.295c1.535-0.643,2.191-2.265,1.465-3.622
					C289.41,126.471,287.574,125.891,286.039,126.533 M285.787,126.086c1.813-0.759,3.983-0.072,4.843,1.529
					c0.858,1.604,0.083,3.521-1.732,4.28c-1.813,0.759-3.983,0.072-4.843-1.53C283.197,128.761,283.973,126.844,285.787,126.086z"/>
			</g>
			<g>
				<path fill="none" stroke="#000202" stroke-width="1.4173" stroke-miterlimit="22.9256" d="M289.45,132.904
					c2.444-1.022,3.488-3.604,2.332-5.764c-1.157-2.161-4.078-3.084-6.523-2.062s-3.49,3.604-2.333,5.764
					S287.004,133.926,289.45,132.904"/>
			</g>
			<g>
				<path fill="#A3A5A8" d="M286.278,126.98L286.278,126.98c-1.257,0.524-1.793,1.854-1.198,2.963s2.097,1.585,3.354,1.06
					c1.256-0.524,1.792-1.853,1.198-2.963C289.036,126.929,287.534,126.455,286.278,126.98L286.278,126.98L286.278,126.98z
					 M286.04,126.558c1.536-0.644,3.372-0.063,4.098,1.294c0.727,1.356,0.07,2.979-1.465,3.621s-3.372,0.063-4.098-1.295
					C283.848,128.822,284.504,127.2,286.04,126.558z"/>
				<path fill="none" stroke="#000202" stroke-width="1.4173" stroke-miterlimit="22.9256" d="M286.278,126.98L286.278,126.98
					c-1.257,0.524-1.793,1.854-1.198,2.963s2.097,1.585,3.354,1.06c1.256-0.524,1.792-1.853,1.198-2.963
					C289.036,126.929,287.534,126.455,286.278,126.98 M286.04,126.558c1.536-0.644,3.372-0.063,4.098,1.294
					c0.727,1.356,0.07,2.979-1.465,3.621s-3.372,0.063-4.098-1.295C283.848,128.822,284.504,127.2,286.04,126.558z"/>
			</g>
			<g>
				<path fill="none" stroke="#000202" stroke-width="1.4173" stroke-miterlimit="22.9256" d="M289.45,132.904
					c2.444-1.022,3.488-3.604,2.332-5.764c-1.157-2.161-4.078-3.084-6.523-2.062s-3.49,3.604-2.333,5.764
					S287.004,133.926,289.45,132.904"/>
			</g>
			<g>
				<path fill="#999A9D" d="M286.518,127.427L286.518,127.427c-0.978,0.408-1.395,1.44-0.933,2.305
					c0.462,0.863,1.631,1.232,2.607,0.824c0.978-0.408,1.396-1.44,0.933-2.306C288.663,127.388,287.494,127.018,286.518,127.427
					L286.518,127.427L286.518,127.427z M286.266,126.98c1.257-0.525,2.758-0.051,3.354,1.06c0.595,1.111,0.058,2.438-1.199,2.963
					c-1.257,0.525-2.759,0.052-3.354-1.06C284.473,128.832,285.009,127.505,286.266,126.98z"/>
				<path fill="none" stroke="#000202" stroke-width="1.4173" stroke-miterlimit="22.9256" d="M286.518,127.427L286.518,127.427
					c-0.978,0.408-1.395,1.44-0.933,2.305c0.462,0.863,1.631,1.232,2.607,0.824c0.978-0.408,1.396-1.44,0.933-2.306
					C288.663,127.388,287.494,127.018,286.518,127.427 M286.266,126.98c1.257-0.525,2.758-0.051,3.354,1.06
					c0.595,1.111,0.058,2.438-1.199,2.963c-1.257,0.525-2.759,0.052-3.354-1.06C284.473,128.832,285.009,127.505,286.266,126.98z"/>
			</g>
			<g>
				<path fill="none" stroke="#000202" stroke-width="1.4173" stroke-miterlimit="22.9256" d="M289.45,132.904
					c2.444-1.022,3.488-3.604,2.332-5.764c-1.157-2.161-4.078-3.084-6.523-2.062s-3.49,3.604-2.333,5.764
					S287.004,133.926,289.45,132.904"/>
			</g>
			<g>
				<path fill="#8B8D90" d="M286.757,127.874L286.757,127.874c-0.698,0.292-0.997,1.03-0.666,1.646
					c0.33,0.617,1.165,0.88,1.863,0.589c0.697-0.292,0.996-1.029,0.666-1.646C288.289,127.846,287.455,127.583,286.757,127.874
					L286.757,127.874L286.757,127.874z M286.505,127.427c0.977-0.408,2.145-0.039,2.607,0.823c0.463,0.864,0.046,1.896-0.933,2.306
					c-0.977,0.407-2.145,0.039-2.607-0.824S285.528,127.835,286.505,127.427z"/>
				<path fill="none" stroke="#000202" stroke-width="1.4173" stroke-miterlimit="22.9256" d="M286.757,127.874L286.757,127.874
					c-0.698,0.292-0.997,1.03-0.666,1.646c0.33,0.617,1.165,0.88,1.863,0.589c0.697-0.292,0.996-1.029,0.666-1.646
					C288.289,127.846,287.455,127.583,286.757,127.874 M286.505,127.427c0.977-0.408,2.145-0.039,2.607,0.823
					c0.463,0.864,0.046,1.896-0.933,2.306c-0.977,0.407-2.145,0.039-2.607-0.824S285.528,127.835,286.505,127.427z"/>
			</g>
			<g>
				<path fill="none" stroke="#000202" stroke-width="1.4173" stroke-miterlimit="22.9256" d="M289.45,132.904
					c2.444-1.022,3.488-3.604,2.332-5.764c-1.157-2.161-4.078-3.084-6.523-2.062s-3.49,3.604-2.333,5.764
					S287.004,133.926,289.45,132.904"/>
			</g>
			<g>
				<path fill="#7F8283" d="M286.996,128.321L286.996,128.321c-0.419,0.175-0.599,0.617-0.4,0.987
					c0.199,0.369,0.699,0.527,1.118,0.354c0.418-0.175,0.598-0.617,0.398-0.988C287.916,128.304,287.414,128.146,286.996,128.321
					L286.996,128.321L286.996,128.321z M286.745,127.875c0.697-0.293,1.532-0.027,1.862,0.588c0.331,0.617,0.032,1.354-0.666,1.646
					c-0.697,0.292-1.531,0.029-1.862-0.588C285.749,128.903,286.047,128.166,286.745,127.875z"/>
				<path fill="none" stroke="#000202" stroke-width="1.4173" stroke-miterlimit="22.9256" d="M286.996,128.321L286.996,128.321
					c-0.419,0.175-0.599,0.617-0.4,0.987c0.199,0.369,0.699,0.527,1.118,0.354c0.418-0.175,0.598-0.617,0.398-0.988
					C287.916,128.304,287.414,128.146,286.996,128.321 M286.745,127.875c0.697-0.293,1.532-0.027,1.862,0.588
					c0.331,0.617,0.032,1.354-0.666,1.646c-0.697,0.292-1.531,0.029-1.862-0.588C285.749,128.903,286.047,128.166,286.745,127.875z"
					/>
			</g>
			<g>
				<path fill="none" stroke="#000202" stroke-width="1.4173" stroke-miterlimit="22.9256" d="M289.45,132.904
					c2.444-1.022,3.488-3.604,2.332-5.764c-1.157-2.161-4.078-3.084-6.523-2.062s-3.49,3.604-2.333,5.764
					S287.004,133.926,289.45,132.904"/>
			</g>
			<g>
				<path fill="#747578" d="M287.236,128.768L287.236,128.768c-0.14,0.059-0.198,0.205-0.133,0.329
					c0.066,0.122,0.232,0.176,0.373,0.117c0.139-0.059,0.2-0.206,0.133-0.33C287.542,128.761,287.375,128.709,287.236,128.768
					L287.236,128.768L287.236,128.768z M287.012,128.309c0.418-0.176,0.919-0.018,1.117,0.354c0.198,0.37,0.019,0.813-0.399,0.987
					c-0.419,0.175-0.919,0.017-1.118-0.354C286.414,128.927,286.593,128.485,287.012,128.309z"/>
				<path fill="none" stroke="#000202" stroke-width="1.4173" stroke-miterlimit="22.9256" d="M287.236,128.768L287.236,128.768
					c-0.14,0.059-0.198,0.205-0.133,0.329c0.066,0.122,0.232,0.176,0.373,0.117c0.139-0.059,0.2-0.206,0.133-0.33
					C287.542,128.761,287.375,128.709,287.236,128.768 M287.012,128.309c0.418-0.176,0.919-0.018,1.117,0.354
					c0.198,0.37,0.019,0.813-0.399,0.987c-0.419,0.175-0.919,0.017-1.118-0.354C286.414,128.927,286.593,128.485,287.012,128.309z"
					/>
			</g>
			<g>
				<path fill="none" stroke="#000202" stroke-width="1.4173" stroke-miterlimit="22.9256" d="M289.45,132.904
					c2.444-1.022,3.488-3.604,2.332-5.764c-1.157-2.161-4.078-3.084-6.523-2.062s-3.49,3.604-2.333,5.764
					S287.004,133.926,289.45,132.904"/>
			</g>
			<path fill="#67686A" stroke="#000202" stroke-width="1.4173" stroke-miterlimit="22.9256" d="M287.251,128.756
				c0.139-0.059,0.307-0.006,0.373,0.117c0.065,0.124,0.006,0.271-0.133,0.329c-0.141,0.059-0.308,0.006-0.373-0.117
				C287.052,128.962,287.112,128.815,287.251,128.756z"/>
		</g>
		<path fill="none" stroke="#000202" stroke-width="1.4173" stroke-miterlimit="22.9256" d="M285.259,125.08
			c2.445-1.022,5.366-0.101,6.523,2.062c1.156,2.161,0.112,4.74-2.332,5.764c-2.445,1.022-5.366,0.1-6.523-2.062
			S282.813,126.102,285.259,125.08z"/>
		<g>
			<g>
				<polyline fill="none" stroke="#000202" stroke-width="1.4173" stroke-miterlimit="22.9256" points="282.046,131.209 
					277.811,134.933 279.714,136.623 283.949,132.9 282.046,131.209 				"/>
			</g>
			<path fill="#000202" stroke="#000202" stroke-width="1.4173" stroke-miterlimit="22.9256" d="M282.468,131.459l-0.332-0.322
				l-4.5,3.623L282.468,131.459z"/>
			<g>
				<polyline fill="none" stroke="#000202" stroke-width="1.4173" stroke-miterlimit="22.9256" points="282.046,131.209 
					277.811,134.933 279.714,136.623 283.949,132.9 282.046,131.209 				"/>
			</g>
			<path fill="#464748" stroke="#000202" stroke-width="1.4173" stroke-miterlimit="22.9256" d="M282.801,131.782l-0.333-0.322
				l-4.5,3.623L282.801,131.782z"/>
			<g>
				<polyline fill="none" stroke="#000202" stroke-width="1.4173" stroke-miterlimit="22.9256" points="282.046,131.209 
					277.811,134.933 279.714,136.623 283.949,132.9 282.046,131.209 				"/>
			</g>
			<path fill="#6B6D6F" stroke="#000202" stroke-width="1.4173" stroke-miterlimit="22.9256" d="M283.132,132.104l-0.332-0.322
				l-4.501,3.623L283.132,132.104z"/>
			<g>
				<polyline fill="none" stroke="#000202" stroke-width="1.4173" stroke-miterlimit="22.9256" points="282.046,131.209 
					277.811,134.933 279.714,136.623 283.949,132.9 282.046,131.209 				"/>
			</g>
			<path fill="#8B8D90" stroke="#000202" stroke-width="1.4173" stroke-miterlimit="22.9256" d="M283.464,132.426l-0.332-0.321
				l-4.501,3.622L283.464,132.426z"/>
			<g>
				<polyline fill="none" stroke="#000202" stroke-width="1.4173" stroke-miterlimit="22.9256" points="282.046,131.209 
					277.811,134.933 279.714,136.623 283.949,132.9 282.046,131.209 				"/>
			</g>
			<path fill="#ADAFB2" stroke="#000202" stroke-width="1.4173" stroke-miterlimit="22.9256" d="M283.796,132.749l-0.332-0.322
				l-4.501,3.622L283.796,132.749z"/>
			<g>
				<polyline fill="none" stroke="#000202" stroke-width="1.4173" stroke-miterlimit="22.9256" points="282.046,131.209 
					277.811,134.933 279.714,136.623 283.949,132.9 282.046,131.209 				"/>
			</g>
			<path fill="#CED0D1" stroke="#000202" stroke-width="1.4173" stroke-miterlimit="22.9256" d="M284.128,133.071l-0.332-0.322
				l-4.501,3.622L284.128,133.071z"/>
		</g>
		<polygon fill="none" stroke="#000202" stroke-width="1.4173" stroke-miterlimit="22.9256" points="277.813,134.934 
			282.048,131.211 283.951,132.902 279.715,136.625 		"/>
	</g>
	<path fill="#CED0D1" stroke="#000202" stroke-width="1.4173" stroke-miterlimit="22.9256" d="M210.875,77.219
		c-5.777,8.192-11.744,12.401-19.047,13.955c-7.304,1.555-11.291,0.317-15.42-2.217s-5.428-7.959-5.428-7.959l-0.583,0.48
		c0.002,0.009,0.533,3.426,3.196,6.607c2.676,3.198,9.057,6.791,17.694,5.809c7.196-0.818,12.317-4.737,15.896-8.189
		c3.586-3.461,5.402-6.72,5.407-6.729L210.875,77.219z"/>
	<g>
		<path fill="none" stroke="#000202" stroke-width="1.4173" stroke-miterlimit="22.9256" d="M210.875,77.219
			c-5.777,8.192-11.744,12.401-19.047,13.955c-7.304,1.555-11.291,0.317-15.42-2.217s-5.428-7.959-5.428-7.959l-0.583,0.48
			c0.002,0.009,0.533,3.426,3.196,6.607c2.676,3.198,9.057,6.791,17.694,5.809c7.196-0.818,12.317-4.737,15.896-8.189
			c3.586-3.461,5.402-6.72,5.407-6.729L210.875,77.219"/>
	</g>
	<path fill="#000202" stroke="#000202" stroke-width="1.4173" stroke-miterlimit="22.9256" d="M167.904,80.063
		c0.001,0.009,0.56,3.427,3.379,6.61c2.831,3.198,7.982,6.188,17.122,5.206c7.616-0.817,13.328-4.526,17.114-7.979
		c3.795-3.46,5.715-6.719,5.72-6.729l-0.771-0.17c0,0-0.472,0.8-1.409,2.024c-3.97,5.188-11.042,11.304-20.783,12.349
		c-11.045,1.187-16.725-3.674-18.94-9.324c-0.478-1.216-0.612-2.046-0.612-2.046L167.904,80.063z"/>
	<path fill="none" stroke="#000202" stroke-width="1.4173" stroke-linejoin="round" stroke-miterlimit="22.9256" d="M210.592,77.219
		c-5.777,8.192-11.744,12.401-19.047,13.955c-7.304,1.555-11.291,0.317-15.42-2.217c-4.128-2.534-6.37-7.365-6.37-7.365
		l-0.685,0.432c0.001,0.009,1.576,2.881,4.239,6.063c2.676,3.198,9.059,6.791,17.694,5.809c7.197-0.818,12.317-4.737,15.896-8.189
		c3.587-3.461,5.402-6.72,5.407-6.729L210.592,77.219z"/>
	<path fill="#CED0D1" stroke="#000202" stroke-width="1.4173" stroke-miterlimit="22.9256" d="M207.226,87.93l-2.181-0.991
		c13.991-19.487,12.964-27.962,12.571-29.029c-0.394-1.068-4.645-5.233-4.645-5.233l-0.442-2.096c0,0,4.437,3.634,5.367,4.798
		c0.933,1.164,1.938,1.955,1.678,3.846c-0.261,1.89,0.103,8.931-7.852,21.891C209.716,84.385,208.165,86.717,207.226,87.93z"/>
	<path fill="none" stroke="#000202" stroke-width="1.4173" stroke-linejoin="round" stroke-miterlimit="22.9256" d="M206.529,88.292
		l-1.792-0.907c13.991-19.486,13.271-28.406,12.879-29.475c-0.612-0.994-2.673-3.229-2.673-3.229l-0.98-2.909
		c0,0,3.003,2.443,3.935,3.607c0.933,1.164,1.938,1.955,1.678,3.846c-0.261,1.89,0.103,8.931-7.852,21.891
		C209.519,84.401,207.468,87.079,206.529,88.292z"/>
	<path fill="#FFFFFF" stroke="#000202" stroke-width="1.4173" stroke-miterlimit="22.9256" d="M218.131,59.26
		c0,0,0.646,3.063-0.563,6.461c-1.209,3.397-3.356,7.797-3.356,7.797s2.991-7.659,3.51-9.829
		C218.024,62.424,218.131,59.26,218.131,59.26z"/>
	<path fill="none" stroke="#000202" stroke-width="1.4173" stroke-linejoin="round" stroke-miterlimit="22.9256" d="M211.184,49.588
		c-0.481-0.821,2.768,0.909,2.768,0.909s0.196,4.146-0.757,2.521L211.184,49.588z"/>
	<path fill="#BABCBE" stroke="#000202" stroke-width="1.4173" stroke-miterlimit="22.9256" d="M213.809,76.978l-2.355,4.447
		c0,0-1.073-1.5-2.719-0.043l2.493-4.173C211.228,77.21,212.307,75.871,213.809,76.978z"/>
	<path fill="none" stroke="#000202" stroke-width="1.4173" stroke-linejoin="round" stroke-miterlimit="22.9256" d="M213.518,76.721
		l-2.355,4.447c0,0-1.073-1.501-2.719-0.043l2.493-4.173C210.936,76.952,212.016,75.613,213.518,76.721z"/>
	<path fill="#CED0D1" stroke="#000202" stroke-width="1.4173" stroke-miterlimit="22.9256" d="M161.659,54.727
		c0.75-1.36-4.396,1.805-5.845,4.349c-1.79,3.144,2.769,14.701,16.954,31.092l1.602-1.77
		c-14.187-16.393-18.712-26.183-16.534-29.129c0.859-1.164,2.085-1.394,2.587-2.303L161.659,54.727z"/>
	<path fill="none" stroke="#000202" stroke-width="1.4173" stroke-linejoin="round" stroke-miterlimit="22.9256" d="M161.777,54.534
		c0.847-1.191-4.397,1.794-5.962,4.541c-1.79,3.144,3.595,14.794,17.78,31.186l1.287-1.741
		c-14.187-16.393-19.224-26.304-17.046-29.25c0.617-0.835,1.438-1.21,1.921-1.89L161.777,54.534z"/>
	<path fill="#BABCBE" stroke="#000202" stroke-width="1.4173" stroke-miterlimit="22.9256" d="M171.798,84.539
		c-3.021-0.89-3.326,0.04-3.326,0.04l-2.745-3.173c0,0-0.226-2.137,2.99-0.857L171.798,84.539z"/>
	<path fill="none" stroke="#000202" stroke-width="1.4173" stroke-linejoin="round" stroke-miterlimit="22.9256" d="M171.807,84.894
		c-2.979-0.996-3.327-0.305-3.327-0.305l-2.295-3.485c0,0-0.711-1.915,2.444-0.522L171.807,84.894z"/>
	<path fill="#FFFFFF" stroke="#000202" stroke-width="1.4173" stroke-miterlimit="22.9256" d="M197.566,99.219
		c0,0-1.952,2.67-6.271,3.641c0,0,0.059-0.497,1.937-1.213c1.879-0.717,2.546-1.503,2.882-1.777
		C196.449,99.594,197.566,99.219,197.566,99.219z"/>
	<path fill="#FFFFFF" stroke="#000202" stroke-width="1.4173" stroke-miterlimit="22.9256" d="M220.559,148.016
		c0,0-1.822,1.021-4.688,0.327c-1.597-0.385-3.337-1.343-3.337-1.343s2.412,0.784,4.025,0.98
		C218.104,148.169,220.559,148.016,220.559,148.016z"/>
</g>
</svg>
