<?xml version="1.0" encoding="UTF-8"?>
<!DOCTYPE svg PUBLIC "-//W3C//DTD SVG 1.1//EN" "http://www.w3.org/Graphics/SVG/1.1/DTD/svg11.dtd">
<!-- Creator: CorelDRAW -->
<svg xmlns="http://www.w3.org/2000/svg" xml:space="preserve" width="2.54mm" height="4.9106mm" style="shape-rendering:geometricPrecision; text-rendering:geometricPrecision; image-rendering:optimizeQuality; fill-rule:evenodd; clip-rule:evenodd"
viewBox="0 0 2.54 4.9106"
 xmlns:xlink="http://www.w3.org/1999/xlink">
 <defs>
  <style type="text/css">
   <![CDATA[
    .fil0 {fill:red;fill-rule:nonzero}
   ]]>
  </style>
 </defs>
 <g id="Capa_x0020_1">
  <metadata id="CorelCorpID_0Corel-Layer"/>
  <path fill="RED" d="M1.2112 2.7169c0,0.0048 -0.0009,0.0087 -0.0026,0.012 -0.0017,0.0031 -0.0057,0.0057 -0.0122,0.0078 -0.0063,0.0022 -0.0156,0.0037 -0.028,0.0046 -0.0122,0.0009 -0.029,0.0013 -0.0503,0.0013 -0.0178,0 -0.0322,-0.0004 -0.0426,-0.0013 -0.0107,-0.0009 -0.0192,-0.0026 -0.0253,-0.0048 -0.0061,-0.0024 -0.0104,-0.0054 -0.013,-0.0089 -0.0026,-0.0037 -0.0048,-0.008 -0.0066,-0.013l-0.0737 -0.1843c-0.0089,-0.0209 -0.0176,-0.0394 -0.0261,-0.0555 -0.0087,-0.0161 -0.0181,-0.0296 -0.0285,-0.0405 -0.0104,-0.0108 -0.0224,-0.0189 -0.0359,-0.0245 -0.0137,-0.0055 -0.0294,-0.0083 -0.0472,-0.0083l-0.0522 0 0 0.3144c0,0.0041 -0.0015,0.008 -0.0042,0.0113 -0.0028,0.0035 -0.0074,0.0063 -0.0137,0.0082 -0.0065,0.0022 -0.015,0.004 -0.0256,0.0053 -0.0105,0.0013 -0.0242,0.0019 -0.0407,0.0019 -0.0161,0 -0.0296,-0.0006 -0.0405,-0.0019 -0.0109,-0.0013 -0.0196,-0.0031 -0.0259,-0.0053 -0.0063,-0.0019 -0.0108,-0.0047 -0.0132,-0.0082 -0.0026,-0.0033 -0.004,-0.0072 -0.004,-0.0113l0 -0.7491c0,-0.0187 0.0048,-0.0322 0.0144,-0.0404 0.0096,-0.0083 0.0213,-0.0124 0.0355,-0.0124l0.2134 0c0.0217,0 0.0396,0.0004 0.0535,0.0013 0.0141,0.0008 0.0268,0.0019 0.0383,0.003 0.0331,0.0048 0.0629,0.0129 0.0896,0.0244 0.0266,0.0115 0.049,0.0263 0.0675,0.0448 0.0185,0.0185 0.0326,0.0405 0.0424,0.0657 0.0098,0.0252 0.0146,0.0544 0.0146,0.087 0,0.0276 -0.0035,0.0529 -0.0105,0.0755 -0.0069,0.0229 -0.0174,0.0431 -0.0309,0.0609 -0.0137,0.0179 -0.0304,0.0333 -0.0504,0.0466 -0.0198,0.013 -0.0427,0.0237 -0.0681,0.0317 0.0124,0.0061 0.0239,0.0133 0.0348,0.0218 0.0106,0.0085 0.0209,0.0187 0.0304,0.0309 0.0096,0.0122 0.0187,0.0259 0.0272,0.0413 0.0085,0.0157 0.0168,0.0331 0.0248,0.0527l0.0694 0.1625c0.0065,0.0161 0.0107,0.028 0.0129,0.0354 0.0021,0.0074 0.0032,0.0133 0.0032,0.0174zm-0.2162 -0.5595c0,-0.0272 -0.0061,-0.05 -0.0185,-0.0687 -0.0122,-0.0187 -0.0324,-0.032 -0.0605,-0.0396 -0.0085,-0.0022 -0.0181,-0.0039 -0.0289,-0.005 -0.0109,-0.0013 -0.0259,-0.002 -0.0451,-0.002l-0.075 0 0 0.2339 0.0853 0c0.0239,0 0.0446,-0.0029 0.0624,-0.0087 0.0178,-0.0057 0.0328,-0.0137 0.0446,-0.0242 0.012,-0.0104 0.0209,-0.0228 0.0268,-0.0372 0.006,-0.0146 0.0089,-0.0307 0.0089,-0.0485zm0.9511 0.5595c0,0.0048 -0.0009,0.0087 -0.0026,0.012 -0.0017,0.0031 -0.0057,0.0057 -0.0122,0.0078 -0.0063,0.0022 -0.0156,0.0037 -0.028,0.0046 -0.0122,0.0009 -0.029,0.0013 -0.0503,0.0013 -0.0178,0 -0.0322,-0.0004 -0.0426,-0.0013 -0.0107,-0.0009 -0.0192,-0.0026 -0.0253,-0.0048 -0.0061,-0.0024 -0.0104,-0.0054 -0.013,-0.0089 -0.0026,-0.0037 -0.0048,-0.008 -0.0066,-0.013l-0.0737 -0.1843c-0.0089,-0.0209 -0.0176,-0.0394 -0.0261,-0.0555 -0.0087,-0.0161 -0.0181,-0.0296 -0.0285,-0.0405 -0.0104,-0.0108 -0.0224,-0.0189 -0.0359,-0.0245 -0.0137,-0.0055 -0.0294,-0.0083 -0.0472,-0.0083l-0.0522 0 0 0.3144c0,0.0041 -0.0015,0.008 -0.0042,0.0113 -0.0028,0.0035 -0.0074,0.0063 -0.0137,0.0082 -0.0065,0.0022 -0.015,0.004 -0.0256,0.0053 -0.0105,0.0013 -0.0242,0.0019 -0.0407,0.0019 -0.0161,0 -0.0296,-0.0006 -0.0405,-0.0019 -0.0109,-0.0013 -0.0196,-0.0031 -0.0259,-0.0053 -0.0063,-0.0019 -0.0108,-0.0047 -0.0132,-0.0082 -0.0026,-0.0033 -0.004,-0.0072 -0.004,-0.0113l0 -0.7491c0,-0.0187 0.0048,-0.0322 0.0144,-0.0404 0.0096,-0.0083 0.0213,-0.0124 0.0355,-0.0124l0.2134 0c0.0217,0 0.0396,0.0004 0.0535,0.0013 0.0141,0.0008 0.0268,0.0019 0.0383,0.003 0.0331,0.0048 0.0629,0.0129 0.0896,0.0244 0.0266,0.0115 0.049,0.0263 0.0675,0.0448 0.0185,0.0185 0.0326,0.0405 0.0424,0.0657 0.0098,0.0252 0.0146,0.0544 0.0146,0.087 0,0.0276 -0.0035,0.0529 -0.0105,0.0755 -0.0069,0.0229 -0.0174,0.0431 -0.0309,0.0609 -0.0137,0.0179 -0.0304,0.0333 -0.0504,0.0466 -0.0198,0.013 -0.0427,0.0237 -0.0681,0.0317 0.0124,0.0061 0.0239,0.0133 0.0348,0.0218 0.0106,0.0085 0.0209,0.0187 0.0304,0.0309 0.0096,0.0122 0.0187,0.0259 0.0272,0.0413 0.0085,0.0157 0.0168,0.0331 0.0248,0.0527l0.0694 0.1625c0.0065,0.0161 0.0107,0.028 0.0129,0.0354 0.0021,0.0074 0.0032,0.0133 0.0032,0.0174zm-0.2162 -0.5595c0,-0.0272 -0.0061,-0.05 -0.0185,-0.0687 -0.0122,-0.0187 -0.0324,-0.032 -0.0605,-0.0396 -0.0085,-0.0022 -0.0181,-0.0039 -0.0289,-0.005 -0.0109,-0.0013 -0.0259,-0.002 -0.0451,-0.002l-0.075 0 0 0.2339 0.0853 0c0.0239,0 0.0446,-0.0029 0.0624,-0.0087 0.0178,-0.0057 0.0328,-0.0137 0.0446,-0.0242 0.012,-0.0104 0.0209,-0.0228 0.0268,-0.0372 0.006,-0.0146 0.0089,-0.0307 0.0089,-0.0485z"/>
 </g>
</svg>
