<?xml version="1.0" encoding="UTF-8"?>
<!DOCTYPE svg PUBLIC "-//W3C//DTD SVG 1.1//EN" "http://www.w3.org/Graphics/SVG/1.1/DTD/svg11.dtd">
<!-- Creator: CorelDRAW -->
<svg xmlns="http://www.w3.org/2000/svg" xml:space="preserve" width="2.54mm" height="4.9106mm" style="shape-rendering:geometricPrecision; text-rendering:geometricPrecision; image-rendering:optimizeQuality; fill-rule:evenodd; clip-rule:evenodd"
viewBox="0 0 2.54 4.9106"
 xmlns:xlink="http://www.w3.org/1999/xlink">
 <defs>
  <style type="text/css">
   <![CDATA[
    .fil0 {fill:#373435}
    .fil1 {fill:blue}
   ]]>
  </style>
 </defs>
 <g id="Capa_x0020_1">
  <metadata id="CorelCorpID_0Corel-Layer"/>
  <polygon fill="blue" points="1.1004,2.68 1.7782,2.0082 1.6891,1.9042 1.0113,2.5759 "/>
  <polygon fill="blue" points="1.1004,2.5454 1.7782,3.2172 1.6891,3.3212 1.0113,2.6495 "/>
  <polygon fill="blue" points="0.6099,4.1293 1.2225,4.8071 1.3173,4.718 0.7048,4.0402 "/>
  <polygon fill="blue" points="1.1004,1.2884 1.7782,1.9602 1.6891,2.0642 1.0113,1.3925 "/>
  <polygon fill="blue" points="1.27,3.81 1.7782,3.2652 1.6891,3.1612 1.1809,3.7059 "/>
  <polygon fill="blue" points="1.8789,4.1293 1.2663,4.8071 1.1715,4.718 1.784,4.0402 "/>
  <polygon fill="blue" points="1.1004,1.4423 1.7782,0.7706 1.6891,0.6666 1.0113,1.3382 "/>
  <polygon fill="blue" points="1.1004,0.0803 1.7782,0.752 1.6891,0.856 1.0113,0.1844 "/>
  <polygon fill="blue" points="1.3064,4.5832 1.3123,3.6696 1.1822,3.6713 1.1763,4.5848 "/>
 </g>
</svg>
