<?xml version="1.0" encoding="UTF-8"?>
<!DOCTYPE svg PUBLIC "-//W3C//DTD SVG 1.1//EN" "http://www.w3.org/Graphics/SVG/1.1/DTD/svg11.dtd">
<!-- Creator: CorelDRAW -->
<svg xmlns="http://www.w3.org/2000/svg" xml:space="preserve" width="2.54mm" height="4.9106mm" style="shape-rendering:geometricPrecision; text-rendering:geometricPrecision; image-rendering:optimizeQuality; fill-rule:evenodd; clip-rule:evenodd"
viewBox="0 0 2.54 4.9106"
 xmlns:xlink="http://www.w3.org/1999/xlink">
 <defs>
  <style type="text/css">
   <![CDATA[
    .fil0 {fill:#373435}
   ]]>
  </style>
 </defs>
 <g id="Capa_x0020_1">
  <metadata id="CorelCorpID_0Corel-Layer"/>
  <path fill="blue" d="M0.446 0.3774l0.119 -0.0438c0.0438,-0.0161 0.0932,0.0077 0.1098,0.0529l1.4683 3.9869c0.0167,0.0452 -0.0055,0.0954 -0.0492,0.1115l-0.1191 0.0439c-0.0437,0.0161 -0.0931,-0.0078 -0.1097,-0.053l-1.4683 -3.9869c-0.0167,-0.0452 0.0054,-0.0954 0.0492,-0.1115z"/>
  <path fill="blue" d="M2.094 0.3774l-0.119 -0.0438c-0.0438,-0.0161 -0.0932,0.0077 -0.1098,0.0529l-1.4683 3.9869c-0.0167,0.0452 0.0055,0.0954 0.0492,0.1115l0.1191 0.0439c0.0437,0.0161 0.0931,-0.0078 0.1097,-0.053l1.4683 -3.9869c0.0167,-0.0452 -0.0054,-0.0954 -0.0492,-0.1115z"/>
 </g>
</svg>
