<?xml version="1.0" encoding="UTF-8"?>
<!DOCTYPE svg PUBLIC "-//W3C//DTD SVG 1.1//EN" "http://www.w3.org/Graphics/SVG/1.1/DTD/svg11.dtd">
<!-- Creator: CorelDRAW -->
<svg xmlns="http://www.w3.org/2000/svg" xml:space="preserve" width="2.54mm" height="4.9106mm" style="shape-rendering:geometricPrecision; text-rendering:geometricPrecision; image-rendering:optimizeQuality; fill-rule:evenodd; clip-rule:evenodd"
viewBox="0 0 2.54 4.9106"
 xmlns:xlink="http://www.w3.org/1999/xlink">
 <defs>
  <style type="text/css">
   <![CDATA[
    .fil0 {fill:#373435}
    .fil1 {fill:blue}
   ]]>
  </style>
 </defs>
 <g id="Capa_x0020_1">
  <metadata id="CorelCorpID_0Corel-Layer"/>
  <polygon fill="blue" points="1.356,2.2172 0.6782,2.889 0.7673,2.993 1.4451,2.3213 "/>
  <polygon fill="blue" points="1.356,2.3518 0.6782,1.68 0.7673,1.576 1.4451,2.2477 "/>
  <polygon fill="blue" points="1.8465,0.7679 1.2339,0.0901 1.1391,0.1792 1.7516,0.857 "/>
  <polygon fill="blue" points="1.356,3.6088 0.6782,2.937 0.7673,2.833 1.4451,3.5047 "/>
  <polygon fill="blue" points="1.1864,1.0872 0.6782,1.632 0.7673,1.736 1.2755,1.1913 "/>
  <polygon fill="blue" points="0.5775,0.7679 1.1901,0.0901 1.2849,0.1792 0.6724,0.857 "/>
  <polygon fill="blue" points="1.356,3.4549 0.6782,4.1266 0.7673,4.2306 1.4451,3.559 "/>
  <polygon fill="blue" points="1.356,4.8169 0.6782,4.1452 0.7673,4.0412 1.4451,4.7128 "/>
  <polygon fill="blue" points="1.15,0.314 1.1441,1.2276 1.2742,1.2259 1.2801,0.3124 "/>
 </g>
</svg>
