<?xml version="1.0" encoding="utf-8"?>
<!-- Generator: Adobe Illustrator 16.0.0, SVG Export Plug-In . SVG Version: 6.00 Build 0)  -->
<!DOCTYPE svg PUBLIC "-//W3C//DTD SVG 1.1//EN" "http://www.w3.org/Graphics/SVG/1.1/DTD/svg11.dtd">
<svg version="1.1" id="Capa_1" xmlns="http://www.w3.org/2000/svg" xmlns:xlink="http://www.w3.org/1999/xlink" x="0px" y="0px"
	 width="206.922px" height="86.523px" viewBox="0 3.977 206.922 86.523" enable-background="new 0 3.977 206.922 86.523"
	 xml:space="preserve">
<rect x="0" y="3.977" fill="#023881" stroke="#023881" stroke-miterlimit="10" width="206.922" height="86.523"/>
<g>
	<g>
		<path fill="#FFFFFF" d="M105.132,27.253h2.131V42.29h7.061v1.825h-9.191V27.253z"/>
		<path fill="#FFFFFF" d="M118.835,27.253v16.862h-2.133V27.253H118.835z"/>
		<path fill="#FFFFFF" d="M126.193,44.115l-5.396-16.862h2.305l2.575,8.307c0.713,2.277,1.324,4.327,1.765,6.305h0.049
			c0.469-1.952,1.155-4.079,1.89-6.281l2.793-8.33h2.281l-5.907,16.862H126.193L126.193,44.115z"/>
		<path fill="#FFFFFF" d="M144.797,36.21h-6.42v6.079h7.159v1.824h-9.293v-16.86h8.925v1.827h-6.79v5.328h6.42L144.797,36.21
			L144.797,36.21z"/>
		<path fill="#FFFFFF" d="M116.679,66.384c-0.783,0.401-2.354,0.802-4.364,0.802c-4.658,0-8.161-3.004-8.161-8.532
			c0-5.28,3.506-8.855,8.628-8.855c2.061,0,3.356,0.45,3.922,0.752l-0.517,1.774c-0.809-0.401-1.96-0.698-3.334-0.698
			c-3.87,0-6.446,2.526-6.446,6.953c0,4.129,2.327,6.779,6.35,6.779c1.301,0,2.623-0.273,3.48-0.699L116.679,66.384z"/>
		<path fill="#FFFFFF" d="M132.955,58.328c0,5.804-3.455,8.881-7.672,8.881c-4.363,0-7.429-3.451-7.429-8.556
			c0-5.355,3.262-8.856,7.672-8.856C130.037,49.796,132.955,53.325,132.955,58.328z M120.135,58.604c0,3.603,1.912,6.83,5.272,6.83
			c3.382,0,5.295-3.179,5.295-7.005c0-3.355-1.716-6.856-5.272-6.856C121.901,51.573,120.135,54.9,120.135,58.604z"/>
		<path fill="#FFFFFF" d="M135.728,50.298c1.299-0.201,2.845-0.352,4.535-0.352c3.064,0,5.247,0.727,6.692,2.103
			c1.472,1.377,2.33,3.326,2.33,6.053c0,2.752-0.836,5.003-2.379,6.555c-1.544,1.577-4.093,2.426-7.306,2.426
			c-1.519,0-2.794-0.074-3.873-0.2V50.298z M137.859,65.21c0.541,0.098,1.325,0.124,2.159,0.124c4.562,0,7.035-2.604,7.035-7.156
			c0.025-3.977-2.182-6.503-6.692-6.503c-1.104,0-1.937,0.098-2.503,0.226L137.859,65.21L137.859,65.21z"/>
		<path fill="#FFFFFF" d="M160.611,59.027h-6.423v6.08h7.159v1.828h-9.291V50.071h8.923v1.828h-6.791v5.326h6.423V59.027
			L160.611,59.027z"/>
	</g>
</g>
<path opacity="0.6" fill="#EC008C" enable-background="new    " d="M88.178,66.967h-9.229L60.806,27.897h8.491L88.178,66.967z"/>
<path fill="#F9ED32" d="M103.223,66.967h-9.229l-18.14-39.069h8.492L103.223,66.967z"/>
<path fill="#EC008C" d="M60.701,27.897h8.491L51.049,66.967h-9.228L60.701,27.897z"/>
<polygon fill="#27AAE1" points="40.285,27.918 2,43.813 2,43.904 2,50.961 2,51.052 40.285,66.948 40.285,59.178 10.846,47.432 
	40.285,35.688 "/>
<polygon fill="#27AAE1" points="165.19,35.688 194.627,47.432 165.19,59.178 165.19,66.948 203.474,51.052 203.474,50.961 
	203.474,43.904 203.474,43.813 165.19,27.918 "/>
</svg>
