<?xml version="1.0" encoding="utf-8"?>
<!-- Generator: Adobe Illustrator 16.0.0, SVG Export Plug-In . SVG Version: 6.00 Build 0)  -->
<!DOCTYPE svg PUBLIC "-//W3C//DTD SVG 1.1//EN" "http://www.w3.org/Graphics/SVG/1.1/DTD/svg11.dtd">
<svg version="1.1" id="Capa_1" xmlns="http://www.w3.org/2000/svg" xmlns:xlink="http://www.w3.org/1999/xlink" x="0px" y="0px"
	 width="172.029px" height="86.523px" viewBox="0 0 172.029 86.523" enable-background="new 0 0 172.029 86.523"
	 xml:space="preserve">
<rect x="0" y="0.001" fill="none" stroke="#023881" stroke-miterlimit="10" width="172.029" height="86.522"/>
<g>
	<g>
		<path fill="#FFFFFF" d="M88.724,26.973h1.752v12.104h5.8v1.47h-7.552V26.973z"/>
		<path fill="#FFFFFF" d="M99.983,26.973v13.574H98.23V26.973H99.983z"/>
		<path fill="#FFFFFF" d="M106.026,40.548l-4.432-13.574h1.894l2.115,6.688c0.585,1.833,1.088,3.481,1.45,5.073h0.04
			c0.384-1.569,0.948-3.282,1.552-5.056l2.295-6.706h1.873l-4.853,13.574H106.026L106.026,40.548z"/>
		<path fill="#FFFFFF" d="M121.311,34.184h-5.274v4.894h5.882v1.469h-7.634V26.973h7.331v1.472h-5.578v4.288h5.274L121.311,34.184
			L121.311,34.184z"/>
		<path fill="#FFFFFF" d="M98.211,58.474c-0.646,0.323-1.936,0.646-3.586,0.646c-3.826,0-6.705-2.419-6.705-6.868
			c0-4.25,2.881-7.128,7.089-7.128c1.692,0,2.758,0.361,3.222,0.604l-0.424,1.429c-0.664-0.322-1.61-0.563-2.739-0.563
			c-3.181,0-5.296,2.034-5.296,5.598c0,3.324,1.912,5.458,5.216,5.458c1.069,0,2.156-0.221,2.86-0.563L98.211,58.474z"/>
		<path fill="#FFFFFF" d="M111.582,51.989c0,4.674-2.839,7.149-6.304,7.149c-3.585,0-6.103-2.777-6.103-6.888
			c0-4.312,2.679-7.129,6.303-7.129C109.186,45.122,111.582,47.962,111.582,51.989z M101.05,52.212c0,2.899,1.57,5.498,4.331,5.498
			c2.778,0,4.35-2.559,4.35-5.64c0-2.699-1.409-5.52-4.33-5.52C102.5,46.552,101.05,49.23,101.05,52.212z"/>
		<path fill="#FFFFFF" d="M113.86,45.524c1.067-0.161,2.336-0.282,3.727-0.282c2.518,0,4.311,0.584,5.498,1.692
			c1.208,1.108,1.914,2.679,1.914,4.872c0,2.216-0.687,4.028-1.954,5.277c-1.27,1.269-3.363,1.953-6.001,1.953
			c-1.249,0-2.297-0.062-3.184-0.161V45.524z M115.611,57.529c0.444,0.079,1.09,0.101,1.773,0.101c3.746,0,5.779-2.096,5.779-5.762
			c0.021-3.2-1.792-5.234-5.498-5.234c-0.907,0-1.591,0.08-2.057,0.182L115.611,57.529L115.611,57.529z"/>
		<path fill="#FFFFFF" d="M134.301,52.552h-5.276v4.895h5.881v1.472h-7.633V45.343h7.331v1.471h-5.579v4.289h5.276V52.552
			L134.301,52.552z"/>
	</g>
</g>
<path opacity="0.6" fill="#EC008C" enable-background="new    " d="M74.797,58.944h-7.582L52.311,27.492h6.977L74.797,58.944z"/>
<path fill="#F9ED32" d="M87.156,58.944h-7.581L64.673,27.492h6.976L87.156,58.944z"/>
<path fill="#EC008C" d="M52.223,27.492h6.977L44.294,58.944h-7.58L52.223,27.492z"/>
<polygon fill="#27AAE1" points="35.452,27.51 4,40.303 4,40.378 4,46.058 4,46.132 35.452,58.928 35.452,52.673 11.267,43.218 
	35.452,33.763 "/>
<polygon fill="#27AAE1" points="138.063,33.763 162.246,43.218 138.063,52.673 138.063,58.928 169.514,46.132 169.514,46.058 
	169.514,40.378 169.514,40.303 138.063,27.51 "/>
</svg>
