<svg height="500" style="overflow: hidden;" aria-label="A chart." width="900"><defs id="_ABSTRACT_RENDERER_ID_0"><clipPath id="_ABSTRACT_RENDERER_ID_1"><rect x="161" y="96" width="579" height="309"></rect></clipPath><filter id="_ABSTRACT_RENDERER_ID_2"><feGaussianBlur in="SourceAlpha" stdDeviation="2"></feGaussianBlur><feOffset dx="1" dy="1"></feOffset><feComponentTransfer><feFuncA type="linear" slope="0.1"></feFuncA></feComponentTransfer><feMerge><feMergeNode></feMergeNode><feMergeNode in="SourceGraphic"></feMergeNode></feMerge></filter></defs><rect x="0" y="0" width="900" height="500" stroke="none" stroke-width="0" fill="#ffffff"></rect><g><text text-anchor="start" x="161" y="70.9" font-family="Arial" font-size="14" font-weight="bold" stroke="none" stroke-width="0" fill="#000000">Audiograma - Oido Derecho</text><rect x="161" y="59" width="579" height="14" stroke="none" stroke-width="0" fill-opacity="0" fill="#ffffff"></rect></g><g><rect x="161" y="96" width="579" height="309" stroke="none" stroke-width="0" fill-opacity="0" fill="#ffffff"></rect><g clip-path="url(http://localhost/Dropbox/saludocupacional/kaori/app_kaori/extras/audiometria.html#_ABSTRACT_RENDERER_ID_1)"><g><rect x="161" y="96" width="1" height="309" stroke="none" stroke-width="0" fill="#cccccc"></rect><rect x="197" y="96" width="1" height="309" stroke="none" stroke-width="0" fill="#cccccc"></rect><rect x="214" y="96" width="1" height="309" stroke="none" stroke-width="0" fill="#cccccc"></rect><rect x="246" y="96" width="1" height="309" stroke="none" stroke-width="0" fill="#cccccc"></rect><rect x="312" y="96" width="1" height="309" stroke="none" stroke-width="0" fill="#cccccc"></rect><rect x="378" y="96" width="1" height="309" stroke="none" stroke-width="0" fill="#cccccc"></rect><rect x="443" y="96" width="1" height="309" stroke="none" stroke-width="0" fill="#cccccc"></rect><rect x="509" y="96" width="1" height="309" stroke="none" stroke-width="0" fill="#cccccc"></rect><rect x="575" y="96" width="1" height="309" stroke="none" stroke-width="0" fill="#cccccc"></rect><rect x="640" y="96" width="1" height="309" stroke="none" stroke-width="0" fill="#cccccc"></rect><rect x="706" y="96" width="1" height="309" stroke="none" stroke-width="0" fill="#cccccc"></rect><rect x="739" y="96" width="1" height="309" stroke="none" stroke-width="0" fill="#cccccc"></rect><rect x="161" y="96" width="579" height="1" stroke="none" stroke-width="0" fill="#cccccc"></rect><rect x="161" y="147" width="579" height="1" stroke="none" stroke-width="0" fill="#cccccc"></rect><rect x="161" y="199" width="579" height="1" stroke="none" stroke-width="0" fill="#cccccc"></rect><rect x="161" y="250" width="579" height="1" stroke="none" stroke-width="0" fill="#cccccc"></rect><rect x="161" y="301" width="579" height="1" stroke="none" stroke-width="0" fill="#cccccc"></rect><rect x="161" y="353" width="579" height="1" stroke="none" stroke-width="0" fill="#cccccc"></rect><rect x="161" y="404" width="579" height="1" stroke="none" stroke-width="0" fill="#cccccc"></rect><rect x="161" y="122" width="579" height="1" stroke="none" stroke-width="0" fill="#ebebeb"></rect><rect x="161" y="173" width="579" height="1" stroke="none" stroke-width="0" fill="#ebebeb"></rect><rect x="161" y="224" width="579" height="1" stroke="none" stroke-width="0" fill="#ebebeb"></rect><rect x="161" y="276" width="579" height="1" stroke="none" stroke-width="0" fill="#ebebeb"></rect><rect x="161" y="327" width="579" height="1" stroke="none" stroke-width="0" fill="#ebebeb"></rect><rect x="161" y="378" width="579" height="1" stroke="none" stroke-width="0" fill="#ebebeb"></rect></g><g><rect x="181" y="96" width="1" height="309" stroke="none" stroke-width="0" fill="#333333"></rect><rect x="161" y="147" width="579" height="1" stroke="none" stroke-width="0" fill="#333333"></rect></g><g><path d="M197.625,199.16666666666669L214.04545454545456,212L246.88636363636365,199.16666666666669L312.56818181818187,199.16666666666669L378.25,186.33333333333334L443.93181818181824,199.16666666666669L575.2954545454546,212L706.659090909091,237.66666666666669" stroke="#a52714" stroke-width="5" fill-opacity="1" fill="none"></path></g></g><g><circle cx="197.625" cy="199.16666666666669" r="8.5" stroke="none" stroke-width="0" fill="#a52714"></circle><circle cx="214.04545454545456" cy="212" r="8.5" stroke="none" stroke-width="0" fill="#a52714"></circle><circle cx="246.88636363636365" cy="199.16666666666669" r="8.5" stroke="none" stroke-width="0" fill="#a52714"></circle><circle cx="312.56818181818187" cy="199.16666666666669" r="8.5" stroke="none" stroke-width="0" fill="#a52714"></circle><circle cx="378.25" cy="186.33333333333334" r="8.5" stroke="none" stroke-width="0" fill="#a52714"></circle><circle cx="443.93181818181824" cy="199.16666666666669" r="8.5" stroke="none" stroke-width="0" fill="#a52714"></circle><circle cx="575.2954545454546" cy="212" r="8.5" stroke="none" stroke-width="0" fill="#a52714"></circle><circle cx="706.659090909091" cy="237.66666666666669" r="8.5" stroke="none" stroke-width="0" fill="#a52714"></circle></g><g><g><text text-anchor="middle" x="161.5" y="425.9" font-family="Arial" font-size="14" stroke="none" stroke-width="0" fill="#444444">0</text></g><g><text text-anchor="middle" x="197.625" y="425.9" font-family="Arial" font-size="14" stroke="none" stroke-width="0" fill="#444444">250</text></g><g><text text-anchor="middle" x="246.88636363636365" y="425.9" font-family="Arial" font-size="14" stroke="none" stroke-width="0" fill="#444444">1k</text></g><g><text text-anchor="middle" x="312.56818181818187" y="425.9" font-family="Arial" font-size="14" stroke="none" stroke-width="0" fill="#444444">2k</text></g><g><text text-anchor="middle" x="378.25" y="425.9" font-family="Arial" font-size="14" stroke="none" stroke-width="0" fill="#444444">3k</text></g><g><text text-anchor="middle" x="443.93181818181824" y="425.9" font-family="Arial" font-size="14" stroke="none" stroke-width="0" fill="#444444">4k</text></g><g><text text-anchor="middle" x="575.2954545454546" y="425.9" font-family="Arial" font-size="14" stroke="none" stroke-width="0" fill="#444444">6k</text></g><g><text text-anchor="middle" x="706.659090909091" y="425.9" font-family="Arial" font-size="14" stroke="none" stroke-width="0" fill="#444444">8k</text></g><g><text text-anchor="end" x="147" y="101.4" font-family="Arial" font-size="14" stroke="none" stroke-width="0" fill="#444444">-20</text></g><g><text text-anchor="end" x="147" y="152.7333" font-family="Arial" font-size="14" stroke="none" stroke-width="0" fill="#444444">0</text></g><g><text text-anchor="end" x="147" y="204.0667" font-family="Arial" font-size="14" stroke="none" stroke-width="0" fill="#444444">20</text></g><g><text text-anchor="end" x="147" y="255.4" font-family="Arial" font-size="14" stroke="none" stroke-width="0" fill="#444444">40</text></g><g><text text-anchor="end" x="147" y="306.7333" font-family="Arial" font-size="14" stroke="none" stroke-width="0" fill="#444444">60</text></g><g><text text-anchor="end" x="147" y="358.06669999999997" font-family="Arial" font-size="14" stroke="none" stroke-width="0" fill="#444444">80</text></g><g><text text-anchor="end" x="147" y="409.4" font-family="Arial" font-size="14" stroke="none" stroke-width="0" fill="#444444">100</text></g></g></g><g><g><text text-anchor="middle" x="450.5" y="468.9" font-family="Arial" font-size="14" font-style="italic" stroke="none" stroke-width="0" fill="#222222">Frecuencia Hz</text><rect x="161" y="457" width="579" height="14" stroke="none" stroke-width="0" fill-opacity="0" fill="#ffffff"></rect></g><g><text text-anchor="middle" x="66.4" y="250.5" font-family="Arial" font-size="14" font-style="italic" transform="rotate(-90 66.4 250.5)" stroke="none" stroke-width="0" fill="#222222">Nivel Auditivo dB</text><path d="M54.49999999999999,405L54.50000000000001,96L68.50000000000001,96L68.49999999999999,405Z" stroke="none" stroke-width="0" fill-opacity="0" fill="#ffffff"></path></g></g><g></g></svg>